<svg width="133" height="28" viewBox="0 0 133 28" fill="none" xmlns="http://www.w3.org/2000/svg">
<g clip-path="url(#clip0_36_1038)">
<mask id="mask0_36_1038" style="mask-type:luminance" maskUnits="userSpaceOnUse" x="0" y="0" width="31" height="28">
<path d="M31 0H0V28H31V0Z" fill="white"/>
</mask>
<g mask="url(#mask0_36_1038)">
<path d="M8.21624 1.89802C11.1341 1.79128 13.0119 3.86091 13.5861 4.90907C12.1137 4.23102 10.5716 4.27546 8.90794 4.24782C7.57703 4.2257 5.37851 4.44469 4.4456 4.55695C4.65981 4.5818 5.79046 4.62782 8.59936 4.6131C11.4082 4.59838 13.1347 5.15041 13.6468 5.42827C13.5648 5.50143 13.2002 5.77038 12.3984 6.26085C11.3962 6.87397 10.4458 7.31532 7.53956 8.20853C4.63325 9.10173 2.19258 5.55067 1.04849 5.22417C-0.0955875 4.89768 -0.528902 4.58823 0.939401 4.51299C2.4077 4.43776 4.56885 2.03144 8.21624 1.89802Z" fill="black"/>
<path d="M14.2047 5.96805C14.1886 5.98021 14.172 5.98487 14.1582 5.98461L14.2047 5.96805C14.2519 5.93238 14.2952 5.83214 14.2559 5.60206C14.19 5.21644 13.9573 4.25667 14.0464 3.00771C14.1355 1.75875 14.2917 1.12385 14.3427 0.966035C14.3937 0.808231 14.6468 0.799379 14.8612 0.871833C15.0756 0.944287 15.3083 1.08068 15.4094 1.15101C15.5106 1.22133 15.6049 1.29441 15.4738 1.5608C15.3427 1.82718 14.9537 2.89456 15.024 4.0226C15.0803 4.92504 15.1236 5.37653 15.1382 5.48947L15.2327 5.60206L14.2047 5.96805Z" fill="black"/>
<path d="M14.6157 5.69266C20.4534 3.35256 27.1081 6.12601 29.4793 11.8873C31.8504 17.6486 29.0402 24.2161 23.2024 26.5562C17.3646 28.8963 10.7099 26.1229 8.33876 20.3616C5.96757 14.6002 8.77781 8.03274 14.6157 5.69266ZM16.8647 6.42022C16.6269 5.9027 16.1338 6.39453 15.8839 6.81338C15.684 7.14845 14.6208 7.42592 14.1141 7.52282C13.896 7.56845 13.0553 7.7266 13.8642 7.94169C14.6731 8.15671 15.6199 7.80169 16.059 7.60117C16.4982 7.40065 17.1025 6.93775 16.8647 6.42022Z" fill="#141514"/>
</g>
</g>
<path d="M72.5812 8.96274C72.5812 9.57142 72.3458 10.0595 71.8749 10.427C71.3925 10.7945 70.715 10.9783 69.8421 10.9783C69.0841 10.9783 68.3319 10.8462 67.5854 10.5821C66.8389 10.3064 66.1613 9.95041 65.5526 9.51399C64.944 9.07758 64.4559 8.60097 64.0884 8.08417C63.7209 7.55588 63.5371 7.04482 63.5371 6.55098C63.5371 6.01121 63.6692 5.62647 63.9333 5.39678C64.186 5.15561 64.5305 5.03502 64.9669 5.03502C65.4837 5.03502 66.0005 5.21877 66.5174 5.58628C67.0227 5.9423 67.4763 6.44762 67.8783 7.10224C68.2802 7.74537 68.5788 8.50336 68.7741 9.37618C68.8315 9.62884 68.975 9.76091 69.2047 9.7724C69.2851 9.78388 69.3713 9.78963 69.4631 9.78963C69.5435 9.78963 69.6239 9.78963 69.7043 9.78963C70.3589 9.78963 70.8528 9.68052 71.1858 9.46231C71.5189 9.23262 71.6854 8.92254 71.6854 8.53207C71.6854 8.09565 71.4844 7.67647 71.0825 7.27451C70.6805 6.86107 70.112 6.51653 69.377 6.2409C69.2736 6.20644 69.222 6.13754 69.222 6.03417C69.222 5.96527 69.2507 5.92507 69.3081 5.91359C69.3655 5.89062 69.4344 5.89062 69.5148 5.91359C70.5255 6.28109 71.2892 6.72899 71.806 7.25728C72.3228 7.77409 72.5812 8.34257 72.5812 8.96274ZM68.1194 9.60013C68.1998 9.6231 68.2687 9.61162 68.3262 9.56568C68.3721 9.50826 68.3836 9.43935 68.3606 9.35896C68.1654 8.64691 67.8725 8.04972 67.4821 7.56736C67.0801 7.08501 66.6322 6.72325 66.1384 6.48207C65.6445 6.22941 65.1622 6.10308 64.6913 6.10308C64.209 6.10308 63.9678 6.29258 63.9678 6.67157C63.9678 7.00462 64.163 7.36638 64.5535 7.75686C64.944 8.14733 65.455 8.5091 66.0867 8.84215C66.7183 9.1752 67.3959 9.42786 68.1194 9.60013Z" fill="#2E2E28"/>
<path d="M72.5806 13.486C72.5806 13.8994 72.4083 14.2095 72.0637 14.4162C71.7192 14.623 71.1852 14.6345 70.4617 14.4507L65.4659 13.1242C65.018 12.9979 64.7079 12.9807 64.5356 13.0726C64.3634 13.1529 64.2772 13.2735 64.2772 13.4343C64.2772 13.687 64.438 13.9741 64.7596 14.2957C65.0697 14.6057 65.5003 14.9331 66.0516 15.2776C66.5914 15.6106 67.2058 15.938 67.8949 16.2595C68.5724 16.5696 69.2902 16.8567 70.0482 17.1209C70.7947 17.385 71.524 17.5975 72.236 17.7583C72.3623 17.7927 72.4255 17.8731 72.4255 17.9994L72.4255 18.723C72.4255 18.8837 72.3509 18.9469 72.2016 18.9124L61.4003 16.3973C61.1936 16.3399 61.0501 16.3399 60.9697 16.3973C60.8893 16.4433 60.8433 16.5466 60.8319 16.7074L60.7802 17.2242C60.7687 17.3965 60.694 17.4711 60.5562 17.4482C60.4529 17.4252 60.3897 17.3448 60.3667 17.207C60.2978 16.7936 60.2174 16.426 60.1256 16.1045C60.0222 15.7829 59.8901 15.5245 59.7293 15.3293C59.6604 15.2374 59.626 15.1513 59.626 15.0709C59.626 14.9331 59.7121 14.8814 59.8844 14.9158L67.2058 16.6041C67.2862 16.6155 67.3321 16.5983 67.3436 16.5524C67.3551 16.5064 67.3264 16.4662 67.2575 16.4318C66.3157 15.9724 65.575 15.536 65.0352 15.1225C64.4954 14.7091 64.1107 14.3244 63.881 13.9683C63.6513 13.6008 63.5365 13.2678 63.5365 12.9692C63.5365 12.5443 63.7087 12.2342 64.0533 12.0389C64.3978 11.8437 64.9261 11.8437 65.6381 12.0389L70.6339 13.3482C70.9555 13.4286 71.1967 13.4343 71.3574 13.3654C71.5182 13.2965 71.5986 13.1702 71.5986 12.9864C71.5986 12.7567 71.4493 12.5328 71.1507 12.3146C70.8406 12.0964 70.2607 11.8609 69.4108 11.6083C69.2845 11.5738 69.2213 11.4992 69.2213 11.3843C69.2213 11.2925 69.2558 11.2408 69.3247 11.2293C69.3936 11.2063 69.474 11.2063 69.5659 11.2293C70.3468 11.4475 70.9612 11.6829 71.4091 11.9356C71.8455 12.1882 72.1499 12.4466 72.3221 12.7108C72.4944 12.9635 72.5806 13.2219 72.5806 13.486Z" fill="#2E2E28"/>
<path d="M72.5804 21.6246C72.5804 22.0151 72.4253 22.3195 72.1152 22.5377C71.8052 22.7559 71.3056 22.7903 70.6165 22.641L64.3804 21.2112C64.2081 21.1767 64.122 21.2456 64.122 21.4179L64.122 22.0725C64.122 22.2333 64.0473 22.3137 63.898 22.3137C63.8177 22.3137 63.7545 22.285 63.7086 22.2276C63.6626 22.1702 63.6396 22.1012 63.6396 22.0209L63.6396 21.4007C63.6396 21.1365 63.5191 20.9815 63.2779 20.9356L61.4346 20.5221C61.3083 20.4877 61.2451 20.4073 61.2451 20.2809L61.2451 19.5746C61.2451 19.4139 61.3198 19.3507 61.4691 19.3851L63.3812 19.8158C63.5535 19.8503 63.6396 19.7814 63.6396 19.6091L63.6396 18.6272C63.6396 18.4319 63.7143 18.3343 63.8636 18.3343C64.0359 18.3343 64.122 18.4549 64.122 18.6961L64.122 19.6263C64.122 19.879 64.2426 20.034 64.4838 20.0914L70.7888 21.5385C71.0414 21.5959 71.2424 21.5902 71.3917 21.5213C71.5295 21.4409 71.5984 21.3088 71.5984 21.1251C71.5984 20.8609 71.4491 20.6197 71.1505 20.4015C70.8519 20.1718 70.2835 19.9307 69.4451 19.678C69.2958 19.6321 69.2211 19.5574 69.2211 19.4541C69.2211 19.3737 69.2556 19.322 69.3245 19.299C69.3934 19.276 69.5197 19.2933 69.7035 19.3507C70.4844 19.5689 71.0816 19.8101 71.4951 20.0742C71.9085 20.3269 72.1956 20.5853 72.3564 20.8494C72.5057 21.1136 72.5804 21.372 72.5804 21.6246Z" fill="#2E2E28"/>
<path d="M91.4941 4.67529C92.5238 4.67529 93.4447 4.87567 94.2529 5.27979C95.0599 5.68335 95.6933 6.24649 96.1514 6.96826C96.611 7.67532 96.8398 8.49612 96.8398 9.42627C96.8398 10.4639 96.5464 11.4101 95.96 12.2622L95.8379 12.4321C95.1719 13.3085 94.3291 13.9318 93.3115 14.3003L93.3047 14.3032C93.2176 14.3282 93.1857 14.3614 93.1738 14.3921C93.1753 14.3964 93.1769 14.4039 93.1865 14.4136C93.2042 14.4312 93.2369 14.4529 93.291 14.4761L93.2939 14.478C93.8602 14.7435 94.3058 15.1165 94.627 15.5981H94.626C94.9627 16.0772 95.2167 16.7102 95.3906 17.4927L95.959 20.1284V20.1294C96.1479 21.0224 96.3694 21.6433 96.6162 22.0054C96.8594 22.362 97.1581 22.5308 97.5156 22.5308C97.6433 22.5307 97.7508 22.5133 97.8408 22.4839C97.9518 22.4358 98.0912 22.356 98.2588 22.2388L98.2637 22.2358C98.4175 22.1397 98.5764 22.1114 98.7305 22.1724C98.8084 22.1946 98.8762 22.2369 98.9219 22.3022C98.9667 22.3665 98.9843 22.444 98.9844 22.5269C98.9844 22.8708 98.76 23.156 98.3672 23.3882L98.3643 23.3901C97.9684 23.6061 97.5117 23.7124 96.998 23.7124C96.2247 23.7123 95.5846 23.4578 95.0859 22.9458C94.6519 22.5 94.3306 21.8649 94.1172 21.0483L94.0322 20.687L93.4375 17.8188V17.8179C93.2487 16.8911 93.0361 16.1948 92.8008 15.7241L92.7988 15.7212C92.5833 15.2573 92.2815 14.9504 91.8955 14.7896H91.8936C91.5155 14.6252 90.9802 14.5396 90.2803 14.5396C90.059 14.5396 89.897 14.6016 89.7822 14.7163L89.7773 14.7212C89.6621 14.822 89.6045 14.9491 89.6045 15.1108V21.5708C89.6045 21.9248 89.6738 22.1387 89.7812 22.2476C89.8358 22.2939 89.9315 22.3439 90.0791 22.3931C90.2279 22.4426 90.4208 22.4892 90.6592 22.5317H90.6582L91.6143 22.687H91.6162C91.7224 22.7064 91.8151 22.7453 91.8818 22.812C91.9508 22.8811 91.9824 22.9704 91.9824 23.0698C91.9824 23.1952 91.9418 23.3051 91.8477 23.3804C91.7578 23.4523 91.634 23.48 91.4941 23.48H86.249C86.1106 23.48 85.9888 23.4547 85.8994 23.3892C85.8042 23.3194 85.7617 23.2152 85.7617 23.0952C85.7618 22.9905 85.8011 22.8995 85.8779 22.8286C85.9516 22.7607 86.0539 22.7159 86.1748 22.688L86.1797 22.687L86.7725 22.5835C86.9493 22.5498 87.0913 22.5112 87.1992 22.4673C87.3085 22.4228 87.3761 22.3757 87.4131 22.3325L87.418 22.3267L87.4189 22.3276C87.4619 22.2847 87.5007 22.2126 87.5283 22.1021C87.5557 21.9921 87.5703 21.8502 87.5703 21.6743V6.47998C87.5703 6.3041 87.5558 6.16212 87.5283 6.05225C87.5007 5.94192 87.4618 5.87056 87.4189 5.82764L87.4131 5.82178C87.376 5.77866 87.3083 5.73242 87.1992 5.68799C87.0912 5.64403 86.9494 5.6045 86.7725 5.5708V5.56982L86.1797 5.46729H86.1748V5.46631C86.0541 5.43844 85.9515 5.39445 85.8779 5.32666C85.801 5.25568 85.7617 5.16396 85.7617 5.05908C85.7617 4.93911 85.8042 4.83493 85.8994 4.76514C85.9888 4.69974 86.1107 4.67529 86.249 4.67529H91.4941ZM103.281 4.67529C103.421 4.67529 103.545 4.70208 103.635 4.77393C103.729 4.84923 103.769 4.96002 103.769 5.08545C103.768 5.18478 103.738 5.27428 103.669 5.34326C103.602 5.41005 103.509 5.44794 103.402 5.46729L103.399 5.46826L102.702 5.57178C102.363 5.6227 102.16 5.71299 102.064 5.82275C101.969 5.93142 101.908 6.1487 101.908 6.50635V18.4448C101.908 19.7399 102.198 20.7306 102.765 21.4302C103.329 22.127 104.117 22.4789 105.142 22.479C106.184 22.479 106.981 22.1266 107.545 21.4302C108.111 20.7306 108.401 19.7399 108.401 18.4448V7.02295C108.401 6.56624 108.329 6.22398 108.194 5.98682C108.063 5.75544 107.87 5.61781 107.608 5.5708V5.57178L106.91 5.46826L106.907 5.46729C106.801 5.44794 106.707 5.41005 106.641 5.34326C106.572 5.27429 106.541 5.18476 106.541 5.08545C106.541 4.96002 106.581 4.84923 106.675 4.77393C106.765 4.70205 106.888 4.67529 107.028 4.67529H110.749C110.887 4.67529 111.009 4.69978 111.099 4.76514C111.194 4.83493 111.237 4.93911 111.237 5.05908C111.237 5.16391 111.198 5.25569 111.121 5.32666C111.047 5.39465 110.944 5.43839 110.823 5.46631L110.818 5.46826V5.46729L110.224 5.5708C109.96 5.61745 109.766 5.75321 109.635 5.98096C109.501 6.21367 109.428 6.54968 109.428 6.99756V18.4185C109.428 20.0044 109.001 21.2875 108.137 22.2573C107.272 23.2284 106.123 23.7124 104.702 23.7124C103.756 23.7123 102.911 23.493 102.171 23.0522L102.168 23.0513C101.446 22.5934 100.883 21.9676 100.479 21.1772L100.479 21.1763C100.074 20.3681 99.874 19.448 99.874 18.4185V6.47998C99.874 6.3041 99.8595 6.16212 99.832 6.05225C99.8044 5.94192 99.7655 5.87056 99.7227 5.82764L99.7168 5.82178C99.6798 5.77866 99.612 5.73242 99.5029 5.68799C99.3949 5.64403 99.2531 5.6045 99.0762 5.5708V5.56982L98.4834 5.46729H98.4785V5.46631C98.3578 5.43844 98.2553 5.39445 98.1816 5.32666C98.1047 5.25568 98.0654 5.16396 98.0654 5.05908C98.0654 4.93911 98.108 4.83493 98.2031 4.76514C98.2925 4.69974 98.4144 4.67529 98.5527 4.67529H103.281ZM97.2246 23.604C97.2661 23.6013 97.3071 23.5985 97.3477 23.5942C97.3071 23.5985 97.2661 23.6013 97.2246 23.604ZM104.043 23.5728C104.147 23.5851 104.252 23.5957 104.358 23.6021C104.252 23.5957 104.147 23.5851 104.043 23.5728ZM105.458 23.562C105.377 23.5731 105.296 23.5829 105.213 23.5903C105.379 23.5755 105.54 23.5536 105.697 23.5239L105.458 23.562ZM97.3896 23.5894C97.4322 23.5843 97.4741 23.5776 97.5156 23.5708C97.4741 23.5776 97.4322 23.5843 97.3896 23.5894ZM97.5605 23.563C97.6011 23.5557 97.6411 23.5475 97.6807 23.5386C97.6411 23.5475 97.6011 23.5557 97.5605 23.563ZM103.749 23.5288C103.806 23.539 103.864 23.5478 103.922 23.5562C103.864 23.5478 103.806 23.539 103.749 23.5288ZM96.2334 23.5142C96.2779 23.5264 96.3234 23.5355 96.3691 23.5454C96.3234 23.5355 96.2779 23.5264 96.2334 23.5142ZM97.7158 23.5308C97.7514 23.5222 97.7865 23.5124 97.8213 23.5024C97.7865 23.5124 97.7514 23.5222 97.7158 23.5308ZM103.433 23.4614C103.49 23.4757 103.548 23.4882 103.606 23.5005C103.548 23.4882 103.49 23.4757 103.433 23.4614ZM97.8887 23.4829C97.9217 23.4725 97.954 23.4604 97.9863 23.4487C97.954 23.4604 97.9217 23.4725 97.8887 23.4829ZM40.7324 4.67529C41.6082 4.67529 42.3919 4.85941 43.0801 5.22998C43.7661 5.59942 44.3048 6.10153 44.6934 6.73682L44.8359 6.97998C45.1476 7.55693 45.3027 8.20095 45.3027 8.90967C45.3027 9.70623 45.0639 10.4497 44.5879 11.1372L44.5869 11.1362C44.1279 11.807 43.4604 12.369 42.5879 12.8228H42.5859C42.5035 12.864 42.4865 12.9049 42.4863 12.9399C42.4863 12.9568 42.4917 12.9688 42.5029 12.98C42.5168 12.9937 42.5443 13.0105 42.5947 13.0249L42.5996 13.0269C43.7873 13.4286 44.7092 14.0771 45.3604 14.9741H45.3613C46.0127 15.8545 46.3369 16.9014 46.3369 18.1089C46.3369 19.1408 46.1004 20.071 45.626 20.897L45.625 20.8979C45.1504 21.7065 44.491 22.34 43.6484 22.7964L43.6475 22.7954C42.8217 23.2519 41.8838 23.48 40.8359 23.48H35.4873C35.3489 23.48 35.2271 23.4547 35.1377 23.3892C35.0425 23.3194 35 23.2152 35 23.0952C35.0001 22.9905 35.0394 22.8995 35.1162 22.8286C35.1899 22.7607 35.2922 22.7159 35.4131 22.688L35.418 22.687L36.0107 22.5835C36.1876 22.5498 36.3295 22.5112 36.4375 22.4673C36.5467 22.4228 36.6144 22.3757 36.6514 22.3325L36.6562 22.3267L36.6572 22.3276C36.7001 22.2847 36.739 22.2126 36.7666 22.1021C36.794 21.9921 36.8086 21.8502 36.8086 21.6743V6.47998C36.8086 6.3041 36.7941 6.16212 36.7666 6.05225C36.739 5.94192 36.7 5.87056 36.6572 5.82764L36.6514 5.82178C36.6143 5.77866 36.5466 5.73242 36.4375 5.68799C36.3295 5.64403 36.1877 5.6045 36.0107 5.5708V5.56982L35.418 5.46729H35.4131V5.46631C35.2923 5.43844 35.1898 5.39445 35.1162 5.32666C35.0393 5.25568 35 5.16396 35 5.05908C35 4.93911 35.0425 4.83493 35.1377 4.76514C35.2271 4.69974 35.349 4.67529 35.4873 4.67529H40.7324ZM50.04 4.67529C50.1709 4.67534 50.2876 4.69999 50.373 4.76709C50.4631 4.83785 50.501 4.94168 50.501 5.05908C50.501 5.18411 50.4511 5.28919 50.3496 5.36084C50.2543 5.42811 50.1222 5.46016 49.9678 5.46924L49.9668 5.46826L49.4814 5.52002L49.4775 5.521C49.2025 5.53718 49.0295 5.62386 48.9326 5.76221C48.846 5.88588 48.8481 6.10539 49.0186 6.46338H49.0195L52.1953 13.23C52.2528 13.329 52.3105 13.3569 52.3652 13.3569C52.4201 13.3569 52.4776 13.3286 52.5352 13.229L55.583 7.00439L55.6572 6.84521C55.8098 6.48546 55.8262 6.20886 55.7363 6.00342L55.7334 5.99658C55.6463 5.75005 55.4368 5.59482 55.0654 5.54639V5.54541L54.4961 5.46826H54.4922V5.46729C54.3399 5.44036 54.2136 5.39839 54.123 5.33447C54.0281 5.26742 53.9707 5.17452 53.9707 5.05908C53.9707 4.94166 54.0096 4.83785 54.0996 4.76709C54.1851 4.70006 54.3018 4.67529 54.4326 4.67529H58.1016C58.2387 4.67529 58.3596 4.69724 58.4482 4.75635C58.5439 4.82023 58.5898 4.9185 58.5898 5.03369C58.5898 5.146 58.5484 5.24403 58.4668 5.31982C58.3883 5.39263 58.2784 5.43944 58.1484 5.46729H58.1475L57.8896 5.51807C57.6766 5.56383 57.4803 5.6951 57.3018 5.92236C57.1344 6.1576 56.9048 6.55469 56.6143 7.11865L53.2305 13.9155H53.2295C53.1119 14.1507 53.0291 14.3763 52.9795 14.5913V14.5923C52.9303 14.7891 52.9043 15.022 52.9043 15.2915V21.5972C52.9043 21.9469 52.9632 22.1621 53.0547 22.2729C53.1713 22.3733 53.3791 22.455 53.6973 22.5054H53.6982L54.8623 22.687C54.9829 22.6975 55.0891 22.7313 55.166 22.8022C55.2472 22.8772 55.2821 22.98 55.2822 23.0952C55.2822 23.215 55.2394 23.3194 55.1445 23.3892C55.0551 23.4547 54.9324 23.48 54.7939 23.48H48.9805C48.8421 23.48 48.7202 23.4546 48.6309 23.3892C48.5357 23.3194 48.4922 23.2152 48.4922 23.0952C48.4923 22.98 48.5273 22.8772 48.6084 22.8022C48.6851 22.7315 48.791 22.6976 48.9111 22.687L50.0762 22.5054L50.3076 22.4614C50.5112 22.4126 50.6432 22.349 50.7158 22.2778C50.8096 22.1684 50.8701 21.9521 50.8701 21.5972V15.4985C50.8701 15.1353 50.7873 14.7793 50.6211 14.4302L46.8232 6.47217L46.8203 6.46729L46.9131 6.42822L46.8203 6.46631C46.7027 6.18091 46.5712 5.97009 46.4287 5.82764C46.2908 5.68979 46.0859 5.58424 45.8047 5.51807V5.51709L45.5732 5.46729V5.46631C45.4437 5.43842 45.3341 5.39249 45.2559 5.31982C45.1742 5.24403 45.1339 5.146 45.1338 5.03369C45.1338 4.91855 45.1788 4.82023 45.2744 4.75635C45.3631 4.69724 45.4839 4.67529 45.6211 4.67529H50.04ZM84.5371 4.67529C84.7513 4.67529 84.9316 4.72881 85.0635 4.8501C85.1623 4.94103 85.2264 5.06221 85.2598 5.20752L85.2832 5.36084V5.36475L85.4902 9.65381H85.4893C85.5065 9.80853 85.489 9.94751 85.4111 10.0493C85.3294 10.156 85.2006 10.1978 85.0537 10.1978C84.932 10.1977 84.8234 10.1646 84.7402 10.0874C84.6582 10.0112 84.6131 9.90275 84.5938 9.77686L84.4639 8.92432C84.3273 8.03692 84.0895 7.35602 83.7568 6.87354C83.4196 6.38461 83.0449 6.0446 82.6338 5.84717L82.6309 5.84521C82.2113 5.62705 81.8134 5.52101 81.4365 5.521C80.6812 5.521 80.1981 5.64284 79.9521 5.85791C79.7053 6.07389 79.5723 6.41231 79.5723 6.89404V12.9917C79.5723 13.0969 79.5989 13.1579 79.6338 13.1929C79.6687 13.2277 79.7291 13.2534 79.834 13.2534H80.7383C81.0989 13.2534 81.3804 13.1583 81.5908 12.9751C81.8022 12.7911 81.953 12.5084 82.0361 12.1177L82.3203 10.8257L82.3213 10.8247C82.3503 10.6993 82.4032 10.5939 82.4883 10.52C82.5746 10.4452 82.6836 10.4117 82.8057 10.4116C82.9358 10.4116 83.0466 10.4598 83.1201 10.564C83.189 10.6617 83.2158 10.7957 83.2158 10.9507V16.7651C83.2158 16.9201 83.1891 17.0542 83.1201 17.1519C83.0466 17.256 82.9358 17.3042 82.8057 17.3042C82.6836 17.3041 82.5746 17.2706 82.4883 17.1958C82.403 17.1219 82.3503 17.0157 82.3213 16.8901H82.3203L82.0361 15.6235V15.6216C81.916 15.0209 81.7485 14.6555 81.5527 14.4897L81.5498 14.4868C81.3679 14.3201 81.0943 14.229 80.7129 14.229H79.834C79.729 14.2291 79.6687 14.2556 79.6338 14.2905C79.5989 14.3255 79.5723 14.3857 79.5723 14.4907V21.5454C79.5723 21.8971 79.6234 22.1279 79.707 22.2583C79.804 22.3653 80.0117 22.4549 80.3652 22.5054H80.3662L81.5801 22.687H81.584C81.6902 22.7064 81.7829 22.7453 81.8496 22.812C81.9186 22.8811 81.9502 22.9704 81.9502 23.0698C81.9502 23.1952 81.9095 23.3051 81.8154 23.3804C81.7256 23.4523 81.6018 23.48 81.4619 23.48H76.2168C76.0784 23.48 75.9566 23.4547 75.8672 23.3892C75.772 23.3194 75.7295 23.2152 75.7295 23.0952C75.7296 22.9905 75.7689 22.8995 75.8457 22.8286C75.9193 22.7607 76.0217 22.7159 76.1426 22.688L76.1475 22.687L76.7402 22.5835C76.9171 22.5498 77.059 22.5112 77.167 22.4673C77.2762 22.4228 77.3439 22.3757 77.3809 22.3325L77.3857 22.3267L77.3867 22.3276C77.4296 22.2847 77.4685 22.2126 77.4961 22.1021C77.5235 21.9921 77.5381 21.8502 77.5381 21.6743V6.47998C77.5381 6.3041 77.5236 6.16212 77.4961 6.05225C77.4685 5.94192 77.4295 5.87056 77.3867 5.82764L77.3809 5.82178C77.3438 5.77866 77.2761 5.73242 77.167 5.68799C77.059 5.64403 76.9172 5.6045 76.7402 5.5708V5.56982L76.1475 5.46729H76.1426V5.46631C76.0218 5.43844 75.9193 5.39445 75.8457 5.32666C75.7688 5.25568 75.7295 5.16396 75.7295 5.05908C75.7295 4.93911 75.772 4.83493 75.8672 4.76514C75.9566 4.69974 76.0785 4.67529 76.2168 4.67529H84.5371ZM116.488 4.67529C116.627 4.67529 116.749 4.69979 116.838 4.76514C116.933 4.83493 116.977 4.93911 116.977 5.05908C116.977 5.16392 116.937 5.25569 116.86 5.32666C116.787 5.39465 116.683 5.43839 116.562 5.46631L116.558 5.46826V5.46729L115.964 5.56982L115.965 5.5708C115.606 5.6391 115.392 5.72884 115.294 5.82568C115.259 5.86871 115.227 5.94058 115.204 6.04932C115.18 6.16054 115.167 6.30345 115.167 6.47998V21.6743C115.167 21.8511 115.18 21.9946 115.204 22.106C115.228 22.2156 115.26 22.2867 115.296 22.3296C115.394 22.426 115.608 22.5155 115.965 22.5835H115.964L116.558 22.687L116.562 22.688L116.649 22.7124C116.733 22.7398 116.805 22.7776 116.86 22.8286C116.937 22.8995 116.976 22.9907 116.977 23.0952C116.977 23.2152 116.933 23.3194 116.838 23.3892C116.749 23.4546 116.627 23.48 116.488 23.48H111.812C111.673 23.48 111.551 23.4547 111.462 23.3892C111.367 23.3194 111.324 23.2152 111.324 23.0952C111.324 22.9905 111.364 22.8995 111.44 22.8286C111.514 22.7607 111.616 22.7159 111.737 22.688L111.742 22.687L112.335 22.5835C112.512 22.5498 112.654 22.5112 112.762 22.4673C112.871 22.4228 112.939 22.3757 112.976 22.3325L112.98 22.3267L112.981 22.3276C113.024 22.2847 113.063 22.2126 113.091 22.1021C113.118 21.9921 113.133 21.8502 113.133 21.6743V6.47998C113.133 6.3041 113.118 6.16212 113.091 6.05225C113.063 5.94192 113.024 5.87056 112.981 5.82764L112.976 5.82178C112.939 5.77866 112.871 5.73242 112.762 5.68799C112.654 5.64403 112.512 5.6045 112.335 5.5708V5.56982L111.742 5.46729H111.737V5.46631C111.617 5.43844 111.514 5.39445 111.44 5.32666C111.364 5.25568 111.324 5.16396 111.324 5.05908C111.324 4.93911 111.367 4.83493 111.462 4.76514C111.551 4.69974 111.673 4.67529 111.812 4.67529H116.488ZM127.756 4.2876C127.921 4.2876 128.059 4.34855 128.157 4.47412C128.228 4.56474 128.275 4.68359 128.301 4.82471L128.32 4.97314L128.321 4.97705L128.554 9.65381H128.553C128.57 9.80839 128.552 9.94657 128.475 10.0483C128.393 10.1551 128.264 10.1978 128.117 10.1978C127.996 10.1976 127.887 10.1645 127.804 10.0874C127.722 10.0112 127.677 9.90268 127.657 9.77686L127.527 8.92432V8.92334C127.357 7.71263 126.967 6.85212 126.371 6.32275C125.764 5.78343 125.149 5.521 124.525 5.521C124.367 5.52103 124.24 5.53385 124.143 5.55713C124.044 5.58071 123.984 5.61344 123.95 5.64697C123.875 5.7226 123.825 5.86201 123.825 6.09229V21.5972C123.825 21.9467 123.883 22.162 123.975 22.2729C124.091 22.3735 124.3 22.455 124.619 22.5054L125.782 22.687C125.903 22.6974 126.009 22.7314 126.086 22.8022C126.167 22.8772 126.202 22.98 126.202 23.0952C126.202 23.2151 126.16 23.3194 126.064 23.3892C125.975 23.4546 125.853 23.4799 125.715 23.48H119.9C119.762 23.4799 119.64 23.4547 119.551 23.3892C119.456 23.3194 119.413 23.2151 119.413 23.0952C119.413 22.9801 119.448 22.8772 119.529 22.8022C119.606 22.7317 119.711 22.6976 119.831 22.687L120.996 22.5054H120.997C121.335 22.4546 121.538 22.3729 121.636 22.2778C121.73 22.1685 121.79 21.9522 121.79 21.5972V6.09229C121.79 5.86154 121.74 5.7225 121.664 5.64697C121.63 5.61346 121.571 5.58069 121.473 5.55713C121.375 5.53381 121.248 5.521 121.089 5.521C120.483 5.52114 119.877 5.78291 119.27 6.32275C118.748 6.78635 118.377 7.50348 118.167 8.48682L118.087 8.92432L117.958 9.77686C117.939 9.90279 117.893 10.0112 117.811 10.0874C117.727 10.1644 117.619 10.1978 117.497 10.1978C117.35 10.1977 117.221 10.1551 117.14 10.0483C117.062 9.94661 117.045 9.80817 117.062 9.65381H117.062L117.294 4.97705V4.97314C117.312 4.76615 117.363 4.59491 117.457 4.47412C117.555 4.34838 117.694 4.28767 117.859 4.2876C117.996 4.28766 118.122 4.32647 118.238 4.40088H118.239C118.333 4.44792 118.498 4.50639 118.736 4.57471H118.737C118.982 4.64004 119.376 4.67526 119.926 4.67529H125.688C126.238 4.67529 126.623 4.64036 126.85 4.57568L126.852 4.57471C127.109 4.50596 127.282 4.44756 127.375 4.40088C127.504 4.32795 127.632 4.28766 127.756 4.2876ZM95.998 23.4351C96.0349 23.4494 96.0725 23.4615 96.1104 23.4741C96.0725 23.4615 96.0349 23.4494 95.998 23.4351ZM103.145 23.3794C103.204 23.3982 103.263 23.4156 103.323 23.4321C103.263 23.4156 103.204 23.3982 103.145 23.3794ZM95.7744 23.3345C95.819 23.3575 95.8649 23.3778 95.9111 23.3979C95.8649 23.3778 95.819 23.3575 95.7744 23.3345ZM76.043 23.3608C76.0667 23.3669 76.0924 23.3714 76.1201 23.3745C76.0924 23.3714 76.0667 23.3669 76.043 23.3608ZM86.0752 23.3608C86.0989 23.3669 86.1246 23.3714 86.1523 23.3745C86.1246 23.3714 86.0989 23.3669 86.0752 23.3608ZM111.638 23.3608C111.661 23.3669 111.687 23.3714 111.715 23.3745C111.687 23.3714 111.661 23.3669 111.638 23.3608ZM35.3135 23.3608C35.3372 23.3669 35.3629 23.3714 35.3906 23.3745C35.3629 23.3714 35.3372 23.3669 35.3135 23.3608ZM81.5996 23.3667C81.6056 23.3655 81.6114 23.3641 81.6172 23.3628C81.6114 23.3641 81.6056 23.3655 81.5996 23.3667ZM91.6318 23.3667C91.6378 23.3655 91.6436 23.3641 91.6494 23.3628C91.6436 23.3641 91.6378 23.3655 91.6318 23.3667ZM75.9902 23.3433C76.0066 23.3499 76.0241 23.356 76.043 23.3608C76.0241 23.356 76.0066 23.3499 75.9902 23.3433ZM86.0225 23.3433C86.0388 23.3499 86.0563 23.356 86.0752 23.3608C86.0563 23.356 86.0389 23.3499 86.0225 23.3433ZM111.585 23.3433C111.601 23.3499 111.619 23.356 111.638 23.3608C111.619 23.356 111.601 23.3499 111.585 23.3433ZM125.902 23.355C125.918 23.3506 125.932 23.346 125.945 23.3403C125.932 23.346 125.918 23.3506 125.902 23.355ZM48.7578 23.3442C48.7672 23.3479 48.7769 23.3509 48.7871 23.354C48.7769 23.3509 48.7672 23.3479 48.7578 23.3442ZM81.6572 23.3511C81.666 23.3481 81.6744 23.3448 81.6826 23.3413C81.6744 23.3448 81.6661 23.3481 81.6572 23.3511ZM91.6895 23.3511C91.6983 23.3481 91.7066 23.3448 91.7148 23.3413C91.7066 23.3448 91.6983 23.3481 91.6895 23.3511ZM102.864 23.2788C102.918 23.3001 102.972 23.3211 103.027 23.3403C102.972 23.3211 102.918 23.3001 102.864 23.2788ZM126.042 23.2739C126.019 23.3003 125.989 23.3209 125.952 23.3374C125.989 23.3209 126.019 23.3004 126.042 23.2739ZM48.6494 23.271C48.672 23.2978 48.7012 23.3195 48.7373 23.3364C48.7012 23.3195 48.672 23.2978 48.6494 23.271ZM75.9365 23.3149C75.9445 23.3203 75.953 23.3249 75.9619 23.3296C75.953 23.3249 75.9445 23.3202 75.9365 23.3149ZM85.9688 23.3149C85.9767 23.3203 85.9852 23.3249 85.9941 23.3296C85.9852 23.3249 85.9768 23.3202 85.9688 23.3149ZM111.531 23.3149C111.539 23.3203 111.548 23.3249 111.557 23.3296C111.548 23.3249 111.539 23.3202 111.531 23.3149ZM35.207 23.3149C35.215 23.3203 35.2235 23.3249 35.2324 23.3296C35.2235 23.3249 35.215 23.3202 35.207 23.3149ZM81.7139 23.3267C81.7227 23.3218 81.7303 23.3156 81.7383 23.3101C81.7303 23.3156 81.7227 23.3218 81.7139 23.3267ZM91.7461 23.3267C91.7549 23.3218 91.7625 23.3156 91.7705 23.3101C91.7625 23.3156 91.7549 23.3218 91.7461 23.3267ZM85.9268 23.2798C85.9324 23.2858 85.9389 23.2909 85.9453 23.2964C85.9389 23.2909 85.9324 23.2858 85.9268 23.2798ZM111.489 23.2798C111.495 23.2858 111.501 23.2909 111.508 23.2964C111.501 23.2909 111.495 23.2858 111.489 23.2798ZM75.8945 23.2798C75.8994 23.285 75.9047 23.2897 75.9102 23.2944C75.9047 23.2897 75.8994 23.285 75.8945 23.2798ZM81.7598 23.2944C81.7692 23.2863 81.7773 23.2774 81.7852 23.2681C81.7773 23.2774 81.7691 23.2863 81.7598 23.2944ZM91.792 23.2944C91.8014 23.2863 91.8095 23.2774 91.8174 23.2681C91.8095 23.2774 91.8014 23.2863 91.792 23.2944ZM35.165 23.2798C35.1699 23.285 35.1752 23.2897 35.1807 23.2944C35.1752 23.2897 35.1699 23.285 35.165 23.2798ZM95.5625 23.2104C95.6052 23.2386 95.649 23.2644 95.6934 23.2896C95.649 23.2644 95.6052 23.2386 95.5625 23.2104ZM48.6221 23.228C48.628 23.2398 48.6347 23.2508 48.6426 23.2612C48.6347 23.2508 48.628 23.2398 48.6221 23.228ZM111.455 23.231C111.46 23.2408 111.465 23.2504 111.472 23.2593C111.465 23.2504 111.46 23.2408 111.455 23.231ZM126.054 23.2593C126.06 23.2504 126.065 23.2408 126.07 23.231C126.065 23.2408 126.06 23.2504 126.054 23.2593ZM75.8604 23.231C75.8654 23.2405 75.8707 23.2497 75.877 23.2583C75.8707 23.2497 75.8654 23.2405 75.8604 23.231ZM85.8926 23.231C85.8976 23.2405 85.9029 23.2497 85.9092 23.2583C85.9029 23.2497 85.8976 23.2405 85.8926 23.231ZM35.1289 23.228C35.1343 23.2387 35.1405 23.2487 35.1475 23.2583C35.1405 23.2487 35.1343 23.2388 35.1289 23.228ZM81.7979 23.2515C81.8048 23.2416 81.8109 23.2313 81.8164 23.2202C81.8109 23.2313 81.8048 23.2415 81.7979 23.2515ZM91.8301 23.2515C91.8371 23.2416 91.8431 23.2313 91.8486 23.2202C91.8431 23.2313 91.8371 23.2415 91.8301 23.2515ZM102.551 23.1421C102.617 23.1742 102.683 23.2051 102.751 23.2339C102.683 23.2051 102.617 23.1742 102.551 23.1421ZM48.5986 23.1626C48.6022 23.1808 48.6085 23.1974 48.6152 23.2134C48.6085 23.1974 48.6022 23.1808 48.5986 23.1626ZM75.8408 23.1831C75.8437 23.1936 75.8466 23.2038 75.8506 23.2134C75.8466 23.2038 75.8437 23.1936 75.8408 23.1831ZM85.873 23.1831C85.8759 23.1936 85.8788 23.2038 85.8828 23.2134C85.8788 23.2038 85.8759 23.1936 85.873 23.1831ZM111.436 23.1831C111.438 23.1936 111.441 23.2038 111.445 23.2134C111.441 23.2038 111.438 23.1936 111.436 23.1831ZM35.1113 23.1831C35.1141 23.193 35.1174 23.2023 35.1211 23.2114C35.1174 23.2023 35.114 23.193 35.1113 23.1831ZM81.8262 23.2007C81.8334 23.1824 81.84 23.1632 81.8438 23.1421C81.84 23.1632 81.8334 23.1824 81.8262 23.2007ZM91.8584 23.2007C91.8657 23.1824 91.8722 23.1632 91.876 23.1421C91.8722 23.1632 91.8657 23.1824 91.8584 23.2007ZM95.3799 23.0757C95.4135 23.1028 95.4477 23.1287 95.4824 23.1538C95.4477 23.1287 95.4135 23.1028 95.3799 23.0757ZM102.222 22.9663C102.308 23.0179 102.397 23.0655 102.486 23.1108C102.397 23.0655 102.308 23.0178 102.222 22.9663ZM95.1934 22.9097C95.2274 22.9433 95.2625 22.9751 95.2979 23.0063C95.2625 22.9751 95.2274 22.9433 95.1934 22.9097ZM48.7236 22.8413C48.6989 22.8558 48.6789 22.8742 48.6611 22.894C48.6789 22.8741 48.6989 22.8558 48.7236 22.8413ZM55.0508 22.8413C55.0756 22.8558 55.0955 22.8741 55.1133 22.894C55.0955 22.8742 55.0755 22.8558 55.0508 22.8413ZM125.845 22.7964C125.904 22.8081 125.952 22.8284 125.991 22.856C125.969 22.84 125.944 22.8256 125.914 22.8149C125.893 22.8073 125.87 22.8013 125.846 22.7964H125.845ZM95.0215 22.7222C95.0512 22.7577 95.0814 22.7923 95.1123 22.8257C95.0814 22.7923 95.0512 22.7577 95.0215 22.7222ZM44.1865 22.3403C44.0167 22.4635 43.8366 22.5763 43.6475 22.6812C43.8365 22.5763 44.0167 22.4635 44.1865 22.3403ZM94.8584 22.5083C94.8887 22.5519 94.9195 22.5942 94.9512 22.6353C94.9195 22.5942 94.8887 22.5519 94.8584 22.5083ZM40.3447 13.5054C39.8217 13.5054 39.4478 13.6094 39.2061 13.8003C38.9688 13.9878 38.8428 14.272 38.8428 14.6714V20.9507C38.8428 21.53 38.9861 21.9465 39.2539 22.2183C39.5214 22.4895 39.9304 22.6342 40.5 22.6343C41.5906 22.6343 42.4752 22.2245 43.1621 21.4038L43.2871 21.2437C43.8922 20.4241 44.1992 19.3558 44.1992 18.0308C44.1992 16.6178 43.8419 15.5151 43.1387 14.7114L43.1377 14.7104C42.4526 13.9084 41.5249 13.5054 40.3447 13.5054ZM105.451 22.5669C105.35 22.574 105.247 22.5786 105.142 22.5786C105.247 22.5786 105.35 22.5739 105.451 22.5669ZM104.839 22.5669C104.938 22.5739 105.038 22.5786 105.142 22.5786C105.038 22.5786 104.938 22.5739 104.839 22.5669ZM42.6709 22.021C42.519 22.1398 42.3598 22.2434 42.1934 22.3325C42.3598 22.2434 42.519 22.1398 42.6709 22.021ZM124.026 22.4302C124.035 22.4351 124.045 22.4381 124.055 22.4429C124.021 22.4257 123.99 22.4093 123.962 22.3901L124.026 22.4302ZM89.8477 22.4077C89.8636 22.4157 89.8808 22.4224 89.8984 22.4302C89.8496 22.4087 89.807 22.3876 89.7715 22.3647L89.8477 22.4077ZM94.7119 22.2778C94.7387 22.3239 94.7658 22.3689 94.7939 22.4126C94.7658 22.3689 94.7387 22.3239 94.7119 22.2778ZM50.7891 22.3462L50.8311 22.2896C50.836 22.2818 50.84 22.2734 50.8447 22.2651C50.8276 22.2952 50.8097 22.3226 50.7891 22.3462ZM121.709 22.3462L121.752 22.2896C121.757 22.2819 121.76 22.2732 121.765 22.2651C121.748 22.2952 121.73 22.3227 121.709 22.3462ZM115.104 22.1138C115.12 22.1903 115.14 22.255 115.166 22.3081C115.14 22.255 115.12 22.1903 115.104 22.1138ZM106.898 22.1313C106.819 22.1798 106.738 22.2246 106.653 22.2651C106.738 22.2246 106.819 22.1798 106.898 22.1313ZM50.9277 22.0356C50.9101 22.1143 50.8875 22.1823 50.8584 22.2397C50.8874 22.1823 50.9101 22.1143 50.9277 22.0356ZM52.8457 22.0356C52.8633 22.1144 52.887 22.1822 52.916 22.2397C52.8869 22.1822 52.8634 22.1144 52.8457 22.0356ZM94.5654 22.0015C94.5958 22.0648 94.6267 22.1264 94.6592 22.186C94.6267 22.1264 94.5958 22.0648 94.5654 22.0015ZM113.221 21.9233H113.222H113.221ZM87.6582 21.9233H87.6592H87.6582ZM77.626 21.9233H77.627H77.626ZM108.198 22.0298C108.202 22.0253 108.205 22.0206 108.209 22.0161C108.205 22.0206 108.202 22.0253 108.198 22.0298ZM89.5342 21.9312C89.5355 21.9384 89.5376 21.9455 89.5391 21.9526C89.5307 21.9115 89.5228 21.868 89.5176 21.8218L89.5342 21.9312ZM94.4541 21.7476C94.4785 21.8074 94.5024 21.8663 94.5283 21.9233C94.5024 21.8663 94.4785 21.8074 94.4541 21.7476ZM103.041 21.8628C103.062 21.8808 103.083 21.8972 103.104 21.9146C103.078 21.8927 103.051 21.8711 103.025 21.8481L103.041 21.8628ZM107.399 21.7397C107.337 21.8012 107.272 21.8579 107.205 21.9126C107.269 21.8602 107.332 21.8061 107.392 21.7476L107.399 21.7397ZM108.422 21.7271C108.44 21.7004 108.459 21.6741 108.477 21.647C108.459 21.6741 108.44 21.7004 108.422 21.7271ZM94.3457 21.4565C94.3668 21.5185 94.3866 21.5798 94.4092 21.6392C94.3867 21.5798 94.3668 21.5185 94.3457 21.4565ZM108.551 21.5288C108.565 21.5051 108.58 21.4815 108.594 21.4575C108.58 21.4815 108.565 21.5051 108.551 21.5288ZM107.623 21.4937L107.729 21.354C107.746 21.3294 107.763 21.304 107.78 21.2788C107.73 21.3527 107.679 21.425 107.623 21.4937ZM43.4209 21.2251C43.3627 21.3078 43.3032 21.3893 43.2393 21.4673C43.3032 21.3893 43.3627 21.3078 43.4209 21.2251ZM108.655 21.3491C108.675 21.3126 108.696 21.276 108.715 21.2388C108.696 21.276 108.675 21.3126 108.655 21.3491ZM94.2217 21.0483C94.248 21.1475 94.2752 21.244 94.3047 21.3374C94.2752 21.244 94.248 21.1475 94.2217 21.0483ZM108.758 21.1538C108.779 21.11 108.8 21.0657 108.82 21.021C108.8 21.0657 108.779 21.11 108.758 21.1538ZM96.0098 20.7729C96.0271 20.8374 96.0456 20.8997 96.0635 20.9604C96.0192 20.8095 95.9759 20.6475 95.9346 20.4741L96.0098 20.7729ZM108.853 20.9478C108.87 20.9068 108.887 20.8654 108.904 20.8237C108.887 20.8654 108.87 20.9068 108.853 20.9478ZM45.5518 20.8237C45.602 20.7352 45.6487 20.6452 45.6934 20.5542C45.6487 20.6452 45.602 20.7352 45.5518 20.8237ZM108.958 20.687C108.967 20.6631 108.975 20.6389 108.983 20.6147C108.975 20.6389 108.967 20.6631 108.958 20.687ZM101.918 19.7192C101.961 19.9509 102.018 20.1696 102.087 20.3755C102.018 20.1696 101.961 19.9509 101.918 19.7192ZM109.034 20.4624C109.043 20.4335 109.053 20.4047 109.062 20.3755C109.053 20.4047 109.043 20.4335 109.034 20.4624ZM45.75 20.4331C45.7757 20.3771 45.8015 20.3211 45.8252 20.2642C45.8015 20.3211 45.7757 20.3771 45.75 20.4331ZM109.098 20.2505C109.109 20.2111 109.119 20.1713 109.129 20.1313C109.119 20.1713 109.109 20.2111 109.098 20.2505ZM45.8799 20.1226C45.9049 20.0569 45.9298 19.9912 45.9521 19.9243C45.9298 19.9912 45.9049 20.0569 45.8799 20.1226ZM109.162 19.9946C109.164 19.9871 109.166 19.9797 109.168 19.9722L109.204 19.7974C109.191 19.8639 109.177 19.9295 109.162 19.9946ZM45.9922 19.7974C46.0086 19.7438 46.0233 19.6896 46.0381 19.6353C46.0233 19.6896 46.0086 19.7438 45.9922 19.7974ZM109.208 19.7739C109.22 19.7121 109.23 19.6496 109.24 19.5864C109.23 19.6496 109.22 19.7121 109.208 19.7739ZM46.0752 19.4956C46.0926 19.4239 46.1085 19.3517 46.123 19.2788C46.1085 19.3517 46.0926 19.4239 46.0752 19.4956ZM109.284 19.2534C109.293 19.1695 109.301 19.0846 109.308 18.9985C109.301 19.0846 109.293 19.1695 109.284 19.2534ZM46.1445 19.1646C46.1565 19.0974 46.1662 19.0296 46.1758 18.9614C46.1662 19.0296 46.1565 19.0974 46.1445 19.1646ZM44.2773 18.606C44.2786 18.5887 44.2811 18.5715 44.2822 18.5542L44.2832 18.5376C44.2818 18.5605 44.279 18.5832 44.2773 18.606ZM82.7188 17.1948C82.7461 17.1998 82.7749 17.2036 82.8057 17.2036C82.7749 17.2036 82.7461 17.1998 82.7188 17.1948ZM82.8057 17.2036C82.8306 17.2036 82.854 17.201 82.876 17.1968C82.8541 17.201 82.8306 17.2036 82.8057 17.2036ZM82.8877 17.1929C82.9047 17.1889 82.9205 17.1839 82.9355 17.1772C82.9205 17.1839 82.9047 17.1889 82.8877 17.1929ZM82.9521 17.1685C82.9635 17.1623 82.9742 17.1558 82.9844 17.1479C82.9742 17.1558 82.9635 17.1623 82.9521 17.1685ZM82.6055 17.1567C82.611 17.1599 82.6173 17.1617 82.623 17.1646C82.598 17.1522 82.5747 17.1378 82.5537 17.1196L82.6055 17.1567ZM83.0059 17.1294C83.0139 17.1216 83.0211 17.1131 83.0283 17.104C83.0212 17.1131 83.0139 17.1215 83.0059 17.1294ZM83.042 17.0864C83.0506 17.0736 83.0574 17.0594 83.0645 17.0444C83.0574 17.0594 83.0505 17.0736 83.042 17.0864ZM83.0967 16.9565C83.091 16.9807 83.0824 17.0023 83.0742 17.0229C83.0917 16.979 83.1053 16.9278 83.1113 16.8677L83.0967 16.9565ZM45.9111 16.1978C45.9082 16.1899 45.9053 16.1821 45.9023 16.1743C45.9053 16.1821 45.9082 16.1899 45.9111 16.1978ZM92.8896 15.6792C92.9414 15.7827 92.9907 15.8969 93.04 16.021C92.9907 15.897 92.9413 15.7826 92.8896 15.6792ZM45.6035 15.5327C45.5927 15.5134 45.5815 15.4943 45.5703 15.4751C45.5815 15.4943 45.5927 15.5134 45.6035 15.5327ZM94.1436 15.1743H94.1445H94.1436ZM92.084 14.77C92.1815 14.8228 92.2737 14.8844 92.3594 14.9565C92.2737 14.8843 92.1815 14.8228 92.084 14.77ZM93.4531 14.6704C93.5834 14.7415 93.7061 14.8189 93.8213 14.9028C93.7061 14.8188 93.5833 14.7415 93.4531 14.6704ZM81.6982 14.4946C81.7511 14.555 81.8013 14.628 81.8477 14.7144C81.8013 14.628 81.7511 14.5551 81.6982 14.4946ZM90.1084 14.4517C90.1623 14.443 90.2198 14.439 90.2803 14.439C90.2197 14.439 90.1624 14.4429 90.1084 14.4517ZM80.8574 14.1343C80.9502 14.1402 81.0371 14.1518 81.1182 14.1694C81.1591 14.1784 81.1984 14.1888 81.2363 14.2007C81.3116 14.2244 81.3809 14.254 81.4443 14.2896C81.2856 14.2007 81.0901 14.1491 80.8574 14.1343ZM52.9854 14.2261C52.9785 14.2445 52.9732 14.2634 52.9668 14.2817C52.9935 14.2057 53.0226 14.1283 53.0566 14.0503L52.9854 14.2261ZM90.874 5.521C90.4274 5.52104 90.1105 5.60589 89.9072 5.75928C89.7094 5.90869 89.6045 6.13433 89.6045 6.45459V12.3716C89.6045 12.8241 89.7416 13.1479 90.001 13.3608C90.2642 13.5768 90.6704 13.6929 91.2363 13.6929C92.3834 13.6928 93.2381 13.3148 93.8184 12.5688C94.404 11.7987 94.7021 10.7718 94.7021 9.47803C94.7021 8.22208 94.3546 7.25939 93.6719 6.57666L93.6699 6.57471C93.0038 5.87555 92.0761 5.521 90.874 5.521ZM39.8008 13.4507C39.6921 13.4705 39.5919 13.4967 39.5 13.5298C39.5919 13.4968 39.6921 13.4705 39.8008 13.4507ZM40.7734 13.4243C40.8893 13.4345 41.0026 13.4487 41.1133 13.4673C41.0026 13.4487 40.8893 13.4345 40.7734 13.4243ZM93.4707 13.0737C93.4952 13.0531 93.5191 13.0318 93.543 13.0103C93.5191 13.0318 93.4952 13.0531 93.4707 13.0737ZM82.0977 12.2866C82.0715 12.3815 82.0411 12.47 82.0059 12.5522C81.9883 12.5933 81.9691 12.6325 81.9492 12.6704H81.9502C82.0098 12.5567 82.0585 12.4287 82.0977 12.2866ZM40.1123 5.521C39.6657 5.52104 39.3487 5.60589 39.1455 5.75928C38.9477 5.90869 38.8428 6.13433 38.8428 6.45459V11.3384C38.8428 11.8264 38.9444 12.157 39.125 12.354C39.3224 12.5506 39.6439 12.6596 40.1123 12.6597C40.9955 12.6597 41.7262 12.3197 42.3105 11.6353L42.4199 11.5015C42.95 10.8225 43.2167 9.99493 43.2168 9.01318C43.2168 7.96416 42.9292 7.12812 42.3633 6.49561V6.49463C41.7983 5.84651 41.0508 5.521 40.1123 5.521ZM43.4238 12.186C43.1624 12.3805 42.8727 12.5609 42.5547 12.7271C42.8727 12.5609 43.1624 12.3806 43.4238 12.186ZM39.1797 12.5269C39.2317 12.5629 39.2878 12.5959 39.3496 12.6235C39.2878 12.5959 39.2317 12.5629 39.1797 12.5269ZM42.2715 11.8286C42.1828 11.923 42.0902 12.0093 41.9951 12.0894C42.0901 12.0093 42.1828 11.923 42.2715 11.8286ZM94.5156 11.4419C94.444 11.6568 94.3572 11.8593 94.2588 12.0513C94.3572 11.8593 94.444 11.6569 94.5156 11.4419ZM43.9141 11.7729H43.915H43.9141ZM42.3867 11.6997L42.499 11.562C42.5177 11.5381 42.5347 11.513 42.5527 11.4888C42.4997 11.5602 42.4453 11.6313 42.3867 11.6997ZM42.8867 10.9507C42.8009 11.1203 42.7022 11.2826 42.5908 11.438C42.7022 11.2826 42.801 11.1204 42.8867 10.9507ZM96.3193 11.4204C96.3233 11.4115 96.3281 11.403 96.332 11.394C96.3281 11.403 96.3233 11.4115 96.3193 11.4204ZM96.4541 11.0874C96.4596 11.0721 96.4653 11.0569 96.4707 11.0415C96.4653 11.0569 96.4596 11.0721 96.4541 11.0874ZM44.542 11.0239C44.5834 10.9622 44.6227 10.9 44.6602 10.8374C44.6227 10.9 44.5834 10.9622 44.542 11.0239ZM44.7012 10.7671C44.7364 10.7056 44.7702 10.6439 44.8018 10.5815C44.7702 10.6439 44.7364 10.7056 44.7012 10.7671ZM96.5664 10.7358C96.5704 10.7213 96.5733 10.7065 96.5771 10.6919C96.5733 10.7065 96.5704 10.7213 96.5664 10.7358ZM44.8359 10.5112C44.8634 10.454 44.8887 10.3963 44.9131 10.3384C44.8887 10.3963 44.8634 10.454 44.8359 10.5112ZM44.9492 10.2495C44.9723 10.1905 44.9947 10.1315 45.0146 10.0718C44.9947 10.1315 44.9723 10.1905 44.9492 10.2495ZM117.631 10.0776C117.591 10.0905 117.547 10.0981 117.497 10.0981C117.547 10.0981 117.591 10.0906 117.631 10.0776ZM117.644 10.0728C117.659 10.0671 117.673 10.06 117.687 10.0522C117.673 10.0599 117.659 10.0671 117.644 10.0728ZM84.8623 10.0522C84.8722 10.0579 84.8828 10.0623 84.8936 10.0669C84.8828 10.0623 84.8722 10.0579 84.8623 10.0522ZM127.927 10.0522C127.937 10.058 127.948 10.0622 127.959 10.0669C127.948 10.0622 127.937 10.058 127.927 10.0522ZM117.272 10.0376C117.285 10.0468 117.299 10.054 117.314 10.061C117.299 10.054 117.285 10.0468 117.272 10.0376ZM117.701 10.0435C117.711 10.0373 117.72 10.0311 117.729 10.0239C117.72 10.0311 117.711 10.0374 117.701 10.0435ZM127.881 10.02C127.89 10.0283 127.901 10.0356 127.911 10.0425C127.901 10.0356 127.89 10.0283 127.881 10.02ZM84.8184 10.021C84.8253 10.0269 84.8324 10.0324 84.8398 10.0376C84.8324 10.0324 84.8253 10.0269 84.8184 10.021ZM117.224 9.9917C117.235 10.0055 117.247 10.0177 117.261 10.0288C117.247 10.0177 117.235 10.0055 117.224 9.9917ZM84.7744 9.97412C84.7821 9.98424 84.7902 9.99357 84.7988 10.0024C84.7902 9.99356 84.7821 9.98426 84.7744 9.97412ZM117.752 10.0024C117.758 9.99617 117.764 9.98981 117.77 9.98291C117.764 9.9898 117.758 9.99618 117.752 10.0024ZM127.84 9.97705C127.847 9.98612 127.854 9.9944 127.862 10.0024C127.854 9.99438 127.847 9.98614 127.84 9.97705ZM45.0371 10.0015C45.0568 9.93834 45.0747 9.87494 45.0908 9.81104C45.0747 9.87494 45.0568 9.93835 45.0371 10.0015ZM117.189 9.93604C117.197 9.95169 117.205 9.96562 117.215 9.979C117.205 9.96562 117.197 9.9517 117.189 9.93604ZM117.789 9.95752C117.794 9.94983 117.798 9.94143 117.803 9.93311C117.798 9.94143 117.794 9.94983 117.789 9.95752ZM84.7383 9.91553C84.7454 9.93015 84.7533 9.94369 84.7617 9.95654C84.7533 9.94368 84.7454 9.93015 84.7383 9.91553ZM127.81 9.93018C127.813 9.93737 127.818 9.94395 127.822 9.95068C127.818 9.94395 127.813 9.93738 127.81 9.93018ZM117.168 9.86768C117.172 9.88448 117.175 9.90056 117.181 9.91553C117.175 9.90056 117.172 9.88449 117.168 9.86768ZM84.7178 9.86572C84.722 9.87795 84.7265 9.88962 84.7314 9.90088C84.7265 9.88962 84.7219 9.87795 84.7178 9.86572ZM45.1133 9.72021C45.1287 9.6517 45.1409 9.58259 45.1523 9.51318C45.1409 9.58259 45.1287 9.6517 45.1133 9.72021ZM43.2314 8.07178H43.2305H43.2314ZM93.3545 6.15869C93.4919 6.26343 93.6212 6.37931 93.7422 6.50635C93.9628 6.72699 94.1491 6.97534 94.3008 7.25146C94.3311 7.30668 94.3601 7.36297 94.3877 7.42041H94.3887C94.2231 7.07563 94.007 6.7712 93.7422 6.50635C93.656 6.4159 93.5662 6.33061 93.4717 6.25146L93.3545 6.15869ZM96.0684 7.02295C96.0162 6.94065 95.9612 6.86081 95.9043 6.78271C95.9612 6.86079 96.0162 6.94066 96.0684 7.02295ZM118.705 6.83057C118.716 6.81387 118.728 6.7981 118.739 6.78174C118.728 6.7981 118.716 6.81388 118.705 6.83057ZM44.5732 6.73682C44.5401 6.68437 44.507 6.63209 44.4717 6.58154C44.507 6.6321 44.54 6.68437 44.5732 6.73682ZM95.8203 6.67334C95.7863 6.62955 95.7524 6.58585 95.7168 6.54346C95.7524 6.58585 95.7863 6.62955 95.8203 6.67334ZM48.8438 6.29834C48.8666 6.36359 48.894 6.43339 48.9287 6.50635C48.8939 6.43334 48.8666 6.36365 48.8438 6.29834ZM44.3926 6.4751C44.3673 6.4414 44.3427 6.40732 44.3164 6.37451C44.3427 6.40732 44.3673 6.4414 44.3926 6.4751ZM95.6562 6.47412C95.6106 6.42191 95.5637 6.37082 95.5156 6.3208C95.5638 6.37082 95.6106 6.42191 95.6562 6.47412ZM44.2256 6.26709C44.2042 6.24225 44.1831 6.21717 44.1611 6.19287C44.1831 6.21717 44.2042 6.24225 44.2256 6.26709ZM95.4375 6.2417C95.3991 6.2037 95.3602 6.16607 95.3203 6.12939C95.3602 6.16606 95.3991 6.20371 95.4375 6.2417ZM119.436 6.0542H119.437H119.436ZM44.0527 6.07861C44.0255 6.05086 43.9978 6.02358 43.9697 5.99658C43.9978 6.02358 44.0255 6.05086 44.0527 6.07861ZM95.21 6.03174C95.1697 5.99714 95.1286 5.96351 95.0869 5.93018C95.1286 5.96351 95.1697 5.99714 95.21 6.03174ZM43.8906 5.92236C43.8591 5.89368 43.8265 5.86616 43.7939 5.83838C43.8265 5.86616 43.8591 5.89367 43.8906 5.92236ZM115.187 5.80713C115.168 5.8378 115.153 5.87385 115.139 5.91455C115.153 5.87385 115.168 5.83782 115.187 5.80713ZM95.002 5.86279C94.9357 5.81227 94.8675 5.76377 94.7979 5.71631C94.8675 5.76376 94.9357 5.81228 95.002 5.86279ZM89.7666 5.74756V5.74854V5.74756ZM43.6855 5.74756C43.6533 5.72189 43.6201 5.6972 43.5869 5.67236C43.6201 5.6972 43.6533 5.72189 43.6855 5.74756ZM123.812 5.6665C123.808 5.67328 123.805 5.68088 123.802 5.68799C123.814 5.66259 123.828 5.63883 123.844 5.61768L123.812 5.6665ZM55.5635 5.61475H55.5625H55.5635ZM102.271 5.57666C102.2 5.60436 102.139 5.63601 102.088 5.67139C102.139 5.63599 102.2 5.60439 102.271 5.57666ZM39.2783 5.56592V5.56689V5.56592ZM57.6934 5.47705C57.6383 5.50092 57.5852 5.53104 57.5332 5.56592C57.5852 5.53109 57.6383 5.50088 57.6934 5.47705ZM40.9229 5.51025C40.8245 5.48718 40.7236 5.4687 40.6201 5.45459C40.7235 5.46867 40.8245 5.48723 40.9229 5.51025ZM124.043 5.48096H124.044H124.043ZM49.2676 5.44873C49.2498 5.45271 49.2327 5.45764 49.2158 5.4624C49.2624 5.44924 49.3121 5.43833 49.3652 5.43115L49.2676 5.44873ZM39.792 5.43701L39.791 5.43799L39.792 5.43701ZM90.5537 5.43701L90.5527 5.43799L90.5537 5.43701ZM81.7891 5.45068C81.7717 5.44788 81.7546 5.44429 81.7373 5.44189L81.7178 5.43994C81.7415 5.44301 81.7652 5.44684 81.7891 5.45068ZM81.1631 5.42627C81.076 5.43004 80.9927 5.43632 80.9131 5.44385C80.9927 5.43634 81.076 5.431 81.1631 5.42725C81.2504 5.42347 81.3416 5.42139 81.4365 5.42139C81.3416 5.42139 81.2504 5.4225 81.1631 5.42627ZM54.4072 5.34814V5.34717V5.34814ZM86.1182 5.34717C86.1428 5.3553 86.1691 5.36313 86.1973 5.36963C86.1691 5.36312 86.1428 5.35532 86.1182 5.34717ZM98.4219 5.34717C98.4465 5.3553 98.4728 5.36313 98.501 5.36963C98.4728 5.36312 98.4465 5.35532 98.4219 5.34717ZM110.88 5.34814C110.855 5.35622 110.829 5.36317 110.801 5.36963C110.829 5.36315 110.855 5.35626 110.88 5.34814ZM111.681 5.34717C111.705 5.3553 111.732 5.36313 111.76 5.36963C111.732 5.36312 111.705 5.35532 111.681 5.34717ZM116.619 5.34814C116.595 5.35622 116.568 5.36317 116.54 5.36963C116.568 5.36315 116.595 5.35626 116.619 5.34814ZM103.478 5.34326C103.486 5.34035 103.493 5.33771 103.501 5.33447C103.493 5.3377 103.486 5.34035 103.478 5.34326ZM106.81 5.33545C106.815 5.33785 106.821 5.33909 106.827 5.34131C106.821 5.3391 106.815 5.33783 106.81 5.33545ZM45.4395 5.31982C45.4485 5.32388 45.4581 5.32681 45.4678 5.33057C45.4581 5.32683 45.4485 5.32386 45.4395 5.31982ZM58.2559 5.32959C58.2651 5.32598 58.2745 5.32371 58.2832 5.31982C58.2745 5.32369 58.2651 5.32599 58.2559 5.32959ZM45.3789 5.2876C45.394 5.2971 45.4103 5.30564 45.4277 5.31396C45.4103 5.30567 45.394 5.29706 45.3789 5.2876ZM58.2939 5.31396C58.3114 5.30566 58.3277 5.29708 58.3428 5.2876C58.3277 5.29704 58.3114 5.3057 58.2939 5.31396ZM103.569 5.29443C103.578 5.28756 103.587 5.28063 103.595 5.27295C103.587 5.28062 103.578 5.28756 103.569 5.29443ZM106.717 5.27588C106.724 5.28253 106.731 5.2884 106.739 5.29443C106.731 5.28843 106.724 5.2825 106.717 5.27588ZM45.3281 5.24951C45.34 5.26025 45.3531 5.27018 45.3672 5.27979C45.353 5.27021 45.34 5.26021 45.3281 5.24951ZM58.3555 5.27979C58.3676 5.27157 58.3782 5.26246 58.3887 5.25342C58.3782 5.26242 58.3676 5.2716 58.3555 5.27979ZM103.602 5.26611C103.61 5.25737 103.617 5.24849 103.624 5.23877C103.617 5.24849 103.61 5.25738 103.602 5.26611ZM106.69 5.24658C106.696 5.25342 106.701 5.25979 106.707 5.26611C106.701 5.2598 106.696 5.2534 106.69 5.24658ZM45.291 5.20947C45.3 5.22118 45.3102 5.23203 45.3213 5.24268C45.3102 5.23205 45.3 5.22116 45.291 5.20947ZM58.4092 5.23584C58.4166 5.22824 58.4223 5.21954 58.4287 5.21143C58.4223 5.21953 58.4166 5.22826 58.4092 5.23584ZM103.651 5.18994C103.646 5.20435 103.638 5.21717 103.63 5.22998C103.647 5.2032 103.659 5.17388 103.665 5.14014L103.651 5.18994ZM45.2646 5.16748C45.2695 5.17708 45.2742 5.18678 45.2803 5.1958C45.2742 5.18679 45.2695 5.17708 45.2646 5.16748ZM58.4414 5.1958C58.4475 5.18676 58.4521 5.17711 58.457 5.16748C58.4521 5.17711 58.4475 5.18677 58.4414 5.1958ZM54.0742 5.00049C54.0713 5.01887 54.0703 5.03844 54.0703 5.05908C54.0703 5.03549 54.0724 5.01333 54.0762 4.99268L54.0742 5.00049ZM50.3994 5.03369C50.3985 5.01944 50.3979 5.00574 50.3955 4.99268C50.3979 5.00575 50.3985 5.01944 50.3994 5.03369ZM93.0049 4.94092C93.1025 4.96356 93.199 4.98782 93.2939 5.01514C93.199 4.98781 93.1025 4.96357 93.0049 4.94092ZM35.1045 4.99854C35.1036 5.00391 35.1042 5.00956 35.1035 5.01514C35.1042 5.00956 35.1036 5.00391 35.1045 4.99854ZM50.3955 4.99268L50.3838 4.94873C50.3831 4.94667 50.3816 4.94489 50.3809 4.94287C50.3869 4.9585 50.3923 4.97486 50.3955 4.99268ZM106.663 4.95557C106.659 4.96676 106.655 4.97849 106.652 4.99072C106.655 4.97848 106.659 4.96676 106.663 4.95557ZM54.0918 4.93896C54.0856 4.95421 54.0806 4.97041 54.0771 4.98779C54.0806 4.97043 54.0857 4.95421 54.0918 4.93896ZM128.22 4.97314C128.216 4.92968 128.21 4.88872 128.203 4.8501C128.21 4.88872 128.216 4.92968 128.22 4.97314ZM111.446 4.94092C111.442 4.95083 111.44 4.96136 111.437 4.97217C111.439 4.96136 111.442 4.95084 111.446 4.94092ZM75.8516 4.94092C75.8484 4.94843 75.8462 4.95633 75.8438 4.96436C75.8462 4.95633 75.8484 4.94844 75.8516 4.94092ZM85.8838 4.94092C85.8806 4.94843 85.8785 4.95633 85.876 4.96436C85.8785 4.95633 85.8806 4.94844 85.8838 4.94092ZM98.1875 4.94092C98.1843 4.94843 98.1822 4.95633 98.1797 4.96436C98.1822 4.95633 98.1843 4.94844 98.1875 4.94092ZM35.123 4.93896C35.1195 4.9471 35.117 4.95561 35.1143 4.96436C35.117 4.95561 35.1195 4.94711 35.123 4.93896ZM45.2568 4.92432C45.2528 4.93273 45.25 4.94157 45.2471 4.95068C45.25 4.94156 45.2528 4.93273 45.2568 4.92432ZM106.688 4.90674C106.682 4.91565 106.678 4.92524 106.673 4.93506C106.678 4.92523 106.682 4.91566 106.688 4.90674ZM54.1191 4.89014C54.1114 4.90069 54.1055 4.9123 54.0996 4.92432C54.1055 4.91229 54.1114 4.90071 54.1191 4.89014ZM98.2158 4.89209C98.2081 4.90221 98.2013 4.91288 98.1953 4.92432C98.2013 4.91286 98.2081 4.90222 98.2158 4.89209ZM111.475 4.89209C111.467 4.90221 111.46 4.91288 111.454 4.92432C111.46 4.91286 111.467 4.90222 111.475 4.89209ZM75.8799 4.89209C75.8724 4.90186 75.8662 4.91233 75.8604 4.92334C75.8662 4.91232 75.8724 4.90188 75.8799 4.89209ZM85.9121 4.89209C85.9046 4.90186 85.8984 4.91233 85.8926 4.92334C85.8984 4.91232 85.9046 4.90188 85.9121 4.89209ZM50.3701 4.92041C50.365 4.9105 50.3599 4.90098 50.3535 4.89209C50.3599 4.90099 50.365 4.91048 50.3701 4.92041ZM35.1523 4.89014C35.1449 4.89962 35.1387 4.90974 35.1328 4.92041C35.1387 4.90973 35.1449 4.89964 35.1523 4.89014ZM45.2803 4.88525C45.276 4.89065 45.2732 4.89704 45.2695 4.90283C45.2732 4.89704 45.276 4.89065 45.2803 4.88525ZM54.1543 4.85205C54.1438 4.86096 54.1345 4.87087 54.126 4.88135C54.1345 4.87084 54.1438 4.861 54.1543 4.85205ZM75.9199 4.85205C75.9092 4.8605 75.8995 4.86953 75.8906 4.87939C75.8995 4.86951 75.9092 4.86052 75.9199 4.85205ZM85.9521 4.85205C85.9414 4.8605 85.9317 4.86953 85.9229 4.87939C85.9317 4.86951 85.9414 4.86052 85.9521 4.85205ZM98.2559 4.85205C98.2451 4.8605 98.2354 4.86953 98.2266 4.87939C98.2354 4.86951 98.2451 4.86052 98.2559 4.85205ZM111.512 4.854C111.502 4.86184 111.493 4.87038 111.485 4.87939C111.493 4.87036 111.502 4.86186 111.512 4.854ZM50.3428 4.87842C50.3347 4.86896 50.3261 4.8602 50.3164 4.85205C50.3261 4.86022 50.3348 4.86893 50.3428 4.87842ZM35.1904 4.85205C35.18 4.8602 35.1707 4.86895 35.1621 4.87842C35.1707 4.86892 35.18 4.86023 35.1904 4.85205ZM45.3184 4.84912C45.3118 4.85413 45.3056 4.85923 45.2998 4.86475C45.3056 4.85923 45.3118 4.85412 45.3184 4.84912ZM106.777 4.82764C106.767 4.83318 106.757 4.8378 106.748 4.84424C106.757 4.8378 106.767 4.83318 106.777 4.82764ZM50.3027 4.84131C50.2939 4.83492 50.2845 4.82918 50.2744 4.82373C50.2845 4.8292 50.2939 4.8349 50.3027 4.84131ZM54.1963 4.82373C54.1863 4.8292 54.1768 4.8349 54.168 4.84131C54.1768 4.83487 54.1863 4.82923 54.1963 4.82373ZM35.2324 4.82471C35.2233 4.82945 35.2143 4.83392 35.2061 4.83936C35.2143 4.83389 35.2233 4.82947 35.2324 4.82471ZM45.3701 4.81787C45.3594 4.82276 45.3493 4.82777 45.3398 4.8335C45.3493 4.82779 45.3594 4.82275 45.3701 4.81787ZM35.2842 4.80322C35.2766 4.80572 35.2688 4.80722 35.2617 4.81006C35.2688 4.80721 35.2766 4.80573 35.2842 4.80322ZM45.5303 4.77881C45.4769 4.78388 45.4306 4.79338 45.3916 4.80811C45.4306 4.79344 45.4769 4.78388 45.5303 4.77881ZM128.19 4.79346C128.186 4.77599 128.182 4.75902 128.178 4.74268C128.182 4.75902 128.186 4.77599 128.19 4.79346ZM128.16 4.69092C128.153 4.67 128.145 4.6501 128.136 4.63135C128.145 4.6501 128.153 4.66999 128.16 4.69092ZM118.401 4.57471H118.402H118.401ZM128.121 4.604C128.112 4.58662 128.102 4.57045 128.091 4.55518C128.102 4.57047 128.112 4.58661 128.121 4.604ZM128.068 4.5249C128.055 4.50937 128.041 4.49579 128.026 4.48291C128.041 4.49581 128.055 4.50935 128.068 4.5249ZM128.008 4.46631C127.994 4.45602 127.98 4.44819 127.965 4.43994C127.98 4.44821 127.994 4.456 128.008 4.46631ZM118.088 4.43408C118.08 4.43069 118.072 4.42733 118.063 4.42432C118.072 4.42735 118.08 4.43067 118.088 4.43408ZM35.2607 23.3433C35.2771 23.3499 35.2946 23.356 35.3135 23.3608C35.2946 23.356 35.2771 23.3499 35.2607 23.3433ZM43.4766 21.146C43.4586 21.1728 43.4394 21.1987 43.4209 21.2251C43.4394 21.1987 43.4586 21.1728 43.4766 21.146ZM44.2559 18.8511C44.2582 18.829 44.2605 18.8069 44.2627 18.7847C44.2605 18.8069 44.2582 18.829 44.2559 18.8511ZM41.0293 5.5376C40.9941 5.528 40.9587 5.51866 40.9229 5.51025C40.9587 5.51864 40.9941 5.52802 41.0293 5.5376Z" fill="#2E2E28"/>
<defs>
<clipPath id="clip0_36_1038">
<rect width="31" height="28" fill="white"/>
</clipPath>
</defs>
</svg>
