<svg width="94" height="20" viewBox="0 0 94 20" fill="none" xmlns="http://www.w3.org/2000/svg">
<path d="M37.5812 4.67514C37.5812 5.28382 37.3458 5.77191 36.8749 6.13942C36.3925 6.50693 35.715 6.69068 34.8421 6.69068C34.0841 6.69068 33.3319 6.55861 32.5854 6.29446C31.8389 6.01884 31.1613 5.66281 30.5526 5.2264C29.944 4.78998 29.4559 4.31338 29.0884 3.79657C28.7209 3.26828 28.5371 2.75722 28.5371 2.26338C28.5371 1.72361 28.6692 1.33888 28.9333 1.10918C29.186 0.868009 29.5305 0.747423 29.9669 0.747423C30.4837 0.747423 31.0005 0.931174 31.5174 1.29868C32.0227 1.6547 32.4763 2.16002 32.8783 2.81464C33.2802 3.45777 33.5788 4.21576 33.7741 5.08859C33.8315 5.34125 33.975 5.47331 34.2047 5.4848C34.2851 5.49628 34.3713 5.50203 34.4631 5.50203C34.5435 5.50203 34.6239 5.50203 34.7043 5.50203C35.3589 5.50203 35.8528 5.39292 36.1858 5.17472C36.5189 4.94503 36.6854 4.63494 36.6854 4.24447C36.6854 3.80806 36.4844 3.38887 36.0825 2.98691C35.6805 2.57347 35.112 2.22893 34.377 1.9533C34.2736 1.91885 34.222 1.84994 34.222 1.74658C34.222 1.67767 34.2507 1.63747 34.3081 1.62599C34.3655 1.60302 34.4344 1.60302 34.5148 1.62599C35.5255 1.9935 36.2892 2.44139 36.806 2.96968C37.3228 3.48649 37.5812 4.05497 37.5812 4.67514ZM33.1194 5.31253C33.1998 5.3355 33.2687 5.32402 33.3262 5.27808C33.3721 5.22066 33.3836 5.15175 33.3606 5.07136C33.1654 4.35932 32.8725 3.76212 32.4821 3.27977C32.0801 2.79742 31.6322 2.43565 31.1384 2.19448C30.6445 1.94181 30.1622 1.81549 29.6913 1.81549C29.209 1.81549 28.9678 2.00498 28.9678 2.38397C28.9678 2.71702 29.163 3.07879 29.5535 3.46926C29.944 3.85974 30.455 4.2215 31.0867 4.55455C31.7183 4.8876 32.3959 5.14026 33.1194 5.31253Z" fill="#2E2E28"/>
<path d="M37.5806 9.1984C37.5806 9.61184 37.4083 9.92193 37.0637 10.1286C36.7192 10.3354 36.1852 10.3469 35.4617 10.1631L30.4659 8.83664C30.018 8.71031 29.7079 8.69308 29.5356 8.78496C29.3634 8.86535 29.2772 8.98594 29.2772 9.14672C29.2772 9.39938 29.438 9.6865 29.7596 10.0081C30.0697 10.3181 30.5003 10.6455 31.0516 10.99C31.5914 11.323 32.2058 11.6504 32.8949 11.9719C33.5724 12.282 34.2902 12.5691 35.0482 12.8333C35.7947 13.0974 36.524 13.3099 37.236 13.4707C37.3623 13.5051 37.4255 13.5855 37.4255 13.7118L37.4255 14.4354C37.4255 14.5961 37.3509 14.6593 37.2016 14.6249L26.4003 12.1097C26.1936 12.0523 26.0501 12.0523 25.9697 12.1097C25.8893 12.1557 25.8433 12.259 25.8319 12.4198L25.7802 12.9366C25.7687 13.1089 25.694 13.1835 25.5562 13.1606C25.4529 13.1376 25.3897 13.0572 25.3667 12.9194C25.2978 12.506 25.2174 12.1384 25.1256 11.8169C25.0222 11.4953 24.8901 11.2369 24.7293 11.0417C24.6604 10.9498 24.626 10.8637 24.626 10.7833C24.626 10.6455 24.7121 10.5938 24.8844 10.6282L32.2058 12.3165C32.2862 12.3279 32.3321 12.3107 32.3436 12.2648C32.3551 12.2188 32.3264 12.1786 32.2575 12.1442C31.3157 11.6848 30.575 11.2484 30.0352 10.8349C29.4954 10.4215 29.1107 10.0368 28.881 9.68075C28.6513 9.31325 28.5365 8.98019 28.5365 8.68159C28.5365 8.25667 28.7087 7.94658 29.0533 7.75134C29.3978 7.55611 29.9261 7.55611 30.6381 7.75134L35.6339 9.06058C35.9555 9.14098 36.1967 9.14672 36.3574 9.07781C36.5182 9.00891 36.5986 8.88257 36.5986 8.69882C36.5986 8.46913 36.4493 8.24518 36.1507 8.02698C35.8406 7.80877 35.2607 7.57333 34.4108 7.32067C34.2845 7.28622 34.2213 7.21157 34.2213 7.09673C34.2213 7.00485 34.2558 6.95317 34.3247 6.94168C34.3936 6.91872 34.474 6.91872 34.5659 6.94168C35.3468 7.15989 35.9612 7.39533 36.4091 7.64798C36.8455 7.90065 37.1499 8.15905 37.3221 8.42319C37.4944 8.67585 37.5806 8.93426 37.5806 9.1984Z" fill="#2E2E28"/>
<path d="M37.5804 17.337C37.5804 17.7275 37.4253 18.0319 37.1152 18.2501C36.8052 18.4683 36.3056 18.5027 35.6165 18.3534L29.3804 16.9236C29.2081 16.8891 29.122 16.958 29.122 17.1303L29.122 17.7849C29.122 17.9457 29.0473 18.0261 28.898 18.0261C28.8177 18.0261 28.7545 17.9974 28.7086 17.94C28.6626 17.8826 28.6396 17.8136 28.6396 17.7333L28.6396 17.1131C28.6396 16.8489 28.5191 16.6939 28.2779 16.648L26.4346 16.2345C26.3083 16.2001 26.2451 16.1197 26.2451 15.9933L26.2451 15.287C26.2451 15.1263 26.3198 15.0631 26.4691 15.0976L28.3812 15.5282C28.5535 15.5627 28.6396 15.4938 28.6396 15.3215L28.6396 14.3396C28.6396 14.1443 28.7143 14.0467 28.8636 14.0467C29.0359 14.0467 29.122 14.1673 29.122 14.4085L29.122 15.3387C29.122 15.5914 29.2426 15.7464 29.4838 15.8039L35.7888 17.2509C36.0414 17.3083 36.2424 17.3026 36.3917 17.2337C36.5295 17.1533 36.5984 17.0212 36.5984 16.8375C36.5984 16.5733 36.4491 16.3321 36.1505 16.1139C35.8519 15.8842 35.2835 15.6431 34.4451 15.3904C34.2958 15.3445 34.2211 15.2698 34.2211 15.1665C34.2211 15.0861 34.2556 15.0344 34.3245 15.0114C34.3934 14.9884 34.5197 15.0057 34.7035 15.0631C35.4844 15.2813 36.0816 15.5225 36.4951 15.7866C36.9085 16.0393 37.1956 16.2977 37.3564 16.5618C37.5057 16.826 37.5804 17.0844 37.5804 17.337Z" fill="#2E2E28"/>
<path d="M56.4941 0.387695C57.5238 0.387695 58.4447 0.58807 59.2529 0.992188C60.0599 1.39575 60.6933 1.9589 61.1514 2.68066C61.611 3.38773 61.8398 4.20853 61.8398 5.13867C61.8398 6.17632 61.5464 7.12252 60.96 7.97461L60.8379 8.14453C60.1719 9.02087 59.3291 9.64425 58.3115 10.0127L58.3047 10.0156C58.2176 10.0406 58.1857 10.0738 58.1738 10.1045C58.1753 10.1088 58.1769 10.1163 58.1865 10.126C58.2042 10.1436 58.2369 10.1653 58.291 10.1885L58.2939 10.1904C58.8602 10.4559 59.3058 10.8289 59.627 11.3105H59.626C59.9627 11.7896 60.2167 12.4226 60.3906 13.2051L60.959 15.8408V15.8418C61.1479 16.7348 61.3694 17.3557 61.6162 17.7178C61.8594 18.0744 62.1581 18.2432 62.5156 18.2432C62.6433 18.2431 62.7508 18.2257 62.8408 18.1963C62.9518 18.1482 63.0912 18.0684 63.2588 17.9512L63.2637 17.9482C63.4175 17.8521 63.5764 17.8238 63.7305 17.8848C63.8084 17.907 63.8762 17.9493 63.9219 18.0146C63.9667 18.0789 63.9843 18.1565 63.9844 18.2393C63.9844 18.5832 63.76 18.8685 63.3672 19.1006L63.3643 19.1025C62.9684 19.3185 62.5117 19.4248 61.998 19.4248C61.2247 19.4247 60.5846 19.1702 60.0859 18.6582C59.6519 18.2124 59.3306 17.5773 59.1172 16.7607L59.0322 16.3994L58.4375 13.5312V13.5303C58.2487 12.6035 58.0361 11.9072 57.8008 11.4365L57.7988 11.4336C57.5833 10.9697 57.2815 10.6628 56.8955 10.502H56.8936C56.5155 10.3376 55.9802 10.252 55.2803 10.252C55.059 10.252 54.897 10.314 54.7822 10.4287L54.7773 10.4336C54.6621 10.5344 54.6045 10.6615 54.6045 10.8232V17.2832C54.6045 17.6372 54.6738 17.8511 54.7812 17.96C54.8358 18.0063 54.9315 18.0563 55.0791 18.1055C55.2279 18.1551 55.4208 18.2016 55.6592 18.2441H55.6582L56.6143 18.3994H56.6162C56.7224 18.4188 56.8151 18.4577 56.8818 18.5244C56.9508 18.5935 56.9824 18.6828 56.9824 18.7822C56.9824 18.9076 56.9418 19.0175 56.8477 19.0928C56.7578 19.1647 56.634 19.1924 56.4941 19.1924H51.249C51.1106 19.1924 50.9888 19.1671 50.8994 19.1016C50.8042 19.0318 50.7617 18.9276 50.7617 18.8076C50.7618 18.7029 50.8011 18.6119 50.8779 18.541C50.9516 18.4731 51.0539 18.4283 51.1748 18.4004L51.1797 18.3994L51.7725 18.2959C51.9493 18.2622 52.0913 18.2236 52.1992 18.1797C52.3085 18.1352 52.3761 18.0881 52.4131 18.0449L52.418 18.0391L52.4189 18.04C52.4619 17.9971 52.5007 17.925 52.5283 17.8145C52.5557 17.7046 52.5703 17.5626 52.5703 17.3867V2.19238C52.5703 2.0165 52.5558 1.87453 52.5283 1.76465C52.5007 1.65433 52.4618 1.58297 52.4189 1.54004L52.4131 1.53418C52.376 1.49106 52.3083 1.44482 52.1992 1.40039C52.0912 1.35643 51.9494 1.3169 51.7725 1.2832V1.28223L51.1797 1.17969H51.1748V1.17871C51.0541 1.15084 50.9515 1.10685 50.8779 1.03906C50.801 0.96808 50.7617 0.876363 50.7617 0.771484C50.7617 0.651509 50.8042 0.547328 50.8994 0.477539C50.9888 0.412143 51.1107 0.387695 51.249 0.387695H56.4941ZM68.2812 0.387695C68.4211 0.387695 68.5449 0.414485 68.6348 0.486328C68.7289 0.561631 68.7686 0.67242 68.7686 0.797852C68.7685 0.897183 68.7379 0.986683 68.6689 1.05566C68.6022 1.12245 68.5087 1.16035 68.4023 1.17969L68.3994 1.18066L67.7021 1.28418C67.3626 1.3351 67.1605 1.4254 67.0645 1.53516C66.9695 1.64382 66.9082 1.86111 66.9082 2.21875V14.1572C66.9083 15.4523 67.1985 16.443 67.7646 17.1426C68.3287 17.8394 69.1167 18.1913 70.1416 18.1914C71.1845 18.1914 71.9811 17.839 72.5449 17.1426C73.1111 16.443 73.4013 15.4523 73.4014 14.1572V2.73535C73.4014 2.27865 73.3287 1.93638 73.1943 1.69922C73.0631 1.46784 72.8703 1.33021 72.6084 1.2832V1.28418L71.9102 1.18066L71.9072 1.17969C71.8008 1.16035 71.7074 1.12245 71.6406 1.05566C71.5717 0.986689 71.5411 0.897165 71.541 0.797852C71.541 0.67242 71.5807 0.561631 71.6748 0.486328C71.7647 0.414457 71.8885 0.387695 72.0283 0.387695H75.749C75.8873 0.387695 76.0093 0.412186 76.0986 0.477539C76.1938 0.547328 76.2373 0.651509 76.2373 0.771484C76.2373 0.876315 76.1979 0.968092 76.1211 1.03906C76.0474 1.10705 75.9442 1.15079 75.8232 1.17871L75.8184 1.18066V1.17969L75.2236 1.2832C74.9597 1.32985 74.7661 1.46561 74.6348 1.69336C74.5007 1.92607 74.4277 2.26208 74.4277 2.70996V14.1309C74.4277 15.7168 74.0006 16.9999 73.1367 17.9697C72.2716 18.9408 71.1229 19.4248 69.7021 19.4248C68.756 19.4247 67.9114 19.2054 67.1709 18.7646L67.168 18.7637C66.446 18.3058 65.8835 17.68 65.4795 16.8896L65.4785 16.8887C65.0745 16.0805 64.874 15.1604 64.874 14.1309V2.19238C64.874 2.0165 64.8595 1.87453 64.832 1.76465C64.8044 1.65433 64.7655 1.58297 64.7227 1.54004L64.7168 1.53418C64.6798 1.49106 64.612 1.44483 64.5029 1.40039C64.3949 1.35643 64.2531 1.3169 64.0762 1.2832V1.28223L63.4834 1.17969H63.4785V1.17871C63.3578 1.15084 63.2553 1.10685 63.1816 1.03906C63.1047 0.96808 63.0654 0.876363 63.0654 0.771484C63.0654 0.651509 63.108 0.547328 63.2031 0.477539C63.2925 0.412143 63.4144 0.387695 63.5527 0.387695H68.2812ZM62.2246 19.3164C62.2661 19.3137 62.3071 19.3109 62.3477 19.3066C62.3071 19.3109 62.2661 19.3137 62.2246 19.3164ZM69.043 19.2852C69.1467 19.2975 69.2518 19.3081 69.3584 19.3145C69.2518 19.3081 69.1467 19.2975 69.043 19.2852ZM70.458 19.2744C70.3773 19.2855 70.2957 19.2953 70.2129 19.3027C70.3786 19.2879 70.5401 19.266 70.6973 19.2363L70.458 19.2744ZM62.3896 19.3018C62.4322 19.2967 62.4741 19.29 62.5156 19.2832C62.4741 19.29 62.4322 19.2967 62.3896 19.3018ZM62.5605 19.2754C62.6011 19.2681 62.6411 19.2599 62.6807 19.251C62.6411 19.2599 62.6011 19.2681 62.5605 19.2754ZM68.749 19.2412C68.8062 19.2514 68.8638 19.2603 68.9219 19.2686C68.8638 19.2602 68.8062 19.2514 68.749 19.2412ZM61.2334 19.2266C61.2779 19.2388 61.3234 19.2479 61.3691 19.2578C61.3234 19.2479 61.2779 19.2388 61.2334 19.2266ZM62.7158 19.2432C62.7514 19.2346 62.7865 19.2248 62.8213 19.2148C62.7865 19.2248 62.7514 19.2346 62.7158 19.2432ZM68.4326 19.1738C68.49 19.1881 68.548 19.2006 68.6064 19.2129C68.548 19.2006 68.49 19.1881 68.4326 19.1738ZM62.8887 19.1953C62.9217 19.1849 62.954 19.1728 62.9863 19.1611C62.954 19.1728 62.9217 19.1849 62.8887 19.1953ZM5.73242 0.387695C6.60815 0.387695 7.39187 0.57181 8.08008 0.942383C8.76606 1.31182 9.30478 1.81393 9.69336 2.44922L9.83594 2.69238C10.1476 3.26933 10.3027 3.91335 10.3027 4.62207C10.3027 5.41863 10.0639 6.16209 9.58789 6.84961L9.58691 6.84863C9.12787 7.51938 8.46043 8.08144 7.58789 8.53516H7.58594C7.50345 8.57644 7.48648 8.61727 7.48633 8.65234C7.48633 8.66919 7.49175 8.6812 7.50293 8.69238C7.51684 8.70607 7.54432 8.72287 7.59473 8.7373L7.59961 8.73926C8.78729 9.14101 9.70921 9.78948 10.3604 10.6865H10.3613C11.0127 11.5669 11.3369 12.6138 11.3369 13.8213C11.3369 14.8532 11.1004 15.7834 10.626 16.6094L10.625 16.6104C10.1504 17.4189 9.49096 18.0524 8.64844 18.5088L8.64746 18.5078C7.82167 18.9643 6.88384 19.1924 5.83594 19.1924H0.487305C0.348867 19.1924 0.227089 19.1671 0.137695 19.1016C0.042512 19.0318 0 18.9276 0 18.8076C0.000105154 18.7029 0.0394159 18.6119 0.116211 18.541C0.189855 18.4731 0.292179 18.4283 0.413086 18.4004L0.417969 18.3994L1.01074 18.2959C1.18757 18.2622 1.32953 18.2236 1.4375 18.1797C1.54674 18.1352 1.61436 18.0881 1.65137 18.0449L1.65625 18.0391L1.65723 18.04C1.70013 17.9971 1.73896 17.925 1.7666 17.8145C1.79403 17.7046 1.80859 17.5626 1.80859 17.3867V2.19238C1.80857 2.0165 1.79407 1.87453 1.7666 1.76465C1.73901 1.65433 1.70003 1.58297 1.65723 1.54004L1.65137 1.53418C1.61432 1.49106 1.54657 1.44483 1.4375 1.40039C1.32951 1.35643 1.18766 1.3169 1.01074 1.2832V1.28223L0.417969 1.17969H0.413086V1.17871C0.292331 1.15084 0.189829 1.10685 0.116211 1.03906C0.0393129 0.96808 0 0.876362 0 0.771484C1.473e-05 0.651509 0.0425284 0.547328 0.137695 0.477539C0.227068 0.412142 0.348986 0.387695 0.487305 0.387695H5.73242ZM15.04 0.387695C15.1709 0.387741 15.2876 0.41239 15.373 0.479492C15.4631 0.55025 15.501 0.654079 15.501 0.771484C15.501 0.896512 15.4511 1.00159 15.3496 1.07324C15.2543 1.14051 15.1222 1.17256 14.9678 1.18164L14.9668 1.18066L14.4814 1.23242L14.4775 1.2334C14.2025 1.24958 14.0295 1.33626 13.9326 1.47461C13.846 1.59828 13.8481 1.81779 14.0186 2.17578H14.0195L17.1953 8.94238C17.2528 9.04142 17.3105 9.06931 17.3652 9.06934C17.4201 9.06934 17.4776 9.04103 17.5352 8.94141L20.583 2.7168L20.6572 2.55762C20.8098 2.19786 20.8262 1.92127 20.7363 1.71582L20.7334 1.70898C20.6463 1.46245 20.4368 1.30723 20.0654 1.25879V1.25781L19.4961 1.18066H19.4922V1.17969C19.3399 1.15276 19.2136 1.11079 19.123 1.04688C19.0281 0.979819 18.9707 0.886921 18.9707 0.771484C18.9707 0.654061 19.0096 0.550251 19.0996 0.479492C19.1851 0.412466 19.3018 0.387695 19.4326 0.387695H23.1016C23.2387 0.387695 23.3596 0.40964 23.4482 0.46875C23.5439 0.532633 23.5898 0.630902 23.5898 0.746094C23.5898 0.858404 23.5484 0.956428 23.4668 1.03223C23.3883 1.10504 23.2784 1.15184 23.1484 1.17969H23.1475L22.8896 1.23047C22.6766 1.27624 22.4803 1.4075 22.3018 1.63477C22.1344 1.87 21.9048 2.26709 21.6143 2.83105L18.2305 9.62793H18.2295C18.1119 9.86311 18.0291 10.0887 17.9795 10.3037V10.3047C17.9303 10.5015 17.9043 10.7344 17.9043 11.0039V17.3096C17.9043 17.6593 17.9632 17.8745 18.0547 17.9854C18.1713 18.0857 18.3791 18.1674 18.6973 18.2178H18.6982L19.8623 18.3994C19.9829 18.4099 20.0891 18.4437 20.166 18.5146C20.2472 18.5896 20.2821 18.6924 20.2822 18.8076C20.2822 18.9274 20.2394 19.0318 20.1445 19.1016C20.0551 19.1671 19.9324 19.1924 19.7939 19.1924H13.9805C13.8421 19.1924 13.7202 19.167 13.6309 19.1016C13.5357 19.0318 13.4922 18.9276 13.4922 18.8076C13.4923 18.6924 13.5273 18.5896 13.6084 18.5146C13.6851 18.4439 13.791 18.41 13.9111 18.3994L15.0762 18.2178L15.3076 18.1738C15.5112 18.125 15.6432 18.0614 15.7158 17.9902C15.8096 17.8808 15.8701 17.6645 15.8701 17.3096V11.2109C15.8701 10.8477 15.7873 10.4917 15.6211 10.1426L11.8232 2.18457L11.8203 2.17969L11.9131 2.14062L11.8203 2.17871C11.7027 1.89331 11.5712 1.68249 11.4287 1.54004C11.2908 1.40219 11.0859 1.29664 10.8047 1.23047V1.22949L10.5732 1.17969V1.17871C10.4437 1.15083 10.3341 1.10489 10.2559 1.03223C10.1742 0.956429 10.1339 0.858404 10.1338 0.746094C10.1338 0.630954 10.1788 0.532635 10.2744 0.46875C10.3631 0.40964 10.4839 0.387695 10.6211 0.387695H15.04ZM49.5371 0.387695C49.7513 0.387695 49.9316 0.441216 50.0635 0.5625C50.1623 0.653433 50.2264 0.774609 50.2598 0.919922L50.2832 1.07324V1.07715L50.4902 5.36621H50.4893C50.5065 5.52093 50.489 5.65992 50.4111 5.76172C50.3294 5.86835 50.2006 5.91016 50.0537 5.91016C49.932 5.91009 49.8234 5.87699 49.7402 5.7998C49.6582 5.72361 49.6131 5.61515 49.5938 5.48926L49.4639 4.63672C49.3273 3.74933 49.0895 3.06842 48.7568 2.58594C48.4196 2.09701 48.0449 1.757 47.6338 1.55957L47.6309 1.55762C47.2113 1.33945 46.8134 1.23341 46.4365 1.2334C45.6812 1.2334 45.1981 1.35524 44.9521 1.57031C44.7053 1.78629 44.5723 2.12471 44.5723 2.60645V8.7041C44.5723 8.80928 44.5989 8.87035 44.6338 8.90527C44.6687 8.94011 44.7291 8.96576 44.834 8.96582H45.7383C46.0989 8.96582 46.3804 8.87066 46.5908 8.6875C46.8022 8.5035 46.953 8.22085 47.0361 7.83008L47.3203 6.53809L47.3213 6.53711C47.3503 6.41173 47.4032 6.30629 47.4883 6.23242C47.5746 6.15761 47.6836 6.12408 47.8057 6.12402C47.9358 6.12402 48.0466 6.17224 48.1201 6.27637C48.189 6.37409 48.2158 6.50806 48.2158 6.66309V12.4775C48.2158 12.6325 48.1891 12.7666 48.1201 12.8643C48.0466 12.9684 47.9358 13.0166 47.8057 13.0166C47.6836 13.0165 47.5746 12.983 47.4883 12.9082C47.403 12.8343 47.3503 12.7281 47.3213 12.6025H47.3203L47.0361 11.3359V11.334C46.916 10.7333 46.7485 10.3679 46.5527 10.2021L46.5498 10.1992C46.3679 10.0325 46.0943 9.94141 45.7129 9.94141H44.834C44.729 9.94147 44.6687 9.96804 44.6338 10.0029C44.5989 10.0379 44.5723 10.0981 44.5723 10.2031V17.2578C44.5723 17.6095 44.6234 17.8403 44.707 17.9707C44.804 18.0777 45.0117 18.1673 45.3652 18.2178H45.3662L46.5801 18.3994H46.584C46.6902 18.4188 46.7829 18.4577 46.8496 18.5244C46.9186 18.5935 46.9502 18.6828 46.9502 18.7822C46.9502 18.9076 46.9095 19.0175 46.8154 19.0928C46.7256 19.1647 46.6018 19.1924 46.4619 19.1924H41.2168C41.0784 19.1924 40.9566 19.1671 40.8672 19.1016C40.772 19.0318 40.7295 18.9276 40.7295 18.8076C40.7296 18.7029 40.7689 18.6119 40.8457 18.541C40.9193 18.4731 41.0217 18.4283 41.1426 18.4004L41.1475 18.3994L41.7402 18.2959C41.9171 18.2622 42.059 18.2236 42.167 18.1797C42.2762 18.1352 42.3439 18.0881 42.3809 18.0449L42.3857 18.0391L42.3867 18.04C42.4296 17.9971 42.4685 17.925 42.4961 17.8145C42.5235 17.7046 42.5381 17.5626 42.5381 17.3867V2.19238C42.5381 2.0165 42.5236 1.87453 42.4961 1.76465C42.4685 1.65433 42.4295 1.58297 42.3867 1.54004L42.3809 1.53418C42.3438 1.49106 42.2761 1.44482 42.167 1.40039C42.059 1.35643 41.9172 1.3169 41.7402 1.2832V1.28223L41.1475 1.17969H41.1426V1.17871C41.0218 1.15084 40.9193 1.10685 40.8457 1.03906C40.7688 0.96808 40.7295 0.876363 40.7295 0.771484C40.7295 0.651509 40.772 0.547328 40.8672 0.477539C40.9566 0.412142 41.0785 0.387695 41.2168 0.387695H49.5371ZM81.4883 0.387695C81.6265 0.387695 81.7485 0.412194 81.8379 0.477539C81.9331 0.547328 81.9765 0.65151 81.9766 0.771484C81.9766 0.876321 81.9372 0.968092 81.8604 1.03906C81.7867 1.10705 81.6835 1.15079 81.5625 1.17871L81.5576 1.18066V1.17969L80.9639 1.28223L80.9648 1.2832C80.6063 1.3515 80.3919 1.44124 80.2939 1.53809C80.2589 1.58111 80.2274 1.65298 80.2041 1.76172C80.1803 1.87294 80.167 2.01585 80.167 2.19238V17.3867C80.167 17.5635 80.1802 17.707 80.2041 17.8184C80.2276 17.928 80.2605 17.9991 80.2959 18.042C80.3944 18.1384 80.6078 18.2279 80.9648 18.2959H80.9639L81.5576 18.3994L81.5625 18.4004L81.6494 18.4248C81.7329 18.4522 81.805 18.49 81.8604 18.541C81.9369 18.6119 81.9765 18.7031 81.9766 18.8076C81.9766 18.9276 81.9331 19.0318 81.8379 19.1016C81.7485 19.167 81.6267 19.1924 81.4883 19.1924H76.8115C76.6731 19.1924 76.5513 19.1671 76.4619 19.1016C76.3667 19.0318 76.3242 18.9276 76.3242 18.8076C76.3243 18.7029 76.3636 18.6119 76.4404 18.541C76.5141 18.4731 76.6164 18.4283 76.7373 18.4004L76.7422 18.3994L77.335 18.2959C77.5118 18.2622 77.6538 18.2236 77.7617 18.1797C77.871 18.1352 77.9386 18.0881 77.9756 18.0449L77.9805 18.0391L77.9814 18.04C78.0244 17.9971 78.0632 17.925 78.0908 17.8145C78.1182 17.7046 78.1328 17.5626 78.1328 17.3867V2.19238C78.1328 2.0165 78.1183 1.87453 78.0908 1.76465C78.0632 1.65433 78.0242 1.58297 77.9814 1.54004L77.9756 1.53418C77.9385 1.49106 77.8708 1.44482 77.7617 1.40039C77.6537 1.35643 77.5119 1.3169 77.335 1.2832V1.28223L76.7422 1.17969H76.7373V1.17871C76.6165 1.15084 76.514 1.10685 76.4404 1.03906C76.3635 0.96808 76.3242 0.876363 76.3242 0.771484C76.3242 0.651509 76.3667 0.547328 76.4619 0.477539C76.5513 0.412143 76.6732 0.387695 76.8115 0.387695H81.4883ZM92.7559 0C92.9209 2.35227e-06 93.0588 0.0609475 93.1572 0.186523C93.2281 0.277143 93.2746 0.395989 93.3008 0.537109L93.3203 0.685547L93.3213 0.689453L93.5537 5.36621H93.5527C93.5699 5.52079 93.5523 5.65898 93.4746 5.76074C93.3929 5.86752 93.2642 5.91016 93.1172 5.91016C92.9956 5.91003 92.8867 5.87691 92.8037 5.7998C92.7218 5.72362 92.6766 5.61508 92.6572 5.48926L92.5273 4.63672V4.63574C92.3568 3.42503 91.9666 2.56453 91.3711 2.03516C90.7643 1.49583 90.1494 1.2334 89.5254 1.2334C89.3667 1.23344 89.2397 1.24625 89.1426 1.26953C89.0444 1.29312 88.9837 1.32584 88.9502 1.35938C88.875 1.43501 88.8252 1.57441 88.8252 1.80469V17.3096C88.8252 17.6591 88.8833 17.8744 88.9746 17.9854C89.0913 18.0859 89.3002 18.1674 89.6191 18.2178L90.7822 18.3994C90.9028 18.4098 91.009 18.4438 91.0859 18.5146C91.1672 18.5896 91.2021 18.6924 91.2021 18.8076C91.2021 18.9275 91.1595 19.0318 91.0645 19.1016C90.9752 19.167 90.8531 19.1923 90.7148 19.1924H84.9004C84.7621 19.1923 84.6401 19.1671 84.5508 19.1016C84.4557 19.0318 84.4131 18.9275 84.4131 18.8076C84.4132 18.6925 84.4482 18.5896 84.5293 18.5146C84.6058 18.4441 84.7113 18.41 84.8311 18.3994L85.9961 18.2178H85.9971C86.3352 18.167 86.5385 18.0853 86.6357 17.9902C86.7296 17.8809 86.79 17.6646 86.79 17.3096V1.80469C86.79 1.57394 86.7395 1.4349 86.6641 1.35938C86.6305 1.32586 86.5708 1.29309 86.4727 1.26953C86.3754 1.24621 86.2479 1.2334 86.0889 1.2334C85.4828 1.23354 84.8769 1.49532 84.2695 2.03516C83.7481 2.49876 83.3771 3.21589 83.167 4.19922L83.0869 4.63672L82.958 5.48926C82.9386 5.61519 82.8926 5.72362 82.8105 5.7998C82.7274 5.8768 82.6187 5.91016 82.4971 5.91016C82.3502 5.91006 82.2213 5.8675 82.1396 5.76074C82.0622 5.65902 82.0453 5.52057 82.0625 5.36621H82.0615L82.2939 0.689453V0.685547C82.3119 0.478549 82.3626 0.307308 82.457 0.186523C82.5554 0.0607859 82.6943 6.98779e-05 82.8594 0C82.9956 6.22004e-05 83.1223 0.0388719 83.2383 0.113281H83.2393C83.3333 0.160318 83.4976 0.218792 83.7363 0.287109H83.7373C83.9823 0.352445 84.3765 0.387663 84.9258 0.387695H90.6885C91.2384 0.387695 91.6228 0.352765 91.8496 0.288086L91.8516 0.287109C92.1094 0.218358 92.2815 0.159963 92.375 0.113281C92.504 0.040355 92.6317 6.16246e-05 92.7559 0ZM60.998 19.1475C61.0349 19.1618 61.0725 19.1739 61.1104 19.1865C61.0725 19.174 61.0349 19.1618 60.998 19.1475ZM68.1445 19.0918C68.2035 19.1106 68.2631 19.128 68.3232 19.1445C68.2631 19.128 68.2035 19.1106 68.1445 19.0918ZM60.7744 19.0469C60.819 19.0699 60.8649 19.0902 60.9111 19.1104C60.8649 19.0902 60.819 19.0699 60.7744 19.0469ZM41.043 19.0732C41.0667 19.0793 41.0924 19.0838 41.1201 19.0869C41.0924 19.0838 41.0667 19.0793 41.043 19.0732ZM51.0752 19.0732C51.0989 19.0793 51.1246 19.0838 51.1523 19.0869C51.1246 19.0838 51.0989 19.0793 51.0752 19.0732ZM76.6377 19.0732C76.6614 19.0793 76.6871 19.0838 76.7148 19.0869C76.6871 19.0838 76.6614 19.0793 76.6377 19.0732ZM0.313477 19.0732C0.337222 19.0793 0.362924 19.0838 0.390625 19.0869C0.362923 19.0838 0.337222 19.0793 0.313477 19.0732ZM46.5996 19.0791C46.6056 19.0779 46.6114 19.0765 46.6172 19.0752C46.6114 19.0765 46.6056 19.0779 46.5996 19.0791ZM56.6318 19.0791C56.6378 19.0779 56.6436 19.0765 56.6494 19.0752C56.6436 19.0765 56.6378 19.0779 56.6318 19.0791ZM40.9902 19.0557C41.0066 19.0623 41.0241 19.0684 41.043 19.0732C41.0241 19.0684 41.0066 19.0623 40.9902 19.0557ZM51.0225 19.0557C51.0388 19.0623 51.0563 19.0684 51.0752 19.0732C51.0563 19.0684 51.0389 19.0623 51.0225 19.0557ZM76.585 19.0557C76.6013 19.0623 76.6188 19.0684 76.6377 19.0732C76.6188 19.0684 76.6014 19.0623 76.585 19.0557ZM90.9023 19.0674C90.9176 19.063 90.9318 19.0584 90.9453 19.0527C90.9318 19.0584 90.9176 19.063 90.9023 19.0674ZM13.7578 19.0566C13.7672 19.0603 13.7769 19.0633 13.7871 19.0664C13.7769 19.0633 13.7672 19.0603 13.7578 19.0566ZM46.6572 19.0635C46.666 19.0605 46.6744 19.0572 46.6826 19.0537C46.6744 19.0572 46.6661 19.0605 46.6572 19.0635ZM56.6895 19.0635C56.6983 19.0605 56.7066 19.0572 56.7148 19.0537C56.7066 19.0572 56.6983 19.0605 56.6895 19.0635ZM67.8643 18.9912C67.9183 19.0125 67.9724 19.0335 68.0273 19.0527C67.9724 19.0335 67.9183 19.0125 67.8643 18.9912ZM91.042 18.9863C91.0188 19.0127 90.9889 19.0333 90.9521 19.0498C90.9889 19.0333 91.0188 19.0128 91.042 18.9863ZM13.6494 18.9834C13.672 19.0102 13.7012 19.0319 13.7373 19.0488C13.7012 19.0319 13.672 19.0102 13.6494 18.9834ZM40.9365 19.0273C40.9445 19.0327 40.953 19.0373 40.9619 19.042C40.953 19.0373 40.9445 19.0327 40.9365 19.0273ZM50.9688 19.0273C50.9767 19.0327 50.9852 19.0373 50.9941 19.042C50.9852 19.0373 50.9768 19.0327 50.9688 19.0273ZM76.5312 19.0273C76.5392 19.0327 76.5477 19.0373 76.5566 19.042C76.5477 19.0373 76.5393 19.0327 76.5312 19.0273ZM0.207031 19.0273C0.215027 19.0327 0.223529 19.0373 0.232422 19.042C0.22352 19.0373 0.215034 19.0327 0.207031 19.0273ZM46.7139 19.0391C46.7227 19.0342 46.7303 19.028 46.7383 19.0225C46.7303 19.0281 46.7227 19.0342 46.7139 19.0391ZM56.7461 19.0391C56.7549 19.0342 56.7625 19.028 56.7705 19.0225C56.7625 19.0281 56.7549 19.0342 56.7461 19.0391ZM50.9268 18.9922C50.9324 18.9982 50.9389 19.0033 50.9453 19.0088C50.9389 19.0033 50.9324 18.9982 50.9268 18.9922ZM76.4893 18.9922C76.4949 18.9982 76.5014 19.0033 76.5078 19.0088C76.5014 19.0033 76.4949 18.9982 76.4893 18.9922ZM40.8945 18.9922C40.8994 18.9974 40.9047 19.0021 40.9102 19.0068C40.9047 19.0021 40.8994 18.9974 40.8945 18.9922ZM46.7598 19.0068C46.7692 18.9987 46.7773 18.9898 46.7852 18.9805C46.7773 18.9898 46.7691 18.9987 46.7598 19.0068ZM56.792 19.0068C56.8014 18.9987 56.8095 18.9898 56.8174 18.9805C56.8095 18.9898 56.8014 18.9987 56.792 19.0068ZM0.165039 18.9922C0.169919 18.9974 0.175233 19.0021 0.180664 19.0068C0.175226 19.0021 0.169924 18.9974 0.165039 18.9922ZM60.5625 18.9229C60.6052 18.951 60.649 18.9768 60.6934 19.002C60.649 18.9768 60.6052 18.951 60.5625 18.9229ZM13.6221 18.9404C13.628 18.9522 13.6347 18.9632 13.6426 18.9736C13.6347 18.9632 13.628 18.9522 13.6221 18.9404ZM76.4551 18.9434C76.4602 18.9532 76.4652 18.9628 76.4717 18.9717C76.4652 18.9628 76.4602 18.9532 76.4551 18.9434ZM91.0537 18.9717C91.0602 18.9628 91.0651 18.9532 91.0703 18.9434C91.0651 18.9532 91.0602 18.9628 91.0537 18.9717ZM40.8604 18.9434C40.8654 18.9529 40.8707 18.9621 40.877 18.9707C40.8707 18.9621 40.8654 18.9529 40.8604 18.9434ZM50.8926 18.9434C50.8976 18.9529 50.9029 18.9621 50.9092 18.9707C50.9029 18.9621 50.8976 18.9529 50.8926 18.9434ZM0.128906 18.9404C0.134326 18.9511 0.140492 18.9611 0.147461 18.9707C0.140488 18.9611 0.134324 18.9512 0.128906 18.9404ZM46.7979 18.9639C46.8048 18.954 46.8109 18.9437 46.8164 18.9326C46.8109 18.9437 46.8048 18.9539 46.7979 18.9639ZM56.8301 18.9639C56.8371 18.954 56.8431 18.9437 56.8486 18.9326C56.8431 18.9437 56.8371 18.9539 56.8301 18.9639ZM67.5508 18.8545C67.6168 18.8866 67.6834 18.9175 67.751 18.9463C67.6834 18.9175 67.6168 18.8866 67.5508 18.8545ZM13.5986 18.875C13.6022 18.8932 13.6085 18.9098 13.6152 18.9258C13.6085 18.9098 13.6022 18.8932 13.5986 18.875ZM40.8408 18.8955C40.8437 18.906 40.8466 18.9162 40.8506 18.9258C40.8466 18.9162 40.8437 18.906 40.8408 18.8955ZM50.873 18.8955C50.8759 18.906 50.8788 18.9162 50.8828 18.9258C50.8788 18.9162 50.8759 18.906 50.873 18.8955ZM76.4355 18.8955C76.4384 18.906 76.4413 18.9162 76.4453 18.9258C76.4413 18.9162 76.4384 18.906 76.4355 18.8955ZM0.111328 18.8955C0.114058 18.9054 0.117355 18.9147 0.121094 18.9238C0.117362 18.9147 0.114049 18.9054 0.111328 18.8955ZM46.8262 18.9131C46.8334 18.8948 46.84 18.8756 46.8438 18.8545C46.84 18.8756 46.8334 18.8948 46.8262 18.9131ZM56.8584 18.9131C56.8657 18.8948 56.8722 18.8756 56.876 18.8545C56.8722 18.8756 56.8657 18.8948 56.8584 18.9131ZM60.3799 18.7881C60.4135 18.8152 60.4477 18.8411 60.4824 18.8662C60.4477 18.8411 60.4135 18.8152 60.3799 18.7881ZM67.2217 18.6787C67.3083 18.7303 67.3968 18.7779 67.4863 18.8232C67.3969 18.7779 67.3082 18.7302 67.2217 18.6787ZM60.1934 18.6221C60.2274 18.6557 60.2625 18.6875 60.2979 18.7188C60.2625 18.6875 60.2274 18.6557 60.1934 18.6221ZM13.7236 18.5537C13.6989 18.5682 13.6789 18.5866 13.6611 18.6064C13.6789 18.5866 13.6989 18.5682 13.7236 18.5537ZM20.0508 18.5537C20.0756 18.5682 20.0955 18.5866 20.1133 18.6064C20.0955 18.5866 20.0755 18.5682 20.0508 18.5537ZM90.8447 18.5088C90.9041 18.5205 90.9524 18.5408 90.9912 18.5684C90.9686 18.5525 90.9435 18.538 90.9141 18.5273C90.8931 18.5197 90.8702 18.5137 90.8457 18.5088H90.8447ZM60.0215 18.4346C60.0512 18.4701 60.0814 18.5047 60.1123 18.5381C60.0814 18.5047 60.0512 18.4701 60.0215 18.4346ZM9.18652 18.0527C9.01665 18.1759 8.83657 18.2887 8.64746 18.3936C8.83653 18.2887 9.01666 18.1759 9.18652 18.0527ZM59.8584 18.2207C59.8887 18.2643 59.9195 18.3066 59.9512 18.3477C59.9195 18.3066 59.8887 18.2643 59.8584 18.2207ZM5.34473 9.21777C4.82169 9.21783 4.4478 9.32185 4.20605 9.5127C3.9688 9.7002 3.84284 9.9844 3.84277 10.3838V16.6631C3.84277 17.2424 3.9861 17.6589 4.25391 17.9307C4.52142 18.2019 4.93042 18.3466 5.5 18.3467C6.59055 18.3467 7.47524 17.9369 8.16211 17.1162L8.28711 16.9561C8.89221 16.1365 9.19922 15.0682 9.19922 13.7432C9.19919 12.3302 8.84187 11.2275 8.13867 10.4238L8.1377 10.4229C7.45261 9.62084 6.5249 9.21777 5.34473 9.21777ZM70.4512 18.2793C70.3503 18.2864 70.2472 18.291 70.1416 18.291C70.2471 18.291 70.3504 18.2864 70.4512 18.2793ZM69.8389 18.2793C69.9376 18.2863 70.0384 18.291 70.1416 18.291C70.0384 18.291 69.9376 18.2863 69.8389 18.2793ZM7.6709 17.7334C7.51904 17.8522 7.35977 17.9558 7.19336 18.0449C7.35979 17.9558 7.51902 17.8522 7.6709 17.7334ZM89.0264 18.1426C89.0352 18.1475 89.0454 18.1505 89.0547 18.1553C89.0214 18.1381 88.9896 18.1217 88.9619 18.1025L89.0264 18.1426ZM54.8477 18.1201C54.8636 18.1281 54.8808 18.1348 54.8984 18.1426C54.8496 18.1211 54.807 18.1 54.7715 18.0771L54.8477 18.1201ZM59.7119 17.9902C59.7387 18.0363 59.7658 18.0813 59.7939 18.125C59.7658 18.0813 59.7387 18.0363 59.7119 17.9902ZM15.7891 18.0586L15.8311 18.002C15.836 17.9942 15.84 17.9858 15.8447 17.9775C15.8276 18.0077 15.8097 18.035 15.7891 18.0586ZM86.709 18.0586L86.752 18.002C86.7568 17.9943 86.7601 17.9856 86.7646 17.9775C86.7475 18.0076 86.7296 18.0351 86.709 18.0586ZM80.1045 17.8262C80.1201 17.9028 80.1404 17.9674 80.166 18.0205C80.1404 17.9674 80.1201 17.9027 80.1045 17.8262ZM71.8984 17.8438C71.8193 17.8922 71.7377 17.937 71.6533 17.9775C71.7378 17.937 71.8193 17.8922 71.8984 17.8438ZM15.9277 17.748C15.9101 17.8267 15.8875 17.8947 15.8584 17.9521C15.8874 17.8947 15.9101 17.8267 15.9277 17.748ZM17.8457 17.748C17.8633 17.8268 17.887 17.8946 17.916 17.9521C17.8869 17.8947 17.8634 17.8268 17.8457 17.748ZM59.5654 17.7139C59.5958 17.7772 59.6267 17.8388 59.6592 17.8984C59.6267 17.8388 59.5958 17.7772 59.5654 17.7139ZM78.2207 17.6357H78.2217H78.2207ZM52.6582 17.6357H52.6592H52.6582ZM42.626 17.6357H42.627H42.626ZM73.1982 17.7422C73.2019 17.7377 73.2053 17.733 73.209 17.7285C73.2053 17.733 73.2019 17.7377 73.1982 17.7422ZM54.5342 17.6436C54.5355 17.6508 54.5376 17.6579 54.5391 17.665C54.5307 17.6239 54.5228 17.5804 54.5176 17.5342L54.5342 17.6436ZM59.4541 17.46C59.4785 17.5198 59.5024 17.5787 59.5283 17.6357C59.5024 17.5787 59.4785 17.5198 59.4541 17.46ZM68.041 17.5752C68.0616 17.5932 68.0835 17.6096 68.1045 17.627C68.078 17.6051 68.0512 17.5835 68.0254 17.5605L68.041 17.5752ZM72.3994 17.4521C72.3372 17.5136 72.2718 17.5703 72.2051 17.625C72.269 17.5726 72.3319 17.5185 72.3916 17.46L72.3994 17.4521ZM73.4219 17.4395C73.4401 17.4128 73.4589 17.3865 73.4766 17.3594C73.4589 17.3865 73.4401 17.4128 73.4219 17.4395ZM59.3457 17.1689C59.3668 17.2309 59.3866 17.2922 59.4092 17.3516C59.3867 17.2922 59.3668 17.2309 59.3457 17.1689ZM73.5508 17.2412C73.5652 17.2175 73.5797 17.1939 73.5938 17.1699C73.5797 17.1939 73.5652 17.2175 73.5508 17.2412ZM72.623 17.2061L72.7285 17.0664C72.7463 17.0418 72.7631 17.0164 72.7803 16.9912C72.73 17.0651 72.6786 17.1374 72.623 17.2061ZM8.4209 16.9375C8.36271 17.0202 8.30323 17.1017 8.23926 17.1797C8.30323 17.1017 8.36272 17.0202 8.4209 16.9375ZM73.6553 17.0615C73.6754 17.025 73.6956 16.9884 73.7148 16.9512C73.6956 16.9884 73.6754 17.025 73.6553 17.0615ZM59.2217 16.7607C59.248 16.8599 59.2752 16.9564 59.3047 17.0498C59.2752 16.9564 59.248 16.8599 59.2217 16.7607ZM73.7578 16.8662C73.7794 16.8224 73.8 16.7781 73.8203 16.7334C73.8 16.7781 73.7793 16.8224 73.7578 16.8662ZM61.0098 16.4854C61.0271 16.5498 61.0456 16.6121 61.0635 16.6729C61.0192 16.5219 60.9759 16.3599 60.9346 16.1865L61.0098 16.4854ZM73.8525 16.6602C73.8704 16.6192 73.8875 16.5778 73.9043 16.5361C73.8875 16.5778 73.8704 16.6192 73.8525 16.6602ZM10.5518 16.5361C10.602 16.4476 10.6487 16.3576 10.6934 16.2666C10.6487 16.3576 10.602 16.4476 10.5518 16.5361ZM73.958 16.3994C73.9669 16.3755 73.9749 16.3513 73.9834 16.3271C73.9749 16.3513 73.9669 16.3755 73.958 16.3994ZM66.918 15.4316C66.9613 15.6633 67.0177 15.882 67.0869 16.0879C67.0177 15.8821 66.9614 15.6633 66.918 15.4316ZM74.0342 16.1748C74.0434 16.146 74.0527 16.1171 74.0615 16.0879C74.0527 16.1171 74.0434 16.1459 74.0342 16.1748ZM10.75 16.1455C10.7757 16.0895 10.8015 16.0335 10.8252 15.9766C10.8015 16.0335 10.7757 16.0895 10.75 16.1455ZM74.0977 15.9629C74.1085 15.9235 74.1188 15.8837 74.1289 15.8438C74.1188 15.8837 74.1085 15.9235 74.0977 15.9629ZM10.8799 15.835C10.9049 15.7693 10.9298 15.7036 10.9521 15.6367C10.9298 15.7036 10.9049 15.7693 10.8799 15.835ZM74.1621 15.707C74.1638 15.6995 74.1663 15.6921 74.168 15.6846L74.2041 15.5098C74.1913 15.5763 74.1769 15.6419 74.1621 15.707ZM10.9922 15.5098C11.0086 15.4562 11.0233 15.402 11.0381 15.3477C11.0233 15.402 11.0086 15.4562 10.9922 15.5098ZM74.208 15.4863C74.2197 15.4245 74.2303 15.362 74.2402 15.2988C74.2303 15.362 74.2196 15.4245 74.208 15.4863ZM11.0752 15.208C11.0926 15.1363 11.1085 15.0641 11.123 14.9912C11.1085 15.0641 11.0926 15.1363 11.0752 15.208ZM74.2842 14.9658C74.2932 14.8819 74.3014 14.797 74.3076 14.7109C74.3015 14.797 74.2932 14.8819 74.2842 14.9658ZM11.1445 14.877C11.1565 14.8098 11.1662 14.742 11.1758 14.6738C11.1662 14.742 11.1565 14.8098 11.1445 14.877ZM9.27734 14.3184C9.27859 14.3011 9.2811 14.2839 9.28223 14.2666L9.2832 14.25C9.28176 14.2729 9.27898 14.2956 9.27734 14.3184ZM47.7188 12.9072C47.7461 12.9122 47.7749 12.916 47.8057 12.916C47.7749 12.916 47.7461 12.9122 47.7188 12.9072ZM47.8057 12.916C47.8306 12.916 47.854 12.9134 47.876 12.9092C47.8541 12.9134 47.8306 12.916 47.8057 12.916ZM47.8877 12.9053C47.9047 12.9013 47.9205 12.8963 47.9355 12.8896C47.9205 12.8964 47.9047 12.9013 47.8877 12.9053ZM47.9521 12.8809C47.9635 12.8747 47.9742 12.8682 47.9844 12.8604C47.9742 12.8682 47.9635 12.8747 47.9521 12.8809ZM47.6055 12.8691C47.611 12.8723 47.6173 12.8741 47.623 12.877C47.598 12.8646 47.5747 12.8502 47.5537 12.832L47.6055 12.8691ZM48.0059 12.8418C48.0139 12.834 48.0211 12.8255 48.0283 12.8164C48.0212 12.8255 48.0139 12.8339 48.0059 12.8418ZM48.042 12.7988C48.0506 12.786 48.0574 12.7718 48.0645 12.7568C48.0574 12.7718 48.0505 12.786 48.042 12.7988ZM48.0967 12.6689C48.091 12.6931 48.0824 12.7147 48.0742 12.7354C48.0917 12.6914 48.1053 12.6402 48.1113 12.5801L48.0967 12.6689ZM10.9111 11.9102C10.9082 11.9023 10.9053 11.8945 10.9023 11.8867C10.9053 11.8945 10.9082 11.9023 10.9111 11.9102ZM57.8896 11.3916C57.9414 11.4951 57.9907 11.6093 58.04 11.7334C57.9907 11.6095 57.9413 11.495 57.8896 11.3916ZM10.6035 11.2451C10.5927 11.2258 10.5815 11.2067 10.5703 11.1875C10.5815 11.2067 10.5927 11.2258 10.6035 11.2451ZM59.1436 10.8867H59.1445H59.1436ZM57.084 10.4824C57.1815 10.5352 57.2737 10.5968 57.3594 10.6689C57.2737 10.5967 57.1815 10.5352 57.084 10.4824ZM58.4531 10.3828C58.5834 10.4539 58.7061 10.5313 58.8213 10.6152C58.7061 10.5312 58.5833 10.4539 58.4531 10.3828ZM46.6982 10.207C46.7511 10.2674 46.8013 10.3404 46.8477 10.4268C46.8013 10.3404 46.7511 10.2675 46.6982 10.207ZM55.1084 10.1641C55.1623 10.1554 55.2198 10.1514 55.2803 10.1514C55.2197 10.1514 55.1624 10.1553 55.1084 10.1641ZM45.8574 9.84668C45.9502 9.8526 46.0371 9.86416 46.1182 9.88184C46.1591 9.89076 46.1984 9.90116 46.2363 9.91309C46.3116 9.93676 46.3809 9.96645 46.4443 10.002C46.2856 9.91314 46.0901 9.86152 45.8574 9.84668ZM17.9854 9.93848C17.9785 9.95693 17.9732 9.97579 17.9668 9.99414C17.9935 9.91808 18.0226 9.84066 18.0566 9.7627L17.9854 9.93848ZM55.874 1.2334C55.4274 1.23344 55.1105 1.3183 54.9072 1.47168C54.7094 1.6211 54.6045 1.84673 54.6045 2.16699V8.08398C54.6045 8.53653 54.7416 8.8603 55.001 9.07324C55.2642 9.28925 55.6704 9.40527 56.2363 9.40527C57.3834 9.40522 58.2381 9.02716 58.8184 8.28125C59.404 7.51113 59.7021 6.48417 59.7021 5.19043C59.7021 3.93448 59.3546 2.9718 58.6719 2.28906L58.6699 2.28711C58.0038 1.58795 57.0761 1.2334 55.874 1.2334ZM4.80078 9.16309C4.69214 9.1829 4.5919 9.20914 4.5 9.24219C4.5919 9.20915 4.69214 9.18289 4.80078 9.16309ZM5.77344 9.13672C5.88927 9.14687 6.00256 9.16108 6.11328 9.17969C6.00255 9.16107 5.88928 9.14688 5.77344 9.13672ZM58.4707 8.78613C58.4952 8.76551 58.5191 8.74416 58.543 8.72266C58.5191 8.74417 58.4952 8.76551 58.4707 8.78613ZM47.0977 7.99902C47.0715 8.09386 47.0411 8.18245 47.0059 8.26465C46.9883 8.30569 46.9691 8.34492 46.9492 8.38281H46.9502C47.0098 8.26913 47.0585 8.14107 47.0977 7.99902ZM5.1123 1.2334C4.66567 1.23344 4.34874 1.3183 4.14551 1.47168C3.94766 1.6211 3.84277 1.84673 3.84277 2.16699V7.05078C3.84278 7.53884 3.94441 7.86944 4.125 8.06641C4.32242 8.26303 4.6439 8.37202 5.1123 8.37207C5.99548 8.37207 6.72624 8.03212 7.31055 7.34766L7.41992 7.21387C7.94996 6.53489 8.21671 5.70733 8.2168 4.72559C8.2168 3.67656 7.92922 2.84053 7.36328 2.20801V2.20703C6.79826 1.55891 6.05079 1.2334 5.1123 1.2334ZM8.42383 7.89844C8.16243 8.09292 7.87272 8.27329 7.55469 8.43945C7.87268 8.27331 8.16242 8.093 8.42383 7.89844ZM4.17969 8.23926C4.23173 8.27535 4.28782 8.30829 4.34961 8.33594C4.28781 8.30832 4.23174 8.27531 4.17969 8.23926ZM7.27148 7.54102C7.18276 7.6354 7.09015 7.72174 6.99512 7.80176C7.09014 7.72173 7.18276 7.6354 7.27148 7.54102ZM59.5156 7.1543C59.444 7.36924 59.3572 7.57175 59.2588 7.76367C59.3572 7.57173 59.444 7.36925 59.5156 7.1543ZM8.91406 7.48535H8.91504H8.91406ZM7.38672 7.41211L7.49902 7.27441C7.51768 7.2505 7.53471 7.22544 7.55273 7.20117C7.49965 7.27264 7.44533 7.34371 7.38672 7.41211ZM7.88672 6.66309C7.80095 6.83273 7.70223 6.995 7.59082 7.15039C7.70221 6.99498 7.801 6.83276 7.88672 6.66309ZM61.3193 7.13281C61.3233 7.12392 61.3281 7.11536 61.332 7.10645C61.3281 7.11536 61.3233 7.12392 61.3193 7.13281ZM61.4541 6.7998C61.4596 6.7845 61.4653 6.76926 61.4707 6.75391C61.4653 6.76927 61.4596 6.7845 61.4541 6.7998ZM9.54199 6.73633C9.58339 6.67459 9.62265 6.61241 9.66016 6.5498C9.62266 6.6124 9.58339 6.6746 9.54199 6.73633ZM9.70117 6.47949C9.73643 6.41795 9.77023 6.35631 9.80176 6.29395C9.77023 6.35631 9.73643 6.41796 9.70117 6.47949ZM61.5664 6.44824C61.5704 6.4337 61.5733 6.41888 61.5771 6.4043C61.5733 6.41888 61.5704 6.4337 61.5664 6.44824ZM9.83594 6.22363C9.86344 6.16643 9.88868 6.10867 9.91309 6.05078C9.88868 6.10867 9.86344 6.16643 9.83594 6.22363ZM9.94922 5.96191C9.97235 5.90289 9.99471 5.84392 10.0146 5.78418C9.99471 5.84391 9.97234 5.90289 9.94922 5.96191ZM82.6309 5.79004C82.5912 5.80293 82.5467 5.81055 82.4971 5.81055C82.5467 5.81055 82.5912 5.80296 82.6309 5.79004ZM82.6436 5.78516C82.6588 5.77948 82.6728 5.77235 82.6865 5.76465C82.6728 5.77233 82.6588 5.77949 82.6436 5.78516ZM49.8623 5.76465C49.8722 5.77029 49.8828 5.77472 49.8936 5.7793C49.8828 5.7747 49.8722 5.77031 49.8623 5.76465ZM92.9268 5.76465C92.937 5.77042 92.9479 5.77465 92.959 5.7793C92.9479 5.77464 92.937 5.77043 92.9268 5.76465ZM82.2725 5.75C82.2853 5.75921 82.2995 5.76637 82.3145 5.77344C82.2995 5.76639 82.2853 5.75918 82.2725 5.75ZM82.7012 5.75586C82.7107 5.74974 82.7198 5.7435 82.7285 5.73633C82.7198 5.74349 82.7107 5.74976 82.7012 5.75586ZM92.8809 5.73242C92.8904 5.74066 92.9005 5.74797 92.9111 5.75488C92.9005 5.74795 92.8904 5.74068 92.8809 5.73242ZM49.8184 5.7334C49.8253 5.73929 49.8324 5.74479 49.8398 5.75C49.8324 5.74478 49.8253 5.73931 49.8184 5.7334ZM82.2236 5.7041C82.2347 5.71792 82.247 5.7301 82.2607 5.74121C82.247 5.73011 82.2347 5.71791 82.2236 5.7041ZM49.7744 5.68652C49.7821 5.69664 49.7902 5.70598 49.7988 5.71484C49.7902 5.70596 49.7821 5.69666 49.7744 5.68652ZM82.752 5.71484C82.758 5.70857 82.7639 5.70221 82.7695 5.69531C82.7639 5.7022 82.7581 5.70858 82.752 5.71484ZM92.8398 5.68945C92.8469 5.69853 92.8545 5.7068 92.8623 5.71484C92.8545 5.70679 92.8469 5.69854 92.8398 5.68945ZM10.0371 5.71387C10.0568 5.65075 10.0747 5.58734 10.0908 5.52344C10.0747 5.58734 10.0568 5.65075 10.0371 5.71387ZM82.1895 5.64844C82.1966 5.6641 82.2055 5.67802 82.2148 5.69141C82.2054 5.67802 82.1966 5.6641 82.1895 5.64844ZM82.7891 5.66992C82.7941 5.66223 82.7981 5.65383 82.8027 5.64551C82.7981 5.65383 82.7942 5.66223 82.7891 5.66992ZM49.7383 5.62793C49.7454 5.64255 49.7533 5.65609 49.7617 5.66895C49.7533 5.65608 49.7454 5.64256 49.7383 5.62793ZM92.8096 5.64258C92.8135 5.64977 92.818 5.65636 92.8223 5.66309C92.818 5.65635 92.8135 5.64978 92.8096 5.64258ZM82.168 5.58008C82.1717 5.59688 82.1751 5.61296 82.1807 5.62793C82.1751 5.61296 82.1717 5.59689 82.168 5.58008ZM49.7178 5.57812C49.722 5.59035 49.7265 5.60203 49.7314 5.61328C49.7265 5.60202 49.7219 5.59035 49.7178 5.57812ZM10.1133 5.43262C10.1287 5.3641 10.1409 5.29499 10.1523 5.22559C10.1409 5.29499 10.1287 5.3641 10.1133 5.43262ZM8.23145 3.78418H8.23047H8.23145ZM58.3545 1.87109C58.4919 1.97583 58.6212 2.09171 58.7422 2.21875C58.9628 2.43939 59.1491 2.68775 59.3008 2.96387C59.3311 3.01908 59.3601 3.07538 59.3877 3.13281H59.3887C59.2231 2.78803 59.007 2.4836 58.7422 2.21875C58.656 2.1283 58.5662 2.04301 58.4717 1.96387L58.3545 1.87109ZM61.0684 2.73535C61.0162 2.65305 60.9612 2.57321 60.9043 2.49512C60.9612 2.5732 61.0162 2.65306 61.0684 2.73535ZM83.7051 2.54297C83.716 2.52628 83.7281 2.5105 83.7393 2.49414C83.7281 2.5105 83.716 2.52628 83.7051 2.54297ZM9.57324 2.44922C9.54005 2.39677 9.50702 2.3445 9.47168 2.29395C9.50702 2.3445 9.54005 2.39677 9.57324 2.44922ZM60.8203 2.38574C60.7863 2.34195 60.7524 2.29826 60.7168 2.25586C60.7524 2.29825 60.7863 2.34196 60.8203 2.38574ZM13.8438 2.01074C13.8666 2.07599 13.894 2.14579 13.9287 2.21875C13.8939 2.14574 13.8666 2.07605 13.8438 2.01074ZM9.39258 2.1875C9.36732 2.1538 9.34267 2.11972 9.31641 2.08691C9.34268 2.11972 9.36731 2.1538 9.39258 2.1875ZM60.6562 2.18652C60.6106 2.13431 60.5637 2.08322 60.5156 2.0332C60.5638 2.08322 60.6106 2.13431 60.6562 2.18652ZM9.22559 1.97949C9.2042 1.95465 9.18313 1.92957 9.16113 1.90527C9.18314 1.92957 9.2042 1.95465 9.22559 1.97949ZM60.4375 1.9541C60.3991 1.9161 60.3602 1.87847 60.3203 1.8418C60.3602 1.87846 60.3991 1.91611 60.4375 1.9541ZM84.4355 1.7666H84.4365H84.4355ZM9.05273 1.79102C9.02551 1.76326 8.99782 1.73598 8.96973 1.70898C8.99782 1.73598 9.0255 1.76326 9.05273 1.79102ZM60.21 1.74414C60.1697 1.70954 60.1286 1.67592 60.0869 1.64258C60.1286 1.67591 60.1697 1.70955 60.21 1.74414ZM8.89062 1.63477C8.8591 1.60608 8.8265 1.57856 8.79395 1.55078C8.8265 1.57857 8.8591 1.60608 8.89062 1.63477ZM80.1865 1.51953C80.168 1.5502 80.1528 1.58625 80.1387 1.62695C80.1528 1.58625 80.1681 1.55022 80.1865 1.51953ZM60.002 1.5752C59.9357 1.52468 59.8675 1.47617 59.7979 1.42871C59.8675 1.47616 59.9357 1.52469 60.002 1.5752ZM54.7666 1.45996V1.46094V1.45996ZM8.68555 1.45996C8.65327 1.43429 8.62013 1.40961 8.58691 1.38477C8.62014 1.40961 8.65327 1.43429 8.68555 1.45996ZM88.8115 1.37891C88.8077 1.38568 88.8053 1.39328 88.8018 1.40039C88.8145 1.375 88.8279 1.35123 88.8438 1.33008L88.8115 1.37891ZM20.5635 1.32715H20.5625H20.5635ZM67.2705 1.28906C67.1996 1.31676 67.1389 1.34841 67.0879 1.38379C67.1389 1.34839 67.1996 1.31679 67.2705 1.28906ZM4.27832 1.27832V1.2793V1.27832ZM22.6934 1.18945C22.6383 1.21332 22.5852 1.24344 22.5332 1.27832C22.5852 1.24349 22.6383 1.21328 22.6934 1.18945ZM5.92285 1.22266C5.82446 1.19959 5.72356 1.1811 5.62012 1.16699C5.72355 1.18108 5.82446 1.19963 5.92285 1.22266ZM89.043 1.19336H89.0439H89.043ZM14.2676 1.16113C14.2498 1.16511 14.2327 1.17004 14.2158 1.1748C14.2624 1.16165 14.3121 1.15074 14.3652 1.14355L14.2676 1.16113ZM4.79199 1.14941L4.79102 1.15039L4.79199 1.14941ZM55.5537 1.14941L55.5527 1.15039L55.5537 1.14941ZM46.7891 1.16309C46.7717 1.16029 46.7546 1.15669 46.7373 1.1543L46.7178 1.15234C46.7415 1.15542 46.7652 1.15924 46.7891 1.16309ZM46.1631 1.13867C46.076 1.14244 45.9927 1.14872 45.9131 1.15625C45.9927 1.14874 46.076 1.14341 46.1631 1.13965C46.2504 1.13587 46.3416 1.13379 46.4365 1.13379C46.3416 1.13379 46.2504 1.1349 46.1631 1.13867ZM19.4072 1.06055V1.05957V1.06055ZM51.1182 1.05957C51.1428 1.0677 51.1691 1.07554 51.1973 1.08203C51.1691 1.07553 51.1428 1.06773 51.1182 1.05957ZM63.4219 1.05957C63.4465 1.0677 63.4728 1.07554 63.501 1.08203C63.4728 1.07553 63.4465 1.06773 63.4219 1.05957ZM75.8799 1.06055C75.8554 1.06862 75.8288 1.07557 75.8008 1.08203C75.8289 1.07555 75.8553 1.06867 75.8799 1.06055ZM76.6807 1.05957C76.7053 1.0677 76.7316 1.07554 76.7598 1.08203C76.7316 1.07553 76.7053 1.06773 76.6807 1.05957ZM81.6191 1.06055C81.5947 1.06862 81.568 1.07557 81.54 1.08203C81.5681 1.07555 81.5946 1.06867 81.6191 1.06055ZM68.4775 1.05566C68.4856 1.05275 68.4934 1.05011 68.501 1.04688C68.4934 1.05011 68.4856 1.05276 68.4775 1.05566ZM71.8096 1.04785C71.8152 1.05025 71.8213 1.05149 71.8271 1.05371C71.8213 1.0515 71.8152 1.05024 71.8096 1.04785ZM10.4395 1.03223C10.4485 1.03628 10.4581 1.03922 10.4678 1.04297C10.4581 1.03923 10.4485 1.03626 10.4395 1.03223ZM23.2559 1.04199C23.2651 1.03838 23.2745 1.03611 23.2832 1.03223C23.2745 1.0361 23.2651 1.0384 23.2559 1.04199ZM10.3789 1C10.394 1.0095 10.4103 1.01804 10.4277 1.02637C10.4103 1.01808 10.394 1.00947 10.3789 1ZM23.2939 1.02637C23.3114 1.01806 23.3277 1.00948 23.3428 1C23.3277 1.00944 23.3114 1.0181 23.2939 1.02637ZM68.5693 1.00684C68.5785 0.99996 68.5869 0.993031 68.5947 0.985352C68.5869 0.993025 68.5784 0.999967 68.5693 1.00684ZM71.7168 0.988281C71.7237 0.994929 71.7314 1.0008 71.7393 1.00684C71.7313 1.00083 71.7238 0.994901 71.7168 0.988281ZM10.3281 0.961914C10.34 0.972648 10.3531 0.98258 10.3672 0.992188C10.353 0.982614 10.34 0.972614 10.3281 0.961914ZM23.3555 0.992188C23.3676 0.983974 23.3782 0.974858 23.3887 0.96582C23.3782 0.974824 23.3676 0.984007 23.3555 0.992188ZM68.6016 0.978516C68.6098 0.969769 68.6173 0.960897 68.624 0.951172C68.6173 0.960891 68.6098 0.969778 68.6016 0.978516ZM71.6904 0.958984C71.6955 0.965819 71.7011 0.972189 71.707 0.978516C71.7011 0.972206 71.6955 0.965804 71.6904 0.958984ZM10.291 0.921875C10.3 0.933585 10.3102 0.944428 10.3213 0.955078C10.3102 0.944453 10.3 0.933564 10.291 0.921875ZM23.4092 0.948242C23.4166 0.94064 23.4223 0.931947 23.4287 0.923828C23.4223 0.93193 23.4166 0.940659 23.4092 0.948242ZM68.6514 0.902344C68.6459 0.916757 68.6379 0.929575 68.6299 0.942383C68.6466 0.915604 68.6594 0.886285 68.665 0.852539L68.6514 0.902344ZM10.2646 0.879883C10.2695 0.889487 10.2742 0.899184 10.2803 0.908203C10.2742 0.899192 10.2695 0.889483 10.2646 0.879883ZM23.4414 0.908203C23.4475 0.899166 23.4521 0.889509 23.457 0.879883C23.4521 0.889507 23.4475 0.899172 23.4414 0.908203ZM19.0742 0.712891C19.0713 0.73127 19.0703 0.750844 19.0703 0.771484C19.0703 0.747893 19.0724 0.725732 19.0762 0.705078L19.0742 0.712891ZM15.3994 0.746094C15.3985 0.73184 15.3979 0.718147 15.3955 0.705078C15.3979 0.718154 15.3985 0.73184 15.3994 0.746094ZM58.0049 0.65332C58.1025 0.675963 58.199 0.700219 58.2939 0.727539C58.199 0.700213 58.1025 0.675974 58.0049 0.65332ZM0.104492 0.710938C0.103557 0.716315 0.104186 0.721966 0.103516 0.727539C0.104185 0.721967 0.103558 0.716316 0.104492 0.710938ZM15.3955 0.705078L15.3838 0.661133C15.3831 0.659073 15.3816 0.657296 15.3809 0.655273C15.3869 0.670902 15.3923 0.687263 15.3955 0.705078ZM71.6631 0.667969C71.6587 0.679159 71.6554 0.690897 71.6523 0.703125C71.6554 0.690885 71.6587 0.679166 71.6631 0.667969ZM19.0918 0.651367C19.0856 0.666612 19.0806 0.682809 19.0771 0.700195C19.0806 0.682829 19.0857 0.666609 19.0918 0.651367ZM93.2197 0.685547C93.2157 0.642087 93.2101 0.601119 93.2031 0.5625C93.2101 0.601124 93.2157 0.642087 93.2197 0.685547ZM76.4463 0.65332C76.4421 0.663234 76.4395 0.673762 76.4365 0.68457C76.4395 0.67376 76.4421 0.66324 76.4463 0.65332ZM40.8516 0.65332C40.8484 0.660833 40.8462 0.66873 40.8438 0.676758C40.8462 0.668729 40.8484 0.660838 40.8516 0.65332ZM50.8838 0.65332C50.8806 0.660833 50.8785 0.66873 50.876 0.676758C50.8785 0.668729 50.8806 0.660838 50.8838 0.65332ZM63.1875 0.65332C63.1843 0.660833 63.1822 0.66873 63.1797 0.676758C63.1822 0.668729 63.1843 0.660838 63.1875 0.65332ZM0.123047 0.651367C0.119512 0.659502 0.116963 0.668012 0.114258 0.676758C0.116958 0.66801 0.119519 0.659507 0.123047 0.651367ZM10.2568 0.636719C10.2528 0.645128 10.25 0.653969 10.2471 0.663086C10.25 0.653959 10.2528 0.645133 10.2568 0.636719ZM71.6885 0.619141C71.6825 0.628056 71.6777 0.637641 71.6729 0.647461C71.6777 0.637629 71.6825 0.628063 71.6885 0.619141ZM19.1191 0.602539C19.1114 0.613091 19.1055 0.624703 19.0996 0.636719C19.1055 0.624692 19.1114 0.613108 19.1191 0.602539ZM63.2158 0.604492C63.2081 0.614608 63.2013 0.625278 63.1953 0.636719C63.2013 0.625266 63.2081 0.614624 63.2158 0.604492ZM76.4746 0.604492C76.4668 0.614608 76.4601 0.625278 76.4541 0.636719C76.4601 0.625266 76.4669 0.614624 76.4746 0.604492ZM40.8799 0.604492C40.8724 0.614262 40.8662 0.624737 40.8604 0.635742C40.8662 0.624725 40.8724 0.614278 40.8799 0.604492ZM50.9121 0.604492C50.9046 0.614262 50.8984 0.624737 50.8926 0.635742C50.8984 0.624725 50.9046 0.614278 50.9121 0.604492ZM15.3701 0.632812C15.365 0.622898 15.3599 0.613382 15.3535 0.604492C15.3599 0.613396 15.365 0.622887 15.3701 0.632812ZM0.152344 0.602539C0.144871 0.612023 0.13867 0.622143 0.132812 0.632812C0.138659 0.62213 0.144885 0.612039 0.152344 0.602539ZM10.2803 0.597656C10.276 0.603054 10.2732 0.609442 10.2695 0.615234C10.2732 0.609438 10.276 0.603056 10.2803 0.597656ZM19.1543 0.564453C19.1438 0.573367 19.1345 0.583274 19.126 0.59375C19.1345 0.583238 19.1438 0.573403 19.1543 0.564453ZM40.9199 0.564453C40.9092 0.572901 40.8995 0.581936 40.8906 0.591797C40.8995 0.581911 40.9092 0.572927 40.9199 0.564453ZM50.9521 0.564453C50.9414 0.572901 50.9317 0.581936 50.9229 0.591797C50.9317 0.581911 50.9414 0.572927 50.9521 0.564453ZM63.2559 0.564453C63.2451 0.572901 63.2354 0.581936 63.2266 0.591797C63.2354 0.581911 63.2451 0.572927 63.2559 0.564453ZM76.5117 0.566406C76.502 0.574239 76.4934 0.582783 76.4854 0.591797C76.4934 0.58276 76.502 0.574263 76.5117 0.566406ZM15.3428 0.59082C15.3347 0.581358 15.3261 0.572599 15.3164 0.564453C15.3261 0.572624 15.3348 0.581334 15.3428 0.59082ZM0.19043 0.564453C0.180038 0.572606 0.170706 0.581351 0.162109 0.59082C0.170697 0.581326 0.180047 0.572631 0.19043 0.564453ZM10.3184 0.561523C10.3118 0.566531 10.3056 0.571632 10.2998 0.577148C10.3056 0.571635 10.3118 0.566526 10.3184 0.561523ZM71.7773 0.540039C71.7673 0.545584 71.757 0.550203 71.748 0.556641C71.757 0.550206 71.7673 0.54558 71.7773 0.540039ZM15.3027 0.553711C15.2939 0.547323 15.2845 0.541579 15.2744 0.536133C15.2845 0.541602 15.2939 0.547298 15.3027 0.553711ZM19.1963 0.536133C19.1863 0.541601 19.1768 0.547307 19.168 0.553711C19.1768 0.547271 19.1863 0.541631 19.1963 0.536133ZM0.232422 0.537109C0.223278 0.541857 0.214253 0.546318 0.206055 0.551758C0.214252 0.546297 0.223278 0.541876 0.232422 0.537109ZM10.3701 0.530273C10.3594 0.535161 10.3493 0.540175 10.3398 0.545898C10.3493 0.540188 10.3594 0.535148 10.3701 0.530273ZM0.28418 0.515625C0.2766 0.518119 0.268831 0.519626 0.261719 0.522461C0.268834 0.519613 0.276596 0.518129 0.28418 0.515625ZM10.5303 0.491211C10.4769 0.496285 10.4306 0.505787 10.3916 0.520508C10.4306 0.50584 10.4769 0.496285 10.5303 0.491211ZM93.1904 0.505859C93.1864 0.488391 93.1825 0.471417 93.1777 0.455078C93.1825 0.47142 93.1864 0.488389 93.1904 0.505859ZM93.1602 0.40332C93.1525 0.382401 93.1447 0.3625 93.1357 0.34375C93.1447 0.362507 93.1525 0.382396 93.1602 0.40332ZM83.4014 0.287109H83.4023H83.4014ZM93.1211 0.316406C93.1116 0.299025 93.1016 0.282856 93.0908 0.267578C93.1016 0.282868 93.1116 0.299015 93.1211 0.316406ZM93.0684 0.237305C93.0553 0.221774 93.0411 0.208193 93.0264 0.195312C93.0411 0.208213 93.0553 0.221754 93.0684 0.237305ZM93.0078 0.178711C92.9943 0.168427 92.9796 0.160596 92.9648 0.152344C92.9796 0.160617 92.9943 0.168404 93.0078 0.178711ZM83.0879 0.146484C83.0798 0.143093 83.0717 0.13973 83.0635 0.136719C83.0717 0.13975 83.0798 0.143071 83.0879 0.146484ZM0.260742 19.0557C0.277131 19.0623 0.294584 19.0684 0.313477 19.0732C0.294578 19.0684 0.277135 19.0623 0.260742 19.0557ZM8.47656 16.8584C8.45861 16.8852 8.43944 16.9111 8.4209 16.9375C8.43944 16.9111 8.45861 16.8852 8.47656 16.8584ZM9.25586 14.5635C9.25822 14.5414 9.26054 14.5193 9.2627 14.4971C9.26054 14.5193 9.25822 14.5414 9.25586 14.5635ZM6.0293 1.25C5.99412 1.2404 5.9587 1.23106 5.92285 1.22266C5.9587 1.23105 5.99412 1.24042 6.0293 1.25Z" fill="#2E2E28"/>
</svg>
