<svg width="460" height="421" viewBox="0 0 460 421" fill="none" xmlns="http://www.w3.org/2000/svg">
<g clip-path="url(#clip0_73_27)">
<path d="M121.915 28.538C165.213 26.9332 193.077 58.0515 201.597 73.8113C179.749 63.6163 156.865 64.2846 132.179 63.869C112.43 63.5364 79.8068 66.829 65.9636 68.5169C69.1422 68.8906 85.9195 69.5826 127.6 69.3612C169.28 69.1399 194.898 77.4401 202.498 81.6178C201.28 82.7179 195.87 86.7617 183.973 94.1363C169.102 103.355 154.999 109.991 111.874 123.421C68.7481 136.851 32.5317 83.4582 15.5549 78.5491C-1.42179 73.64 -7.85161 68.9872 13.9361 67.856C35.7238 66.7248 67.7925 30.5441 121.915 28.538Z" fill="black"/>
<path d="M210.779 89.7339C210.541 89.9167 210.295 89.9867 210.09 89.9828L210.779 89.7339C211.48 89.1976 212.123 87.6904 211.539 84.231C210.561 78.4328 207.109 64.0021 208.431 45.2231C209.752 26.4441 212.07 16.8978 212.827 14.525C213.584 12.1523 217.34 12.0192 220.521 13.1086C223.703 14.198 227.155 16.2488 228.656 17.3062C230.158 18.3635 231.557 19.4624 229.611 23.4677C227.666 27.4729 221.893 43.5217 222.937 60.4826C223.773 74.0514 224.415 80.8399 224.632 82.538L226.034 84.231L210.779 89.7339Z" fill="black"/>
<path d="M216.874 85.5932C303.499 50.4082 402.246 92.109 437.431 178.734C472.616 265.36 430.915 364.107 344.29 399.292C257.665 434.477 158.918 392.776 123.733 306.151C88.5476 219.525 130.248 120.778 216.874 85.5932ZM250.247 96.5326C246.718 88.7513 239.401 96.1464 235.693 102.444C232.727 107.482 216.95 111.654 209.432 113.111C206.195 113.797 193.721 116.175 205.724 119.409C217.726 122.642 231.776 117.304 238.292 114.289C244.808 111.274 253.776 104.314 250.247 96.5326Z" fill="#141514"/>
</g>
<defs>
<clipPath id="clip0_73_27">
<rect width="460" height="421" fill="white"/>
</clipPath>
</defs>
</svg>
