<svg version="1.1" id="Layer_1" xmlns="http://www.w3.org/2000/svg" xmlns:xlink="http://www.w3.org/1999/xlink"
	 viewBox="215.50 337.39 165.25 169.75" xml:space="preserve" preserveAspectRatio="xMidYMid meet">
<style type="text/css">
	.st0{fill:currentColor;}
</style>
<g>
	<path class="st0" d="M372.75,499.14c-49.75,0-99.5,0-149.25,0c0-51.25,0-102.5,0-153.75c49.75,0,99.5,0,149.25,0
		C372.75,396.64,372.75,447.89,372.75,499.14z M241.21,406.88c0.49,4.22,0.55,8.41,1.52,12.37c3.76,15.38,7.8,30.69,11.79,46.02
		c0.37,1.43,1.06,2.81,1.76,4.12c4.04,7.58,11.68,10.65,19.97,8.33c1.28-0.36,3.16-0.02,4.26,0.73c7.55,5.15,15.86,5.06,23.36-0.36
		c0.85-0.62,2.38-1.19,3.19-0.84c9.09,3.9,19.67-0.5,23.03-13.61c3.03-11.84,6.35-23.6,9.44-35.43c2.5-9.6,4.18-19.32,2.45-29.26
		c-1.52-8.78-5.84-15.57-14.99-17.67c-3.88-0.89-8.25,0.3-12.12-0.64c-4.01-0.97-7.55-3.81-11.54-5.02
		c-4.93-1.5-5.12-1.34-3.76-6.35c1.21-4.45,3.97-7.66,7.56-10.39c1.63-1.24,3.25-2.87,0.94-4.87c-4.29-3.71-14.43-2.34-16.83,2.73
		c-2.1,4.44-3.46,9.33-4.41,14.17c-0.59,3.02-1.18,4.46-4.62,4.69c-3,0.2-6.3,1.16-8.74,2.85c-2.95,2.04-5.69,2.24-9.02,1.96
		c-10.85-0.91-19.28,5.23-21.78,15.82C241.82,399.71,241.67,403.36,241.21,406.88z"/>
	<path d="M241.21,406.88c0.45-3.52,0.61-7.17,1.44-10.66c2.51-10.59,10.94-16.73,21.78-15.82c3.33,0.28,6.07,0.08,9.02-1.96
		c2.44-1.68,5.75-2.65,8.74-2.85c3.45-0.23,4.04-1.67,4.62-4.69c0.94-4.84,2.31-9.73,4.41-14.17c2.4-5.07,12.54-6.45,16.83-2.73
		c2.31,2,0.69,3.64-0.94,4.87c-3.58,2.72-6.35,5.94-7.56,10.39c-1.36,5.01-1.17,4.85,3.76,6.35c3.99,1.21,7.52,4.05,11.54,5.02
		c3.86,0.93,8.23-0.25,12.12,0.64c9.16,2.1,13.47,8.9,14.99,17.67c1.73,9.94,0.05,19.66-2.45,29.26
		c-3.08,11.83-6.41,23.59-9.44,35.43c-3.36,13.11-13.94,17.51-23.03,13.61c-0.81-0.35-2.33,0.23-3.19,0.84
		c-7.5,5.43-15.81,5.52-23.36,0.36c-1.1-0.75-2.98-1.08-4.26-0.73c-8.28,2.31-15.93-0.76-19.97-8.33c-0.7-1.31-1.39-2.69-1.76-4.12
		c-3.99-15.32-8.03-30.64-11.79-46.02C241.76,415.29,241.7,411.1,241.21,406.88z M319.7,415.91c-0.49,0.14-0.98,0.29-1.47,0.43
		c-0.3-1.17-0.62-2.33-0.89-3.51c-1.24-5.45-1.78-11.18-3.85-16.29c-3.86-9.51-13.53-14.76-23.55-13.82
		c-10.26,0.96-19.14,8.87-21.09,20.84c-1.43,8.77-1.58,17.92-0.95,26.81c0.92,13.08,3.11,26.07,8.33,38.28
		c2.88,6.73,7.84,11,15.47,11.1c7.6,0.1,12.91-3.92,15.8-10.61c2.21-5.11,3.45-10.65,5.13-15.99c0.38-1.2,0.75-2.4,1.13-3.6
		c0.4,0.09,0.8,0.17,1.19,0.26c1.01,4.35-0.97,8.41-2.17,12.43c-1.26,4.23-3.17,8.27-4.79,12.4c5.63,2.74,11.97,1.55,15.7-3.56
		c1.86-2.54,3.13-5.68,4-8.74c2.95-10.32,5.67-20.7,8.36-31.09c1.28-4.95,2.57-9.93,3.34-14.98c1.11-7.2,1.41-14.47-1.11-21.5
		c-4.18-11.68-19.78-16.13-28.57-8.07C317.56,395.01,320.16,405,319.7,415.91z M275.15,386.73c-12.82-9.16-28.4-2.39-30.65,12.8
		c-1.27,8.55-0.26,16.99,1.82,25.26c3.29,13.07,6.8,26.08,10.41,39.07c0.69,2.47,1.92,4.94,3.47,6.98
		c4.06,5.35,11.39,6.82,15.98,3.64c-1.55-3.7-3.4-7.26-4.55-11.04c-4.38-14.42-6.64-29.21-6.89-44.29
		C264.54,407.29,266.11,395.92,275.15,386.73z M297,380.27c-1.81-10.22,1.17-18.27,9.68-24.07c-6.11-3.14-11.27-2.42-13.77,1.84
		c-4.04,6.9-4,14.65-4.9,22.23C291.15,380.27,293.86,380.27,297,380.27z M272.48,380.79c4.32,4.18,4.37,4.27,10.33,1.12
		c1.3-0.69,2.14-2.24,3.2-3.39c-0.35-0.5-0.7-1-1.05-1.5C280.8,378.28,276.64,379.54,272.48,380.79z M306.93,385.03
		c1.79-1.16,3.29-2.13,5.88-3.8c-5-1.63-8.97-2.93-13.42-4.39C299.19,383.35,304.92,382.11,306.93,385.03z"/>
	<path class="st0" d="M319.7,415.91c0.46-10.92-2.15-20.9-9.98-29.22c8.79-8.06,24.4-3.61,28.57,8.07c2.51,7.03,2.21,14.3,1.11,21.5
		c-0.78,5.05-2.06,10.03-3.34,14.98c-2.69,10.39-5.4,20.78-8.36,31.09c-0.88,3.06-2.14,6.2-4,8.74c-3.74,5.11-10.07,6.3-15.7,3.56
		c1.62-4.13,3.53-8.17,4.79-12.4c1.2-4.03,3.17-8.09,2.17-12.43c-0.4-0.09-0.8-0.17-1.19-0.26c-0.38,1.2-0.76,2.4-1.13,3.6
		c-1.67,5.35-2.92,10.88-5.13,15.99c-2.89,6.69-8.2,10.71-15.8,10.61c-7.63-0.1-12.59-4.37-15.47-11.1
		c-5.22-12.21-7.41-25.2-8.33-38.28c-0.62-8.89-0.48-18.04,0.95-26.81c1.96-11.97,10.83-19.87,21.09-20.84
		c10.02-0.94,19.69,4.31,23.55,13.82c2.07,5.11,2.61,10.84,3.85,16.29c0.27,1.18,0.59,2.34,0.89,3.51
		C318.72,416.2,319.21,416.05,319.7,415.91z M294.14,428.35c-0.22-5.04-0.4-9.06-0.58-13.08c-0.56,0.02-1.13,0.05-1.69,0.07
		c0,4.08,0,8.15,0,12.94c-4.92,0-9.14,0-13.36,0c0.01,0.53,0.01,1.05,0.02,1.58c4.31,0,8.62,0,13.56,0c0,4.81,0,8.78,0,12.74
		c0.48,0.01,0.97,0.02,1.45,0.04c0-4.04,0-8.09,0-12.81c5.09,0,9.42,0,13.75,0c0.01-0.49,0.01-0.98,0.02-1.47
		C303,428.35,298.7,428.35,294.14,428.35z"/>
	<path class="st0" d="M275.15,386.73c-9.04,9.19-10.61,20.56-10.41,32.43c0.25,15.07,2.51,29.86,6.89,44.29
		c1.15,3.78,3.01,7.35,4.55,11.04c-4.59,3.18-11.92,1.71-15.98-3.64c-1.55-2.04-2.78-4.51-3.47-6.98
		c-3.61-12.98-7.12-26-10.41-39.07c-2.08-8.28-3.09-16.71-1.82-25.26C246.75,384.34,262.33,377.57,275.15,386.73z"/>
	<path class="st0" d="M297,380.27c-3.15,0-5.85,0-8.98,0c0.9-7.58,0.85-15.33,4.9-22.23c2.5-4.26,7.66-4.98,13.77-1.84
		C298.18,362,295.19,370.05,297,380.27z"/>
	<path class="st0" d="M272.48,380.79c4.16-1.26,8.32-2.52,12.48-3.77c0.35,0.5,0.7,1,1.05,1.5c-1.05,1.15-1.9,2.71-3.2,3.39
		C276.85,385.06,276.81,384.97,272.48,380.79z"/>
	<path class="st0" d="M306.93,385.03c-2.01-2.92-7.75-1.68-7.54-8.19c4.45,1.45,8.42,2.75,13.42,4.39
		C310.22,382.9,308.73,383.87,306.93,385.03z"/>
	<path d="M294.14,428.35c4.56,0,8.86,0,13.16,0c-0.01,0.49-0.01,0.98-0.02,1.47c-4.33,0-8.66,0-13.75,0c0,4.73,0,8.77,0,12.81
		c-0.48-0.01-0.97-0.02-1.45-0.04c0-3.97,0-7.94,0-12.74c-4.94,0-9.25,0-13.56,0c-0.01-0.53-0.01-1.05-0.02-1.58
		c4.22,0,8.45,0,13.36,0c0-4.79,0-8.86,0-12.94c0.56-0.02,1.13-0.05,1.69-0.07C293.73,419.29,293.91,423.31,294.14,428.35z"/>
</g>
</svg>
