<svg version="1.1" id="Layer_1" xmlns="http://www.w3.org/2000/svg" xmlns:xlink="http://www.w3.org/1999/xlink"
	 viewBox="128.50 319.39 340.75 205.00" xml:space="preserve" preserveAspectRatio="xMidYMid meet">
<style type="text/css">
	.st0{fill:currentColor;}
</style>
<g>
	<path class="st0" d="M461.25,516.39c-108.25,0-216.5,0-324.75,0c0-63,0-126,0-189c108.25,0,216.5,0,324.75,0
		C461.25,390.39,461.25,453.39,461.25,516.39z M265.13,421.41c-5.58,1.92-11.05,4.4-16.78,5.65c-13.03,2.85-26.2,5.03-39.27,7.7
		c-1.65,0.34-3.83,1.72-4.34,3.14c-0.92,2.55,1.49,3.73,3.57,4.32c6.35,1.81,12.68,3.87,19.15,5.05c7.44,1.36,15.02,1.88,22.71,2.78
		c-0.74,2.74-1.8,5.33-2.09,8.01c-0.64,5.74-2.77,11.46-0.3,17.32c4.39,10.43,6.32,10.87,15.09,3.46
		c7.27-6.14,15.46-9.35,25.21-7.99c25.93,3.63,47.34-5.76,65.34-23.7c10.84-10.8,15.88-24.92,20.1-39.27
		c3.21-10.94,2.76-21.75-2.04-32.17c-1.29-2.79-0.78-4.75,0.86-7.15c3.17-4.62,6.22-9.35,8.82-14.31c1.87-3.57,0.69-5.61-3.15-6.71
		c-2.75-0.79-5.57-1.39-8.38-1.91c-2.97-0.55-4.64,0.5-5.87,3.61c-2.37,6-5.37,11.76-8.34,17.5c-0.58,1.13-2.09,1.98-3.36,2.52
		c-3.38,1.43-7.24,2.04-10.22,4.02c-9.88,6.56-19.33,13.76-29.18,20.36c-9.64,6.46-19.57,12.48-29.36,18.72
		c-1.77,1.13-3,1.28-4.78-0.47c-16.82-16.57-34.61-14.16-53.77-5.09c-0.16,0.07-0.18,0.43-0.26,0.66
		C231.64,416.42,247.64,421.65,265.13,421.41z M321.1,493.15c17.61-4.32,31.87-19.61,29.31-30.63
		C335.04,467.07,325.29,477.23,321.1,493.15z M178.29,475.23c0.17,0.56,0.34,1.12,0.5,1.68c14.4-4.96,28.8-9.92,43.2-14.88
		c-0.17-0.5-0.34-1-0.51-1.5C207.09,465.43,192.69,470.33,178.29,475.23z M196.1,484.79c0.19,0.54,0.38,1.07,0.57,1.61
		c11.97-4.7,23.94-9.4,35.91-14.11c-0.2-0.52-0.4-1.03-0.59-1.55C220.03,475.42,208.07,480.1,196.1,484.79z M203.79,454.63
		c-0.18-0.56-0.37-1.11-0.55-1.67c-5.29,1.54-10.58,3.07-15.87,4.61c0.15,0.51,0.31,1.03,0.46,1.54
		C193.15,457.62,198.47,456.13,203.79,454.63z M220.12,490.68c0.21,0.47,0.43,0.95,0.64,1.42c4.69-2.11,9.38-4.22,14.07-6.32
		c-0.21-0.47-0.42-0.94-0.63-1.4C229.5,486.48,224.81,488.58,220.12,490.68z"/>
	<path d="M265.13,421.41c-17.5,0.25-33.49-4.99-40.65-13.95c0.08-0.23,0.1-0.58,0.26-0.66c19.16-9.07,36.95-11.47,53.77,5.09
		c1.78,1.75,3.02,1.6,4.78,0.47c9.79-6.24,19.72-12.26,29.36-18.72c9.85-6.6,19.3-13.8,29.18-20.36c2.98-1.98,6.85-2.59,10.22-4.02
		c1.27-0.54,2.78-1.39,3.36-2.52c2.97-5.74,5.97-11.5,8.34-17.5c1.23-3.11,2.9-4.16,5.87-3.61c2.82,0.52,5.63,1.12,8.38,1.91
		c3.84,1.11,5.02,3.15,3.15,6.71c-2.6,4.95-5.65,9.69-8.82,14.31c-1.65,2.4-2.15,4.36-0.86,7.15c4.81,10.41,5.26,21.23,2.04,32.17
		c-4.22,14.35-9.26,28.47-20.1,39.27c-18,17.94-39.41,27.33-65.34,23.7c-9.75-1.37-17.95,1.84-25.21,7.99
		c-8.77,7.41-10.7,6.97-15.09-3.46c-2.46-5.85-0.34-11.58,0.3-17.32c0.3-2.68,1.35-5.27,2.09-8.01c-7.69-0.9-15.27-1.43-22.71-2.78
		c-6.48-1.18-12.8-3.24-19.15-5.05c-2.08-0.59-4.49-1.78-3.57-4.32c0.51-1.42,2.7-2.8,4.34-3.14c13.07-2.67,26.25-4.85,39.27-7.7
		C254.08,425.8,259.55,423.33,265.13,421.41z M258.06,478.82c1.35-1.22,2.21-2.12,3.19-2.87c8.08-6.19,16.78-9.94,27.39-8.35
		c22.59,3.4,41.82-4.32,58.52-19.01c12.88-11.33,19.26-26.52,23.53-42.66c2.59-9.78,2.25-19.59-2.2-28.89
		c-0.83-1.74-2.63-3.01-3.79-4.28c3.87-5.3,8.24-11.29,12.82-17.57c-3.81-1.28-6.51-2.18-9.21-3.09c0.12-0.36,0.24-0.72,0.36-1.08
		c3.03,0.44,6.07,0.88,9.1,1.32c0.08-0.55,0.17-1.1,0.25-1.66c-2.58-0.56-5.16-1.15-7.75-1.69c-2.2-0.46-3.32,0.42-4.11,2.61
		c-1.34,3.74-3.08,7.36-4.76,10.97c-1.99,4.27-6.16,7.64-5.35,13.08c0.06,0.41-0.34,0.93-0.62,1.33
		c-6.19,9.07-11.92,18.49-18.68,27.11c-15.32,19.53-32.42,37.35-53.11,51.39c-1.9,1.29-2.24,2.67-1.51,4.75
		c0.44,1.27,0.34,2.72,0.48,4.09c-0.45,0.1-0.89,0.19-1.34,0.29c-1.02-1.75-2.03-3.51-3.14-5.43c-8.44,3.34-16.72,6.61-25.06,9.91
		c0.97,1.74,1.8,3.14,2.54,4.57C256.4,475.22,257.1,476.8,258.06,478.82z M207.95,437.7c-0.04,0.35-0.09,0.71-0.13,1.06
		c1.53,0.62,3.03,1.36,4.6,1.86c22.73,7.18,45.76,6.99,68.85,2.37c11.05-2.21,21.98-4.98,29.6-14.5c2.25-2.81,5.02-5.21,7.52-7.83
		c12.95-13.61,24.64-28.19,34.06-44.5c0.45-0.79,0.96-2.29,0.62-2.63c-0.69-0.68-2.12-1.3-2.94-1.03c-2.21,0.73-4.43,1.69-6.34,3
		c-12.98,8.88-25.97,17.75-38.79,26.86c-25.29,17.96-52.99,29.75-83.95,33.45C216.66,436.34,212.31,437.07,207.95,437.7z
		 M242.81,410.14c0.1-0.26,0.2-0.51,0.3-0.77c10.53,1.2,21.07,2.4,32.18,3.67c-11.8-12.83-30.95-12.94-45.7-4.83
		c12.7,10.61,35.3,13.94,44.91,6.53C263.88,413.2,253.34,411.67,242.81,410.14z M249.22,467.49c18.44-4.95,33.74-12.77,46.94-25.77
		c-13.68,4.36-27.05,7.14-40.85,7.58c-0.75,0.02-1.94,0.91-2.12,1.6C251.81,456.14,250.64,461.43,249.22,467.49z M253.87,480.33
		c0.6-0.31,1.21-0.63,1.81-0.94c-1.47-2.74-2.95-5.48-4.42-8.22c-0.45,0.24-0.91,0.48-1.36,0.72
		C251.22,474.7,252.54,477.51,253.87,480.33z"/>
	<path d="M321.1,493.15c4.19-15.92,13.94-26.07,29.31-30.63C352.97,473.54,338.71,488.83,321.1,493.15z M347.59,466.21
		c-11.67,3.78-19.75,10.95-22.95,23.28C336.38,487.33,347.41,476.07,347.59,466.21z"/>
	<path d="M178.29,475.23c14.4-4.9,28.8-9.8,43.2-14.7c0.17,0.5,0.34,1,0.51,1.5c-14.4,4.96-28.8,9.92-43.2,14.88
		C178.62,476.35,178.45,475.79,178.29,475.23z"/>
	<path d="M196.1,484.79c11.96-4.68,23.93-9.37,35.89-14.05c0.2,0.52,0.4,1.03,0.59,1.55c-11.97,4.7-23.94,9.4-35.91,14.11
		C196.49,485.86,196.3,485.32,196.1,484.79z"/>
	<path d="M203.79,454.63c-5.32,1.49-10.64,2.99-15.96,4.48c-0.15-0.51-0.31-1.03-0.46-1.54c5.29-1.54,10.58-3.07,15.87-4.61
		C203.43,453.52,203.61,454.08,203.79,454.63z"/>
	<path d="M220.12,490.68c4.69-2.1,9.38-4.2,14.07-6.3c0.21,0.47,0.42,0.94,0.63,1.4c-4.69,2.11-9.38,4.22-14.07,6.32
		C220.55,491.63,220.34,491.16,220.12,490.68z"/>
	<path class="st0" d="M258.06,478.82c-0.96-2.02-1.66-3.59-2.45-5.13c-0.74-1.44-1.57-2.83-2.54-4.57
		c8.34-3.3,16.62-6.58,25.06-9.91c1.11,1.92,2.13,3.67,3.14,5.43c0.45-0.1,0.89-0.19,1.34-0.29c-0.14-1.37-0.04-2.83-0.48-4.09
		c-0.73-2.08-0.38-3.46,1.51-4.75c20.68-14.04,37.79-31.85,53.11-51.39c6.76-8.62,12.49-18.04,18.68-27.11
		c0.28-0.41,0.68-0.93,0.62-1.33c-0.81-5.44,3.36-8.8,5.35-13.08c1.68-3.62,3.42-7.23,4.76-10.97c0.79-2.2,1.91-3.07,4.11-2.61
		c2.59,0.54,5.17,1.12,7.75,1.69c-0.08,0.55-0.17,1.1-0.25,1.66c-3.03-0.44-6.07-0.88-9.1-1.32c-0.12,0.36-0.24,0.72-0.36,1.08
		c2.7,0.9,5.39,1.81,9.21,3.09c-4.58,6.28-8.96,12.27-12.82,17.57c1.16,1.27,2.96,2.55,3.79,4.28c4.44,9.3,4.79,19.11,2.2,28.89
		c-4.28,16.13-10.65,31.33-23.53,42.66c-16.7,14.69-35.93,22.41-58.52,19.01c-10.61-1.6-19.31,2.15-27.39,8.35
		C260.27,476.7,259.4,477.6,258.06,478.82z M366.31,383.95c-0.9,16.36-6.99,30.54-17.08,43.16c-9.93,12.43-21.86,22.39-36.07,29.6
		c14.56-5.32,26.26-14.58,36.09-26.36C360.46,416.91,367.37,401.83,366.31,383.95z"/>
	<path class="st0" d="M207.95,437.7c4.36-0.64,8.72-1.37,13.1-1.89c30.95-3.71,58.66-15.49,83.95-33.45
		c12.82-9.11,25.81-17.98,38.79-26.86c1.91-1.31,4.13-2.27,6.34-3c0.82-0.27,2.25,0.35,2.94,1.03c0.34,0.34-0.16,1.84-0.62,2.63
		c-9.42,16.31-21.11,30.89-34.06,44.5c-2.5,2.62-5.27,5.02-7.52,7.83c-7.62,9.52-18.55,12.29-29.6,14.5
		c-23.1,4.62-46.13,4.81-68.85-2.37c-1.57-0.5-3.07-1.23-4.6-1.86C207.86,438.41,207.9,438.06,207.95,437.7z M286.39,436.43
		c-14.9,1.79-29.79,3.57-44.69,5.36C256.94,443.03,271.72,440.31,286.39,436.43z"/>
	<path class="st0" d="M242.81,410.14c10.53,1.53,21.07,3.06,31.7,4.6c-9.61,7.42-32.21,4.08-44.91-6.53
		c14.75-8.12,33.9-8.01,45.7,4.83c-11.11-1.27-21.65-2.47-32.18-3.67C243.01,409.63,242.91,409.88,242.81,410.14z"/>
	<path class="st0" d="M249.22,467.49c1.42-6.06,2.59-11.35,3.96-16.59c0.18-0.69,1.37-1.58,2.12-1.6
		c13.8-0.43,27.17-3.21,40.85-7.58C282.97,454.72,267.66,462.54,249.22,467.49z"/>
	<path class="st0" d="M253.87,480.33c-1.32-2.81-2.65-5.63-3.97-8.44c0.45-0.24,0.91-0.48,1.36-0.72c1.47,2.74,2.95,5.48,4.42,8.22
		C255.07,479.7,254.47,480.01,253.87,480.33z"/>
	<path class="st0" d="M347.59,466.21c-0.18,9.86-11.21,21.12-22.95,23.28C327.84,477.16,335.92,469.99,347.59,466.21z
		 M343.64,470.04c-0.32-0.31-0.64-0.62-0.96-0.93c-3.51,4.01-7.03,8.03-10.54,12.04c0.26,0.22,0.51,0.45,0.77,0.67
		C336.48,477.89,340.06,473.96,343.64,470.04z"/>
	<path d="M366.31,383.95c1.06,17.89-5.85,32.96-17.06,46.4c-9.83,11.78-21.53,21.04-36.09,26.36c14.21-7.2,26.14-17.17,36.07-29.6
		C359.32,414.48,365.41,400.31,366.31,383.95z"/>
	<path d="M286.39,436.43c-14.67,3.89-29.45,6.6-44.69,5.36C256.6,440,271.5,438.21,286.39,436.43z"/>
	<path d="M343.64,470.04c-3.58,3.93-7.16,7.85-10.73,11.78c-0.26-0.22-0.51-0.45-0.77-0.67c3.51-4.01,7.03-8.03,10.54-12.04
		C343,469.42,343.32,469.73,343.64,470.04z"/>
</g>
</svg>
