<svg version="1.1" id="Layer_1" xmlns="http://www.w3.org/2000/svg" xmlns:xlink="http://www.w3.org/1999/xlink"
	 viewBox="194.50 340.39 207.25 162.25" xml:space="preserve" preserveAspectRatio="xMidYMid meet">
<style type="text/css">
	.st0{fill:currentColor;}
</style>
<g>
	<path class="st0" d="M393.75,494.64c-63.75,0-127.5,0-191.25,0c0-48.75,0-97.5,0-146.25c63.75,0,127.5,0,191.25,0
		C393.75,397.14,393.75,445.89,393.75,494.64z M325.91,467.26c6.74,1.55,7.62-3.06,8.99-7.38c8-25.37,16.11-50.7,24.05-76.08
		c0.76-2.42,1.92-3.44,4.3-3.81c4.07-0.63,8.09-1.57,12.15-2.29c2.67-0.47,4.68-1.64,4.12-4.65c-0.54-2.95-2.83-3.52-5.49-3.02
		c-4.66,0.88-9.3,2.05-14,2.57c-4.83,0.53-7.05,2.96-8.23,7.58c-1.82,7.13-4.28,14.09-6.58,21.09c-0.25,0.75-1.2,1.26-1.83,1.89
		c-0.4-0.51-1.18-1.04-1.15-1.52c0.31-5.25-2.26-9.02-5.73-11.65c0.59-1.98,1.04-3.52,1.5-5.06c-1.95,0.09-3.91,0.18-5.65,0.26
		c-1.5-0.93-3.09-1.91-4.68-2.89c-0.5,1.67-1,3.34-1.57,5.24c-6.85,0.49-10.48,4.99-11.76,10.71c-2.53-3.45-5.18-7.06-7.92-10.8
		c1.8-1.55,3.06-3.48-0.25-5.46c-0.23-0.14-0.25-0.68-0.33-1.04c-1.56-7.37-5.9-11.57-13.21-11.65c0-1.69,0-3.12,0-4.56
		c-1.7,0.89-3.41,1.78-5.42,2.82c-1.33-0.15-3.23-0.36-5.13-0.56c-0.15,0.37-0.3,0.74-0.45,1.1c0.87,1.37,1.75,2.74,2.73,4.29
		c-6.21,3.31-6.94,8.83-5.92,15.25c-2.18-0.54-3.76-0.94-5.57-1.39c0.85-1.32,1.6-2.19,2-3.21c0.22-0.55,0.08-1.59-0.31-1.94
		c-0.42-0.37-1.77-0.5-1.96-0.22c-2.61,3.86-4.98,0.94-8.21-0.25c4.77-4.41,9.15-8.46,13.53-12.5c-0.24-0.32-0.48-0.64-0.72-0.97
		c-11-0.39-18.83,4.78-23.96,14.74c-0.29-0.17-0.58-0.35-0.87-0.52c3.5-8.82,6.99-17.64,10.8-27.25
		c-6.39,2.14-10.97,5.79-13.41,11.15c-2.35,5.16-3.39,10.9-4.98,16.28c-4.16-4.91-9.56-9.21-16.74-10.68
		c-7.07-1.44-13.63-0.47-20.55,4.34c12.11,3.05,23.55,4.68,33.34,11.14c-6.43-2.06-12.93-3.17-19.44-0.97
		c-6.4,2.16-11.89,5.64-15.53,12.79c6.93-1.37,12.87-2.69,18.85-3.69c5.92-0.99,11.89-1.87,18.5,0.04
		c-17.48,3.1-29.04,16.65-24.83,28.72c5.55-6.35,11.04-12.64,16.53-18.93c0.26,0.24,0.52,0.48,0.78,0.71
		c-5.8,8.97-6.38,19.71-0.79,23.89c1.6-8.55,4.8-16.21,9.96-23.8c5.19,14.57,10.17,28.3,14.92,42.1c1.2,3.5,3.07,4.81,6.82,4.78
		c19.24-0.16,38.49-0.07,57.74-0.07c1.46,0,2.92,0,4.43,0c-0.99,7.43-0.99,7.44-7.63,7.46c-5.37,0.01-10.75-0.01-16.12-0.01
		c-14.37,0-28.74,0.02-43.12-0.01c-2.61-0.01-4.53,0.83-4.59,3.7c-0.06,3,1.81,4.16,4.63,4.1c1.36-0.03,2.72-0.01,4.95-0.01
		c-6.79,4.7-8.34,9.96-4.98,14.45c2.84,3.8,8.35,4.73,11.93,1.58c1.57-1.38,2.87-3.57,3.31-5.6c0.95-4.36-2.06-7.22-5.4-9.95
		c16.28,0,31.99,0,48.19,0c-5.95,4.96-6.89,10.8-2.83,14.85c3.44,3.44,9.1,3.31,12.41-0.27
		C333.4,478.02,332.14,472.46,325.91,467.26z"/>
	<path d="M325.91,467.26c6.23,5.2,7.49,10.77,3.63,14.95c-3.32,3.58-8.97,3.71-12.41,0.27c-4.06-4.06-3.12-9.89,2.83-14.85
		c-16.2,0-31.92,0-48.19,0c3.35,2.73,6.35,5.59,5.4,9.95c-0.44,2.03-1.75,4.23-3.31,5.6c-3.58,3.14-9.09,2.22-11.93-1.58
		c-3.36-4.49-1.81-9.75,4.98-14.45c-2.23,0-3.59-0.02-4.95,0.01c-2.82,0.06-4.69-1.1-4.63-4.1c0.06-2.87,1.98-3.7,4.59-3.7
		c14.37,0.03,28.74,0.01,43.12,0.01c5.37,0,10.75,0.02,16.12,0.01c6.64-0.01,6.64-0.03,7.63-7.46c-1.51,0-2.97,0-4.43,0
		c-19.25,0-38.49-0.09-57.74,0.07c-3.75,0.03-5.61-1.28-6.82-4.78c-4.76-13.81-9.74-27.54-14.92-42.1
		c-5.15,7.58-8.36,15.25-9.96,23.8c-5.59-4.18-5.01-14.92,0.79-23.89c-0.26-0.24-0.52-0.48-0.78-0.71
		c-5.49,6.29-10.98,12.58-16.53,18.93c-4.21-12.08,7.34-25.62,24.83-28.72c-6.61-1.9-12.58-1.03-18.5-0.04
		c-5.99,1-11.92,2.32-18.85,3.69c3.65-7.15,9.14-10.63,15.53-12.79c6.51-2.2,13.01-1.08,19.44,0.97
		c-9.8-6.46-21.23-8.08-33.34-11.14c6.92-4.81,13.48-5.78,20.55-4.34c7.18,1.47,12.57,5.77,16.74,10.68
		c1.58-5.38,2.63-11.13,4.98-16.28c2.44-5.36,7.03-9.01,13.41-11.15c-3.81,9.62-7.31,18.44-10.8,27.25
		c0.29,0.17,0.58,0.35,0.87,0.52c5.13-9.96,12.96-15.13,23.96-14.74c0.24,0.32,0.48,0.64,0.72,0.97c-4.38,4.05-8.76,8.1-13.53,12.5
		c3.24,1.18,5.6,4.11,8.21,0.25c0.19-0.28,1.54-0.15,1.96,0.22c0.39,0.35,0.53,1.39,0.31,1.94c-0.4,1.01-1.15,1.89-2,3.21
		c1.81,0.45,3.4,0.85,5.57,1.39c-1.02-6.41-0.29-11.93,5.92-15.25c-0.98-1.55-1.86-2.92-2.73-4.29c0.15-0.37,0.3-0.74,0.45-1.1
		c1.9,0.21,3.8,0.42,5.13,0.56c2.01-1.05,3.71-1.93,5.42-2.82c0,1.43,0,2.86,0,4.56c7.31,0.08,11.64,4.27,13.21,11.65
		c0.08,0.36,0.09,0.9,0.33,1.04c3.31,1.98,2.05,3.92,0.25,5.46c2.74,3.74,5.39,7.34,7.92,10.8c1.29-5.72,4.92-10.22,11.76-10.71
		c0.57-1.9,1.07-3.57,1.57-5.24c1.59,0.98,3.18,1.96,4.68,2.89c1.75-0.08,3.7-0.17,5.65-0.26c-0.46,1.54-0.91,3.08-1.5,5.06
		c3.47,2.63,6.04,6.4,5.73,11.65c-0.03,0.48,0.75,1.02,1.15,1.52c0.63-0.62,1.59-1.14,1.83-1.89c2.3-7,4.76-13.96,6.58-21.09
		c1.18-4.62,3.4-7.04,8.23-7.58c4.7-0.52,9.33-1.69,14-2.57c2.65-0.5,4.94,0.07,5.49,3.02c0.55,3.01-1.45,4.17-4.12,4.65
		c-4.06,0.72-8.08,1.66-12.15,2.29c-2.39,0.37-3.55,1.39-4.3,3.81c-7.93,25.39-16.05,50.72-24.05,76.08
		C333.53,464.2,332.65,468.81,325.91,467.26z M332.03,449.69c-0.98,3.26-1.95,5.69-2.42,8.22c-0.55,2.93-2.07,3.66-4.92,3.64
		c-20.24-0.1-40.48-0.03-60.71-0.01c-0.87,0-1.84-0.21-2.6,0.09c-0.77,0.31-1.34,1.12-2,1.72c0.57,0.56,1.05,1.36,1.74,1.63
		c0.77,0.3,1.72,0.16,2.59,0.16c20.24-0.01,40.48,0.05,60.71-0.06c7.36-0.04,6.31,0.91,8.63-6.41
		c8.11-25.58,16.24-51.16,24.28-76.76c0.74-2.35,1.94-3.4,4.39-3.76c4.44-0.65,8.85-1.59,13.21-2.64c0.92-0.22,1.59-1.45,2.38-2.21
		c-1.04-0.38-2.15-1.21-3.1-1.06c-5.17,0.84-10.29,2.06-15.46,2.87c-2.48,0.39-3.6,1.58-4.29,3.9c-2.31,7.77-4.85,15.48-7.22,23.24
		c-0.65,2.13-1.49,3.25-4.1,3.24c-30.48-0.14-60.96-0.14-91.44-0.17c-1.3,0-2.6,0.13-4.3,0.22c0.58,1.8,0.97,3.09,1.42,4.35
		c4.28,11.99,8.67,23.94,12.78,35.99c1.02,2.98,2.43,4,5.6,3.97c20.36-0.17,40.72-0.13,61.09-0.16
		C329.26,449.69,330.23,449.69,332.03,449.69z M302.88,384.44c0.23-0.45,1.08-1.35,1.11-2.28c0.29-7.15-7-12.04-13.44-9.12
		c-0.67,0.3-1.41,0.51-2.13,0.64c-6.27,1.13-9.49,5.53-7.93,11.72c1.06,4.17,2.96,8.12,4.82,13.07c1.99-6.54,5.41-10.28,10.72-10.75
		c0.38-2.22,0.64-3.81,0.91-5.4C298.67,382.95,300.39,383.56,302.88,384.44z M270.47,403.17c3.25,0,6.5,0.11,9.73-0.07
		c0.87-0.05,2.32-0.83,2.44-1.47c1.08-5.7-3.04-14.48-10.49-12.85c-0.83,0.18-1.73,0.15-2.6,0.11c-7.49-0.37-11.87,4.31-10.84,11.88
		c0.12,0.89,1.51,2.21,2.41,2.29C264.21,403.33,267.35,403.16,270.47,403.17z M311.4,402.99c0.88-7.77-2.46-11.8-9.98-12.3
		c-0.49-0.03-1.01-0.1-1.45-0.29c-3.76-1.58-6.87-0.31-9.42,2.42c-2.66,2.84-3.87,6.22-2.71,10.17
		C295.86,402.99,303.64,402.99,311.4,402.99z M316.53,402.99c8.02,0,15.69,0,23.33,0c0.65-7.23-1.51-10.17-8.11-11.49
		c-0.96-0.19-1.86-0.99-2.79-1c-2.39-0.01-5.09-0.38-7.12,0.57C317.05,393.33,315.96,397.78,316.53,402.99z M246.13,392.87
		c-11.93-9.37-27.79-8.29-35.01,1.84C222.49,393,233.64,389.41,246.13,392.87z M329.57,476.86c0.25-3.54-2.71-6.85-6.25-7
		c-3.39-0.14-6.43,2.7-6.64,6.21c-0.21,3.49,2.53,6.52,6.06,6.71C326.33,482.97,329.33,480.38,329.57,476.86z M275.23,476.5
		c0.01-3.38-3.1-6.59-6.41-6.6c-3.46-0.01-6.39,2.93-6.45,6.48c-0.06,3.6,2.74,6.46,6.34,6.48
		C272.28,482.88,275.22,480.02,275.23,476.5z M213.98,374.43c10.67,3.18,21.75,4.76,30.88,11.58
		C237.77,374.11,223.57,368.83,213.98,374.43z M273.05,369.7c-11.59-0.01-21.37,13.23-19.97,27.21
		C257.15,385.52,264.14,377.13,273.05,369.7z M249.35,387.67c2.76-9,5.78-18.84,8.7-28.37
		C249.31,363.88,244.99,378.84,249.35,387.67z M242.93,397.51c-10.82-1.2-22.05,8.89-22.83,20.41
		C226.95,410.1,232.8,401.73,242.93,397.51z M233.55,421.94c3.91-7.19,7.93-14.58,11.53-21.19
		C237.37,402.65,231.42,412.95,233.55,421.94z M257.59,390.91c3.2-1.84,5.71-3.27,8.23-4.72c-0.75-1.25-1.48-2.48-2.46-4.11
		C261.43,385.03,259.69,387.69,257.59,390.91z M255.15,402.95c0.41,0,0.83-0.01,1.24-0.01c0.21-3.17,0.41-6.34,0.62-9.52
		C255.63,396.53,253.52,399.55,255.15,402.95z"/>
	<path class="st0" d="M332.03,449.69c-1.79,0-2.77,0-3.74,0c-20.36,0.03-40.73-0.02-61.09,0.16c-3.17,0.03-4.58-0.99-5.6-3.97
		c-4.12-12.05-8.51-24-12.78-35.99c-0.45-1.27-0.84-2.56-1.42-4.35c1.71-0.09,3.01-0.22,4.3-0.22c30.48,0.02,60.96,0.02,91.44,0.17
		c2.6,0.01,3.45-1.1,4.1-3.24c2.36-7.76,4.9-15.47,7.22-23.24c0.69-2.32,1.81-3.51,4.29-3.9c5.18-0.81,10.29-2.03,15.46-2.87
		c0.95-0.15,2.06,0.68,3.1,1.06c-0.79,0.76-1.46,1.99-2.38,2.21c-4.37,1.05-8.77,1.99-13.21,2.64c-2.45,0.36-3.65,1.4-4.39,3.76
		c-8.04,25.6-16.17,51.18-24.28,76.76c-2.32,7.32-1.27,6.37-8.63,6.41c-20.24,0.11-40.48,0.06-60.71,0.06
		c-0.87,0-1.83,0.14-2.59-0.16c-0.69-0.27-1.17-1.06-1.74-1.63c0.66-0.59,1.22-1.41,2-1.72c0.76-0.3,1.72-0.09,2.6-0.09
		c20.24-0.02,40.48-0.09,60.71,0.01c2.85,0.01,4.37-0.71,4.92-3.64C330.08,455.38,331.04,452.95,332.03,449.69z M306.39,421.32
		c2.91,0,4.88,0.01,6.85,0c9.29-0.07,9.29-0.07,11.22-9.1c0.05-0.24,0.12-0.48,0.18-0.73c0.47-2.09-0.37-3.07-2.51-3.01
		c-3.74,0.1-7.48,0.04-11.2,0.34c-0.95,0.08-2.4,1.1-2.62,1.94C307.48,413.98,307.08,417.29,306.39,421.32z M267.33,408.64
		c1.28,4.22,2.25,7.65,3.41,11.01c0.22,0.65,1.17,1.46,1.81,1.48c4.06,0.13,8.12,0.07,12.58,0.07c-0.77-3.91-1.32-7.32-2.18-10.66
		c-0.2-0.77-1.43-1.78-2.22-1.82C276.55,408.55,272.35,408.64,267.33,408.64z M285.5,408.67c0.71,4.06,1.26,7.57,1.98,11.05
		c0.12,0.57,0.96,1.41,1.48,1.42c4.72,0.05,9.43-0.05,14.15-0.11c0.71-3.2,1.42-6.4,2.13-9.61c0.03-0.12,0.11-0.3,0.06-0.36
		c-0.65-0.81-1.31-2.27-2-2.29C297.6,408.59,291.9,408.67,285.5,408.67z M325.79,421.19c4.63,0,9.32,0.04,14.01-0.06
		c0.55-0.01,1.39-0.7,1.58-1.25c1.16-3.47,2.18-6.99,3.36-10.89c-5.82,0-10.97,0-16.12,0c-1,3.69-2,7.37-2.97,11.07
		C325.59,420.28,325.7,420.55,325.79,421.19z M340.41,423.52c-5.41,0-9.87-0.04-14.32,0.05c-0.59,0.01-1.52,0.6-1.69,1.12
		c-1.04,3.24-1.9,6.53-2.91,10.12c1.86,0.1,2.96,0.21,4.07,0.21c3.11,0,6.23,0.02,9.33-0.14c0.71-0.04,1.78-0.6,2.01-1.18
		C338.1,430.61,339.09,427.44,340.41,423.52z M295.93,435.06c0.02-0.12,0.04-0.23,0.06-0.35c0.87,0,1.81,0.2,2.61-0.05
		c1.27-0.39,3.32-0.88,3.49-1.68c0.66-2.95,0.71-6.04,0.88-9.09c0.01-0.15-1.07-0.5-1.64-0.51c-3.62-0.05-7.24-0.11-10.85,0.04
		c-0.74,0.03-2.11,1.04-2.05,1.44c0.46,3.06,0.75,6.3,2.06,9C291,434.9,294.05,434.7,295.93,435.06z M275.28,436.86
		c0.81,3.16,1.33,5.68,2.16,8.1c0.24,0.7,1.33,1.53,2.07,1.58c3.03,0.18,6.08,0.07,9.69,0.07c-0.53-3.15-0.82-5.59-1.43-7.95
		c-0.19-0.72-1.26-1.68-1.98-1.72C282.5,436.76,279.19,436.86,275.28,436.86z M303.07,446.65c3.84,0,7.56,0.07,11.27-0.06
		c0.68-0.02,1.74-0.73,1.93-1.34c0.82-2.58,1.38-5.25,2.17-8.42c-2.35,0-4.19-0.01-6.03,0
		C303.61,436.89,303.61,436.89,303.07,446.65z M271.83,423.34c1,3.83,1.8,7.04,2.71,10.23c0.14,0.47,0.79,1.13,1.22,1.14
		c3.76,0.09,7.52,0.05,11.61,0.05c-0.58-3.54-0.84-6.4-1.6-9.11c-0.27-0.95-1.72-2.12-2.72-2.2
		C279.63,423.18,276.15,423.34,271.83,423.34z M318.27,446.78c4.8,0,8.87,0.06,12.94-0.06c0.66-0.02,1.65-0.72,1.88-1.34
		c0.93-2.51,1.61-5.11,2.61-8.42c-4.92,0-9.1-0.05-13.27,0.06c-0.54,0.01-1.36,0.69-1.55,1.24
		C319.99,440.8,319.28,443.41,318.27,446.78z M321.99,423.37c-5.24,0-9.57-0.1-13.89,0.09c-0.76,0.03-1.95,1.15-2.1,1.94
		c-0.6,2.98-0.85,6.04-1.28,9.5c4.5,0,8.57,0.07,12.63-0.07c0.65-0.02,1.65-0.81,1.85-1.45
		C320.18,430.35,320.94,427.25,321.99,423.37z M271.91,434.61c-0.83-3.33-1.35-6.28-2.37-9.06c-0.34-0.94-1.93-2.01-2.95-2.01
		c-2.78,0-5.57,0.52-8.34,0.95c-0.09,0.01-0.1,1.38,0.06,2.07c1.8,7.9,2.56,8.47,10.67,8.25
		C269.72,434.79,270.45,434.72,271.91,434.61z M251.89,408.56c1.53,4.29,2.65,7.71,4,11.04c0.29,0.72,1.38,1.54,2.15,1.58
		c3.2,0.18,6.42,0.07,10.17,0.07c-1.26-4.14-2.32-7.82-3.53-11.45c-0.18-0.54-1.08-1.17-1.67-1.19
		C259.57,408.5,256.12,408.56,251.89,408.56z M301.32,437.4c-10.48-1.85-11.23-1.16-9.34,8.43c0.04,0.2,0.31,0.35,0.48,0.52
		C300.58,447.19,301.77,446.02,301.32,437.4z M262.52,437.46c1.37,8.94,3.39,10.41,11.84,8.84
		C274.47,437.8,271.87,435.82,262.52,437.46z"/>
	<path class="st0" d="M302.88,384.44c-2.49-0.88-4.21-1.5-5.93-2.11c-0.27,1.59-0.54,3.18-0.91,5.4
		c-5.31,0.47-8.73,4.21-10.72,10.75c-1.86-4.95-3.77-8.9-4.82-13.07c-1.57-6.19,1.66-10.6,7.93-11.72c0.73-0.13,1.46-0.34,2.13-0.64
		c6.44-2.92,13.73,1.97,13.44,9.12C303.95,383.1,303.11,384,302.88,384.44z"/>
	<path class="st0" d="M270.47,403.16c-3.12,0-6.26,0.17-9.35-0.11c-0.9-0.08-2.29-1.4-2.41-2.29c-1.03-7.57,3.35-12.24,10.84-11.88
		c0.86,0.04,1.76,0.08,2.6-0.11c7.45-1.63,11.58,7.15,10.49,12.85c-0.12,0.64-1.57,1.42-2.44,1.47
		C276.96,403.27,273.71,403.17,270.47,403.16z"/>
	<path class="st0" d="M311.4,402.99c-7.76,0-15.55,0-23.56,0c-1.16-3.95,0.05-7.33,2.71-10.17c2.55-2.73,5.66-4,9.42-2.42
		c0.45,0.19,0.96,0.26,1.45,0.29C308.94,391.18,312.29,395.22,311.4,402.99z"/>
	<path class="st0" d="M316.53,402.99c-0.57-5.21,0.52-9.66,5.32-11.91c2.02-0.95,4.73-0.58,7.12-0.57c0.93,0,1.83,0.8,2.79,1
		c6.6,1.32,8.76,4.26,8.11,11.49C332.22,402.99,324.55,402.99,316.53,402.99z"/>
	<path class="st0" d="M246.13,392.87c-12.49-3.46-23.64,0.13-35.01,1.84C218.34,384.58,234.2,383.5,246.13,392.87z"/>
	<path class="st0" d="M329.57,476.86c-0.25,3.52-3.24,6.11-6.83,5.92c-3.53-0.19-6.27-3.22-6.06-6.71c0.21-3.51,3.25-6.35,6.64-6.21
		C326.86,470.01,329.82,473.32,329.57,476.86z"/>
	<path class="st0" d="M275.23,476.5c-0.01,3.51-2.95,6.38-6.53,6.36c-3.59-0.01-6.4-2.88-6.34-6.48c0.06-3.55,2.99-6.49,6.45-6.48
		C272.13,469.92,275.24,473.12,275.23,476.5z"/>
	<path class="st0" d="M213.98,374.43c9.59-5.61,23.79-0.33,30.88,11.58C235.73,379.19,224.65,377.61,213.98,374.43z"/>
	<path class="st0" d="M273.05,369.7c-8.91,7.43-15.91,15.82-19.97,27.21C251.68,382.94,261.47,369.69,273.05,369.7z"/>
	<path class="st0" d="M249.35,387.67c-4.36-8.83-0.04-23.79,8.7-28.37C255.13,368.83,252.11,378.67,249.35,387.67z"/>
	<path class="st0" d="M242.93,397.51c-10.13,4.21-15.98,12.58-22.83,20.41C220.88,406.4,232.11,396.31,242.93,397.51z"/>
	<path class="st0" d="M233.55,421.94c-2.13-8.99,3.82-19.29,11.53-21.19C241.48,407.35,237.46,414.75,233.55,421.94z"/>
	<path class="st0" d="M257.59,390.91c2.1-3.22,3.84-5.88,5.77-8.83c0.98,1.64,1.71,2.86,2.46,4.11
		C263.3,387.64,260.79,389.07,257.59,390.91z"/>
	<path class="st0" d="M255.15,402.95c-1.63-3.41,0.48-6.43,1.85-9.53c-0.21,3.17-0.41,6.34-0.62,9.52
		C255.98,402.94,255.57,402.95,255.15,402.95z"/>
	<path d="M306.39,421.32c0.69-4.04,1.09-7.35,1.91-10.55c0.21-0.84,1.66-1.86,2.62-1.94c3.72-0.3,7.47-0.24,11.2-0.34
		c2.15-0.06,2.98,0.92,2.51,3.01c-0.05,0.24-0.13,0.48-0.18,0.73c-1.93,9.03-1.93,9.03-11.22,9.1
		C311.27,421.34,309.3,421.32,306.39,421.32z M309.19,419.05c4.26,1.75,5.01-2.5,7.79-3.7
		C311.84,413.74,309.64,414.85,309.19,419.05z"/>
	<path d="M267.33,408.64c5.02,0,9.22-0.1,13.41,0.08c0.79,0.03,2.02,1.04,2.22,1.82c0.86,3.33,1.41,6.75,2.18,10.66
		c-4.47,0-8.53,0.07-12.58-0.07c-0.64-0.02-1.59-0.83-1.81-1.48C269.58,416.29,268.61,412.86,267.33,408.64z M270.4,410.97
		c1.12,2.93,4.49,2.81,7.23,0C275.28,410.97,272.87,410.97,270.4,410.97z"/>
	<path d="M285.5,408.67c6.39,0,12.1-0.08,17.79,0.11c0.69,0.02,1.35,1.48,2,2.29c0.05,0.06-0.03,0.24-0.06,0.36
		c-0.71,3.2-1.42,6.4-2.13,9.61c-4.72,0.06-9.43,0.16-14.15,0.11c-0.52-0.01-1.36-0.85-1.48-1.42
		C286.76,416.25,286.21,412.73,285.5,408.67z M290.34,410.85c-0.21,0.39-0.41,0.79-0.62,1.18c2.61,1.37,5.08,3.29,7.86,3.98
		c5.08,1.26,5.66,0.48,5.29-5.15C298.71,410.85,294.53,410.85,290.34,410.85z M297.33,418.51c-2.58-1.09-4.87-2.06-7.24-3.07
		C289.27,419.7,290.97,420.38,297.33,418.51z"/>
	<path d="M325.79,421.19c-0.09-0.64-0.2-0.91-0.15-1.13c0.98-3.69,1.98-7.38,2.97-11.07c5.15,0,10.31,0,16.12,0
		c-1.18,3.89-2.2,7.42-3.36,10.89c-0.18,0.55-1.03,1.24-1.58,1.25C335.12,421.23,330.42,421.19,325.79,421.19z M341.57,410.82
		c-3.69,2.53-7.31,5.01-10.94,7.5C337.51,421.21,340.78,419,341.57,410.82z M329.16,415.99c2.92-1.53,5.32-2.79,7.72-4.05
		C329.68,410.27,329.62,410.3,329.16,415.99z"/>
	<path d="M340.41,423.52c-1.32,3.93-2.31,7.1-3.51,10.19c-0.23,0.58-1.3,1.14-2.01,1.18c-3.11,0.16-6.22,0.14-9.33,0.14
		c-1.1,0-2.21-0.11-4.07-0.21c1.01-3.59,1.87-6.88,2.91-10.12c0.17-0.52,1.1-1.11,1.69-1.12C330.54,423.47,335,423.52,340.41,423.52
		z M324.9,433.02c2.69-1.11,6.44,2.24,7.93-2.34c0.58-1.8,0.98-4.66-2.53-4.94C325.86,425.38,324.9,426.54,324.9,433.02z"/>
	<path d="M295.93,435.06c-1.89-0.36-4.93-0.16-5.43-1.19c-1.32-2.71-1.61-5.94-2.06-9c-0.06-0.39,1.31-1.4,2.05-1.44
		c3.61-0.15,7.23-0.09,10.85-0.04c0.57,0.01,1.65,0.36,1.64,0.51c-0.17,3.05-0.22,6.14-0.88,9.09c-0.18,0.79-2.23,1.29-3.49,1.68
		c-0.8,0.25-1.73,0.05-2.61,0.05C295.97,434.82,295.95,434.94,295.93,435.06z M291.91,431.75c2.37-2.18,4.21-3.86,6.34-5.82
		c-2.75,0-4.97,0-7.44,0C291.19,427.92,291.5,429.58,291.91,431.75z M301.04,432.41c-3-3.19-4.06-2.95-6.07,0.63
		C296.87,432.84,298.6,432.66,301.04,432.41z"/>
	<path d="M275.28,436.86c3.9,0,7.21-0.1,10.51,0.08c0.71,0.04,1.79,1,1.98,1.72c0.61,2.36,0.9,4.81,1.43,7.95
		c-3.6,0-6.65,0.1-9.69-0.07c-0.74-0.04-1.83-0.87-2.07-1.58C276.61,442.54,276.09,440.02,275.28,436.86z"/>
	<path d="M303.07,446.65c0.54-9.76,0.54-9.76,9.34-9.81c1.84-0.01,3.68,0,6.03,0c-0.79,3.17-1.35,5.83-2.17,8.42
		c-0.19,0.61-1.25,1.31-1.93,1.34C310.63,446.72,306.91,446.65,303.07,446.65z M312.18,440.54c-0.15-0.37-0.3-0.74-0.45-1.11
		c-5.65-0.65-5.65-0.65-5.33,3.56C308.42,442.13,310.3,441.34,312.18,440.54z"/>
	<path d="M271.83,423.34c4.32,0,7.79-0.17,11.23,0.1c0.99,0.08,2.45,1.26,2.72,2.2c0.76,2.72,1.02,5.57,1.6,9.11
		c-4.09,0-7.85,0.04-11.61-0.05c-0.43-0.01-1.08-0.66-1.22-1.14C273.63,430.39,272.83,427.17,271.83,423.34z M284.29,432.82
		c0.41-0.3,0.83-0.6,1.24-0.9c-1.14-2.13-2.29-4.25-3.43-6.38c-1,1.68-2.87,3.4-2.82,5.05
		C279.38,434.11,282.41,432.47,284.29,432.82z"/>
	<path d="M318.27,446.78c1.01-3.38,1.72-5.98,2.6-8.52c0.19-0.55,1.01-1.23,1.55-1.24c4.18-0.1,8.36-0.06,13.27-0.06
		c-1,3.31-1.69,5.91-2.61,8.42c-0.23,0.61-1.22,1.32-1.88,1.34C327.15,446.85,323.08,446.78,318.27,446.78z M332.15,439.43
		c-3.53,1.31-7.04,2.61-11.5,4.26C329.7,445.92,332.06,444.85,332.15,439.43z"/>
	<path d="M321.99,423.37c-1.06,3.88-1.82,6.98-2.79,10.01c-0.21,0.64-1.2,1.43-1.85,1.45c-4.06,0.13-8.13,0.07-12.63,0.07
		c0.44-3.46,0.69-6.51,1.28-9.5c0.16-0.78,1.35-1.9,2.1-1.94C312.42,423.28,316.75,423.37,321.99,423.37z M311.75,425.76
		c0.35,2.59,0.39,4.78,1.1,6.72c0.18,0.5,3.32,0.76,3.67,0.21c1.28-1.99,1.95-4.37,2.98-6.94
		C316.57,425.76,314.61,425.76,311.75,425.76z M309.66,425.99c-0.55-0.1-1.1-0.19-1.65-0.29c-0.21,1.96-0.56,3.92-0.55,5.88
		c0,0.49,1.15,0.97,2.2,1.79C309.66,430.35,309.66,428.17,309.66,425.99z"/>
	<path d="M271.91,434.61c-1.46,0.1-2.19,0.18-2.92,0.2c-8.12,0.22-8.87-0.35-10.67-8.25c-0.16-0.69-0.15-2.06-0.06-2.07
		c2.77-0.43,5.55-0.95,8.34-0.95c1.02,0,2.6,1.07,2.95,2.01C270.56,428.33,271.08,431.29,271.91,434.61z M260.33,425.98
		c0.86,1.87,1.54,3.35,2.32,5.03c1.92-1.71,3.43-3.05,5.64-5.03C265.15,425.98,262.99,425.98,260.33,425.98z"/>
	<path d="M251.89,408.56c4.23,0,7.67-0.06,11.11,0.06c0.59,0.02,1.49,0.65,1.67,1.19c1.22,3.63,2.28,7.31,3.53,11.45
		c-3.74,0-6.96,0.1-10.17-0.07c-0.76-0.04-1.85-0.86-2.15-1.58C254.54,416.27,253.42,412.84,251.89,408.56z M255.09,410.89
		c2.03,8.34,3.77,9.63,9.96,7.58C263.91,413.84,259.94,410.71,255.09,410.89z"/>
	<path d="M301.32,437.4c0.45,8.63-0.74,9.8-8.87,8.96c-0.16-0.17-0.43-0.33-0.47-0.53C290.09,436.24,290.84,435.54,301.32,437.4z"/>
	<path d="M262.52,437.46c9.35-1.64,11.95,0.35,11.84,8.84C265.91,447.86,263.88,446.39,262.52,437.46z M265.3,439.44
		c0.99,5.39,1.29,5.6,6.5,4.74C270.99,438.99,270.99,438.99,265.3,439.44z"/>
	<path class="st0" d="M309.19,419.05c0.45-4.21,2.65-5.31,7.79-3.7C314.2,416.56,313.45,420.8,309.19,419.05z"/>
	<path class="st0" d="M270.4,410.97c2.47,0,4.88,0,7.23,0C274.88,413.78,271.52,413.9,270.4,410.97z"/>
	<path class="st0" d="M290.34,410.85c4.19,0,8.37,0,12.53,0c0.37,5.63-0.21,6.41-5.29,5.15c-2.78-0.69-5.25-2.61-7.86-3.98
		C289.93,411.63,290.14,411.24,290.34,410.85z"/>
	<path class="st0" d="M297.33,418.51c-6.36,1.87-8.06,1.19-7.24-3.07C292.46,416.45,294.76,417.42,297.33,418.51z"/>
	<path class="st0" d="M341.57,410.82c-0.79,8.18-4.06,10.39-10.93,7.5C334.26,415.83,337.88,413.34,341.57,410.82z"/>
	<path class="st0" d="M329.16,415.99c0.46-5.69,0.52-5.72,7.72-4.05C334.48,413.2,332.08,414.46,329.16,415.99z"/>
	<path class="st0" d="M324.9,433.02c0-6.48,0.96-7.64,5.39-7.28c3.51,0.29,3.12,3.14,2.53,4.94
		C331.34,435.26,327.6,431.91,324.9,433.02z"/>
	<path class="st0" d="M291.91,431.75c-0.41-2.16-0.73-3.83-1.1-5.82c2.47,0,4.69,0,7.44,0
		C296.12,427.88,294.29,429.57,291.91,431.75z"/>
	<path class="st0" d="M301.04,432.41c-2.45,0.25-4.17,0.43-6.07,0.63C296.98,429.45,298.05,429.22,301.04,432.41z"/>
	<path class="st0" d="M312.18,440.54c-1.88,0.8-3.76,1.59-5.78,2.45c-0.32-4.21-0.32-4.21,5.33-3.56
		C311.88,439.8,312.03,440.17,312.18,440.54z"/>
	<path class="st0" d="M284.29,432.82c-1.88-0.35-4.91,1.29-5.01-2.23c-0.05-1.65,1.82-3.36,2.82-5.05c1.14,2.13,2.29,4.25,3.43,6.38
		C285.12,432.22,284.7,432.52,284.29,432.82z"/>
	<path class="st0" d="M332.15,439.43c-0.08,5.42-2.45,6.49-11.5,4.26C325.1,442.04,328.62,440.74,332.15,439.43z"/>
	<path class="st0" d="M311.75,425.76c2.86,0,4.82,0,7.75,0c-1.03,2.56-1.71,4.95-2.98,6.94c-0.35,0.55-3.48,0.29-3.67-0.21
		C312.14,430.54,312.1,428.35,311.75,425.76z"/>
	<path class="st0" d="M309.66,425.99c0,2.18,0,4.36,0,7.37c-1.05-0.82-2.2-1.3-2.2-1.79c-0.01-1.96,0.33-3.92,0.55-5.88
		C308.55,425.8,309.1,425.89,309.66,425.99z"/>
	<path class="st0" d="M260.33,425.98c2.66,0,4.82,0,7.96,0c-2.22,1.97-3.73,3.32-5.64,5.03
		C261.87,429.33,261.19,427.85,260.33,425.98z"/>
	<path class="st0" d="M255.09,410.89c4.85-0.18,8.82,2.94,9.96,7.58C258.86,420.53,257.12,419.23,255.09,410.89z"/>
	<path class="st0" d="M265.3,439.44c5.69-0.46,5.69-0.46,6.5,4.74C266.59,445.04,266.29,444.83,265.3,439.44z"/>
</g>
</svg>
