<svg version="1.1" id="Layer_1" xmlns="http://www.w3.org/2000/svg" xmlns:xlink="http://www.w3.org/1999/xlink"
	 viewBox="184.75 340.39 227.50 163.00" xml:space="preserve" preserveAspectRatio="xMidYMid meet">
<style type="text/css">
	.st0{fill:currentColor;}
</style>
<g>
	<path class="st0" d="M404.25,495.39c-70.5,0-141,0-211.5,0c0-49,0-98,0-147c70.5,0,141,0,211.5,0
		C404.25,397.39,404.25,446.39,404.25,495.39z M248.71,437.72c-0.06,23.26,16.31,41.71,39.66,44.69
		c20.9,2.67,41.86-11.81,47.32-32.68c3.22-12.29,1.02-23.95-3.77-35.45c-3.74-8.97-6.93-18.17-10.46-27.22
		c-1.58-4.06-2.99-8.27-5.21-11.98c-10.84-18.11-36.48-17.86-46.93,0.46c-2.27,3.97-3.68,8.44-5.33,12.74
		c-3.12,8.15-5.92,16.43-9.23,24.5C251.46,420.82,248.69,428.91,248.71,437.72z"/>
	<path d="M248.71,437.72c-0.03-8.81,2.74-16.9,6.04-24.94c3.31-8.07,6.11-16.35,9.23-24.5c1.65-4.3,3.06-8.77,5.33-12.74
		c10.45-18.32,36.1-18.57,46.93-0.46c2.22,3.71,3.63,7.92,5.21,11.98c3.54,9.06,6.72,18.25,10.46,27.22
		c4.79,11.5,6.99,23.15,3.77,35.45c-5.47,20.87-26.43,35.35-47.32,32.68C265.02,479.43,248.65,460.97,248.71,437.72z M334.56,437.56
		c0.21-8.33-2.49-15.91-5.62-23.47c-3.42-8.29-6.36-16.77-9.62-25.13c-1.72-4.4-3.26-8.96-5.64-13
		c-5.87-9.99-17.57-14.06-28.6-10.46c-9.52,3.1-14.06,10.57-17.27,19.34c-4.11,11.24-8.28,22.46-12.58,33.62
		c-3.68,9.55-5.14,19.25-2.81,29.35c4.74,20.57,24.25,34.33,45.29,31.95C318.94,477.35,334.54,459.49,334.56,437.56z"/>
	<path class="st0" d="M334.57,437.56c-0.03,21.93-15.62,39.79-36.85,42.19c-21.05,2.39-40.55-11.38-45.29-31.95
		c-2.33-10.1-0.87-19.8,2.81-29.35c4.3-11.16,8.47-22.38,12.58-33.62c3.21-8.76,7.75-16.24,17.27-19.34
		c11.04-3.6,22.73,0.47,28.6,10.46c2.38,4.04,3.92,8.6,5.64,13c3.26,8.35,6.2,16.84,9.62,25.13
		C332.07,421.65,334.77,429.24,334.57,437.56z M329.32,437.31c0.11-7.4-2.09-14.26-4.79-21.03c-3.74-9.39-7.31-18.84-10.98-28.26
		c-1-2.56-1.9-5.18-3.18-7.59c-3.76-7.08-9.59-11.08-17.78-11.02c-8.06,0.06-14.23,3.91-17.21,11.16
		c-6.16,14.99-11.65,30.26-17.34,45.45c-0.6,1.61-0.75,3.41-1.04,5.13c-3.66,21.99,11.39,41.61,33.38,43.55
		C311.41,476.55,329.26,459.41,329.32,437.31z"/>
	<path d="M329.31,437.31c-0.06,22.1-17.9,39.25-38.93,37.39c-22-1.94-37.04-21.56-33.38-43.55c0.29-1.72,0.43-3.52,1.04-5.13
		c5.69-15.18,11.18-30.45,17.34-45.45c2.98-7.24,9.15-11.1,17.21-11.16c8.19-0.06,14.02,3.94,17.78,11.02
		c1.28,2.41,2.18,5.03,3.18,7.59c3.67,9.42,7.24,18.87,10.98,28.26C327.23,423.05,329.43,429.91,329.31,437.31z M292.5,472.56
		c3.07-0.52,6.2-0.78,9.19-1.6c19.32-5.26,29.88-25.31,23.21-45.52c-4.72-14.31-10.55-28.27-16.15-42.28
		c-2.84-7.12-8.22-11.31-16.15-11.2c-7.75,0.11-12.96,4.34-15.73,11.3c-5.39,13.57-10.49,27.24-15.67,40.89
		c-0.62,1.62-0.96,3.36-1.33,5.07C255.14,451.46,270.76,472.07,292.5,472.56z"/>
	<path class="st0" d="M292.5,472.56c-21.74-0.49-37.36-21.1-32.62-43.33c0.36-1.71,0.71-3.44,1.33-5.07
		c5.17-13.65,10.28-27.33,15.67-40.89c2.76-6.96,7.98-11.19,15.73-11.3c7.92-0.11,13.31,4.08,16.15,11.2
		c5.59,14.01,11.42,27.97,16.15,42.28c6.67,20.2-3.89,40.25-23.21,45.52C298.7,471.78,295.56,472.04,292.5,472.56z M293.64,408.86
		c-0.44-0.02-0.87-0.04-1.31-0.06c-1.59,3.55-3.28,7.05-4.72,10.65c-0.88,2.2-2.07,3.35-4.59,3.52c-3.99,0.27-7.96,0.97-11.93,1.49
		c-0.09,0.35-0.19,0.71-0.28,1.06c2.63,2.41,5.09,5.05,7.93,7.16c2.63,1.96,3.1,4,2.2,7.03c-1.04,3.51-1.55,7.17-2.28,10.77
		c0.3,0.23,0.6,0.45,0.91,0.68c3.18-1.82,6.54-3.41,9.5-5.55c2.66-1.93,4.76-1.72,7.35,0.01c3.12,2.08,6.5,3.77,9.77,5.63
		c0.28-0.25,0.57-0.5,0.85-0.75c-0.54-2.38-0.81-4.87-1.69-7.12c-2.21-5.62-1.26-9.93,4.19-13.14c1.99-1.17,3.53-3.13,5.27-4.72
		c-0.18-0.37-0.35-0.75-0.53-1.12c-3.41-0.42-6.81-1.03-10.23-1.21c-3.41-0.18-5.35-1.59-6.39-4.94
		C296.65,415.02,295,411.98,293.64,408.86z"/>
	<path d="M293.64,408.86c1.37,3.12,3.01,6.16,4.02,9.4c1.04,3.34,2.98,4.76,6.39,4.94c3.42,0.18,6.82,0.79,10.23,1.21
		c0.18,0.37,0.35,0.75,0.53,1.12c-1.74,1.6-3.28,3.55-5.27,4.72c-5.46,3.21-6.4,7.52-4.19,13.14c0.88,2.25,1.14,4.74,1.69,7.12
		c-0.28,0.25-0.57,0.5-0.85,0.75c-3.27-1.86-6.65-3.55-9.77-5.63c-2.59-1.73-4.68-1.94-7.35-0.01c-2.96,2.14-6.32,3.72-9.5,5.55
		c-0.3-0.23-0.6-0.45-0.91-0.68c0.74-3.6,1.25-7.26,2.28-10.77c0.9-3.03,0.43-5.08-2.2-7.03c-2.85-2.11-5.31-4.75-7.93-7.16
		c0.09-0.35,0.19-0.71,0.28-1.06c3.98-0.52,7.94-1.21,11.93-1.49c2.51-0.17,3.71-1.32,4.59-3.52c1.44-3.6,3.13-7.11,4.72-10.65
		C292.76,408.82,293.2,408.84,293.64,408.86z M310.17,427.25c-0.29-0.32-0.58-0.64-0.88-0.96c-2.82-0.38-5.63-0.93-8.46-1.08
		c-2.36-0.12-3.51-1.2-4.27-3.32c-0.95-2.63-2.21-5.15-3.59-8.29c-1.33,2.94-2.6,5.12-3.31,7.48c-0.93,3.12-2.86,4.28-5.96,4.38
		c-2.43,0.08-4.85,0.59-8.09,1.02c2.41,2.12,4.16,3.84,6.1,5.32c2.24,1.7,3.11,3.54,2.13,6.41c-0.89,2.61-1.22,5.41-1.95,8.81
		c3.23-1.94,5.88-3.33,8.3-5.03c1.81-1.28,3.23-1.21,5.02,0c2.49,1.69,5.16,3.12,7.95,4.78c0.09-0.8,0.21-1.07,0.14-1.26
		C300.14,437.69,300.54,431.02,310.17,427.25z"/>
	<path class="st0" d="M310.17,427.25c-9.63,3.76-10.03,10.44-6.87,18.26c0.08,0.19-0.04,0.46-0.14,1.26
		c-2.79-1.66-5.46-3.09-7.95-4.78c-1.79-1.21-3.21-1.28-5.02,0c-2.42,1.71-5.07,3.1-8.3,5.03c0.72-3.4,1.05-6.2,1.95-8.81
		c0.98-2.86,0.11-4.7-2.13-6.41c-1.94-1.47-3.69-3.2-6.1-5.32c3.24-0.43,5.66-0.93,8.09-1.02c3.1-0.1,5.02-1.27,5.96-4.38
		c0.7-2.36,1.98-4.54,3.31-7.48c1.38,3.14,2.64,5.66,3.59,8.29c0.77,2.12,1.92,3.2,4.27,3.32c2.83,0.15,5.64,0.7,8.46,1.08
		C309.58,426.62,309.88,426.93,310.17,427.25z"/>
</g>
</svg>
