<svg version="1.1" id="Layer_1" xmlns="http://www.w3.org/2000/svg" xmlns:xlink="http://www.w3.org/1999/xlink"
	 viewBox="204.25 335.14 187.75 172.00" xml:space="preserve" preserveAspectRatio="xMidYMid meet">
<style type="text/css">
	.st0{fill:currentColor;}
</style>
<g>
	<path class="st0" d="M384,499.14c-57.25,0-114.5,0-171.75,0c0-52,0-104,0-156c57.25,0,114.5,0,171.75,0
		C384,395.14,384,447.14,384,499.14z M272.51,373.45c0.32,0.22,0.65,0.43,0.97,0.65c-0.65,0.93-1.09,2.23-1.98,2.74
		c-6.82,3.9-10.47,10.06-13.02,17.22c-3.71,10.45-7.68,20.81-11.52,31.21c-0.78,2.11-1.55,4.22-2.16,6.38
		c-5.66,19.89,1.81,40.16,18.74,50.21c11.41,6.78,23.43,7.73,35.88,2.36c-1.16-0.72-2.49-1.16-3.58-0.81
		c-6.22,1.97-12.53,2.36-18.87,1.03c-21.84-4.58-36.11-26.18-30.27-48.33c4.24-16.08,10.59-31.67,16.85-47.13
		c3.31-8.17,10.53-12.62,19.55-12.96c9.33-0.35,16.36,4.01,21.06,11.91c1.7,2.86,2.72,6.14,3.92,9.28c3.12,8.15,6,16.39,9.29,24.47
		c2.89,7.11,5.49,14.2,5.28,22.04c-0.02,0.89,0.74,1.79,1.13,2.69c0.35-0.1,0.71-0.19,1.06-0.29c0.08-1.33,0.43-2.72,0.18-3.98
		c-1.14-5.84-1.95-11.82-3.82-17.44c-3.22-9.69-7.12-19.15-10.79-28.69c-1.12-2.91-2.18-5.87-3.65-8.6
		c-4.03-7.46-10.15-12.28-18.68-13.53c-2.9-0.43-5.89-0.33-9.16-0.49c0.03-3.86,1.28-7.24,4.14-9.91c1.71-1.6,1.44-2.94,0-4.46
		c-2.09-2.21-4.2-2.31-5.88,0.26c-1.64,2.52-2.9,5.28-4.36,8c-9.37-11.15-18.46-13.65-30.91-8.63c-3.63,1.46-3.79,2.01-1.66,5.42
		C247.87,376.24,257.99,379.18,272.51,373.45z M295.5,478.31c-0.03-0.45-0.06-0.9-0.09-1.35c-1.09,0-2.23-0.21-3.26,0.03
		c-12.86,3.02-23.6-0.78-31.85-10.75c-9.41-11.38-9.23-24.32-4.45-37.52c3.99-11.02,8.23-21.95,12.46-32.87
		c0.85-2.19,1.93-4.36,3.29-6.27c3.21-4.53,7.77-6.54,13.29-6.18c8.07,0.54,12.4,5.6,15.09,12.63c4.06,10.59,8.21,21.15,12.21,31.77
		c1.05,2.79,1.86,5.69,2.5,8.61c0.45,2.06,0.29,4.24,0.65,6.32c0.16,0.9,0.96,1.69,1.47,2.53c0.36-0.82,0.97-1.62,1.03-2.46
		c0.11-1.35,0.04-2.77-0.26-4.09c-3.88-16.99-11.83-32.5-17.83-48.71c-0.54-1.45-1.84-2.67-2.96-3.83
		c-7.08-7.3-18.97-7.36-25.71,0.26c-2.48,2.81-4.22,6.46-5.63,9.99c-3.94,9.83-7.56,19.8-11.25,29.73
		c-0.96,2.57-1.89,5.16-2.57,7.82c-5.66,22.15,6.71,42.52,28.07,46.11C285.11,480.96,290.49,480.65,295.5,478.31z M302.28,438.97
		c-0.3-7.33-3.03-14.46-9.88-19.5c-5.93-4.37-13.09-3.85-18.47,1.14c-9.44,8.76-10.51,25.67-2.23,35.47
		c6.75,8,18.03,8.03,24.76,0.02C300.4,451.43,302.22,445.98,302.28,438.97z M316.29,487.26c10.76,0.06,19.25-8.1,19.43-18.67
		c0.18-10.79-8.47-19.7-19.26-19.83c-10.62-0.13-19.38,8.54-19.39,19.2C297.06,478.77,305.45,487.2,316.29,487.26z"/>
	<path d="M272.51,373.45c-14.52,5.73-24.65,2.79-32.26-9.38c-2.14-3.41-1.97-3.96,1.66-5.42c12.45-5.02,21.54-2.52,30.91,8.63
		c1.46-2.71,2.72-5.48,4.36-8c1.67-2.57,3.78-2.48,5.88-0.26c1.44,1.52,1.71,2.87,0,4.46c-2.86,2.67-4.11,6.05-4.14,9.91
		c3.27,0.16,6.25,0.06,9.16,0.49c8.53,1.25,14.65,6.08,18.68,13.53c1.48,2.73,2.54,5.69,3.65,8.6c3.67,9.54,7.56,19,10.79,28.69
		c1.87,5.62,2.68,11.59,3.82,17.44c0.25,1.27-0.11,2.65-0.18,3.98c-0.35,0.1-0.71,0.19-1.06,0.29c-0.4-0.9-1.16-1.8-1.13-2.69
		c0.22-7.84-2.39-14.93-5.28-22.04c-3.29-8.08-6.17-16.32-9.29-24.47c-1.2-3.14-2.21-6.43-3.92-9.28
		c-4.71-7.89-11.73-12.26-21.06-11.91c-9.02,0.34-16.24,4.79-19.55,12.96c-6.26,15.46-12.61,31.05-16.85,47.13
		c-5.84,22.15,8.43,43.75,30.27,48.33c6.35,1.33,12.65,0.94,18.87-1.03c1.09-0.35,2.43,0.09,3.58,0.81
		c-12.44,5.37-24.46,4.42-35.88-2.36c-16.93-10.06-24.4-30.32-18.74-50.21c0.61-2.16,1.39-4.27,2.16-6.38
		c3.84-10.4,7.81-20.76,11.52-31.21c2.55-7.16,6.19-13.32,13.02-17.22c0.89-0.51,1.33-1.81,1.98-2.74
		C273.16,373.88,272.84,373.66,272.51,373.45z M270.07,368.54c-4.77-9.59-18.27-12.83-27.85-6.83c3.91,10.5,19.37,16.16,27.33,9.29
		c-6.08-1.83-11.78-3.51-17.44-5.29c-1.03-0.32-1.94-1.07-2.9-1.62c1.14-0.26,2.4-0.97,3.4-0.7
		C258.33,364.95,264,366.73,270.07,368.54z M281.08,360.67c-3.34-0.12-5.87,5.79-5.4,11.96
		C277.29,369.06,279.14,364.97,281.08,360.67z"/>
	<path d="M295.5,478.31c-5.02,2.34-10.4,2.66-15.8,1.75c-21.36-3.59-33.73-23.96-28.07-46.11c0.68-2.65,1.61-5.25,2.57-7.82
		c3.7-9.93,7.31-19.9,11.25-29.73c1.42-3.53,3.15-7.19,5.63-9.99c6.74-7.62,18.63-7.55,25.71-0.26c1.12,1.16,2.42,2.38,2.96,3.83
		c6,16.22,13.95,31.73,17.83,48.71c0.3,1.32,0.37,2.74,0.26,4.09c-0.07,0.84-0.67,1.64-1.03,2.46c-0.51-0.84-1.31-1.63-1.47-2.53
		c-0.37-2.08-0.2-4.26-0.65-6.32c-0.64-2.91-1.45-5.82-2.5-8.61c-4-10.61-8.15-21.17-12.21-31.77c-2.69-7.03-7.02-12.09-15.09-12.63
		c-5.52-0.37-10.08,1.65-13.29,6.18c-1.35,1.91-2.44,4.08-3.29,6.27c-4.23,10.93-8.47,21.86-12.46,32.87
		c-4.78,13.2-4.96,26.14,4.45,37.52c8.25,9.97,18.99,13.77,31.85,10.75c1.03-0.24,2.17-0.03,3.26-0.03
		C295.44,477.41,295.47,477.86,295.5,478.31z"/>
	<path d="M302.28,438.97c-0.06,7.01-1.89,12.46-5.82,17.13c-6.74,8-18.01,7.98-24.76-0.02c-8.27-9.81-7.21-26.72,2.23-35.47
		c5.37-4.99,12.54-5.51,18.47-1.14C299.25,424.52,301.98,431.64,302.28,438.97z M268.6,438.6c-0.06,6.71,1.71,11.95,4.9,15.7
		c5.93,6.96,15.18,7.01,21.17,0.12c7.89-9.08,6.21-25.35-3.37-32.62c-5.33-4.05-11.06-3.71-15.89,1.01
		C270.68,427.42,268.83,433.25,268.6,438.6z"/>
	<path d="M316.29,487.26c-10.84-0.06-19.23-8.49-19.22-19.31c0.01-10.66,8.77-19.33,19.39-19.2c10.79,0.13,19.44,9.04,19.26,19.83
		C335.54,479.16,327.05,487.32,316.29,487.26z M333.14,468.63c0.08-9.5-7.24-17.29-16.41-17.46c-9.37-0.17-16.91,7.18-17.09,16.68
		c-0.18,9.15,7.25,16.83,16.4,16.95C325.44,484.92,333.06,477.72,333.14,468.63z"/>
	<path class="st0" d="M270.07,368.54c-6.06-1.82-11.73-3.6-17.47-5.15c-1-0.27-2.26,0.44-3.4,0.7c0.96,0.55,1.87,1.29,2.9,1.62
		c5.66,1.78,11.36,3.46,17.44,5.29c-7.96,6.87-23.42,1.21-27.33-9.29C251.79,355.72,265.3,358.95,270.07,368.54z"/>
	<path class="st0" d="M281.08,360.67c-1.94,4.3-3.79,8.39-5.4,11.96C275.21,366.46,277.74,360.55,281.08,360.67z"/>
	<path class="st0" d="M268.6,438.6c0.23-5.35,2.08-11.18,6.82-15.8c4.83-4.72,10.55-5.05,15.89-1.01
		c9.58,7.27,11.26,23.54,3.37,32.62c-5.99,6.89-15.23,6.84-21.17-0.12C270.3,450.55,268.54,445.3,268.6,438.6z M292.74,441.39
		c0.3,0.06,0.61,0.12,0.91,0.18c0.45-0.47,1.14-0.87,1.32-1.43c1.45-4.66-2.87-14.25-7.34-16.12c-0.69-0.29-1.76,0.31-2.66,0.5
		C291.25,428.91,292.83,434.74,292.74,441.39z"/>
	<path class="st0" d="M333.14,468.63c-0.08,9.08-7.7,16.29-17.11,16.17c-9.15-0.12-16.58-7.8-16.4-16.95
		c0.19-9.5,7.72-16.85,17.09-16.68C325.89,451.35,333.22,459.14,333.14,468.63z M321.13,463.34c0.28-0.14,0.56-0.28,0.84-0.43
		c-0.37-0.97-0.48-2.47-1.17-2.82c-2.14-1.08-3.39-2.62-3.9-4.89c-1.44,1.44-2.77,3.01-4.33,4.3c-3.25,2.68-2.84,7.01,0.99,8.83
		c1,0.47,2.15,0.6,3.22,0.93c2.07,0.63,3.97,1.68,3.05,4.19c-0.93,2.52-3.11,2.64-5.3,1.59c-1.26-0.61-2.4-1.48-3.59-2.24
		c-0.31,0.3-0.62,0.61-0.93,0.91c2.17,2.4,4.34,4.8,6.28,6.96c1.52-1.44,3.16-2.53,4.15-4.05c1.01-1.55,2.08-3.59,1.9-5.29
		c-0.32-2.98-3.02-3.82-5.69-4.57c-1.36-0.38-2.66-1.58-3.54-2.75c-0.29-0.39,0.7-2.56,1.28-2.64c1.57-0.22,3.27,0.11,4.86,0.49
		C319.97,462.02,320.51,462.83,321.13,463.34z"/>
	<path d="M292.74,441.39c0.08-6.65-1.49-12.48-7.77-16.87c0.9-0.19,1.97-0.79,2.66-0.5c4.47,1.88,8.78,11.46,7.34,16.12
		c-0.17,0.56-0.87,0.96-1.32,1.43C293.35,441.51,293.05,441.45,292.74,441.39z"/>
	<path d="M321.13,463.34c-0.61-0.52-1.16-1.32-1.86-1.49c-1.59-0.38-3.29-0.71-4.86-0.49c-0.59,0.08-1.58,2.25-1.28,2.64
		c0.88,1.17,2.18,2.37,3.54,2.75c2.67,0.75,5.37,1.59,5.69,4.57c0.18,1.69-0.89,3.74-1.9,5.29c-0.99,1.52-2.63,2.62-4.15,4.05
		c-1.95-2.16-4.12-4.56-6.28-6.96c0.31-0.3,0.62-0.61,0.93-0.91c1.19,0.75,2.33,1.63,3.59,2.24c2.19,1.05,4.37,0.93,5.3-1.59
		c0.92-2.51-0.98-3.56-3.05-4.19c-1.07-0.33-2.23-0.45-3.22-0.93c-3.84-1.82-4.24-6.15-0.99-8.83c1.56-1.29,2.9-2.86,4.33-4.3
		c0.51,2.27,1.76,3.81,3.9,4.89c0.69,0.35,0.79,1.85,1.17,2.82C321.69,463.06,321.41,463.2,321.13,463.34z"/>
</g>
</svg>
