<svg version="1.1" id="Layer_1" xmlns="http://www.w3.org/2000/svg" xmlns:xlink="http://www.w3.org/1999/xlink"
	 viewBox="226.75 347.14 142.75 148.75" xml:space="preserve" preserveAspectRatio="xMidYMid meet">
<style type="text/css">
	.st0{fill:currentColor;}
</style>
<g>
	<path class="st0" d="M234.75,355.14c42.25,0,84.5,0,126.75,0c0,44.25,0,88.5,0,132.75c-42.25,0-84.5,0-126.75,0
		C234.75,443.64,234.75,399.39,234.75,355.14z M294.48,374.09c-12.01,6.68-15.76,13.97-12.91,24.71
		c2.64,9.96,11.53,16.64,21.94,16.5c10.19-0.14,18.65-7.09,20.91-17.17c2.42-10.79-1.45-17.65-12.89-23.45
		c2.01-2.26,4.34-4.46,6.1-7.03c0.87-1.27,0.73-3.25,1.04-4.91c-1.79-0.21-3.63-0.82-5.35-0.55c-5.01,0.78-8.37,3.97-10.68,8.82
		c-3.23-5.66-7.45-9.05-13.6-9.55c-2.7-0.22-3.64,0.84-2.93,3.57C287.28,369.5,290.19,372.33,294.48,374.09z M261.25,425.53
		c-6.89,2.1-11.24,6.86-12.72,14.08c-1.83,8.96,2.44,19.12,10.24,24.1c8,5.11,16.25,5.26,24.34,0.2c8-5.01,12-14.64,10.25-24
		c-1.84-9.89-9.24-15.41-19.37-14.48c-0.56,0.05-1.14-0.14-2.64-0.34c1.44-2.66,2.71-4.84,3.79-7.12c0.39-0.81,0.29-1.86,0.41-2.8
		c-0.97,0.23-2.28,0.14-2.85,0.74c-1.22,1.28-2.05,2.92-2.5,3.59c-3.8-2.54-7.16-5.25-10.94-7.12c-1.73-0.86-4.27-0.07-6.45-0.02
		c0.46,2.1,0.37,4.59,1.52,6.21C256.11,421.11,258.74,423.08,261.25,425.53z M338.59,430.75c2.31-1.6,5.05-2.75,6.62-4.8
		c1.67-2.18,2.23-5.21,3.27-7.87c-2.87,0.07-6.12-0.69-8.51,0.41c-3.21,1.48-5.75,4.4-8.72,6.81c-0.58-0.96-1.2-2.51-2.27-3.62
		c-0.81-0.84-2.19-1.11-3.32-1.64c0.27,1.13,0.39,2.32,0.84,3.37c0.9,2.11,1.97,4.15,3.23,6.73c-12.42-1.09-18.79,2.24-21.98,10.8
		c-4.06,10.86,1.58,23.76,12.4,28.38c11.07,4.72,23.59-0.12,28.68-11.08C354.07,446.94,350.24,436.74,338.59,430.75z M339.71,408.53
		c-0.55-3.41-0.67-6.56-1.62-9.45c-1-3.04-2.51-5.99-4.29-8.65c-1.58-2.37-3.27-5.06-7.15-5.08c6.08,6.12,10.42,12.83,10.06,22.48
		c-1.56-1.75-2.53-2.84-3.79-4.26c-0.5,2.99,2.88,9.01,4.77,9.38c0.23,0.05,0.49,0.04,0.73-0.01c1.77-0.31,5.81-5.38,6.23-8.65
		C342.75,405.93,341.37,407.11,339.71,408.53z M268.71,389.28c-7.67,16.33-8.18,18.35-4.64,21.1c0.23-7.27,2.36-13.5,6.91-19.3
		c0.64,2.48,1.09,4.2,1.54,5.92c0.43-0.08,0.85-0.15,1.28-0.23c0-3.23,0.03-6.47-0.04-9.7c-0.01-0.37-0.51-0.85-0.9-1.06
		c-1.9-0.99-8.05,1.62-9.29,4.44C265.41,390.03,266.84,389.71,268.71,389.28z M293.65,457.67c-0.03,0.55-0.05,1.11-0.08,1.66
		c3.68,1.48,7.42,1.71,11.2,0.85c0.03-0.56,0.07-1.11,0.1-1.67C301.13,458.23,297.39,457.95,293.65,457.67z"/>
	<path d="M294.48,374.09c-4.29-1.76-7.2-4.6-8.37-9.07c-0.71-2.73,0.23-3.79,2.93-3.57c6.14,0.5,10.36,3.9,13.6,9.55
		c2.31-4.85,5.67-8.05,10.68-8.82c1.71-0.26,3.56,0.34,5.35,0.55c-0.31,1.66-0.17,3.64-1.04,4.91c-1.77,2.58-4.09,4.77-6.1,7.03
		c11.44,5.81,15.31,12.66,12.89,23.45c-2.26,10.08-10.72,17.02-20.91,17.17c-10.41,0.15-19.3-6.54-21.94-16.5
		C278.72,388.06,282.47,380.78,294.48,374.09z M322.61,394.12c-0.17-12.91-9.08-19.11-17.95-16.3c-1.44,0.46-3.21,0.13-4.78-0.14
		c-7.72-1.3-14.23,2.79-16.05,10.49c-1.85,7.85,0.19,14.77,6.36,19.97c6.38,5.38,13.77,6.5,21.37,2.81
		C318.85,407.42,322.33,401.22,322.61,394.12z M289.02,364.42c0.89,5.37,5.82,8.63,10.58,6.99
		C297.21,366.38,293.68,364.04,289.02,364.42z M305.62,371.84c5.87,0.6,9.99-2.57,9.8-7.29
		C310.42,364.76,307.43,366.91,305.62,371.84z"/>
	<path d="M261.25,425.53c-2.51-2.44-5.14-4.41-6.94-6.96c-1.14-1.62-1.05-4.11-1.52-6.21c2.18-0.04,4.72-0.83,6.45,0.02
		c3.78,1.87,7.14,4.58,10.94,7.12c0.45-0.68,1.29-2.32,2.5-3.59c0.58-0.6,1.88-0.52,2.85-0.74c-0.12,0.94-0.02,1.98-0.41,2.8
		c-1.08,2.28-2.35,4.46-3.79,7.12c1.5,0.2,2.08,0.39,2.64,0.34c10.14-0.92,17.53,4.59,19.37,14.48c1.74,9.36-2.25,18.99-10.25,24
		c-8.09,5.07-16.34,4.91-24.34-0.2c-7.8-4.98-12.07-15.15-10.24-24.1C250.01,432.39,254.36,427.63,261.25,425.53z M291.41,444.17
		c0.09-12.59-10.52-19.41-19.7-15.9c-1.27,0.49-2.95,0.23-4.37-0.03c-6.34-1.14-11.66,1.39-14.66,7.1
		c-3.69,7.01-2.37,16.4,3.17,22.68c5.79,6.55,14.53,8.8,22.44,5.76C286.08,460.79,291.4,452.84,291.41,444.17z M255.57,414.64
		c0.88,5.37,6.04,8.78,10.9,7.21C264.88,416.9,260.55,414.03,255.57,414.64z"/>
	<path d="M338.59,430.75c11.64,5.99,15.48,16.19,10.23,27.48c-5.09,10.97-17.61,15.8-28.68,11.08
		c-10.82-4.62-16.46-17.52-12.4-28.38c3.2-8.55,9.56-11.89,21.98-10.8c-1.25-2.58-2.33-4.62-3.23-6.73
		c-0.45-1.05-0.57-2.24-0.84-3.37c1.13,0.53,2.51,0.8,3.32,1.64c1.07,1.11,1.69,2.65,2.27,3.62c2.96-2.41,5.51-5.33,8.72-6.81
		c2.39-1.1,5.65-0.34,8.51-0.41c-1.04,2.66-1.6,5.69-3.27,7.87C343.64,428,340.9,429.15,338.59,430.75z M308.88,447.95
		c-0.2,7.84,4.03,15.08,11.1,18.59c7.28,3.61,14.44,3.06,20.78-1.96c6.39-5.05,8.9-11.95,7.32-20.01
		c-1.51-7.71-7.39-11.86-15.21-11.23c-1.46,0.12-3-0.03-4.42-0.4C317.57,430.08,309.18,436.49,308.88,447.95z M334.41,427.26
		c5.49,1.13,10-1.88,11.09-7.16C340.72,419.53,337.1,421.81,334.41,427.26z"/>
	<path d="M339.71,408.53c1.66-1.42,3.04-2.61,4.94-4.23c-0.42,3.26-4.46,8.33-6.23,8.65c-0.24,0.04-0.49,0.05-0.73,0.01
		c-1.89-0.37-5.27-6.39-4.77-9.38c1.26,1.41,2.23,2.51,3.79,4.26c0.36-9.65-3.98-16.36-10.06-22.48c3.88,0.02,5.56,2.71,7.15,5.08
		c1.78,2.66,3.3,5.62,4.29,8.65C339.04,401.97,339.16,405.12,339.71,408.53z"/>
	<path d="M268.71,389.28c-1.87,0.42-3.3,0.75-5.15,1.17c1.25-2.82,7.4-5.43,9.29-4.44c0.39,0.2,0.89,0.69,0.9,1.06
		c0.07,3.23,0.04,6.47,0.04,9.7c-0.43,0.08-0.85,0.15-1.28,0.23c-0.45-1.72-0.89-3.44-1.54-5.92c-4.55,5.81-6.67,12.04-6.91,19.3
		C260.53,407.64,261.04,405.61,268.71,389.28z"/>
	<path d="M293.65,457.67c3.74,0.28,7.48,0.56,11.22,0.84c-0.03,0.56-0.07,1.11-0.1,1.67c-3.78,0.85-7.51,0.63-11.2-0.85
		C293.6,458.78,293.62,458.23,293.65,457.67z"/>
	<path class="st0" d="M322.61,394.12c-0.27,7.09-3.75,13.3-11.05,16.84c-7.61,3.69-14.99,2.57-21.37-2.81
		c-6.17-5.2-8.21-12.12-6.36-19.97c1.82-7.7,8.34-11.8,16.05-10.49c1.57,0.27,3.34,0.59,4.78,0.14
		C313.52,375.01,322.44,381.21,322.61,394.12z M287.74,397.39c0.79-0.74,1.12-0.91,1.12-1.07c-0.1-4.9-0.22-9.78,3.96-13.45
		c0.22-0.19-0.07-1.48-0.26-1.52c-0.63-0.11-1.69-0.12-1.92,0.25c-1.39,2.18-2.98,4.35-3.75,6.76
		C285.98,391.21,285.7,394.31,287.74,397.39z"/>
	<path class="st0" d="M289.02,364.42c4.66-0.38,8.19,1.96,10.58,6.99C294.84,373.05,289.9,369.79,289.02,364.42z"/>
	<path class="st0" d="M305.62,371.84c1.82-4.93,4.8-7.08,9.8-7.29C315.61,369.26,311.48,372.44,305.62,371.84z"/>
	<path class="st0" d="M291.41,444.17c-0.01,8.68-5.32,16.62-13.12,19.61c-7.91,3.04-16.65,0.79-22.44-5.76
		c-5.55-6.28-6.86-15.67-3.17-22.68c3-5.71,8.32-8.23,14.66-7.1c1.43,0.26,3.1,0.51,4.37,0.03
		C280.89,424.76,291.5,431.57,291.41,444.17z M255.62,448.13c0.32-0.07,0.65-0.14,0.97-0.21c-0.61-5.3-0.49-10.36,3.64-14.32
		c0.23-0.22-0.14-1.06-0.24-1.61c-0.76,0.25-1.69,0.3-2.24,0.78c-3.23,2.78-4.93,10.21-3.31,14.25
		C254.62,447.47,255.22,447.76,255.62,448.13z"/>
	<path class="st0" d="M255.57,414.64c4.98-0.61,9.31,2.26,10.9,7.21C261.61,423.42,256.46,420.01,255.57,414.64z"/>
	<path class="st0" d="M308.88,447.95c0.29-11.47,8.69-17.88,19.57-15.01c1.41,0.37,2.96,0.52,4.42,0.4
		c7.82-0.64,13.69,3.52,15.21,11.23c1.58,8.07-0.93,14.96-7.32,20.01c-6.35,5.02-13.5,5.57-20.78,1.96
		C312.91,463.04,308.68,455.79,308.88,447.95z M338.27,437.44c5.51,4.22,4.58,10.28,4.66,16.49c3.14-3.35,3.22-9.23,0.53-13.66
		C342.47,438.64,341.78,436.03,338.27,437.44z"/>
	<path class="st0" d="M334.41,427.26c2.69-5.45,6.31-7.72,11.09-7.16C344.41,425.38,339.9,428.39,334.41,427.26z"/>
	<path d="M287.74,397.39c-2.05-3.08-1.76-6.18-0.85-9.02c0.77-2.41,2.36-4.58,3.75-6.76c0.24-0.37,1.29-0.36,1.92-0.25
		c0.19,0.03,0.48,1.33,0.26,1.52c-4.18,3.66-4.06,8.55-3.96,13.45C288.86,396.48,288.53,396.65,287.74,397.39z"/>
	<path d="M255.62,448.13c-0.4-0.37-0.99-0.65-1.18-1.11c-1.63-4.04,0.07-11.47,3.31-14.25c0.56-0.48,1.49-0.53,2.24-0.78
		c0.09,0.55,0.46,1.39,0.24,1.61c-4.13,3.96-4.25,9.03-3.64,14.32C256.26,447.99,255.94,448.06,255.62,448.13z"/>
	<path d="M338.27,437.44c3.51-1.41,4.2,1.2,5.19,2.83c2.69,4.43,2.62,10.31-0.53,13.66C342.85,447.71,343.78,441.66,338.27,437.44z"
		/>
</g>
</svg>
