<svg version="1.1" id="Layer_1" xmlns="http://www.w3.org/2000/svg" xmlns:xlink="http://www.w3.org/1999/xlink"
	 viewBox="199.75 340.39 198.25 163.00" xml:space="preserve" preserveAspectRatio="xMidYMid meet">
<style type="text/css">
	.st0{fill:currentColor;}
</style>
<g>
	<path class="st0" d="M207.75,348.39c60.75,0,121.5,0,182.25,0c0,49,0,98,0,147c-60.75,0-121.5,0-182.25,0
		C207.75,446.39,207.75,397.39,207.75,348.39z M290.46,376.44c-0.13-0.32-0.33-0.71-0.46-1.12c-4.51-13.58-14.53-19.68-28.24-20.68
		c-6.96-0.51-7.55,0.13-5.91,6.83c2.86,11.72,9.04,20.6,21.58,23.26c3.58,0.76,7.37,0.52,11.38,0.76c-0.14,1.91-0.28,3.8-0.38,5.11
		c-5.16-0.24-9.94-1.21-14.48-0.56c-19.17,2.78-31.7,19.14-30.61,38.96c0.92,16.78,9.43,28.83,23.04,37.76
		c5.41,3.55,10.98,6.87,16.56,10.15c0.82,0.48,2.29,0.57,3.14,0.17c8.55-4.05,17.05-8.22,25.53-12.43c0.92-0.46,1.63-1.34,2.43-2.03
		c-0.16-0.4-0.31-0.8-0.47-1.2c-1.02,0.26-2.13,0.35-3.05,0.8c-7.82,3.84-15.62,7.72-23.38,11.66c-2.06,1.04-3.37,0.66-4.68-1.26
		c-5.59-8.2-10.42-16.8-13.01-26.42c-4.05-15.06-3.26-29.54,6.82-42.3c7.63-9.65,17.98-13.43,29.93-11.6
		c11.87,1.81,19.16,9.41,23.04,20.56c0.42,1.21,1.42,2.23,2.15,3.33c0.38-0.27,0.75-0.55,1.13-0.82c-1.27-6.47-4.3-12.09-8.92-16.82
		c-7.95-8.14-17.87-10.33-29.05-8.83c1.06-6.7,3.71-12.14,8.43-16.33c2.38-2.11,3.03-3.7,0.58-6.06c-2.91-2.79-4.88-3.01-7.18-0.01
		C294.2,370.14,292.46,373.32,290.46,376.44z M321.26,472.8c0.29,0.36,0.59,0.71,0.88,1.07c3.09-2.33,6.37-4.46,9.22-7.07
		c1.9-1.74,3.62-2.92,6.34-3.24c3.41-0.41,6.9-1.36,10.01-2.81c7.19-3.36,12.18-8.81,12.92-17.06c0.74-8.3-3.35-14.35-9.95-18.88
		c-9.91-6.79-25.12-6.86-35.12-0.26c-13.43,8.86-13.51,25.46-0.15,34.44c1.13,0.76,2.6,1.12,3.54,2.04c1,0.98,2.05,2.35,2.21,3.66
		C321.49,467.35,321.26,470.09,321.26,472.8z"/>
	<path d="M290.46,376.44c1.99-3.12,3.73-6.31,5.92-9.14c2.3-2.99,4.27-2.78,7.18,0.01c2.46,2.36,1.8,3.95-0.58,6.06
		c-4.72,4.18-7.37,9.63-8.43,16.33c11.18-1.5,21.1,0.69,29.05,8.83c4.62,4.73,7.64,10.35,8.92,16.82c-0.38,0.27-0.75,0.55-1.13,0.82
		c-0.73-1.11-1.73-2.12-2.15-3.33c-3.88-11.15-11.17-18.75-23.04-20.56c-11.96-1.82-22.31,1.95-29.93,11.6
		c-10.08,12.76-10.88,27.24-6.82,42.3c2.59,9.62,7.42,18.22,13.01,26.42c1.31,1.92,2.62,2.31,4.68,1.26
		c7.77-3.94,15.57-7.82,23.38-11.66c0.93-0.45,2.03-0.54,3.05-0.8c0.16,0.4,0.31,0.8,0.47,1.2c-0.81,0.69-1.51,1.58-2.43,2.03
		c-8.48,4.21-16.98,8.38-25.53,12.43c-0.85,0.4-2.32,0.31-3.14-0.17c-5.58-3.28-11.15-6.6-16.56-10.15
		c-13.6-8.93-22.12-20.98-23.04-37.76c-1.09-19.82,11.44-36.18,30.61-38.96c4.55-0.66,9.33,0.31,14.48,0.56
		c0.1-1.31,0.24-3.2,0.38-5.11c-4.01-0.24-7.8,0-11.38-0.76c-12.54-2.66-18.72-11.54-21.58-23.26c-1.64-6.7-1.05-7.34,5.91-6.83
		c13.7,1,23.72,7.1,28.24,20.68C290.14,375.73,290.33,376.12,290.46,376.44z M284.34,393.06c-6.59-1.6-12.31-0.81-17.87,1.46
		c-15.76,6.43-23.84,24.19-19.39,42.52c3.33,13.71,12.32,22.81,24.09,29.65c1.91,1.11,3.87,2.11,5.8,3.16
		c-5.92-10.12-10.44-20.38-11.83-31.73c-1.83-14.98,1.2-28.63,12.42-39.56C279.5,396.67,281.77,395.13,284.34,393.06z
		 M258.15,357.58c-0.78,14.98,17.16,29.72,30.2,24.05c-6.97-5.47-13.69-10.75-20.42-16.03c0.22-0.27,0.43-0.54,0.65-0.81
		c6.64,5.11,13.28,10.22,19.93,15.34C287.13,366.08,272.27,355.05,258.15,357.58z M302.42,370.21c-0.08-0.47-0.17-0.94-0.25-1.41
		c-1.27,0-3.14-0.54-3.7,0.08c-5.3,5.93-7.12,13.12-7,20.93C293.14,382.18,296.72,375.63,302.42,370.21z"/>
	<path d="M321.26,472.8c0-2.71,0.24-5.44-0.1-8.11c-0.17-1.31-1.21-2.68-2.21-3.66c-0.94-0.92-2.41-1.28-3.54-2.04
		c-13.36-8.98-13.27-25.58,0.15-34.44c10-6.6,25.21-6.53,35.12,0.26c6.6,4.52,10.69,10.58,9.95,18.88
		c-0.74,8.25-5.72,13.69-12.92,17.06c-3.11,1.45-6.6,2.41-10.01,2.81c-2.72,0.32-4.43,1.5-6.34,3.24c-2.85,2.6-6.12,4.73-9.22,7.07
		C321.84,473.51,321.55,473.16,321.26,472.8z M324.25,469.84c2.24-1.98,4.3-3.42,5.87-5.28c2.01-2.38,4.41-3.02,7.37-3.6
		c4.31-0.85,8.87-2.1,12.47-4.47c11.24-7.42,11.12-21.19,0.17-29.01c-9.5-6.78-23-7.21-32.88-1.04
		c-12.46,7.78-12.58,23.69,0.34,30.66c5.18,2.79,7.21,5.82,6.34,11.27C323.88,468.59,324.02,468.84,324.25,469.84z"/>
	<path class="st0" d="M284.34,393.06c-2.58,2.07-4.84,3.62-6.77,5.5c-11.22,10.94-14.25,24.59-12.42,39.56
		c1.38,11.35,5.91,21.61,11.83,31.73c-1.94-1.05-3.9-2.06-5.8-3.16c-11.77-6.84-20.76-15.94-24.09-29.65
		c-4.45-18.33,3.64-36.09,19.39-42.52C272.03,392.25,277.75,391.45,284.34,393.06z M253.07,419.47c0.21,0.29,0.7,0.97,1.19,1.66
		c0.52-0.71,1.38-1.37,1.52-2.15c1.03-6.01,3.6-11.09,8.28-15.1c0.58-0.5,0.64-1.6,0.95-2.41c-0.95,0.16-2.2-0.01-2.82,0.53
		C257.15,406.46,254.16,412.09,253.07,419.47z"/>
	<path class="st0" d="M258.15,357.58c14.12-2.53,28.98,8.5,30.36,22.55c-6.65-5.12-13.29-10.23-19.93-15.34
		c-0.22,0.27-0.43,0.54-0.65,0.81c6.73,5.28,13.45,10.56,20.42,16.03C275.31,387.3,257.37,372.57,258.15,357.58z"/>
	<path class="st0" d="M302.42,370.21c-5.7,5.42-9.29,11.97-10.95,19.61c-0.12-7.82,1.71-15,7-20.93c0.56-0.63,2.44-0.08,3.7-0.08
		C302.26,369.27,302.34,369.74,302.42,370.21z"/>
	<path class="st0" d="M324.25,469.84c-0.23-1-0.37-1.25-0.33-1.48c0.87-5.45-1.16-8.48-6.34-11.27
		c-12.92-6.97-12.8-22.88-0.34-30.66c9.88-6.17,23.38-5.74,32.88,1.04c10.95,7.82,11.07,21.59-0.17,29.01
		c-3.6,2.38-8.17,3.62-12.47,4.47c-2.96,0.59-5.36,1.22-7.37,3.6C328.55,466.42,326.49,467.86,324.25,469.84z M331.43,445.74
		c0.42,0.17,0.84,0.34,1.26,0.51c1.62-1.92,3.43-3.72,4.83-5.8c1.79-2.66,1.6-5.51-0.59-7.87c-2.12-2.29-4.84-2.46-7.49-0.98
		c-2.03,1.13-2.99,2.87-1.75,5.23c0.9-0.44,1.19-1.38,1.79-1.65c1.5-0.67,3.14-1.04,4.72-1.53c0.49,1.74,1.34,3.48,1.32,5.21
		c-0.01,0.91-1.74,1.68-2.36,2.72C332.41,442.85,331.99,444.34,331.43,445.74z"/>
	<path d="M253.07,419.47c1.09-7.38,4.08-13.01,9.12-17.47c0.61-0.54,1.86-0.37,2.82-0.53c-0.3,0.82-0.37,1.92-0.95,2.41
		c-4.68,4.01-7.26,9.1-8.28,15.1c-0.13,0.78-0.99,1.44-1.52,2.15C253.77,420.45,253.28,419.76,253.07,419.47z"/>
	<path d="M331.43,445.74c0.56-1.4,0.98-2.89,1.74-4.18c0.62-1.04,2.35-1.81,2.36-2.72c0.02-1.73-0.83-3.47-1.32-5.21
		c-1.58,0.49-3.22,0.86-4.72,1.53c-0.6,0.27-0.9,1.21-1.79,1.65c-1.24-2.35-0.28-4.09,1.75-5.23c2.64-1.48,5.36-1.31,7.49,0.98
		c2.19,2.37,2.38,5.22,0.59,7.87c-1.4,2.07-3.2,3.88-4.83,5.8C332.27,446.08,331.85,445.91,331.43,445.74z"/>
</g>
</svg>
