<svg version="1.1" id="Layer_1" xmlns="http://www.w3.org/2000/svg" xmlns:xlink="http://www.w3.org/1999/xlink"
	 viewBox="150.25 331.39 295.75 180.25" xml:space="preserve" preserveAspectRatio="xMidYMid meet">
<style type="text/css">
	.st0{fill:currentColor;}
</style>
<g>
	<path class="st0" d="M158.25,503.64c0-54.75,0-109.5,0-164.25c93.25,0,186.5,0,279.75,0c0,54.75,0,109.5,0,164.25
		C344.75,503.64,251.5,503.64,158.25,503.64z M183.82,452.63c-0.45,0.57-0.9,1.13-1.35,1.7c3.05,3.32,5.85,6.92,9.21,9.91
		c16.07,14.29,35.75,19.43,56.47,21.24c9.05,0.79,18.26-0.31,27.32,0.41c22.04,1.74,43.12-1.68,63.18-10.78
		c29.4-13.33,47.36-35.84,53.21-67.74c0.68-3.73,0.94-7.54,1.42-11.47c13.02,8.4,28.93,8.01,36.07-1.31
		c-5.23-2.33-10.12-5.48-15.43-6.61c-5.33-1.13-11.09-0.25-17.43-0.25c5.39-4.99,10.81-9.88,16.03-14.98
		c0.9-0.88,0.96-2.6,1.41-3.94c-1.29,0.12-2.66,0.02-3.85,0.43c-0.87,0.3-1.56,1.22-2.23,1.95c-5.17,5.57-10.31,11.16-15.39,16.66
		c-6.6-15.13-20.77-17.41-33.25-12.79c0.71,1.07,1.36,2.11,2.08,3.11c5.89,8.14,13.81,12.4,23.92,12.58
		c1.63,0.03,3.24,0.58,4.86,0.88c-0.02,0.56-0.04,1.12-0.05,1.68c-3.82,0.79-7.62,1.72-11.47,2.33
		c-22.69,3.63-45.61,3.99-68.41,2.74c-34.53-1.89-68.99-4.98-103.48-7.66c-2.7-0.21-4.09,0.47-4.17,3.26
		c-0.22,7.61-1.12,15.27-0.58,22.82c2.15,30.17,16.16,52.18,46.62,63.43c2.52,0.93,5.09,1.71,7.64,2.56
		C228,482.64,202.35,476.34,183.82,452.63z"/>
	<path d="M183.82,452.63c18.53,23.71,44.18,30.01,72.34,30.16c-2.55-0.85-5.12-1.63-7.64-2.56c-30.46-11.24-44.47-33.26-46.62-63.43
		c-0.54-7.55,0.35-15.21,0.58-22.82c0.08-2.79,1.47-3.47,4.17-3.26c34.48,2.68,68.95,5.77,103.48,7.66
		c22.81,1.25,45.72,0.89,68.41-2.74c3.85-0.62,7.65-1.55,11.47-2.33c0.02-0.56,0.04-1.12,0.05-1.68c-1.62-0.31-3.24-0.86-4.86-0.88
		c-10.11-0.18-18.03-4.44-23.92-12.58c-0.72-0.99-1.36-2.04-2.08-3.11c12.48-4.62,26.66-2.34,33.25,12.79
		c5.08-5.5,10.22-11.09,15.39-16.66c0.68-0.73,1.37-1.65,2.23-1.95c1.19-0.41,2.56-0.31,3.85-0.43c-0.45,1.33-0.52,3.06-1.41,3.94
		c-5.22,5.09-10.64,9.99-16.03,14.98c6.34,0,12.1-0.88,17.43,0.25c5.31,1.13,10.2,4.28,15.43,6.61c-7.14,9.32-23.04,9.71-36.07,1.31
		c-0.48,3.93-0.73,7.74-1.42,11.47c-5.85,31.9-23.82,54.41-53.21,67.74c-20.06,9.1-41.15,12.52-63.18,10.78
		c-9.06-0.72-18.27,0.38-27.32-0.41c-20.72-1.81-40.4-6.95-56.47-21.24c-3.35-2.98-6.15-6.59-9.21-9.91
		C182.92,453.76,183.37,453.19,183.82,452.63z M276,448.44c-0.05,0.25-0.11,0.5-0.16,0.74c3.22,1.78,6.41,3.64,9.68,5.33
		c14.65,7.6,29.48,14.77,45.84,17.95c1.96,0.38,4.35,0.4,6.12-0.38c21.73-9.63,37.64-25.07,46.38-47.42
		c3.17-8.11,5.32-16.48,5.69-25.94c-1.23,1.07-1.96,1.68-2.66,2.32c-12.09,11.28-25.01,21.46-39.49,29.54
		c-14.55,8.12-29.44,15.66-46.2,17.67C292.92,449.26,284.41,448.44,276,448.44z M207.8,394.13c1.85,1.43,2.8,2.34,3.9,2.98
		c6.37,3.69,12.71,7.43,19.18,10.92c6.9,3.72,13.92,7.24,20.94,10.74c2.21,1.1,4.31,0.87,6.71-0.32c8.8-4.35,17.24-2.41,23.5,5.07
		c0.46,0.55,0.62,1.34,0.98,2.16c0.99-1.13,1.28-1.37,1.45-1.68c6.54-11.92,22.94-11.87,29.86-2.96c2.1,2.7,3.87,2.11,5.36-1.28
		c5.39-12.24,19.42-15.56,29.71-6.88c1.66,1.4,2.85,1.4,4.63,0.62c8.21-3.63,16.52-7.07,24.68-10.8c2.05-0.94,3.72-2.71,6.38-4.71
		C325.41,406.31,267.21,399.39,207.8,394.13z M328.78,476.15c-10.17-3.95-20.3-7.16-29.77-11.73c-12.68-6.13-24.87-13.26-37.19-20.1
		c-2.01-1.12-3.2-1.02-4.85,0.54c-5.88,5.59-11.89,11.06-17.89,16.53c-2.43,2.21-4.99,4.28-8.02,6.88
		C262.93,487.17,295.4,486.37,328.78,476.15z M205.57,398.09c-3.69,23.94,3.41,53.64,23.83,67.85c9.01-7.99,18.12-16.05,27.01-23.93
		c-9.22-6.89-18.49-13.06-26.85-20.29C221.1,414.4,213.55,406.03,205.57,398.09z M295.73,446.52c5.33-1.07,9.51-1.76,13.6-2.81
		c1.29-0.33,2.67-1.4,3.44-2.52c4.33-6.37,2.75-15.61-3.28-20.16c-6.22-4.69-14.97-4.03-20.09,1.54
		c-5.14,5.58-5.18,14.98,0.29,20.42C291.45,444.73,294.09,445.59,295.73,446.52z M268.03,419.41c-7.95-0.05-14.55,5.26-15.59,12.2
		c-0.19,1.27,0.14,3.33,0.99,3.93c6.46,4.5,13.19,8.6,21.25,9.49c1.23,0.14,3.08-0.45,3.78-1.36c3.77-4.89,4.87-10.31,2.1-16.1
		C277.91,422.03,273.21,419.73,268.03,419.41z M321.79,426.75c0.75,1.75,2,5.25,3.77,8.44c0.48,0.86,2.93,1.55,3.87,1.09
		c6.92-3.4,13.73-7.04,20.46-10.8c0.9-0.5,1.79-2.2,1.64-3.18c-0.99-6.32-9.01-11.66-16.24-11.06
		C327.93,411.84,321.85,417.97,321.79,426.75z M214.66,401.96c9.73,11.97,20.99,22.16,33.79,30.46c1.7-3.73,3.27-7.16,4.96-10.87
		C238.89,418.18,228.06,407.67,214.66,401.96z M425.13,395.33c-9.98-7.25-22.68-8.52-28.76-2.34c7.08,0.83,13.76,1.61,20.43,2.39
		c-0.03,0.34-0.05,0.68-0.08,1.02c-6.8-0.56-13.6-1.12-20.29-1.67C401.18,401.48,415.49,402.59,425.13,395.33z M363.07,376.14
		c3.41,8.08,14.72,13.97,23.94,11.47c-5.15-2.43-10.3-4.87-15.46-7.3c3.18,0.57,6.25,1.49,9.1,2.84c2.81,1.34,5.4,3.12,8.32,4.85
		C387.03,377.27,371.98,372.8,363.07,376.14z M374.34,408.41c-0.18-0.33-0.36-0.66-0.55-0.99c-6.96,3.03-13.93,6.06-21.04,9.16
		c0.75,1.98,1.39,3.68,2.3,6.09C361.7,417.75,368.02,413.08,374.34,408.41z M318.09,425.02c-0.16,0.02-0.33,0.04-0.49,0.06
		c0,5.31,0,10.62,0,16.05c1.74-0.65,3.87-1.46,5.61-2.11C321.41,434.09,319.75,429.56,318.09,425.02z M281.23,445.89
		c2.48,0,4.38,0,6.66,0c-1.41-1.9-2.57-3.44-3.86-5.18C283.13,442.39,282.34,443.85,281.23,445.89z"/>
	<path class="st0" d="M276,448.44c8.41,0,16.92,0.82,25.2-0.17c16.76-2.02,31.65-9.56,46.2-17.67c14.48-8.08,27.4-18.25,39.49-29.54
		c0.7-0.65,1.43-1.25,2.66-2.32c-0.37,9.46-2.52,17.83-5.69,25.94c-8.74,22.35-24.65,37.79-46.38,47.42
		c-1.76,0.78-4.16,0.76-6.12,0.38c-16.36-3.18-31.2-10.35-45.84-17.95c-3.27-1.7-6.46-3.55-9.68-5.33
		C275.89,448.93,275.95,448.69,276,448.44z M316.07,462.19c14.92,0.93,27.35-5.07,38.58-14.01c11.85-9.43,24.85-26.93,24.82-32.72
		C364.91,439.86,346.57,459.21,316.07,462.19z"/>
	<path class="st0" d="M207.8,394.13c59.41,5.26,117.61,12.18,177.29,3.87c-2.66,2-4.33,3.77-6.38,4.71
		c-8.17,3.73-16.47,7.17-24.68,10.8c-1.77,0.78-2.97,0.78-4.63-0.62c-10.29-8.68-24.33-5.36-29.71,6.88
		c-1.49,3.39-3.26,3.99-5.36,1.28c-6.92-8.91-23.32-8.96-29.86,2.96c-0.17,0.31-0.47,0.55-1.45,1.68c-0.36-0.81-0.52-1.61-0.98-2.16
		c-6.26-7.48-14.7-9.43-23.5-5.07c-2.4,1.19-4.5,1.42-6.71,0.32c-7.02-3.5-14.04-7.02-20.94-10.74
		c-6.47-3.49-12.82-7.24-19.18-10.92C210.59,396.47,209.65,395.56,207.8,394.13z"/>
	<path class="st0" d="M328.78,476.15c-33.38,10.23-65.85,11.02-97.73-7.89c3.03-2.59,5.59-4.67,8.02-6.88
		c6.01-5.46,12.01-10.93,17.89-16.53c1.64-1.56,2.84-1.66,4.85-0.54c12.32,6.85,24.52,13.98,37.19,20.1
		C308.48,468.99,318.61,472.2,328.78,476.15z"/>
	<path class="st0" d="M205.57,398.09c7.99,7.94,15.53,16.31,23.99,23.62c8.36,7.23,17.64,13.4,26.85,20.29
		c-8.89,7.88-18,15.95-27.01,23.93C208.98,451.73,201.87,422.03,205.57,398.09z"/>
	<path class="st0" d="M295.73,446.52c-1.64-0.93-4.28-1.79-6.04-3.53c-5.47-5.44-5.43-14.84-0.29-20.42
		c5.12-5.56,13.87-6.23,20.09-1.54c6.03,4.55,7.6,13.79,3.28,20.16c-0.76,1.12-2.14,2.19-3.44,2.52
		C305.24,444.75,301.05,445.45,295.73,446.52z"/>
	<path class="st0" d="M268.03,419.41c5.19,0.31,9.89,2.62,12.53,8.16c2.77,5.79,1.67,11.21-2.1,16.1c-0.7,0.91-2.56,1.5-3.78,1.36
		c-8.06-0.89-14.79-5-21.25-9.49c-0.86-0.6-1.18-2.66-0.99-3.93C253.47,424.67,260.08,419.37,268.03,419.41z"/>
	<path class="st0" d="M321.79,426.75c0.06-8.78,6.14-14.91,13.5-15.52c7.24-0.6,15.25,4.74,16.24,11.06
		c0.15,0.98-0.74,2.68-1.64,3.18c-6.73,3.76-13.54,7.4-20.46,10.8c-0.94,0.46-3.39-0.22-3.87-1.09
		C323.79,432,322.55,428.51,321.79,426.75z"/>
	<path class="st0" d="M214.66,401.96c13.4,5.72,24.23,16.22,38.75,19.6c-1.69,3.7-3.26,7.13-4.96,10.87
		C235.65,424.11,224.4,413.92,214.66,401.96z"/>
	<path class="st0" d="M425.13,395.33c-9.64,7.25-23.95,6.14-28.7-0.6c6.69,0.55,13.49,1.11,20.29,1.67
		c0.03-0.34,0.05-0.68,0.08-1.02c-6.67-0.78-13.35-1.56-20.43-2.39C402.45,386.81,415.15,388.08,425.13,395.33z"/>
	<path class="st0" d="M363.07,376.14c8.91-3.34,23.95,1.13,25.9,11.86c-2.92-1.73-5.51-3.51-8.32-4.85
		c-2.85-1.36-5.92-2.27-9.1-2.84c5.15,2.43,10.3,4.87,15.46,7.3C377.8,390.11,366.48,384.22,363.07,376.14z"/>
	<path class="st0" d="M374.34,408.41c-6.32,4.67-12.64,9.34-19.29,14.26c-0.91-2.4-1.55-4.1-2.3-6.09
		c7.12-3.1,14.08-6.13,21.04-9.16C373.98,407.75,374.16,408.08,374.34,408.41z"/>
	<path class="st0" d="M318.09,425.02c1.66,4.53,3.32,9.07,5.12,13.99c-1.74,0.65-3.88,1.46-5.61,2.11c0-5.43,0-10.74,0-16.05
		C317.76,425.06,317.93,425.04,318.09,425.02z"/>
	<path class="st0" d="M281.23,445.89c1.1-2.04,1.89-3.5,2.8-5.18c1.3,1.74,2.45,3.29,3.86,5.18
		C285.61,445.89,283.71,445.89,281.23,445.89z"/>
	<path d="M316.07,462.19c30.49-2.97,48.83-22.33,63.41-46.73c0.03,5.79-12.97,23.29-24.82,32.72
		C343.43,457.12,330.99,463.11,316.07,462.19z"/>
</g>
</svg>
