<svg version="1.1" id="Layer_1" xmlns="http://www.w3.org/2000/svg" xmlns:xlink="http://www.w3.org/1999/xlink"
	 viewBox="199.75 349.39 198.25 144.25" xml:space="preserve" preserveAspectRatio="xMidYMid meet">
<style type="text/css">
	.st0{fill:currentColor;}
</style>
<g>
	<path class="st0" d="M390,485.64c-60.75,0-121.5,0-182.25,0c0-42.75,0-85.5,0-128.25c60.75,0,121.5,0,182.25,0
		C390,400.14,390,442.89,390,485.64z M264.59,406.85c-2.8-0.84-5.5-1.72-8.23-2.47c-12.81-3.51-24.96,3.14-28.28,15.96
		c-3.76,14.51-0.28,27.7,8.7,39.48c1.57,2.05,2.01,3.76,1.11,6.11c-1.17,3.04-2.11,6.16-3.48,10.27c2.16-0.86,3.27-1.3,4.37-1.74
		c7.24-2.92,13.89-7.09,21.74-8.76c4.41-0.94,8.33-1.63,12.73-0.13c11.03,3.76,19.24,1.39,25.98-8.08
		c3.19-4.49,5.28-9.84,7.41-14.99c1.15-2.79,1.35-5.98,1.96-8.88c2.26-0.26,4.34-0.51,6.41-0.75c-0.01-0.42-0.01-0.84-0.02-1.26
		c-1.75-0.17-3.49-0.39-5.24-0.51c-9.22-0.66-15.66-6.14-17.45-15.21c-0.58-2.91-0.61-5.95-0.69-8.93
		c-0.06-1.96-0.73-3.26-2.78-3.11c-4.54,0.35-9.08,0.83-13.6,1.38c-1.52,0.19-2.98,0.76-5.02,1.3c1.32-6.74,4.83-11.25,9.46-14.89
		c-2.56-5.75-4.58-6.15-8.1-1.58c-1.7,2.21-2.98,4.74-4.5,7.19c-7.68-11.69-13.84-15.72-21.33-13.86c-0.01,4.5,1.62,8.45,4.2,12.08
		c3.77,5.31,9.34,7.17,15.58,7.64c-0.06,0.95-0.04,1.57-0.17,2.16C265.23,405.71,264.94,406.12,264.59,406.85z M362.3,426.35
		c1.4-0.26,2.24-0.41,3.09-0.56c6.73-1.17,11.72-6.64,11.85-13.48c0.17-9.36,0.21-18.74,0-28.1c-0.17-7.65-6.36-13.94-13.89-14.01
		c-17.48-0.17-34.97-0.18-52.45-0.03c-7.89,0.07-13.84,6.33-13.9,14.26c-0.07,8.87-0.06,17.74,0.1,26.6
		c0.16,8.97,6.34,14.89,15.3,14.88c9.37-0.01,18.74-0.17,28.1,0.02c1.91,0.04,4.11,0.93,5.62,2.12c4.49,3.57,8.69,7.5,13.05,11.25
		c0.75,0.64,1.69,1.07,3.15,1.97C362.3,435.83,362.3,431.24,362.3,426.35z"/>
	<path d="M264.59,406.85c0.35-0.73,0.64-1.14,0.74-1.59c0.13-0.59,0.1-1.21,0.17-2.16c-6.24-0.47-11.81-2.33-15.58-7.64
		c-2.58-3.63-4.21-7.58-4.2-12.08c7.49-1.86,13.65,2.17,21.33,13.86c1.51-2.45,2.8-4.98,4.5-7.19c3.52-4.57,5.53-4.17,8.1,1.58
		c-4.63,3.65-8.13,8.15-9.46,14.89c2.04-0.54,3.51-1.11,5.02-1.3c4.52-0.55,9.06-1.03,13.6-1.38c2.05-0.16,2.72,1.15,2.78,3.11
		c0.09,2.99,0.12,6.02,0.69,8.93c1.79,9.07,8.24,14.56,17.45,15.21c1.75,0.12,3.49,0.34,5.24,0.51c0.01,0.42,0.01,0.84,0.02,1.26
		c-2.07,0.24-4.15,0.48-6.41,0.75c-0.61,2.9-0.8,6.08-1.96,8.88c-2.13,5.15-4.21,10.5-7.41,14.99c-6.74,9.47-14.96,11.83-25.98,8.08
		c-4.4-1.5-8.33-0.81-12.73,0.13c-7.85,1.67-14.5,5.85-21.74,8.76c-1.1,0.44-2.2,0.88-4.37,1.74c1.38-4.11,2.31-7.24,3.48-10.27
		c0.91-2.35,0.46-4.06-1.11-6.11c-8.98-11.77-12.46-24.97-8.7-39.48c3.33-12.83,15.48-19.47,28.28-15.96
		C259.09,405.13,261.79,406.01,264.59,406.85z M238.7,471.4c6.61-2.45,13.23-4.74,19.72-7.34c5.87-2.35,11.5-2.2,17.46-0.08
		c6.32,2.25,12.46,1.09,17.49-3.46c7.46-6.74,11.18-15.48,12.44-25.3c0.11-0.86-0.78-2.43-1.56-2.73
		c-10.57-4.02-14.78-12.11-14.62-22.86c0.04-2.85-1.05-4-3.6-3.78c-3.19,0.28-6.54,0.37-9.5,1.43c-6.43,2.3-12.53,2.17-18.99-0.01
		c-13.9-4.68-25.74,2.66-28.14,17.15c-1.75,10.55,0.16,20.7,6.05,29.38c3.91,5.76,6.64,10.79,3.16,17.47
		C238.58,471.32,238.74,471.46,238.7,471.4z M264.56,400.23c-0.1-7.39-8.97-15.39-16.17-14.58
		C249.17,394.2,256.39,400.71,264.56,400.23z M267.88,401.15c0.24,0.12,0.48,0.24,0.72,0.36c2.47-3.22,4.97-6.42,7.37-9.7
		c0.32-0.44,0.16-1.24,0.23-1.87c-0.64,0.12-1.62,0.03-1.86,0.4C272.12,393.9,270.02,397.54,267.88,401.15z"/>
	<path d="M362.3,426.35c0,4.89,0,9.48,0,14.92c-1.46-0.9-2.4-1.32-3.15-1.97c-4.35-3.75-8.56-7.68-13.05-11.25
		c-1.51-1.2-3.71-2.09-5.62-2.12c-9.36-0.19-18.73-0.03-28.1-0.02c-8.96,0.01-15.14-5.9-15.3-14.88c-0.16-8.86-0.17-17.73-0.1-26.6
		c0.06-7.93,6.01-14.19,13.9-14.26c17.48-0.15,34.97-0.14,52.45,0.03c7.53,0.07,13.72,6.36,13.89,14.01c0.21,9.36,0.17,18.73,0,28.1
		c-0.12,6.84-5.12,12.31-11.85,13.48C364.55,425.94,363.7,426.1,362.3,426.35z M360.24,437.28c0-3.93,0.15-6.88-0.04-9.82
		c-0.18-2.83,0.7-3.87,3.72-4c6.17-0.26,10.86-5.02,11-11.12c0.2-9.24,0.24-18.49,0.04-27.72c-0.15-6.97-5.42-12.1-12.23-12.13
		c-17.11-0.08-34.22-0.1-51.33,0c-7.02,0.04-12.03,5.13-12.11,12.11c-0.1,8.62-0.1,17.24,0.03,25.85
		c0.13,8.34,5.11,13.16,13.45,13.18c8.87,0.02,17.74,0.12,26.6-0.16c3.66-0.12,6.41,0.93,9.01,3.44
		C351.87,430.28,355.68,433.33,360.24,437.28z"/>
	<path class="st0" d="M238.7,471.4c0.04,0.06-0.12-0.09-0.09-0.14c3.48-6.67,0.74-11.7-3.16-17.47c-5.88-8.68-7.8-18.83-6.05-29.38
		c2.4-14.5,14.24-21.83,28.14-17.15c6.46,2.18,12.57,2.3,18.99,0.01c2.96-1.06,6.31-1.15,9.5-1.43c2.55-0.22,3.64,0.93,3.6,3.78
		c-0.16,10.75,4.04,18.83,14.62,22.86c0.78,0.3,1.67,1.87,1.56,2.73c-1.26,9.82-4.99,18.56-12.44,25.3
		c-5.03,4.55-11.17,5.71-17.49,3.46c-5.95-2.12-11.58-2.27-17.46,0.08C251.93,466.66,245.31,468.96,238.7,471.4z"/>
	<path class="st0" d="M264.56,400.23c-8.17,0.48-15.39-6.02-16.17-14.58C255.59,384.84,264.46,392.84,264.56,400.23z"/>
	<path class="st0" d="M267.88,401.15c2.14-3.61,4.24-7.25,6.47-10.81c0.23-0.37,1.22-0.28,1.86-0.4c-0.06,0.63,0.09,1.43-0.23,1.87
		c-2.4,3.27-4.9,6.47-7.37,9.7C268.37,401.39,268.12,401.27,267.88,401.15z"/>
	<path class="st0" d="M360.24,437.28c-4.56-3.95-8.37-7-11.87-10.37c-2.6-2.51-5.35-3.55-9.01-3.44c-8.86,0.28-17.73,0.19-26.6,0.16
		c-8.34-0.02-13.32-4.85-13.45-13.18c-0.13-8.62-0.13-17.24-0.03-25.85c0.08-6.99,5.09-12.07,12.11-12.11
		c17.11-0.1,34.22-0.08,51.33,0c6.81,0.03,12.08,5.17,12.23,12.13c0.2,9.24,0.16,18.49-0.04,27.72c-0.14,6.1-4.83,10.86-11,11.12
		c-3.02,0.12-3.91,1.17-3.72,4C360.39,430.39,360.24,433.35,360.24,437.28z M324.25,398.36c-0.07-2.63-2.47-4.98-5.1-4.98
		c-2.73,0-4.98,2.25-4.99,4.99c-0.01,2.8,2.12,4.88,5.01,4.86C321.96,403.22,324.32,400.95,324.25,398.36z M355.01,403.3
		c2.8,0.09,5.31-2.02,5.44-4.59c0.14-2.72-2.35-5.31-5.16-5.36c-2.7-0.05-5.06,2.18-5.16,4.88
		C350.01,400.98,352.17,403.22,355.01,403.3z M336.79,393.41c-2.68,0.05-5.01,2.37-5.04,5.02c-0.03,2.73,2.53,5.07,5.45,4.9
		c2.93-0.17,4.58-1.85,4.78-4.7C342.18,395.89,339.53,393.36,336.79,393.41z"/>
	<path d="M324.25,398.36c0.07,2.59-2.3,4.86-5.08,4.87c-2.89,0.01-5.03-2.06-5.01-4.86c0.01-2.74,2.26-4.99,4.99-4.99
		C321.78,393.38,324.18,395.72,324.25,398.36z M323.41,398.33c-2.16-1.35-3.38-2.71-4.32-2.54c-1.03,0.19-2.25,1.71-2.47,2.84
		c-0.12,0.62,1.6,2.26,2.51,2.28C320.19,400.93,321.28,399.69,323.41,398.33z"/>
	<path d="M355.01,403.3c-2.84-0.09-4.99-2.32-4.89-5.06c0.11-2.7,2.46-4.93,5.16-4.88c2.81,0.05,5.3,2.64,5.16,5.36
		C360.31,401.28,357.81,403.39,355.01,403.3z M355.21,402.53c1.38-1.98,2.81-3.14,2.68-4.09c-0.14-1.05-1.7-2.64-2.65-2.64
		c-0.96,0-2.55,1.56-2.7,2.6C352.41,399.34,353.83,400.52,355.21,402.53z"/>
	<path d="M336.79,393.41c2.74-0.05,5.39,2.47,5.2,5.22c-0.2,2.85-1.85,4.53-4.78,4.7c-2.93,0.17-5.48-2.17-5.45-4.9
		C331.78,395.78,334.11,393.46,336.79,393.41z M337.13,394.24c-1.52,1.87-3.18,3.06-3.02,3.91c0.22,1.18,1.81,2.11,2.81,3.14
		c0.96-0.94,2.54-1.79,2.7-2.85C339.76,397.45,338.39,396.24,337.13,394.24z"/>
	<path class="st0" d="M323.41,398.33c-2.12,1.36-3.21,2.61-4.28,2.58c-0.92-0.02-2.64-1.66-2.51-2.28c0.23-1.12,1.45-2.64,2.47-2.84
		C320.02,395.62,321.25,396.98,323.41,398.33z"/>
	<path class="st0" d="M355.21,402.53c-1.38-2.01-2.8-3.18-2.66-4.13c0.15-1.05,1.74-2.61,2.7-2.6c0.94,0,2.51,1.6,2.65,2.64
		C358.02,399.39,356.59,400.54,355.21,402.53z"/>
	<path class="st0" d="M337.13,394.24c1.26,2,2.63,3.21,2.49,4.2c-0.15,1.06-1.74,1.91-2.7,2.85c-1-1.03-2.59-1.96-2.81-3.14
		C333.95,397.3,335.61,396.11,337.13,394.24z"/>
</g>
</svg>
