<svg version="1.1" id="Layer_1" xmlns="http://www.w3.org/2000/svg" xmlns:xlink="http://www.w3.org/1999/xlink"
	 viewBox="136.75 332.14 323.50 178.75" xml:space="preserve" preserveAspectRatio="xMidYMid meet">
<style type="text/css">
	.st0{fill:currentColor;}
</style>
<g>
	<path class="st0" d="M452.25,502.89c-102.5,0-205,0-307.5,0c0-54.25,0-108.5,0-162.75c102.5,0,205,0,307.5,0
		C452.25,394.39,452.25,448.64,452.25,502.89z M358.22,383.67c-0.61-0.18-1.22-0.27-1.73-0.54c-6.89-3.63-13.55-2.92-19.82,1.34
		c-3.18,2.16-6.29,4.57-8.94,7.34c-19.15,19.98-41.76,33.02-69.79,35.6c-23.4,2.16-45.24-2.36-65.14-15.03
		c-4.5-2.86-8.25-6.88-12.71-9.81c-1.78-1.17-4.98-1.74-6.72-0.9c-1.26,0.61-1.93,4.13-1.54,6.1c0.58,2.98,2.08,5.86,3.59,8.57
		c10.72,19.24,26.65,33.03,46.42,42.07c42.34,19.37,83.51,18.12,122.56-8.82c11.09-7.65,20.53-17.1,26.96-29.18
		c3.07-5.75,4.58-11.98,1.95-18.02c-2.12-4.85-0.46-7.4,3.02-10.28c7.56-6.25,13.98-13.57,18.98-22.05c2.22-3.77,1.3-7.03-2.19-8.87
		c-3.82-2.01-7.45-0.85-9.32,2.99c-0.71,1.46-1.24,3.02-2.06,4.41c-4.71,7.9-11.05,13.62-20.4,15.43
		c-9.39-30.45-29.47-30.1-48.11-19.13c10.13,8.88,21.23,13.48,34.75,10C354.67,373.15,358.4,376.3,358.22,383.67z M427.31,429.54
		c-6.87-7.06-13.69-14.07-20.5-21.07c4.72,6.87,11.24,12.18,16.44,19.37c-12.28,0-24.56,0-36.83,0c0,0.48,0.01,0.96,0.01,1.45
		c12.43,0,24.86,0,38.23,0c-1.12,1.32-1.46,1.78-1.86,2.18c-4.88,4.83-9.81,9.62-14.63,14.51c-0.74,0.75-1.04,1.93-1.54,2.91
		c0.25,0.08,0.5,0.16,0.75,0.24C414.29,442.33,421.2,435.54,427.31,429.54z M240.47,418.82c7.68,0,14.86,0,22.05,0
		c0-0.38,0.01-0.76,0.01-1.15c-7.06,0-14.13,0-21.19,0.02C241.21,417.69,241.08,418.01,240.47,418.82z M236.39,416.92
		c-1.63-1.09-2.53-2.1-3.51-2.19c-0.58-0.05-1.87,1.42-1.8,2.09c0.09,0.75,1.29,1.8,2.12,1.91
		C233.96,418.83,234.86,417.85,236.39,416.92z"/>
	<path d="M358.22,383.67c0.19-7.37-3.54-10.51-10.26-8.78c-13.52,3.48-24.62-1.12-34.75-10c18.64-10.97,38.72-11.32,48.11,19.13
		c9.35-1.8,15.7-7.52,20.4-15.43c0.83-1.39,1.35-2.95,2.06-4.41c1.87-3.84,5.49-5,9.32-2.99c3.49,1.83,4.41,5.09,2.19,8.87
		c-5,8.47-11.41,15.8-18.98,22.05c-3.48,2.87-5.13,5.42-3.02,10.28c2.64,6.04,1.12,12.27-1.95,18.02
		c-6.44,12.08-15.87,21.52-26.96,29.18c-39.06,26.95-80.23,28.19-122.56,8.82c-19.77-9.05-35.7-22.83-46.42-42.07
		c-1.51-2.7-3-5.59-3.59-8.57c-0.38-1.97,0.28-5.49,1.54-6.1c1.74-0.84,4.94-0.27,6.72,0.9c4.46,2.93,8.22,6.95,12.71,9.81
		c19.9,12.67,41.74,17.19,65.14,15.03c28.04-2.59,50.64-15.62,69.79-35.6c2.65-2.77,5.76-5.17,8.94-7.34
		c6.26-4.26,12.93-4.97,19.82-1.34C357,383.4,357.6,383.48,358.22,383.67z M366.87,422.32c-2.23-0.7-3.74-1.21-5.28-1.64
		c-6.51-1.84-7.72-3.29-7.52-9.93c0.08-2.69-0.79-3.26-3.3-2.61c-2.88,0.75-5.84,1.35-8.8,1.58c-2.55,0.2-3.64-1.28-2.84-3.86
		c0.66-2.15,1.36-4.28,1.94-6.45c0.75-2.82-0.36-4.43-3.19-5.29c-4.79-1.45-8.17-0.2-11.89,3.44
		c-31.06,30.45-67.84,40.16-109.84,28.81c-13.77-3.72-26.13-10.52-36.62-20.44c-1.14-1.07-2.89-1.49-4.35-2.21
		c0.07,1.74-0.31,3.64,0.29,5.17c1.27,3.23,2.83,6.4,4.66,9.35c9.7,15.55,22.95,27.38,39.25,35.5
		c43.17,21.52,85.12,20.54,125.14-7.98C353.21,439.57,360.42,431.81,366.87,422.32z M343.7,406.82c1.8-0.43,4.16-1.02,6.53-1.57
		c5.71-1.33,7.5,0.12,6.91,5.89c-0.31,3,0.55,4.99,3.43,6.24c7.11,3.1,9.74,1.71,10.62-6.06c0.24-2.08,0.33-4.36-0.28-6.31
		c-3.11-9.94-10.72-16.17-19.48-20.36c-6.43-3.08-12.18,0.99-16.49,4.81c2.89,1.9,7.1,3.21,8.43,5.92
		C344.84,398.42,343.7,402.72,343.7,406.82z M350.04,371.58c-6.69-4.35-14.27-4.52-21.55-5.74c8.17-0.75,15.86,1.06,23.89,5.27
		c-6.09-11.28-20.32-14.24-34.96-6.19C325.32,373.16,339.88,376.24,350.04,371.58z M368.55,394.31c9.75-6.72,17.2-14.98,23.43-24.41
		c1.47-2.22,2.16-4.3-0.82-5.89c-2.89-1.54-3.96,0.33-5.03,2.55c-4.85,10-12.19,17.17-23.16,20.17c-0.27,0.07-0.45,0.46-0.82,0.84
		C364.27,389.8,366.31,391.95,368.55,394.31z"/>
	<path d="M427.31,429.54c-6.11,6-13.03,12.78-19.94,19.57c-0.25-0.08-0.5-0.16-0.75-0.24c0.5-0.98,0.8-2.16,1.54-2.91
		c4.83-4.89,9.75-9.68,14.63-14.51c0.4-0.4,0.74-0.86,1.86-2.18c-13.37,0-25.8,0-38.23,0c0-0.48-0.01-0.96-0.01-1.45
		c12.28,0,24.56,0,36.83,0c-5.2-7.19-11.72-12.5-16.44-19.37C413.63,415.48,420.45,422.48,427.31,429.54z"/>
	<path d="M240.47,418.82c0.6-0.8,0.73-1.12,0.86-1.12c7.06-0.02,14.13-0.02,21.19-0.02c0,0.38-0.01,0.76-0.01,1.15
		C255.34,418.82,248.15,418.82,240.47,418.82z"/>
	<path d="M236.39,416.92c-1.53,0.93-2.43,1.91-3.19,1.81c-0.83-0.11-2.04-1.16-2.12-1.91c-0.08-0.67,1.21-2.14,1.8-2.09
		C233.86,414.82,234.76,415.83,236.39,416.92z"/>
	<path class="st0" d="M366.87,422.32c-6.45,9.49-13.66,17.25-22.34,23.44c-40.02,28.51-81.96,29.49-125.14,7.98
		c-16.3-8.12-29.55-19.95-39.25-35.5c-1.84-2.95-3.39-6.12-4.66-9.35c-0.6-1.53-0.23-3.43-0.29-5.17c1.47,0.72,3.22,1.14,4.35,2.21
		c10.49,9.91,22.85,16.72,36.62,20.44c42,11.35,78.78,1.64,109.84-28.81c3.71-3.64,7.1-4.89,11.89-3.44
		c2.82,0.86,3.94,2.47,3.19,5.29c-0.58,2.17-1.28,4.31-1.94,6.45c-0.8,2.59,0.29,4.07,2.84,3.86c2.96-0.24,5.92-0.84,8.8-1.58
		c2.52-0.65,3.38-0.08,3.3,2.61c-0.2,6.64,1,8.09,7.52,9.93C363.13,421.12,364.64,421.62,366.87,422.32z M290.42,460.24
		c0.05-0.33,0.11-0.67,0.16-1c-2.1,0-4.22,0.17-6.29-0.03c-7.69-0.75-15.49-1.05-23.03-2.59c-16.71-3.4-32.09-10.07-45.69-20.55
		c-1.19-0.91-2.64-1.47-3.98-2.2c-0.22,0.57-0.45,1.14-0.67,1.71C234.06,454.41,260.91,461.52,290.42,460.24z M340.16,416.69
		c-13.27,10.77-26.35,21.85-43.27,26.74C314.26,439.26,328.86,430.63,340.16,416.69z"/>
	<path class="st0" d="M343.7,406.82c0-4.11,1.14-8.41-0.34-11.43c-1.33-2.72-5.54-4.02-8.43-5.92c4.31-3.82,10.06-7.89,16.49-4.81
		c8.77,4.2,16.37,10.42,19.48,20.36c0.61,1.95,0.52,4.23,0.28,6.31c-0.88,7.77-3.51,9.15-10.62,6.06c-2.88-1.25-3.74-3.24-3.43-6.24
		c0.59-5.77-1.21-7.23-6.91-5.89C347.85,405.81,345.49,406.39,343.7,406.82z"/>
	<path class="st0" d="M350.04,371.58c-10.17,4.66-24.72,1.59-32.62-6.66c14.63-8.05,28.87-5.1,34.96,6.19
		c-8.04-4.21-15.72-6.02-23.89-5.27C335.78,367.06,343.35,367.22,350.04,371.58z"/>
	<path class="st0" d="M368.55,394.31c-2.24-2.36-4.28-4.51-6.4-6.74c0.36-0.39,0.55-0.77,0.82-0.84c10.97-3,18.31-10.17,23.16-20.17
		c1.07-2.21,2.14-4.09,5.03-2.55c2.98,1.59,2.28,3.67,0.82,5.89C385.75,379.33,378.3,387.59,368.55,394.31z"/>
	<path d="M290.42,460.24c-29.51,1.28-56.36-5.83-79.5-24.66c0.22-0.57,0.45-1.14,0.67-1.71c1.33,0.72,2.79,1.28,3.98,2.2
		c13.6,10.48,28.98,17.15,45.69,20.55c7.54,1.54,15.34,1.83,23.03,2.59c2.08,0.2,4.2,0.03,6.29,0.03
		C290.53,459.57,290.47,459.9,290.42,460.24z"/>
	<path d="M340.16,416.69c-11.3,13.94-25.9,22.57-43.27,26.74C313.8,438.53,326.89,427.46,340.16,416.69z"/>
</g>
</svg>
