<svg version="1.1" id="Layer_1" xmlns="http://www.w3.org/2000/svg" xmlns:xlink="http://www.w3.org/1999/xlink"
	 viewBox="194.50 338.14 207.25 169.22" xml:space="preserve" preserveAspectRatio="xMidYMid meet">
<style type="text/css">
	.st0{fill:currentColor;}
</style>
<g>
	<path class="st0" d="M202.5,346.14c63.75,0,127.5,0,191.25,0c0,50.25,0,100.5,0,150.75c-63.75,0-127.5,0-191.25,0
		C202.5,446.64,202.5,396.39,202.5,346.14z M337.87,427.24c-0.79-25.04-20.46-43.59-45.38-42.81
		c-23.34,0.73-42.44,21.13-41.87,44.71c0.57,23.47,21.28,42.86,44.83,42C319.67,470.24,338.62,450.64,337.87,427.24z M233.22,428.4
		c0.3,2.36,0.53,3.83,0.66,5.32c3.72,39.82,43.85,65.63,81.23,51.7c21.6-8.05,34.92-23.84,39.23-46.76
		c0.18-0.98-0.49-2.12-0.77-3.18c-0.59,0.9-1.44,1.73-1.72,2.73c-0.64,2.27-0.85,4.67-1.49,6.94c-7.12,25.06-32.12,42.94-58.3,41.76
		c-27.3-1.23-50.17-21.24-55.06-48.24c-0.58-3.19-0.8-6.45-1.19-9.68c0.29-0.06,0.57-0.13,0.86-0.19c2.49,2.24,4.97,4.48,8.21,7.39
		c0-1.81,0.24-2.6-0.04-2.86c-3.04-2.95-6.1-5.9-9.33-8.64c-0.48-0.4-2.23-0.08-2.77,0.49c-2.55,2.74-4.91,5.66-7.25,8.58
		c-0.36,0.45-0.24,1.28-0.35,1.93c0.72-0.17,1.68-0.11,2.12-0.56C229.15,433.17,230.88,431.07,233.22,428.4z M352.22,425.47
		c-2.43-2.19-4.32-3.98-6.33-5.63c-0.41-0.33-1.27-0.11-1.93-0.14c0.06,0.55-0.08,1.32,0.23,1.62c3.17,3.06,6.42,6.05,9.85,9.26
		c2.98-3.63,5.55-6.68,8-9.82c0.41-0.53,0.3-1.47,0.42-2.22c-0.81,0.27-1.86,0.31-2.37,0.86c-1.58,1.67-2.96,3.54-5.02,6.07
		c-0.89-15.14-5.84-27.67-15.18-38.33c-9.47-10.81-21.24-17.74-35.5-19.96c-25.98-4.03-50.47,7.91-63.26,30.62
		c-5.38,9.55-8.11,20.3-5.37,23.63c2.87-17.93,10.99-32.38,25.8-42.42c14.99-10.17,31.45-13.17,48.94-8.06
		C339.05,379.27,352.89,406.13,352.22,425.47z"/>
	<path d="M337.87,427.24c0.74,23.4-18.2,43-42.42,43.89c-23.56,0.87-44.26-18.53-44.83-42c-0.57-23.58,18.53-43.98,41.87-44.71
		C317.42,383.65,337.08,402.2,337.87,427.24z M335.49,427.56c0.09-22.28-18.26-40.67-40.76-40.86
		c-22.5-0.19-41.54,18.52-41.66,40.95c-0.12,22.38,18.48,41.05,40.95,41.1C317.2,468.81,335.39,450.74,335.49,427.56z"/>
	<path d="M233.22,428.4c-2.34,2.67-4.07,4.78-5.96,6.73c-0.43,0.45-1.4,0.39-2.12,0.56c0.1-0.65-0.01-1.48,0.35-1.93
		c2.34-2.93,4.7-5.84,7.25-8.58c0.53-0.57,2.29-0.9,2.77-0.49c3.23,2.74,6.29,5.69,9.33,8.64c0.27,0.26,0.04,1.05,0.04,2.86
		c-3.24-2.91-5.72-5.15-8.21-7.39c-0.29,0.06-0.57,0.13-0.86,0.19c0.39,3.23,0.61,6.48,1.19,9.68c4.89,27,27.76,47.01,55.06,48.24
		c26.18,1.18,51.18-16.7,58.3-41.76c0.65-2.27,0.85-4.67,1.49-6.94c0.28-0.99,1.13-1.82,1.72-2.73c0.27,1.06,0.95,2.2,0.77,3.18
		c-4.3,22.92-17.63,38.71-39.23,46.76c-37.38,13.94-77.51-11.88-81.23-51.7C233.75,432.23,233.52,430.76,233.22,428.4z"/>
	<path d="M352.22,425.47c0.67-19.34-13.17-46.2-41.73-54.54c-17.48-5.11-33.95-2.11-48.94,8.06c-14.81,10.04-22.93,24.49-25.8,42.42
		c-2.74-3.33-0.01-14.07,5.37-23.63c12.79-22.71,37.28-34.65,63.26-30.62c14.26,2.21,26.03,9.15,35.5,19.96
		c9.34,10.66,14.28,23.19,15.18,38.33c2.06-2.53,3.44-4.39,5.02-6.07c0.52-0.55,1.57-0.59,2.37-0.86c-0.13,0.75-0.01,1.69-0.42,2.22
		c-2.45,3.14-5.02,6.19-8,9.82c-3.43-3.2-6.68-6.19-9.85-9.26c-0.31-0.3-0.16-1.07-0.23-1.62c0.65,0.03,1.52-0.19,1.93,0.14
		C347.9,421.48,349.79,423.28,352.22,425.47z"/>
	<path class="st0" d="M335.49,427.56c-0.09,23.18-18.29,41.25-41.48,41.2c-22.47-0.05-41.07-18.72-40.95-41.1
		c0.12-22.43,19.16-41.14,41.66-40.95C317.23,386.89,335.58,405.27,335.49,427.56z M294.84,416.57c-0.3,0-0.61,0-0.91,0
		c0-6.61,0.08-13.22-0.03-19.83c-0.07-4.5-2.04-6.51-6.38-5.47c-4.65,1.12-9.32,2.82-13.45,5.19c-4.54,2.61-4.63,5.77-0.86,9.37
		c4.03,3.85,8.34,7.4,12.53,11.08c-0.61,0.61-1.23,1.23-1.84,1.84c-3.96-4.25-7.81-8.62-11.93-12.72c-3.19-3.19-6.46-3.1-8.75,0.7
		c-2.47,4.1-4.6,8.6-5.84,13.2c-1.5,5.57,0.59,7.53,6.35,7.48c5.99-0.05,11.98-0.01,17.98-0.01c-3.21,0.37-6.42,0.31-9.63,0.39
		c-3.24,0.07-6.5,0.1-9.72,0.46c-4.49,0.49-6.17,2.34-5.17,6.74c0.95,4.19,2.67,8.27,4.57,12.14c0.85,1.72,2.78,3.41,4.59,4.03
		c1.63,0.56,3.77-0.36,5.47-0.59c-2.33,4.07-2.22,6.02,2.18,8.51c4.06,2.29,8.54,4.08,13.06,5.28c4.64,1.24,6.77-0.87,6.79-5.68
		c0.03-6.86,0.01-13.72,0.01-20.58c0.75,3.37,0.74,6.74,0.76,10.12c0.01,3.5,0.04,6.99,0.08,10.49c0.05,4.65,1.95,6.77,6.47,5.75
		c4.54-1.02,8.95-2.93,13.15-5c3.06-1.51,4.88-4.23,3.45-7.17c2.29-0.69,5.09-0.71,6.51-2.13c4.35-4.36,6.54-10,7.09-16.12
		c0.32-3.58-1.35-5.18-5.03-5.52c-1.56-0.14-3.12-0.23-4.68-0.34c1.28-0.64,2.57-0.75,3.87-0.82c4.82-0.28,6.85-1.98,5.74-6.48
		c-1.23-4.98-3.3-9.88-5.83-14.35c-1.92-3.39-5.35-3.3-8.32-0.67c-1.92,1.7-3.74,3.52-5.6,5.28c1.3-2.08,2.96-3.77,4.5-5.56
		c3.02-3.54,2.88-6.65-1.12-9.07c-3.68-2.23-7.75-4.08-11.88-5.24c-5.56-1.57-8.03,0.56-8.13,6.32
		C294.75,403.88,294.84,410.23,294.84,416.57z"/>
	<path d="M294.84,416.57c0-6.34-0.08-12.68,0.02-19.02c0.1-5.75,2.57-7.89,8.13-6.32c4.14,1.17,8.2,3.02,11.88,5.24
		c4,2.42,4.15,5.53,1.12,9.07c-1.53,1.8-3.2,3.48-4.5,5.56c1.86-1.76,3.68-3.58,5.6-5.28c2.97-2.62,6.4-2.72,8.32,0.67
		c2.53,4.47,4.6,9.37,5.83,14.35c1.11,4.5-0.92,6.2-5.74,6.48c-1.29,0.08-2.59,0.18-3.87,0.82c1.56,0.11,3.12,0.2,4.68,0.34
		c3.69,0.34,5.35,1.94,5.03,5.52c-0.55,6.12-2.73,11.77-7.09,16.12c-1.41,1.41-4.22,1.43-6.51,2.13c1.44,2.94-0.38,5.66-3.45,7.17
		c-4.2,2.07-8.61,3.98-13.15,5c-4.52,1.02-6.42-1.1-6.47-5.75c-0.04-3.5-0.06-6.99-0.08-10.49c-0.01-3.37,0-6.74-0.76-10.12
		c0,6.86,0.02,13.72-0.01,20.58c-0.02,4.81-2.14,6.92-6.79,5.68c-4.51-1.21-8.99-2.99-13.06-5.28c-4.4-2.49-4.52-4.44-2.18-8.51
		c-1.7,0.24-3.83,1.15-5.47,0.59c-1.81-0.62-3.74-2.3-4.59-4.03c-1.9-3.87-3.62-7.95-4.57-12.14c-1-4.39,0.68-6.24,5.17-6.74
		c3.22-0.35,6.48-0.38,9.72-0.46c3.21-0.07,6.42-0.02,9.63-0.39c-5.99,0-11.98-0.04-17.98,0.01c-5.77,0.05-7.86-1.91-6.35-7.48
		c1.24-4.6,3.37-9.1,5.84-13.2c2.29-3.8,5.55-3.89,8.75-0.7c4.11,4.1,7.96,8.47,11.93,12.72c0.61-0.61,1.23-1.23,1.84-1.84
		c-4.19-3.68-8.5-7.23-12.53-11.08c-3.77-3.61-3.68-6.77,0.86-9.37c4.13-2.37,8.81-4.07,13.45-5.19c4.34-1.05,6.31,0.97,6.38,5.47
		c0.11,6.61,0.03,13.22,0.03,19.83C294.23,416.56,294.54,416.56,294.84,416.57z M274.28,429.7c0,0.26,0,0.53,0,0.79
		c-3.86,0-7.72,0-11.58,0c-2.52,0-4.1,1.46-3.36,3.73c1.49,4.55,3.31,9.04,5.51,13.29c1.22,2.36,3.47,2.39,5.6,0.36
		c5.22-4.99,10.56-9.85,15.78-14.84c0.6-0.57,0.74-1.61,1.09-2.44c-0.86-0.3-1.72-0.82-2.59-0.85
		C281.25,429.64,277.76,429.7,274.28,429.7z M300.56,424.51c0.85,0.56,1.24,1.05,1.63,1.04c8.12-0.09,16.24-0.2,24.35-0.39
		c2.28-0.05,3.25-1.73,2.69-3.6c-1.29-4.25-2.58-8.58-4.61-12.5c-1.89-3.64-3.72-3.64-6.82-0.77c-4.49,4.16-8.86,8.45-13.29,12.67
		C303.3,422.11,302.02,423.2,300.56,424.51z M296.23,448.24c0.22,0,0.45,0,0.67,0c0,3.62,0.08,7.23-0.03,10.85
		c-0.08,2.66,1.33,4.07,3.62,3.31c4.66-1.54,9.26-3.41,13.66-5.58c2.17-1.07,2.06-3.12,0.29-4.98c-4.98-5.25-9.85-10.6-14.85-15.82
		c-0.54-0.56-1.71-0.85-2.49-0.72c-0.4,0.07-0.82,1.35-0.84,2.09C296.18,441,296.23,444.62,296.23,448.24z M291.43,433.5
		c-6.37,6.67-11.82,12.46-17.36,18.14c-1.96,2.01-1.92,4.02,0.39,5.17c4.29,2.12,8.75,3.99,13.3,5.47c2.53,0.82,4.1-0.49,4.08-3.6
		c-0.06-7.09,0.21-14.18,0.28-21.27C292.13,436.44,291.79,435.47,291.43,433.5z M300.22,391.6c-1.39,2.07-3,3.36-3.08,4.76
		c-0.48,7.46-0.61,14.95-0.75,22.44c-0.01,0.7,0.56,1.6,1.14,2.03c0.28,0.21,1.39-0.3,1.82-0.76c5.21-5.54,10.47-11.05,15.43-16.82
		c0.72-0.83,0.46-3.91-0.29-4.36C310.16,396.33,305.55,394.25,300.22,391.6z M301.6,430.43c0,0.55-0.16,1.07,0.02,1.25
		c5.81,5.82,11.59,11.68,17.58,17.3c0.61,0.58,3.4,0.17,3.73-0.5c2.31-4.62,4.45-9.37,6.2-14.23c0.7-1.96-0.61-3.77-2.98-3.79
		C318.06,430.39,309.96,430.43,301.6,430.43z M291.62,404.65c0.06-0.01,0.12-0.01,0.17-0.02c0-2.5-0.14-5,0.03-7.48
		c0.23-3.32-1.54-4.57-4.31-3.73c-4.12,1.25-8.24,2.73-12.03,4.74c-3.47,1.84-3.45,3.25-0.81,6.13c4.73,5.14,9.5,10.24,14.32,15.29
		c0.61,0.63,1.6,0.89,2.42,1.33c0.37-0.95,1.08-1.92,1.04-2.86C292.29,413.57,291.92,409.11,291.62,404.65z M287.52,425.34
		c-0.35-0.97-0.4-1.8-0.85-2.24c-5.44-5.3-10.93-10.54-16.41-15.8c-2.05-1.96-4.21-1.49-5.3,0.68c-2.15,4.29-3.99,8.77-5.55,13.32
		c-0.84,2.44,0.47,4.06,3.3,4.05C270.79,425.32,278.88,425.34,287.52,425.34z M294.56,433.28c2.87-0.03,5.51-2.74,5.36-5.51
		c-0.12-2.26-3.42-5.75-5.43-5.74c-1.99,0.01-5.39,3.58-5.48,5.77C288.9,430.29,291.96,433.3,294.56,433.28z M303.96,438.52
		c0.11-0.12,0.22-0.24,0.33-0.36c3.36,3.55,6.73,7.09,10.09,10.64c0.16-0.15,0.33-0.31,0.49-0.46
		C311.24,445.06,307.6,441.79,303.96,438.52z"/>
	<path class="st0" d="M274.28,429.7c3.49,0,6.97-0.06,10.46,0.04c0.87,0.02,1.72,0.55,2.59,0.85c-0.35,0.82-0.5,1.87-1.09,2.44
		c-5.22,4.99-10.56,9.85-15.78,14.84c-2.12,2.03-4.38,2-5.6-0.36c-2.2-4.25-4.02-8.74-5.51-13.29c-0.75-2.27,0.83-3.73,3.36-3.73
		c3.86,0,7.72,0,11.58,0C274.28,430.22,274.28,429.96,274.28,429.7z"/>
	<path class="st0" d="M300.56,424.51c1.46-1.31,2.74-2.4,3.95-3.55c4.44-4.22,8.8-8.51,13.29-12.67c3.1-2.87,4.93-2.87,6.82,0.77
		c2.03,3.91,3.32,8.25,4.61,12.5c0.57,1.87-0.41,3.55-2.69,3.6c-8.12,0.19-16.24,0.3-24.35,0.39
		C301.8,425.55,301.41,425.07,300.56,424.51z"/>
	<path class="st0" d="M296.23,448.24c0-3.62-0.05-7.24,0.04-10.85c0.02-0.74,0.44-2.02,0.84-2.09c0.78-0.13,1.95,0.16,2.49,0.72
		c5,5.23,9.88,10.57,14.85,15.82c1.77,1.86,1.87,3.91-0.29,4.98c-4.41,2.17-9,4.03-13.66,5.58c-2.29,0.76-3.7-0.66-3.62-3.31
		c0.11-3.61,0.03-7.23,0.03-10.85C296.67,448.24,296.45,448.24,296.23,448.24z"/>
	<path class="st0" d="M291.43,433.5c0.36,1.97,0.7,2.95,0.69,3.91c-0.07,7.09-0.34,14.18-0.28,21.27c0.03,3.11-1.55,4.41-4.08,3.6
		c-4.55-1.47-9.01-3.34-13.3-5.47c-2.31-1.15-2.35-3.16-0.39-5.17C279.61,445.95,285.06,440.17,291.43,433.5z"/>
	<path class="st0" d="M300.22,391.6c5.33,2.65,9.94,4.73,14.27,7.29c0.75,0.44,1.01,3.53,0.29,4.36
		c-4.96,5.77-10.22,11.27-15.43,16.82c-0.43,0.46-1.54,0.97-1.82,0.76c-0.58-0.43-1.16-1.33-1.14-2.03
		c0.15-7.48,0.28-14.97,0.75-22.44C297.23,394.96,298.83,393.67,300.22,391.6z"/>
	<path class="st0" d="M301.6,430.43c8.36,0,16.46-0.05,24.56,0.03c2.37,0.02,3.68,1.83,2.98,3.79c-1.75,4.86-3.88,9.61-6.2,14.23
		c-0.34,0.67-3.12,1.07-3.73,0.5c-5.99-5.63-11.77-11.48-17.58-17.3C301.45,431.5,301.6,430.98,301.6,430.43z M316.04,438.93
		c-0.24,0.32-0.47,0.65-0.71,0.97c1.9,1.38,3.8,2.76,5.69,4.14c0.34-0.51,0.68-1.02,1.02-1.53
		C320.05,441.32,318.05,440.12,316.04,438.93z"/>
	<path class="st0" d="M291.62,404.65c0.3,4.46,0.67,8.92,0.84,13.39c0.04,0.94-0.68,1.91-1.04,2.86c-0.82-0.43-1.81-0.69-2.42-1.33
		c-4.82-5.05-9.6-10.15-14.32-15.29c-2.64-2.88-2.66-4.28,0.81-6.13c3.79-2.01,7.91-3.5,12.03-4.74c2.77-0.84,4.54,0.41,4.31,3.73
		c-0.17,2.48-0.03,4.99-0.03,7.48C291.73,404.63,291.67,404.64,291.62,404.65z"/>
	<path class="st0" d="M287.52,425.34c-8.63,0-16.72-0.01-24.82,0.01c-2.83,0.01-4.13-1.61-3.3-4.05c1.56-4.54,3.4-9.02,5.55-13.32
		c1.09-2.17,3.25-2.64,5.3-0.68c5.48,5.25,10.98,10.5,16.41,15.8C287.11,423.53,287.17,424.37,287.52,425.34z M274.17,414.6
		c-1.13,2.57-1.67,3.78-2.36,5.35c1.53,0.37,3.11,0.76,4.79,1.17C275.73,418.78,275.03,416.92,274.17,414.6z"/>
	<path class="st0" d="M294.56,433.28c-2.6,0.02-5.66-2.99-5.55-5.48c0.1-2.19,3.49-5.76,5.48-5.77c2.01-0.01,5.31,3.48,5.43,5.74
		C300.07,430.54,297.43,433.25,294.56,433.28z"/>
	<path class="st0" d="M303.96,438.52c3.64,3.27,7.28,6.55,10.92,9.82c-0.16,0.15-0.33,0.31-0.49,0.46
		c-3.36-3.55-6.73-7.09-10.09-10.64C304.18,438.28,304.07,438.4,303.96,438.52z"/>
	<path d="M316.04,438.93c2,1.19,4.01,2.39,6.01,3.58c-0.34,0.51-0.68,1.02-1.02,1.53c-1.9-1.38-3.8-2.76-5.69-4.14
		C315.57,439.58,315.81,439.26,316.04,438.93z"/>
	<path d="M274.17,414.6c0.87,2.32,1.56,4.18,2.43,6.51c-1.68-0.41-3.26-0.79-4.79-1.17C272.5,418.38,273.03,417.17,274.17,414.6z"/>
</g>
</svg>
