<svg version="1.1" id="Layer_1" xmlns="http://www.w3.org/2000/svg" xmlns:xlink="http://www.w3.org/1999/xlink"
	 viewBox="164.50 302.14 268.75 238.75" xml:space="preserve" preserveAspectRatio="xMidYMid meet">
<style type="text/css">
	.st0{fill:currentColor;}
</style>
<g>
	<path class="st0" d="M425.25,532.89c-84.25,0-168.5,0-252.75,0c0-74.25,0-148.5,0-222.75c84.25,0,168.5,0,252.75,0
		C425.25,384.39,425.25,458.64,425.25,532.89z M279,359.08c-6.43,2.19-12.62,4.4-18.9,6.33c-0.95,0.29-2.6-0.47-3.42-1.27
		c-2.58-2.53-4.96-5.28-7.33-8.01c-1.38-1.59-2.86-1.98-4.55-0.67c-6.88,5.36-13.74,10.76-20.6,16.15c-1.69,1.33-1.65,2.8-0.52,4.57
		c1.95,3.05,3.9,6.12,5.51,9.35c0.51,1.02,0.38,2.8-0.19,3.82c-2.62,4.67-5.41,9.25-8.35,13.73c-0.68,1.04-2.07,2.05-3.27,2.25
		c-3.93,0.67-7.96,0.79-11.88,1.5c-1.09,0.2-2.69,1.67-2.78,2.66c-0.79,8.8-1.27,17.63-1.88,26.45c-0.16,2.24,1.04,3.03,3.04,3.42
		c3.55,0.69,7.13,1.39,10.57,2.47c1.21,0.38,2.53,1.73,3,2.95c1.88,4.87,3.54,9.84,5.07,14.84c0.34,1.1,0.21,2.66-0.35,3.65
		c-1.76,3.16-3.75,6.2-5.8,9.18c-1.34,1.95-1.44,3.65,0.32,5.31c6.45,6.07,12.89,12.14,19.37,18.18c1.67,1.56,3.45,1.61,5.42,0.28
		c2.69-1.81,5.42-3.62,8.34-5c1.29-0.61,3.27-0.65,4.59-0.12c6.35,2.56,12.53,5.55,18.89,8.07c2.24,0.89,3.42,1.78,3.63,4.36
		c0.27,3.34,0.98,6.68,1.92,9.9c0.35,1.19,1.77,2.68,2.93,2.91c10.51,2.09,21.06,2.03,31.66,0.31c3.26-0.53,4.44-1.89,4.7-4.99
		c0.26-3.1,0.83-6.21,1.65-9.2c0.32-1.16,1.5-2.45,2.62-2.95c3.4-1.53,7.05-2.51,10.45-4.06c3.74-1.7,7.36-5.41,10.93-5.27
		c3.72,0.14,7.38,3.72,10.94,5.98c2.12,1.35,3.87,1.31,5.71-0.38c5.68-5.24,11.58-10.25,17.03-15.71c4.68-4.69,4.74-5.13,0.67-10.35
		c-3.98-5.11-5.86-9.82-2.19-16.07c1.95-3.32,1.38-8.7,3.91-10.95c2.71-2.41,7.68-2.42,11.73-3.13c3.05-0.54,4.41-2.19,4.2-5.06
		c-0.62-8.44-1.3-16.88-2.18-25.3c-0.09-0.9-1.61-2.18-2.63-2.36c-3.93-0.7-7.95-0.88-11.87-1.57c-1.24-0.22-2.69-1.17-3.37-2.22
		c-2.91-4.5-5.67-9.1-8.26-13.79c-0.57-1.03-0.69-2.79-0.2-3.83c1.5-3.15,3.29-6.17,5.19-9.1c1.34-2.06,1.27-3.65-0.67-5.17
		c-6.57-5.16-13.13-10.33-19.68-15.51c-1.97-1.56-3.56-1.14-5.15,0.68c-2.38,2.73-4.84,5.4-7.42,7.93
		c-0.75,0.73-2.24,1.49-3.08,1.23c-6.41-1.98-12.75-4.2-19.4-6.44c2.24-3.75,4.59-7.57,6.8-11.46c0.61-1.08,0.79-2.4,1.17-3.6
		c-1.29-0.22-2.73-0.92-3.84-0.57c-5.23,1.65-10.37,3.6-15.49,5.41c-1.93-3.97-4.25-8.76-6.57-13.55c-0.62,0.03-1.25,0.06-1.87,0.09
		c-2.28,4.89-4.55,9.77-6.94,14.91c-3.92-4.21-9-6.64-14.97-6.97c-1.28-0.07-2.6,0.4-3.9,0.62c0.36,1.23,0.53,2.55,1.12,3.66
		C274.69,351.55,276.94,355.42,279,359.08z M395.23,464.98c15.63-17.84,17.66-58.1,3.61-69.19
		C412.26,419.64,408.5,442.55,395.23,464.98z M207.7,484.59c-7.21-11.26-12.23-23.41-14.85-36.56
		C191.96,457.46,200.04,477.32,207.7,484.59z"/>
	<path d="M279,359.08c-2.06-3.67-4.31-7.53-6.41-11.47c-0.59-1.1-0.76-2.43-1.12-3.66c1.3-0.22,2.61-0.69,3.9-0.62
		c5.97,0.33,11.05,2.76,14.97,6.97c2.39-5.13,4.67-10.02,6.94-14.91c0.62-0.03,1.25-0.06,1.87-0.09c2.32,4.79,4.64,9.58,6.57,13.55
		c5.12-1.82,10.26-3.76,15.49-5.41c1.11-0.35,2.55,0.35,3.84,0.57c-0.38,1.21-0.56,2.53-1.17,3.6c-2.21,3.89-4.56,7.71-6.8,11.46
		c6.65,2.24,12.99,4.47,19.4,6.44c0.84,0.26,2.33-0.5,3.08-1.23c2.59-2.53,5.04-5.21,7.42-7.93c1.59-1.82,3.18-2.24,5.15-0.68
		c6.55,5.18,13.11,10.35,19.68,15.51c1.94,1.52,2,3.11,0.67,5.17c-1.9,2.93-3.69,5.96-5.19,9.1c-0.49,1.03-0.37,2.8,0.2,3.83
		c2.59,4.69,5.34,9.3,8.26,13.79c0.68,1.05,2.14,2,3.37,2.22c3.93,0.69,7.95,0.87,11.87,1.57c1.02,0.18,2.53,1.46,2.63,2.36
		c0.88,8.42,1.56,16.85,2.18,25.3c0.21,2.87-1.15,4.53-4.2,5.06c-4.05,0.71-9.02,0.72-11.73,3.13c-2.53,2.25-1.96,7.63-3.91,10.95
		c-3.66,6.25-1.79,10.96,2.19,16.07c4.07,5.22,4.01,5.66-0.67,10.35c-5.45,5.46-11.35,10.48-17.03,15.71
		c-1.84,1.69-3.59,1.73-5.71,0.38c-3.56-2.26-7.22-5.84-10.94-5.98c-3.56-0.13-7.19,3.57-10.93,5.27
		c-3.39,1.55-7.04,2.53-10.45,4.06c-1.12,0.5-2.3,1.79-2.62,2.95c-0.82,3-1.39,6.11-1.65,9.2c-0.26,3.1-1.43,4.46-4.7,4.99
		c-10.6,1.72-21.15,1.78-31.66-0.31c-1.16-0.23-2.58-1.72-2.93-2.91c-0.94-3.22-1.65-6.56-1.92-9.9c-0.21-2.58-1.39-3.48-3.63-4.36
		c-6.36-2.52-12.54-5.51-18.89-8.07c-1.33-0.54-3.31-0.49-4.59,0.12c-2.92,1.38-5.65,3.19-8.34,5c-1.98,1.33-3.75,1.28-5.42-0.28
		c-6.48-6.03-12.92-12.11-19.37-18.18c-1.76-1.66-1.66-3.36-0.32-5.31c2.05-2.98,4.04-6.02,5.8-9.18c0.55-0.99,0.68-2.55,0.35-3.65
		c-1.53-5-3.19-9.96-5.07-14.84c-0.47-1.22-1.79-2.56-3-2.95c-3.44-1.08-7.02-1.78-10.57-2.47c-1.99-0.39-3.19-1.18-3.04-3.42
		c0.61-8.82,1.09-17.65,1.88-26.45c0.09-1,1.69-2.46,2.78-2.66c3.92-0.72,7.95-0.84,11.88-1.5c1.2-0.2,2.59-1.21,3.27-2.25
		c2.93-4.48,5.73-9.06,8.35-13.73c0.57-1.02,0.7-2.81,0.19-3.82c-1.62-3.23-3.56-6.31-5.51-9.35c-1.13-1.77-1.17-3.24,0.52-4.57
		c6.86-5.39,13.71-10.79,20.6-16.15c1.68-1.31,3.16-0.92,4.55,0.67c2.37,2.74,4.75,5.48,7.33,8.01c0.81,0.8,2.47,1.56,3.42,1.27
		C266.39,363.49,272.58,361.27,279,359.08z M274.95,345.97c2.84,5.59,5.63,10.6,7.97,15.81c3.22,7.15,1.92,12.03-4.38,16.7
		c-2.78,2.06-5.85,3.86-8.99,5.31c-12.12,5.61-22.7,12.68-29.43,24.92c-12.72,23.12-6.02,53.2,15.45,68.61
		c11.4,8.18,24.1,11.81,37.84,12.5c18.69,0.93,36.19-2.43,50.51-15.52c12.61-11.53,20.02-25.67,18.53-43.14
		c-1.79-20.97-12.35-36.22-31.52-45.34c-4.27-2.03-8.59-4.12-12.46-6.8c-7.56-5.24-8.73-11-4.44-19.12
		c2.38-4.51,4.83-8.99,7.36-13.69c-7.62,0.44-13.12,4.08-17.06,10.7c-0.99-6.34-2.29-12.01-6.8-17.73
		c-2.03,6.33-3.8,11.8-5.78,17.97C288.33,350.23,282.68,346.95,274.95,345.97z M349.91,357.03c-3.45,3.71-6.43,6.73-9.19,9.94
		c-1.58,1.84-2.97,1.89-5.2,1.08c-5.62-2.03-11.39-3.67-17.1-5.43c-2.55-0.79-3.7,0.49-4.09,2.87c-0.66,4.02,0.16,7.71,3.65,9.96
		c5.33,3.44,10.8,6.71,16.45,9.57c22.29,11.26,31.73,32.35,30.4,52.29c-1.56,23.28-14.49,39.77-35.49,48.95
		c-20.6,9-41.84,8.17-62.8,0.06c-23.92-9.25-39.24-36.71-34.38-61.86c3.72-19.24,14.97-32.5,32.46-40.88
		c4.48-2.15,8.84-4.64,12.98-7.39c3.3-2.19,4.87-5.54,4.38-9.72c-0.38-3.26-1.78-4.86-5.15-3.78c-5.46,1.76-10.96,3.43-16.28,5.53
		c-2.13,0.84-3.29,0.68-4.74-1.02c-2.9-3.38-6.03-6.57-9.44-10.24c-7.26,5.76-14.17,11.24-20.89,16.58c2.5,4.45,4.76,8.2,6.68,12.11
		c0.51,1.04,0.39,2.84-0.18,3.88c-2.98,5.47-6.13,10.85-9.39,16.15c-0.6,0.97-1.95,1.85-3.08,2.03c-3.94,0.64-7.96,0.79-11.89,1.49
		c-1.08,0.19-2.67,1.59-2.76,2.56c-0.71,7.44-1.08,14.92-1.62,22.38c-0.15,2.07,0.82,2.87,2.73,3.18c3.33,0.54,6.61,1.36,9.94,1.86
		c2.34,0.35,3.49,1.18,4.15,3.78c1.4,5.54,3.34,10.97,5.4,16.32c0.78,2.01,0.69,3.4-0.5,5.1c-2.36,3.36-4.54,6.84-6.81,10.3
		c5.4,7.82,12.48,13.57,19.71,19.13c0.59,0.45,2.12,0.22,2.92-0.23c3.15-1.78,6.1-3.94,9.31-5.58c1.16-0.59,3.06-0.57,4.3-0.05
		c7.46,3.12,14.86,6.4,22.2,9.8c1.09,0.51,2.21,1.84,2.51,3c0.86,3.38,1.39,6.85,1.87,10.31c0.29,2.09,1.26,2.87,3.35,3.17
		c9.35,1.34,18.66,1.29,28.01-0.03c2.14-0.3,3.04-1.2,3.33-3.22c0.46-3.21,1.21-6.39,1.55-9.61c0.24-2.28,1.01-3.36,3.42-4.04
		c4.3-1.22,8.49-2.95,12.57-4.8c3.84-1.73,7.57-5.58,11.2-5.4c3.85,0.19,7.59,3.91,11.24,6.29c1.67,1.09,2.79,1.03,4.21-0.33
		c5.14-4.92,10.3-9.81,15.57-14.59c2.59-2.35,3.09-4.68,0.56-7.25c-5.67-5.75-6.36-11.82-2.36-19c2.04-3.67,1.49-9.49,4.24-11.88
		c2.99-2.6,8.49-2.22,12.81-3.44c1.02-0.29,2.45-1.85,2.41-2.77c-0.33-7.47-0.99-14.92-1.47-22.38c-0.14-2.15-1.37-2.57-3.22-2.72
		c-3.73-0.3-7.48-0.65-11.16-1.3c-1.22-0.22-2.67-1.16-3.33-2.21c-3.2-5.05-6.04-10.34-9.3-15.36c-1.28-1.98-1.38-3.45-0.17-5.4
		c2.17-3.48,4.13-7.09,6.55-11.28C364.06,368.11,357.12,362.67,349.91,357.03z"/>
	<path d="M395.23,464.98c13.27-22.43,17.03-45.34,3.61-69.19C412.89,406.88,410.86,447.14,395.23,464.98z"/>
	<path d="M207.7,484.59c-7.66-7.27-15.75-27.13-14.85-36.56C195.48,461.18,200.5,473.33,207.7,484.59z"/>
	<path class="st0" d="M274.95,345.97c7.73,0.98,13.39,4.26,16.81,11.19c1.98-6.16,3.74-11.64,5.78-17.97
		c4.51,5.72,5.81,11.39,6.8,17.73c3.95-6.62,9.44-10.27,17.06-10.7c-2.53,4.7-4.98,9.18-7.36,13.69
		c-4.29,8.12-3.12,13.87,4.44,19.12c3.87,2.68,8.19,4.77,12.46,6.8c19.17,9.13,29.72,24.38,31.52,45.34
		c1.49,17.47-5.91,31.61-18.53,43.14c-14.32,13.09-31.82,16.45-50.51,15.52c-13.74-0.69-26.45-4.32-37.84-12.5
		c-21.48-15.42-28.17-45.49-15.45-68.61c6.73-12.24,17.31-19.31,29.43-24.92c3.15-1.46,6.21-3.25,8.99-5.31
		c6.3-4.67,7.6-9.55,4.38-16.7C280.58,356.56,277.79,351.55,274.95,345.97z M292.15,474.79c2.16-1.64,3.98-3.39,1.9-6.63
		c-1.66,1.24-2.98,2.73-4.63,3.31c-1.42,0.5-3.21-0.03-4.84-0.1c0.28-1.55,0.12-3.39,0.91-4.61c2.04-3.1,4.53-5.9,6.78-8.87
		c2.92-3.85,7.3-4.47,10.6-0.94c3.21,3.44,6.04,7.27,8.78,11.11c1.59,2.23,0.25,4.36-2.52,4.02c-1.63-0.2-3.13-1.35-4.75-1.91
		c-1.09-0.37-2.27-0.46-3.42-0.68c0.09,1.12-0.15,2.42,0.32,3.34c3.99,7.77,9.52,9.84,18.57,6.52
		c12.24-4.49,21.83-12.14,28.47-23.66c6.9-11.97,9.08-23.9,2.36-36.63c-1.74-3.3-2.79-6.97-4.69-10.16
		c-1.87-3.14-3.84-6.75-6.75-8.62c-6.77-4.37-14.1-7.9-21.28-11.61c-7.58-3.91-13.51-1.13-14.73,7.41
		c-1.88,13.13-2.69,26.34-0.74,39.58c0.7,4.74,2.65,8.73,5.87,12.28c4.02,4.44,7.8,9.09,11.65,13.69c3.33,3.98,7.82,4.98,12.43,2.58
		c2.7-1.41,4.86-3.34,4.08-6.78c-0.61-2.72-4.42-4.71-7.7-3.53c-2.83,1.02-5.3,3.06-8.13,4.77c-3.49-4.22-7.36-8.92-11.16-13.52
		c3.59-5.82,8.27-9.5,14.73-10.8c0.53-0.11,1.18-1.32,1.16-2c-0.02-0.68-0.76-1.83-1.3-1.9c-1.14-0.14-2.7-0.11-3.46,0.56
		c-2.65,2.33-4.93,5.07-7.54,7.45c-1.58,1.44-3.51,2.49-5.28,3.72c-0.93-1.84-2.26-3.58-2.7-5.53c-0.69-3.02-1.18-6.19-1.06-9.27
		c0.41-10.57,0.58-21.2,1.92-31.67c0.82-6.42,5.32-7.8,11.2-4.88c3.46,1.72,6.96,3.35,10.5,4.91c8.51,3.76,15.9,8.45,17.59,18.71
		c0.28,1.73,1.75,3.27,2.69,4.88c4.4,7.58,6.07,15.58,3.26,24.09c-2.78,8.41-7.2,15.97-13.43,22.24
		c-6.1,6.14-13.61,10.12-22.06,12.11c-5.07,1.19-7.94,0.2-10.34-3.32c0.61,0.17,1.06,0.34,1.54,0.42c2.98,0.5,5.91,0.51,7.56-2.56
		c1.57-2.94-0.13-5.26-1.96-7.42c-2.82-3.32-5.57-6.72-8.55-9.9c-4.01-4.28-9.21-3.92-12.91,0.63c-2.67,3.28-5.69,6.33-7.97,9.86
		c-1.2,1.85-2.19,5.08-1.35,6.67c0.85,1.6,4.03,2.13,6.29,2.76c1.28,0.36,2.77,0,4.19-0.01c-3.51,3.25-7.79,4.5-12.13,2.82
		c-5.78-2.24-11.62-4.71-16.77-8.1c-9.95-6.55-14.85-17.02-18.82-27.71c-2.58-6.95-1.31-14,2.34-20.58
		c1.68-3.03,3.07-6.25,4.33-9.49c2.08-5.33,5.35-9.59,10.45-12.27c5.41-2.85,10.87-5.6,16.32-8.36c7.06-3.57,10.71-1.91,12.62,5.73
		c0.18,0.72,0.32,1.46,0.41,2.2c1.55,13.07,1.94,26.16-0.08,39.21c-0.26,1.66-1.21,3.2-1.77,4.61c-6.79-4.36-12.98-8.32-19.17-12.29
		c-0.34,0.33-0.69,0.66-1.03,0.98c0.54,1.09,0.81,2.53,1.68,3.21c1.74,1.37,3.72,3.09,5.75,3.31c4.95,0.54,7.11,4.02,9.62,7.71
		c-1.94,2.34-3.9,4.74-5.9,7.11c-1.94,2.31-3.92,4.6-5.98,7.01c-1.99-4.62-5.83-7.21-9.78-6.12c-1.79,0.49-4,2.07-4.54,3.65
		c-0.47,1.37,0.68,3.91,1.91,5.15c4.17,4.21,10.87,3.4,14.81-1.41c3.64-4.44,7.08-9.07,11.05-13.19c3.36-3.49,5.62-7.27,6.09-12.08
		c0.29-2.98,0.87-5.98,0.77-8.95c-0.34-10.09-0.39-20.24-1.58-30.25c-1.13-9.56-7.04-12.18-15.48-7.89
		c-2.44,1.24-4.91,2.44-7.38,3.63c-9.95,4.79-19.49,9.96-22.23,22.05c-0.24,1.05-1.05,1.97-1.6,2.95
		c-4.1,7.29-6.63,15.09-4.35,23.34c1.47,5.33,4.28,10.32,6.74,15.34c6.2,12.66,17.17,19.47,30.02,23.65
		c2.63,0.85,5.72,0.82,8.51,0.47C290,479.97,292.64,478.6,292.15,474.79z M336.49,433.13c4.55,0.03,8.58-3.55,8.59-7.63
		c0-2.95-1.87-4.79-4.95-4.86c-4.51-0.1-9.25,3.67-9.37,7.46C330.66,431.03,333.04,433.11,336.49,433.13z M328.82,418.97
		c4.33,0.05,8.71-4.02,8.73-8.11c0.02-2.96-1.86-4.78-4.96-4.81c-4.7-0.06-8.6,3.58-8.62,8.02
		C323.96,417.11,325.77,418.94,328.82,418.97z M288.27,426.86c-0.8-2.33-1.21-4.31-2.11-6.03c-1.58-3-5.02-4.14-7.55-2.78
		c-2.95,1.58-3.91,4.78-2.06,7.98c0.97,1.67,2.31,3.36,3.91,4.34c1.41,0.86,3.75,1.44,5.06,0.83
		C286.85,430.56,287.41,428.32,288.27,426.86z M272.16,415.41c0.05-4.57-4.38-9.18-8.29-9.23c-3.34-0.04-5.33,1.77-5.34,4.84
		c-0.02,3.96,4.69,8.14,9.17,8.16C270.62,419.19,271.98,417.63,272.16,415.41z M260.09,433.28c3.61-0.04,5.68-1.73,5.61-4.56
		c-0.1-4.11-4.55-7.83-9.42-7.85c-3.53-0.02-5.27,1.59-5.23,4.83C251.09,429.87,255.22,433.34,260.09,433.28z M284.98,407.27
		c-1.3-2.65-2.06-5.23-3.64-7.14c-1.95-2.36-4.78-2.57-7.41-0.77c-2.65,1.82-2.77,4.36-1.3,6.9c0.98,1.69,2.17,3.47,3.71,4.58
		c1.46,1.05,3.95,2.2,5.2,1.62C283.07,411.75,283.76,409.27,284.98,407.27z M323.93,403.06c-0.1-3.29-2.94-5.54-6.07-4.82
		c-4.67,1.08-7.94,7.23-5.7,11.47c0.74,1.39,2.98,2.86,4.47,2.79C319.68,412.36,324.02,406.2,323.93,403.06z M255.38,437.62
		c-3.11-0.04-5.44,2-5.49,4.83c-0.07,3.78,4.04,7.82,8.01,7.87c3.11,0.04,5.33-1.96,5.42-4.87
		C263.44,441.56,259.5,437.68,255.38,437.62z M320.51,452.47c4.45-0.03,8.33-3.56,8.25-7.5c-0.06-2.74-2.59-5.04-5.47-4.97
		c-3.56,0.09-8.22,4.32-8.23,7.49C315.04,450.2,317.54,452.48,320.51,452.47z M320.5,422.63c-0.03-2.78-2.59-5.24-5.33-5.12
		c-3.31,0.15-7,4.97-6.89,9.05c0.07,2.74,1.36,4.54,4.22,4.71C315.71,431.47,320.54,426.16,320.5,422.63z M276.16,452.72
		c2.91,0.02,4.84-1.33,5.1-4.27c0.29-3.29-4.2-8-7.44-8.08c-3.48-0.09-6.02,2.04-6.13,5.12
		C267.57,449.24,271.61,452.69,276.16,452.72z M337.95,450.13c4.1,0.03,8.6-4.09,8.57-7.85c-0.02-2.96-1.91-4.74-5.01-4.73
		c-4.3,0.02-8.52,3.83-8.58,7.76C332.89,448.1,334.97,450.11,337.95,450.13z M303.28,461.55c0.02-3.09-2.33-5.38-5.46-5.32
		c-2.67,0.05-5.06,2.57-5.12,5.4c-0.07,2.76,2.33,5.21,5.14,5.26C300.94,466.94,303.26,464.66,303.28,461.55z"/>
	<path class="st0" d="M349.91,357.03c7.21,5.64,14.15,11.08,21.04,16.47c-2.42,4.19-4.38,7.8-6.55,11.28
		c-1.21,1.95-1.12,3.42,0.17,5.4c3.25,5.02,6.09,10.31,9.3,15.36c0.66,1.05,2.11,1.99,3.33,2.21c3.68,0.65,7.42,1,11.16,1.3
		c1.85,0.15,3.08,0.57,3.22,2.72c0.48,7.46,1.15,14.91,1.47,22.38c0.04,0.92-1.39,2.48-2.41,2.77c-4.32,1.23-9.82,0.84-12.81,3.44
		c-2.75,2.4-2.2,8.21-4.24,11.88c-4,7.18-3.31,13.25,2.36,19c2.54,2.57,2.03,4.9-0.56,7.25c-5.26,4.78-10.43,9.67-15.57,14.59
		c-1.41,1.35-2.53,1.42-4.21,0.33c-3.65-2.39-7.39-6.11-11.24-6.29c-3.63-0.18-7.36,3.67-11.2,5.4c-4.09,1.84-8.27,3.57-12.57,4.8
		c-2.41,0.68-3.17,1.77-3.42,4.04c-0.34,3.22-1.1,6.4-1.55,9.61c-0.29,2.02-1.19,2.91-3.33,3.22c-9.35,1.32-18.66,1.37-28.01,0.03
		c-2.1-0.3-3.07-1.08-3.35-3.17c-0.48-3.46-1.01-6.93-1.87-10.31c-0.29-1.16-1.42-2.49-2.51-3c-7.34-3.41-14.74-6.69-22.2-9.8
		c-1.24-0.52-3.14-0.54-4.3,0.05c-3.22,1.64-6.16,3.8-9.31,5.58c-0.79,0.45-2.33,0.68-2.92,0.23c-7.22-5.57-14.3-11.31-19.71-19.13
		c2.27-3.46,4.45-6.94,6.81-10.3c1.2-1.7,1.28-3.09,0.5-5.1c-2.06-5.34-4-10.77-5.4-16.32c-0.65-2.6-1.8-3.43-4.15-3.78
		c-3.33-0.5-6.61-1.31-9.94-1.86c-1.91-0.31-2.88-1.11-2.73-3.18c0.54-7.46,0.91-14.93,1.62-22.38c0.09-0.97,1.68-2.36,2.76-2.56
		c3.93-0.7,7.95-0.85,11.89-1.49c1.13-0.18,2.48-1.07,3.08-2.03c3.27-5.3,6.42-10.69,9.39-16.15c0.57-1.05,0.69-2.84,0.18-3.88
		c-1.92-3.91-4.18-7.65-6.68-12.11c6.73-5.34,13.63-10.82,20.89-16.58c3.41,3.67,6.54,6.86,9.44,10.24c1.46,1.7,2.61,1.86,4.74,1.02
		c5.33-2.09,10.83-3.77,16.28-5.53c3.36-1.09,4.77,0.51,5.15,3.78c0.49,4.19-1.09,7.53-4.38,9.72c-4.14,2.75-8.5,5.24-12.98,7.39
		c-17.49,8.38-28.74,21.64-32.46,40.88c-4.86,25.15,10.46,52.6,34.38,61.86c20.96,8.11,42.2,8.95,62.8-0.06
		c21-9.18,33.93-25.67,35.49-48.95c1.33-19.94-8.11-41.03-30.4-52.29c-5.66-2.86-11.12-6.13-16.45-9.57
		c-3.49-2.25-4.31-5.94-3.65-9.96c0.39-2.38,1.54-3.65,4.09-2.87c5.72,1.76,11.48,3.4,17.1,5.43c2.22,0.81,3.62,0.75,5.2-1.08
		C343.48,363.76,346.46,360.74,349.91,357.03z"/>
	<path d="M292.24,474.88c-1.39,0.04-2.88,0.4-4.16,0.04c-2.26-0.64-5.44-1.16-6.29-2.76c-0.84-1.58,0.15-4.81,1.35-6.67
		c2.28-3.53,5.3-6.57,7.97-9.86c3.7-4.56,8.89-4.91,12.91-0.63c2.98,3.18,5.72,6.58,8.55,9.9c1.83,2.15,3.53,4.48,1.96,7.42
		c-1.64,3.07-4.58,3.06-7.56,2.56c-0.47-0.08-0.93-0.25-1.54-0.42c2.4,3.51,5.27,4.51,10.34,3.32c8.45-1.99,15.96-5.96,22.06-12.11
		c6.23-6.27,10.65-13.83,13.43-22.24c2.81-8.51,1.14-16.51-3.26-24.09c-0.94-1.62-2.41-3.16-2.69-4.88
		c-1.69-10.26-9.08-14.96-17.59-18.71c-3.53-1.56-7.04-3.19-10.5-4.91c-5.88-2.93-10.38-1.54-11.2,4.88
		c-1.35,10.47-1.51,21.1-1.92,31.67c-0.12,3.08,0.37,6.25,1.06,9.27c0.45,1.95,1.77,3.7,2.7,5.53c1.77-1.23,3.7-2.28,5.28-3.72
		c2.61-2.38,4.89-5.12,7.54-7.45c0.76-0.67,2.33-0.7,3.46-0.56c0.53,0.07,1.27,1.22,1.3,1.9c0.02,0.68-0.63,1.9-1.16,2
		c-6.46,1.3-11.14,4.97-14.73,10.8c3.8,4.6,7.67,9.3,11.16,13.52c2.84-1.71,5.3-3.75,8.13-4.77c3.28-1.19,7.09,0.81,7.7,3.53
		c0.78,3.43-1.38,5.37-4.08,6.78c-4.61,2.4-9.1,1.4-12.43-2.58c-3.84-4.6-7.63-9.25-11.65-13.69c-3.22-3.55-5.17-7.54-5.87-12.28
		c-1.95-13.24-1.14-26.45,0.74-39.58c1.22-8.54,7.15-11.32,14.73-7.41c7.18,3.71,14.5,7.24,21.28,11.61
		c2.91,1.88,4.89,5.48,6.75,8.62c1.9,3.19,2.95,6.87,4.69,10.16c6.72,12.73,4.54,24.65-2.36,36.63
		c-6.64,11.52-16.24,19.17-28.47,23.66c-9.05,3.32-14.58,1.24-18.57-6.52c-0.47-0.92-0.23-2.22-0.32-3.34
		c1.14,0.22,2.33,0.3,3.42,0.68c1.62,0.56,3.11,1.7,4.75,1.91c2.77,0.35,4.11-1.79,2.52-4.02c-2.74-3.84-5.56-7.67-8.78-11.11
		c-3.3-3.53-7.68-2.91-10.6,0.94c-2.25,2.97-4.75,5.76-6.78,8.87c-0.8,1.21-0.64,3.05-0.91,4.61c1.63,0.07,3.42,0.6,4.84,0.1
		c1.65-0.58,2.97-2.07,4.63-3.31c2.08,3.25,0.26,4.99-1.9,6.63L292.24,474.88z M327.74,463.95c2.26-2,4.14-3.67,6.02-5.34
		c-0.96-0.71-1.86-1.9-2.91-2.04c-2.71-0.37-7.33,2.44-6.8,3.97C324.43,461.66,325.95,462.38,327.74,463.95z"/>
	<path d="M292.15,474.79c0.49,3.8-2.15,5.17-5.04,5.54c-2.79,0.35-5.88,0.39-8.51-0.47c-12.85-4.18-23.82-10.99-30.02-23.65
		c-2.46-5.02-5.27-10.01-6.74-15.34c-2.28-8.25,0.25-16.04,4.35-23.34c0.55-0.98,1.36-1.9,1.6-2.95
		c2.74-12.09,12.28-17.26,22.23-22.05c2.47-1.19,4.94-2.38,7.38-3.63c8.44-4.29,14.35-1.67,15.48,7.89
		c1.18,10.01,1.23,20.16,1.58,30.25c0.1,2.97-0.48,5.97-0.77,8.95c-0.47,4.81-2.73,8.59-6.09,12.08
		c-3.97,4.12-7.42,8.75-11.05,13.19c-3.94,4.81-10.64,5.62-14.81,1.41c-1.23-1.24-2.38-3.78-1.91-5.15
		c0.55-1.59,2.75-3.16,4.54-3.65c3.95-1.09,7.79,1.5,9.78,6.12c2.06-2.41,4.04-4.7,5.98-7.01c2-2.37,3.96-4.77,5.9-7.11
		c-2.51-3.68-4.66-7.17-9.62-7.71c-2.03-0.22-4.01-1.94-5.75-3.31c-0.87-0.68-1.14-2.12-1.68-3.21c0.34-0.33,0.69-0.66,1.03-0.98
		c6.19,3.97,12.38,7.93,19.17,12.29c0.56-1.41,1.52-2.96,1.77-4.61c2.01-13.06,1.63-26.14,0.08-39.21c-0.09-0.74-0.23-1.48-0.41-2.2
		c-1.92-7.64-5.56-9.3-12.62-5.73c-5.45,2.76-10.91,5.51-16.32,8.36c-5.1,2.68-8.36,6.94-10.45,12.27
		c-1.26,3.23-2.65,6.45-4.33,9.49c-3.65,6.58-4.93,13.63-2.34,20.58c3.97,10.69,8.87,21.17,18.82,27.71
		c5.15,3.39,10.99,5.86,16.77,8.1c4.34,1.68,8.62,0.43,12.12-2.83C292.24,474.88,292.15,474.79,292.15,474.79z M273.31,460
		c-2.85-1.27-5.35-2.91-8.06-3.44c-2.39-0.47-3.5,1.65-2.29,3.5C265.1,463.3,269.94,463.6,273.31,460z"/>
	<path d="M336.49,433.13c-3.45-0.02-5.83-2.1-5.73-5.02c0.12-3.79,4.86-7.56,9.37-7.46c3.08,0.07,4.95,1.9,4.95,4.86
		C345.07,429.57,341.04,433.16,336.49,433.13z M342.2,424.69c-0.66-0.34-2.07-1.58-2.64-1.27c-2.09,1.14-3.91,2.8-5.83,4.26
		c0.99,0.83,1.91,2.23,3,2.38C339.19,430.4,342.26,427.6,342.2,424.69z"/>
	<path d="M328.82,418.97c-3.05-0.03-4.86-1.86-4.85-4.9c0.02-4.45,3.92-8.08,8.62-8.02c3.1,0.04,4.98,1.86,4.96,4.81
		C337.53,414.96,333.15,419.02,328.82,418.97z M332.01,407.3c-2.17,2.57-3.76,4.35-5.12,6.3c-0.09,0.13,1.52,2.08,2.43,2.15
		c2.56,0.21,5.47-2.58,5.18-4.8C334.37,410.04,333.38,409.24,332.01,407.3z"/>
	<path d="M288.27,426.86c-0.85,1.46-1.42,3.7-2.75,4.33c-1.31,0.62-3.65,0.03-5.06-0.83c-1.6-0.98-2.95-2.67-3.91-4.34
		c-1.86-3.2-0.89-6.4,2.06-7.98c2.53-1.35,5.97-0.22,7.55,2.78C287.06,422.55,287.47,424.52,288.27,426.86z M282.63,429.35
		c2.72-3.61,2.07-6.94-0.36-8.29c-0.82-0.45-2.64-0.59-2.95-0.14c-0.57,0.81-0.8,2.41-0.36,3.26
		C279.91,426.04,281.37,427.64,282.63,429.35z"/>
	<path d="M272.16,415.41c-0.17,2.23-1.54,3.78-4.46,3.77c-4.48-0.02-9.19-4.2-9.17-8.16c0.01-3.07,2-4.87,5.34-4.84
		C267.78,406.22,272.2,410.84,272.16,415.41z M263.61,409c-0.4,0.35-1.74,0.99-2.06,1.96c-0.6,1.83,2.84,4.99,5.47,5.02
		c0.76,0.01,2.04-0.88,2.19-1.55C269.72,412.25,267.02,409.34,263.61,409z"/>
	<path d="M260.09,433.28c-4.87,0.06-9-3.41-9.04-7.59c-0.03-3.24,1.71-4.85,5.23-4.83c4.86,0.03,9.31,3.74,9.42,7.85
		C265.77,431.55,263.7,433.24,260.09,433.28z M260.77,430.23c0.35-0.44,1.66-1.36,1.77-2.41c0.21-2.02-3.59-4.68-6.16-4.27
		c-1.02,0.16-2.51,1.35-2.67,2.26C253.35,427.91,256.86,430.31,260.77,430.23z"/>
	<path d="M284.98,407.27c-1.23,2.01-1.91,4.49-3.42,5.18c-1.26,0.58-3.74-0.57-5.2-1.62c-1.55-1.11-2.73-2.88-3.71-4.58
		c-1.47-2.55-1.35-5.09,1.3-6.9c2.63-1.8,5.46-1.59,7.41,0.77C282.92,402.03,283.68,404.61,284.98,407.27z M281.45,408.27
		c0.04-3.81-2.19-7.27-4.25-7.04c-0.9,0.1-2.48,1.9-2.39,2.05c1.54,2.38,3.3,4.62,5.01,6.88
		C280.51,409.36,281.21,408.55,281.45,408.27z"/>
	<path d="M323.93,403.06c0.09,3.14-4.24,9.3-7.31,9.44c-1.49,0.07-3.74-1.4-4.47-2.79c-2.24-4.24,1.03-10.39,5.7-11.47
		C320.99,397.52,323.83,399.77,323.93,403.06z M314.14,408.11c0.35,0.29,1.15,0.95,1.94,1.62c1.62-2.08,3.3-4.11,4.73-6.3
		c0.13-0.2-1.35-2.05-2.2-2.15C316.36,401.01,314.03,404.32,314.14,408.11z"/>
	<path d="M255.38,437.62c4.12,0.06,8.06,3.94,7.94,7.82c-0.09,2.92-2.31,4.92-5.42,4.87c-3.97-0.05-8.08-4.09-8.01-7.87
		C249.94,439.63,252.26,437.58,255.38,437.62z M260.76,445.9c0.11-0.5,0.23-1.01,0.34-1.51c-1.71-1.31-3.29-2.89-5.19-3.8
		c-0.62-0.3-2.06,1.13-3.12,1.77c1.59,1.68,3.05,3.53,4.86,4.92C258.08,447.61,259.69,446.4,260.76,445.9z"/>
	<path d="M320.51,452.47c-2.97,0.02-5.47-2.26-5.46-4.98c0.02-3.17,4.67-7.4,8.23-7.49c2.88-0.07,5.41,2.23,5.47,4.97
		C328.84,448.9,324.96,452.44,320.51,452.47z M326.46,445.92c-0.1-0.49-0.21-0.98-0.31-1.47c-0.92-0.5-2.27-1.66-2.69-1.39
		c-1.96,1.25-3.66,2.91-5.45,4.42c0.94,0.74,2.25,2.31,2.75,2.09C322.79,448.65,324.58,447.18,326.46,445.92z"/>
	<path d="M320.5,422.63c0.04,3.53-4.79,8.84-8.01,8.64c-2.86-0.17-4.15-1.97-4.22-4.71c-0.11-4.08,3.59-8.91,6.89-9.05
		C317.9,417.39,320.46,419.85,320.5,422.63z M310.08,425.07c1.09,1.66,1.64,2.49,2.18,3.31c1.66-1.8,3.45-3.5,4.88-5.48
		c0.26-0.36-0.95-1.79-1.48-2.73C313.87,421.74,312.09,423.3,310.08,425.07z"/>
	<path d="M276.16,452.72c-4.55-0.03-8.59-3.48-8.46-7.23c0.11-3.08,2.65-5.21,6.13-5.12c3.24,0.08,7.73,4.78,7.44,8.08
		C281.01,451.39,279.07,452.74,276.16,452.72z M273.36,441.71c-1.31,2.02-2.63,3.78-2.5,3.9c1.71,1.51,3.58,2.87,5.56,4.02
		c0.23,0.13,2.02-1.73,1.94-1.84C277.01,445.93,275.49,444.21,273.36,441.71z"/>
	<path d="M337.95,450.13c-2.97-0.02-5.06-2.03-5.01-4.82c0.06-3.93,4.28-7.75,8.58-7.76c3.1-0.01,4.98,1.77,5.01,4.73
		C346.54,446.05,342.05,450.17,337.95,450.13z M338.31,448.73c2.16-2.5,3.82-4.42,5.48-6.35c-0.9-0.76-1.75-2.1-2.71-2.18
		c-2.41-0.21-5.77,3.07-5.39,5.13C335.86,446.26,336.95,447.03,338.31,448.73z"/>
	<path d="M303.28,461.55c-0.02,3.11-2.35,5.39-5.44,5.33c-2.81-0.05-5.2-2.5-5.14-5.26c0.07-2.83,2.46-5.35,5.12-5.4
		C300.95,456.17,303.31,458.46,303.28,461.55z M301.18,461.45c-1.42-1.24-2.61-2.72-2.99-2.54c-1.02,0.5-2.21,1.64-2.35,2.66
		c-0.1,0.75,1.36,2.43,2.08,2.41C298.86,463.95,299.76,462.63,301.18,461.45z"/>
	<path class="st0" d="M327.74,463.95c-1.79-1.58-3.31-2.3-3.69-3.41c-0.53-1.53,4.09-4.34,6.8-3.97c1.04,0.14,1.94,1.33,2.91,2.04
		C331.88,460.28,330,461.95,327.74,463.95z"/>
	<path class="st0" d="M273.31,460c-3.37,3.61-8.22,3.3-10.35,0.06c-1.22-1.85-0.11-3.97,2.29-3.5
		C267.97,457.09,270.46,458.72,273.31,460z"/>
	<path class="st0" d="M342.2,424.69c0.06,2.91-3.01,5.71-5.47,5.38c-1.09-0.15-2-1.55-3-2.38c1.92-1.46,3.73-3.12,5.83-4.26
		C340.13,423.11,341.55,424.35,342.2,424.69z"/>
	<path class="st0" d="M332.01,407.3c1.36,1.94,2.36,2.74,2.48,3.66c0.29,2.22-2.62,5-5.18,4.8c-0.9-0.07-2.52-2.03-2.43-2.15
		C328.25,411.66,329.84,409.87,332.01,407.3z"/>
	<path class="st0" d="M282.63,429.35c-1.26-1.71-2.72-3.31-3.67-5.17c-0.44-0.85-0.2-2.45,0.36-3.26c0.31-0.45,2.13-0.31,2.95,0.14
		C284.69,422.4,285.35,425.74,282.63,429.35z"/>
	<path class="st0" d="M263.61,409c3.4,0.34,6.11,3.25,5.61,5.43c-0.16,0.68-1.44,1.56-2.19,1.55c-2.64-0.03-6.08-3.19-5.47-5.02
		C261.87,409.99,263.22,409.35,263.61,409z"/>
	<path class="st0" d="M260.77,430.23c-3.91,0.08-7.42-2.32-7.06-4.42c0.16-0.91,1.64-2.1,2.67-2.26c2.58-0.41,6.37,2.25,6.16,4.27
		C262.43,428.86,261.12,429.79,260.77,430.23z"/>
	<path class="st0" d="M281.45,408.27c-0.24,0.28-0.94,1.09-1.63,1.89c-1.71-2.27-3.47-4.51-5.01-6.88
		c-0.09-0.14,1.48-1.95,2.39-2.05C279.26,401,281.49,404.46,281.45,408.27z"/>
	<path class="st0" d="M314.14,408.11c-0.11-3.79,2.22-7.1,4.48-6.83c0.85,0.1,2.33,1.95,2.2,2.15c-1.43,2.2-3.12,4.23-4.73,6.3
		C315.29,409.06,314.5,408.4,314.14,408.11z"/>
	<path class="st0" d="M260.76,445.9c-1.07,0.5-2.68,1.71-3.11,1.38c-1.81-1.39-3.27-3.24-4.86-4.92c1.07-0.64,2.51-2.07,3.12-1.77
		c1.9,0.91,3.48,2.48,5.19,3.8C260.99,444.89,260.88,445.39,260.76,445.9z"/>
	<path class="st0" d="M326.46,445.92c-1.88,1.26-3.67,2.73-5.7,3.65c-0.5,0.23-1.81-1.34-2.75-2.09c1.79-1.51,3.49-3.17,5.45-4.42
		c0.43-0.27,1.77,0.89,2.69,1.39C326.25,444.93,326.35,445.43,326.46,445.92z"/>
	<path class="st0" d="M310.08,425.07c2.01-1.76,3.79-3.33,5.57-4.89c0.53,0.94,1.75,2.37,1.48,2.73c-1.42,1.97-3.21,3.68-4.88,5.48
		C311.72,427.56,311.18,426.73,310.08,425.07z"/>
	<path class="st0" d="M273.36,441.71c2.13,2.51,3.65,4.23,5,6.08c0.08,0.11-1.71,1.98-1.94,1.84c-1.98-1.15-3.85-2.51-5.56-4.02
		C270.73,445.49,272.05,443.73,273.36,441.71z"/>
	<path class="st0" d="M338.31,448.73c-1.36-1.7-2.45-2.46-2.62-3.4c-0.38-2.06,2.97-5.34,5.39-5.13c0.96,0.08,1.81,1.42,2.71,2.18
		C342.13,444.3,340.47,446.23,338.31,448.73z"/>
	<path class="st0" d="M301.18,461.45c-1.43,1.19-2.32,2.5-3.26,2.53c-0.72,0.02-2.18-1.66-2.08-2.41c0.14-1.02,1.32-2.16,2.35-2.66
		C298.58,458.72,299.77,460.2,301.18,461.45z"/>
</g>
</svg>
