<?xml version="1.0" encoding="utf-8"?>
<!-- Generator: Adobe Illustrator 23.0.1, SVG Export Plug-In . SVG Version: 6.00 Build 0)  -->
<svg version="1.1" id="Layer_1" xmlns="http://www.w3.org/2000/svg" xmlns:xlink="http://www.w3.org/1999/xlink" x="0px" y="0px"
	 viewBox="0 0 595.28 841.89" style="enable-background:new 0 0 595.28 841.89;" xml:space="preserve">
<style type="text/css">
	.st0{fill:#FFFFFF;}
</style>
<g>
	<path class="st0" d="M208.5,491.64c0-46.5,0-93,0-139.5c60,0,120,0,180,0c0,46.5,0,93,0,139.5
		C328.5,491.64,268.5,491.64,208.5,491.64z M322.44,411.25c-5.08,1.05-10.55,1.76-15.77,3.32c-15.94,4.77-30.34,12.37-40.98,25.51
		c-8.08,9.99-7.05,16.2-0.78,25.03c13.45,18.94,39.26,25.17,59.27,14.13c20.21-11.15,28.34-35.45,19.2-57.23
		c-1.97-4.7-5.25-7.91-10.2-9.07C329.81,412.15,326.32,411.84,322.44,411.25z M257.24,445.83c-1.48-0.43-2.94-0.9-4.43-1.3
		c-19.02-5.1-31.45-23.55-29.19-43.33c2.23-19.55,19.23-35.04,38.88-35.45c22.97-0.48,41.23,17.47,41.42,40.67
		c0.01,1.41,0.29,2.83,0.44,4.24c4.64-7.53-1.12-26.96-12.64-36.95c-15.6-13.54-39.38-13.94-55.43-0.55
		c-16.34,13.63-20.14,37.1-8.95,55.24C234.25,439.59,250.39,449.55,257.24,445.83z M266,398.97c-2.18-1.96-5.05-4.35-7.69-6.99
		c-1.82-1.82-3.19-1.81-4.97,0.02c-4.45,4.56-9.04,8.98-13.52,13.51c-0.67,0.68-1.07,1.64-1.6,2.46c0.39,0.35,0.77,0.7,1.16,1.05
		c5.47-5.22,10.93-10.43,16.58-15.83c2.34,2.14,4.54,4.14,6.73,6.15c4.17,3.83,4.12,3.78,8.27-0.13c4.24-3.99,8.6-7.86,12.68-11.58
		c0.25,0.64,0.76,1.99,1.45,3.81c3.29-6.05,1.53-9.75-4.1-9.77c-1.47-0.01-2.93,0.92-4.4,1.42c1.4,0.46,2.79,0.92,4.19,1.39
		c0.08,0.03,0.13,0.17,0.26,0.38C276.19,389.42,271.32,393.98,266,398.97z M260.24,415.13c0.01,0,0.03,0,0.04,0
		c0-2.86-0.13-5.72,0.03-8.57c0.21-3.78-2.36-3.38-4.73-3.4c-2.26-0.02-4.56-0.38-4.45,3.22c0.17,5.46,0.18,10.94-0.06,16.4
		c-0.17,3.96,2.33,3.55,4.87,3.67c2.83,0.14,4.59-0.52,4.34-3.86C260.09,420.11,260.24,417.61,260.24,415.13z M264.34,416.49
		c0.01,0,0.03,0,0.04,0c0,2.25,0.05,4.5-0.01,6.75c-0.1,3.51,2.36,3.15,4.64,3.19c2.38,0.04,4.63,0.1,4.55-3.32
		c-0.09-4.12-0.08-8.25-0.01-12.37c0.04-2.52-1.03-3.56-3.58-3.64c-5.16-0.15-5.66,0.23-5.63,5.26
		C264.34,413.74,264.34,415.11,264.34,416.49z M285.14,418.57c0.55-0.08,1.11-0.15,1.66-0.23c0-5.92-0.15-11.84,0.05-17.75
		c0.13-4.01-2.43-3.49-4.96-3.58c-2.66-0.1-4.56,0.1-4.47,3.66c0.18,6.98-0.04,13.98-0.03,20.97c0,0.74,0.4,1.49,0.92,3.27
		c2.68-4.69,1.31-8.79,1.53-12.63c0.24-4.19,0.05-8.4,0.05-12.62c1.72,0,2.91,0,4.4,0c0,5.29-0.05,10.39,0.04,15.48
		C284.35,416.27,284.86,417.42,285.14,418.57z M246.88,419.82c-0.03-6.16-0.03-6.16-3.72-6.31c-5.27-0.21-5.34-0.15-5.36,5.3
		c-0.01,1.62-0.15,3.26,0.05,4.86c0.11,0.87,0.57,2.05,1.26,2.45c3.76,2.18,7.78-0.18,7.78-4.44
		C246.88,421.06,246.89,420.44,246.88,419.82z"/>
	<path d="M322.44,411.25c3.88,0.59,7.37,0.9,10.74,1.69c4.95,1.16,8.23,4.37,10.2,9.07c9.13,21.78,1,46.08-19.2,57.23
		c-20.01,11.04-45.82,4.81-59.27-14.13c-6.27-8.83-7.3-15.04,0.78-25.03c10.63-13.14,25.04-20.75,40.98-25.51
		C311.89,413.01,317.36,412.29,322.44,411.25z M269.4,466.3c10.47,15.32,34.92,20.6,52.93,11.16
		c19.08-10.01,25.88-32.45,20.92-46.78C325.39,456.4,300.49,467.62,269.4,466.3z M324.26,413.87
		c-21.98,1.87-39.94,10.19-54.66,25.21c-2.71,2.77-4.82,6.43-6.3,10.05c-2.68,6.58,0.13,12.07,7,13.92
		c3.43,0.93,7.18,1.34,10.72,1.08c18.44-1.35,34.53-8.73,48.35-20.69c4.31-3.73,7.72-8.85,10.47-13.91
		c3.18-5.84,0.74-11.2-5.55-13.48C330.85,414.79,327.06,414.45,324.26,413.87z"/>
	<path d="M257.24,445.83c-6.86,3.72-23-6.23-29.91-17.43c-11.19-18.14-7.39-41.61,8.95-55.24c16.05-13.39,39.83-12.98,55.43,0.55
		c11.52,10,17.28,29.42,12.64,36.95c-0.15-1.41-0.43-2.83-0.44-4.24c-0.19-23.21-18.45-41.15-41.42-40.67
		c-19.65,0.41-36.65,15.91-38.88,35.45c-2.26,19.78,10.18,38.23,29.19,43.33C254.3,444.93,255.77,445.39,257.24,445.83z"/>
	<path d="M266,398.97c5.32-4.98,10.19-9.55,15.04-14.09c-0.14-0.21-0.18-0.35-0.26-0.38c-1.39-0.47-2.79-0.93-4.19-1.39
		c1.47-0.5,2.94-1.43,4.4-1.42c5.63,0.02,7.4,3.73,4.1,9.77c-0.7-1.83-1.21-3.17-1.45-3.81c-4.09,3.72-8.44,7.59-12.68,11.58
		c-4.15,3.9-4.1,3.96-8.27,0.13c-2.19-2.01-4.39-4.01-6.73-6.15c-5.65,5.39-11.11,10.61-16.58,15.83c-0.39-0.35-0.77-0.7-1.16-1.05
		c0.53-0.83,0.93-1.78,1.6-2.46c4.48-4.53,9.08-8.95,13.52-13.51c1.78-1.83,3.15-1.85,4.97-0.02
		C260.95,394.61,263.82,397.01,266,398.97z"/>
	<path d="M260.24,415.13c0,2.48-0.15,4.98,0.04,7.45c0.25,3.34-1.51,4-4.34,3.86c-2.54-0.12-5.04,0.29-4.87-3.67
		c0.24-5.46,0.23-10.93,0.06-16.4c-0.11-3.59,2.18-3.24,4.45-3.22c2.37,0.02,4.95-0.39,4.73,3.4c-0.16,2.85-0.03,5.71-0.03,8.57
		C260.27,415.13,260.25,415.13,260.24,415.13z M257.88,423.79c0-5.25-0.1-10.11,0.03-14.95c0.09-3.44-1.52-3.65-4.1-2.75
		c0,5.99,0,11.79,0,17.71C255.18,423.79,256.27,423.79,257.88,423.79z"/>
	<path d="M264.34,416.49c0-1.37,0.01-2.75,0-4.12c-0.03-5.04,0.47-5.41,5.63-5.26c2.55,0.07,3.62,1.12,3.58,3.64
		c-0.07,4.12-0.08,8.25,0.01,12.37c0.07,3.41-2.18,3.36-4.55,3.32c-2.28-0.04-4.74,0.32-4.64-3.19c0.06-2.25,0.01-4.5,0.01-6.75
		C264.36,416.49,264.35,416.49,264.34,416.49z M267.08,410.04c0,4.76,0,9.16,0,13.67c1.38,0,2.52,0,3.69,0c0-4.67,0-9.08,0-13.67
		C269.47,410.04,268.42,410.04,267.08,410.04z"/>
	<path d="M285.14,418.57c-0.28-1.15-0.79-2.3-0.81-3.45c-0.09-5.09-0.04-10.18-0.04-15.48c-1.49,0-2.68,0-4.4,0
		c0,4.23,0.19,8.44-0.05,12.62c-0.22,3.85,1.16,7.94-1.53,12.63c-0.51-1.78-0.92-2.52-0.92-3.27c-0.01-6.99,0.2-13.98,0.03-20.97
		c-0.09-3.56,1.81-3.75,4.47-3.66c2.53,0.09,5.09-0.43,4.96,3.58c-0.2,5.91-0.05,11.83-0.05,17.75
		C286.25,418.41,285.69,418.49,285.14,418.57z"/>
	<path d="M246.88,419.82c0,0.62,0,1.25,0.01,1.87c0,4.26-4.01,6.62-7.78,4.44c-0.68-0.39-1.15-1.58-1.26-2.45
		c-0.2-1.6-0.05-3.24-0.05-4.86c0.02-5.45,0.09-5.51,5.36-5.3C246.84,413.65,246.84,413.65,246.88,419.82z M240.46,416.1
		c0,2.72,0,5.12,0,7.61c1.41,0,2.56,0,3.77,0c0-2.65,0-5.06,0-7.61C242.92,416.1,241.84,416.1,240.46,416.1z"/>
	<path class="st0" d="M269.4,466.3c31.09,1.32,56-9.9,73.85-35.62c4.96,14.33-1.84,36.77-20.92,46.78
		C304.32,486.9,279.86,481.62,269.4,466.3z"/>
	<path class="st0" d="M324.26,413.87c2.81,0.58,6.59,0.93,10.05,2.18c6.29,2.29,8.73,7.64,5.55,13.48
		c-2.76,5.06-6.17,10.18-10.47,13.91c-13.82,11.96-29.91,19.34-48.35,20.69c-3.54,0.26-7.29-0.15-10.72-1.08
		c-6.87-1.86-9.68-7.34-7-13.92c1.47-3.62,3.58-7.28,6.3-10.05C284.32,424.06,302.28,415.73,324.26,413.87z M292.7,459.69
		c0.09,0.3,0.18,0.6,0.27,0.89c6.84-1.99,14.19-2.8,19.32-8.74c0.42-0.49,1.25-0.61,1.87-0.94c3.95-2.04,8.46-3.44,11.68-6.3
		c3.94-3.5,6.87-8.17,10.1-12.43c2.55-3.37,0.25-6.35-0.72-9.63c-0.91-3.08-2.53-5.22-5.35-5.49c-5.38-0.51-10.9-0.92-16.22-0.26
		c-4.77,0.59-9.2,3.08-13.97,4.35c-5.57,1.47-11.59,3.42-14.69,9.35c-0.17,0.32-0.9,0.3-1.3,0.54c-3.07,1.83-6.56,3.23-9.07,5.65
		c-2.36,2.26-3.45,5.78-5.52,8.42c-2.42,3.08-5.09,6.3-2.35,9.97c2.13,2.85,4.15,6.61,8.65,6.7c2.48,0.05,4.99,0.36,7.42,0.04
		C286.14,461.36,289.4,460.42,292.7,459.69z"/>
	<path class="st0" d="M257.88,423.79c-1.6,0-2.7,0-4.07,0c0-5.92,0-11.72,0-17.71c2.58-0.9,4.2-0.69,4.1,2.75
		C257.78,413.69,257.88,418.54,257.88,423.79z"/>
	<path class="st0" d="M267.08,410.04c1.34,0,2.39,0,3.69,0c0,4.6,0,9,0,13.67c-1.17,0-2.31,0-3.69,0
		C267.08,419.2,267.08,414.8,267.08,410.04z"/>
	<path class="st0" d="M240.46,416.1c1.38,0,2.46,0,3.77,0c0,2.55,0,4.95,0,7.61c-1.21,0-2.36,0-3.77,0
		C240.46,421.22,240.46,418.82,240.46,416.1z"/>
	<path d="M292.7,459.69c-3.29,0.73-6.56,1.67-9.89,2.11c-2.43,0.33-4.94,0.01-7.42-0.04c-4.5-0.1-6.52-3.85-8.65-6.7
		c-2.74-3.67-0.07-6.89,2.35-9.97c2.07-2.64,3.17-6.15,5.52-8.42c2.51-2.41,6-3.82,9.07-5.65c0.41-0.24,1.14-0.22,1.3-0.54
		c3.1-5.93,9.12-7.88,14.69-9.35c4.77-1.26,9.2-3.75,13.97-4.35c5.32-0.66,10.84-0.25,16.22,0.26c2.82,0.27,4.44,2.4,5.35,5.49
		c0.97,3.28,3.27,6.26,0.72,9.63c-3.23,4.27-6.16,8.93-10.1,12.43c-3.22,2.86-7.74,4.26-11.68,6.3c-0.62,0.32-1.45,0.45-1.87,0.94
		c-5.14,5.94-12.48,6.76-19.32,8.74C292.87,460.29,292.78,459.99,292.7,459.69z M290.91,457.42c4.29,1.12,16.76-2.88,18.58-5.82
		c0.39-0.63,0.14-2.14-0.39-2.77c-1.51-1.8-3.5-3.21-4.95-5.04c-2-2.53-4.12-1.37-5.22,0.23
		C296.02,448.25,293.6,452.84,290.91,457.42z M328.1,439.27c-0.12-0.38-0.25-0.76-0.37-1.14c-6.79,0.35-13.58,0.65-20.36,1.12
		c-0.83,0.06-1.6,1.02-2.58,1.68c2.49,2.46,4.44,4.55,6.58,6.44c0.75,0.66,2.11,1.37,2.91,1.13
		C319.83,446.83,324.54,443.84,328.1,439.27z M296.06,444.02c-0.2-0.26-0.4-0.51-0.6-0.77c-7.71,4.8-15.42,9.6-23.13,14.39
		c0.01,0.4,0.02,0.8,0.03,1.2c2.96,0.34,5.97,1.18,8.86,0.89c2.54-0.26,5.83-1.11,7.25-2.9
		C291.52,452.98,293.59,448.34,296.06,444.02z M292.65,442.25c-0.1-0.28-0.2-0.56-0.3-0.85c-5.94,1.25-11.86,2.7-17.85,3.66
		c-3.5,0.56-5.37,2.51-6.22,5.56c-0.32,1.14-0.1,3.01,0.65,3.69c0.72,0.65,2.74,0.69,3.68,0.14
		C279.37,450.51,285.99,446.34,292.65,442.25z M308.22,433.34c0.25,0.28,0.51,0.56,0.76,0.83c7.44-3.35,14.88-6.7,22.31-10.07
		c1.89-0.86,1.85-2.16,0.63-3.55c-1.57-1.79-6.89-2.64-8.7-1.05C318.12,424,313.21,428.72,308.22,433.34z M310.51,435.96
		c5.36,0,10.68,0.04,16.01-0.01c3.98-0.04,7.39-2.78,8.25-6.7c0.21-0.95,0.01-2.26-0.55-3c-0.3-0.4-1.85-0.16-2.66,0.19
		c-5.59,2.44-11.14,4.99-16.7,7.51C313.33,434.64,311.82,435.35,310.51,435.96z M304.28,422.87c-4.48-0.57-13.79,3.88-16.46,7.95
		c3.03,1.51,5.93,3.28,9.07,4.33c1.12,0.37,3.67-0.64,4.11-1.65C302.45,430.12,303.24,426.46,304.28,422.87z M272.68,442.11
		c0.19,0.38,0.38,0.76,0.57,1.14c7.29-1.65,14.59-3.29,21.88-4.94c-0.04-0.44-0.08-0.89-0.12-1.33c-4.06-0.98-7.08-5.47-11.91-3.61
		C278.66,435.08,275.1,438.05,272.68,442.11z M320.79,418.47c-10.3-1.25-15.84,3.89-16.76,15.64
		C309.76,428.76,315.16,423.72,320.79,418.47z M304.92,436.95c-3.78-1.24-6.22,0.96-8.54,3.51
		C300.04,441.57,302.59,439.57,304.92,436.95z"/>
	<path class="st0" d="M290.91,457.42c2.69-4.58,5.1-9.16,8.02-13.41c1.1-1.6,3.21-2.76,5.22-0.23c1.45,1.84,3.44,3.24,4.95,5.04
		c0.53,0.63,0.78,2.14,0.39,2.77C307.67,454.54,295.2,458.53,290.91,457.42z"/>
	<path class="st0" d="M328.1,439.27c-3.55,4.57-8.27,7.56-13.82,9.23c-0.8,0.24-2.16-0.47-2.91-1.13c-2.14-1.88-4.09-3.97-6.58-6.44
		c0.98-0.66,1.75-1.62,2.58-1.68c6.78-0.47,13.57-0.77,20.36-1.12C327.85,438.51,327.97,438.89,328.1,439.27z"/>
	<path class="st0" d="M296.06,444.02c-2.47,4.32-4.54,8.96-7.59,12.81c-1.43,1.8-4.71,2.64-7.25,2.9c-2.89,0.3-5.9-0.54-8.86-0.89
		c-0.01-0.4-0.02-0.8-0.03-1.2c7.71-4.8,15.42-9.6,23.13-14.39C295.65,443.51,295.86,443.76,296.06,444.02z"/>
	<path class="st0" d="M292.65,442.25c-6.66,4.09-13.28,8.26-20.03,12.2c-0.94,0.55-2.96,0.51-3.68-0.14
		c-0.75-0.68-0.97-2.55-0.65-3.69c0.85-3.05,2.72-5,6.22-5.56c5.99-0.96,11.9-2.41,17.85-3.66
		C292.45,441.69,292.55,441.97,292.65,442.25z"/>
	<path class="st0" d="M308.22,433.34c4.99-4.63,9.9-9.34,15.01-13.83c1.8-1.59,7.13-0.73,8.7,1.05c1.22,1.39,1.26,2.69-0.63,3.55
		c-7.43,3.37-14.88,6.71-22.31,10.07C308.73,433.9,308.47,433.62,308.22,433.34z"/>
	<path class="st0" d="M310.51,435.96c1.31-0.61,2.82-1.32,4.35-2.01c5.56-2.52,11.11-5.06,16.7-7.51c0.81-0.35,2.36-0.59,2.66-0.19
		c0.55,0.74,0.76,2.05,0.55,3c-0.86,3.92-4.27,6.65-8.25,6.7C321.2,436.01,315.87,435.96,310.51,435.96z"/>
	<path class="st0" d="M304.28,422.87c-1.05,3.59-1.83,7.25-3.28,10.63c-0.43,1.01-2.99,2.03-4.11,1.65
		c-3.14-1.05-6.04-2.83-9.07-4.33C290.49,426.75,299.8,422.3,304.28,422.87z"/>
	<path class="st0" d="M272.68,442.11c2.42-4.06,5.98-7.03,10.42-8.74c4.83-1.86,7.85,2.63,11.91,3.61c0.04,0.44,0.08,0.89,0.12,1.33
		c-7.29,1.65-14.59,3.29-21.88,4.94C273.07,442.88,272.87,442.5,272.68,442.11z"/>
	<path class="st0" d="M320.79,418.47c-5.62,5.25-11.02,10.28-16.76,15.64C304.95,422.36,310.49,417.22,320.79,418.47z"/>
	<path class="st0" d="M304.92,436.95c-2.33,2.63-4.88,4.62-8.54,3.51C298.7,437.91,301.14,435.71,304.92,436.95z"/>
</g>
</svg>
