<?xml version="1.0" encoding="utf-8"?>
<!-- Generator: Adobe Illustrator 23.0.1, SVG Export Plug-In . SVG Version: 6.00 Build 0)  -->
<svg version="1.1" id="Layer_1" xmlns="http://www.w3.org/2000/svg" xmlns:xlink="http://www.w3.org/1999/xlink" x="0px" y="0px"
	 viewBox="0 0 595.28 841.89" style="enable-background:new 0 0 595.28 841.89;" xml:space="preserve">
<style type="text/css">
	.st0{fill:#FFFFFF;}
</style>
<g>
	<path class="st0" d="M386.06,499.89c-58.29,0-116.4,0-174.53,0c0-52.21,0-104.43,0-156.7c58.17,0,116.36,0,174.53,0
		C386.06,395.39,386.06,447.64,386.06,499.89z M319.88,437.89c-0.01,0-0.8,0.33-1.61,0.58c-11.32,3.55-16.77,11.96-15.34,23.7
		c2.09,17.11,19.89,30.06,37.07,26.96c17.91-3.23,29.75-20.43,25.67-37.66c-4.96-20.95-24.2-29.36-39.05-16.41
		c-2.51,2.19-3.88,0.78-5.34-1.26c-10.29-14.28-16.06-30.37-19.04-47.56c-0.4-2.33-0.62-4.7-0.86-7.06
		c-0.22-2.21-0.36-4.42-0.54-6.63c4.88,10.46,11.35,19.14,21.51,24.55c10.03,5.35,20.71,7.36,33.18,5.64
		c-2.63-5.87-4.6-11.24-7.34-16.18c-9.93-17.91-25.52-25.57-45.72-24.59c-2.46,0.12-3.55,1.08-3.9,3.48
		c-0.67,4.57-1.59,9.1-2.33,13.66c-2.56,15.83-6.05,31.41-13.03,45.97c-1.9,3.97-4.33,7.69-6.64,11.76
		c-1.97-1.45-3.36-2.51-4.77-3.51c-8.78-6.25-19.26-5.85-27.15,1.48c-9.32,8.65-12.4,19.46-9.34,31.74
		c3.51,14.06,17.31,23.62,32.54,22.97c14.17-0.61,27.4-12.14,29.98-26.12c2.2-11.92-3.82-21.66-15.44-25.04
		c-1.02-0.3-2.03-0.66-3.26-1.07c11.36-17,15.89-36.13,19.2-55.1c2.62,9.43,4.6,19.36,8.2,28.67
		C310.09,420.17,315.32,428.85,319.88,437.89z"/>
	<path d="M319.88,437.89c-4.56-9.04-9.79-17.73-13.39-27.04c-3.6-9.31-5.58-19.24-8.2-28.67c-3.31,18.97-7.83,38.1-19.2,55.1
		c1.24,0.41,2.24,0.78,3.26,1.07c11.63,3.38,17.64,13.12,15.44,25.04c-2.58,13.99-15.8,25.51-29.98,26.12
		c-15.22,0.66-29.03-8.91-32.54-22.97c-3.06-12.28,0.02-23.09,9.34-31.74c7.9-7.33,18.37-7.73,27.15-1.48
		c1.42,1.01,2.8,2.06,4.77,3.51c2.32-4.06,4.74-7.79,6.64-11.76c6.98-14.56,10.47-30.14,13.03-45.97c0.74-4.56,1.66-9.09,2.33-13.66
		c0.35-2.4,1.44-3.36,3.9-3.48c20.2-0.98,35.79,6.67,45.72,24.59c2.74,4.94,4.7,10.31,7.34,16.18c-12.47,1.72-23.15-0.3-33.18-5.64
		c-10.16-5.41-16.62-14.1-21.51-24.55c0.18,2.21,0.31,4.43,0.54,6.63c0.24,2.36,0.46,4.73,0.86,7.06
		c2.98,17.2,8.75,33.28,19.04,47.56c1.47,2.03,2.83,3.44,5.34,1.26c14.86-12.95,34.1-4.54,39.05,16.41
		c4.08,17.24-7.76,34.43-25.67,37.66c-17.18,3.1-34.98-9.85-37.07-26.96c-1.43-11.74,4.02-20.15,15.34-23.7
		C319.08,438.22,319.87,437.89,319.88,437.89z M325.88,443.77c-1.38-3.24-3.33-3.76-6.21-3.05c-9.78,2.43-15.51,10.61-14.25,20.7
		c1.87,15.05,16.99,27.14,31.9,25.53c16.34-1.76,28.22-15.95,26.31-31.94c-1.21-10.15-5.89-18.43-15.82-22.38
		c-8.73-3.47-15.6,1.01-22.36,6.45c1.21,1.31,2.27,2.46,3.5,3.8c1.95-1.63,3.67-3.08,5.39-4.53c0.44,3.97-2.23,5.49-4.82,6.87
		c-3.88,2.06-6.69,1.95-8.96-0.42C322.44,444.44,324.01,444.14,325.88,443.77z M275.1,438.81c-1.8-1.29-3-2.16-4.21-3.01
		c-8.66-6.13-18.02-5.6-25.43,1.87c-7.48,7.54-10.25,16.8-7.98,27.18c2.74,12.49,14.57,21.88,27.34,22.24
		c13.36,0.37,26.2-9.02,29.88-21.85c3.53-12.29-2.6-22.31-15.08-24.96c-2.97-0.63-4.24,0.61-5.25,3.03c1.8,0.38,3.33,0.71,5.5,1.16
		c-3.64,2.38-7.69,1.67-11.5-1.35c-2.74-2.18-3.05-2.9-2.09-5.37c1.62,1.53,3.19,3.02,4.89,4.63
		C272.53,441.15,273.62,440.16,275.1,438.81z M303.73,364.95c11.93,9,23.15,17.46,34.37,25.92c-0.25,0.32-0.49,0.64-0.74,0.97
		c-11.39-8.49-22.78-16.99-34.55-25.76c4.2,24.1,28.53,37.05,48.49,34.17C343.93,375.84,325.14,363,303.73,364.95z"/>
	<path class="st0" d="M325.88,443.77c-1.86,0.36-3.44,0.67-5.31,1.04c2.27,2.36,5.09,2.48,8.96,0.42c2.59-1.38,5.26-2.9,4.82-6.87
		c-1.72,1.45-3.45,2.9-5.39,4.53c-1.23-1.34-2.29-2.49-3.5-3.8c6.76-5.43,13.62-9.92,22.36-6.45c9.93,3.95,14.61,12.23,15.82,22.38
		c1.91,15.99-9.97,30.17-26.31,31.94c-14.91,1.61-30.03-10.49-31.9-25.53c-1.26-10.1,4.46-18.27,14.25-20.7
		C322.55,440.01,324.49,440.53,325.88,443.77z M339.98,480.11c3.51,1.07,10.61-2.71,13.93-7.63c0.54-0.8,0.51-2,0.77-3.11
		C349.41,473.22,344.74,476.63,339.98,480.11z"/>
	<path class="st0" d="M275.1,438.81c-1.49,1.35-2.57,2.34-3.93,3.57c-1.71-1.62-3.27-3.1-4.89-4.63c-0.95,2.47-0.65,3.19,2.09,5.37
		c3.81,3.03,7.86,3.73,11.5,1.35c-2.17-0.46-3.7-0.78-5.5-1.16c1.02-2.42,2.29-3.66,5.25-3.03c12.48,2.65,18.61,12.67,15.08,24.96
		c-3.68,12.83-16.53,22.22-29.88,21.85c-12.78-0.36-24.6-9.75-27.34-22.24c-2.28-10.38,0.49-19.64,7.98-27.18
		c7.41-7.47,16.77-8,25.43-1.87C272.1,436.66,273.3,437.53,275.1,438.81z M256.01,438.72c-0.26-0.24-0.52-0.49-0.78-0.73
		c-5.92,1.95-9.18,6.69-11.59,12.18c-2.37,5.4-2.39,7.19-0.47,9.05c1.52-3.91,2.5-8.09,4.65-11.54
		C249.94,444.31,253.24,441.68,256.01,438.72z"/>
	<path class="st0" d="M303.73,364.95c21.4-1.95,40.19,10.89,47.56,35.3c-19.95,2.88-44.29-10.07-48.49-34.17
		c11.77,8.77,23.16,17.27,34.55,25.76c0.25-0.32,0.49-0.64,0.74-0.97C326.89,382.41,315.67,373.95,303.73,364.95z"/>
	<path d="M339.98,480.11c4.76-3.48,9.43-6.89,14.71-10.74c-0.26,1.12-0.23,2.31-0.77,3.11C350.59,477.4,343.49,481.18,339.98,480.11
		z"/>
	<path d="M256.01,438.72c-2.78,2.95-6.08,5.58-8.19,8.95c-2.15,3.45-3.14,7.63-4.65,11.54c-1.92-1.85-1.91-3.65,0.47-9.05
		c2.41-5.49,5.67-10.23,11.59-12.18C255.49,438.24,255.75,438.48,256.01,438.72z"/>
</g>
</svg>
