<?xml version="1.0" encoding="utf-8"?>
<!-- Generator: Adobe Illustrator 23.0.1, SVG Export Plug-In . SVG Version: 6.00 Build 0)  -->
<svg version="1.1" id="Layer_1" xmlns="http://www.w3.org/2000/svg" xmlns:xlink="http://www.w3.org/1999/xlink" x="0px" y="0px"
	 viewBox="0 0 595.28 841.89" style="enable-background:new 0 0 595.28 841.89;" xml:space="preserve">
<style type="text/css">
	.st0{fill:#FFFFFF;}
</style>
<g>
	<path class="st0" d="M217.51,500.64c0-52.71,0-105.42,0-158.19c54.17,0,108.34,0,162.63,0c0,52.69,0,105.44,0,158.19
		C325.96,500.64,271.75,500.64,217.51,500.64z M326.02,480.11c-0.09-0.5-0.18-0.99-0.27-1.49c-1.08,0.09-2.17,0.12-3.24,0.27
		c-6.68,0.88-13.33,2.29-20.03,2.58c-13.55,0.59-27.01-0.4-39.78-5.62c-16.68-6.82-25.5-20.87-24.1-38.33
		c0.99-12.36,6.6-22.41,15.89-30.41c6.63-5.7,13.69-10.91,20.19-16.74c9.11-8.18,16.26-17.66,17.62-30.41
		c0.29-2.71,2.15-3.48,4.52-3.38c2.4,0.1,4.46,0.67,4.76,3.65c1.03,10.17,5.97,18.42,12.89,25.61c2.85,2.97,5.88,5.79,9.03,8.45
		c4.49,3.79,9.21,7.29,13.74,11.03c11.16,9.21,18.01,20.6,17.8,35.54c-0.01,0.91,0.28,1.83,0.44,2.75c0.33,0.06,0.66,0.12,0.99,0.18
		c0.39-1,1.04-1.97,1.11-2.99c0.12-1.86,0.01-3.75-0.19-5.61c-1.5-13.49-8.56-23.75-18.82-32.1c-5.52-4.49-11.3-8.7-16.6-13.45
		c-9.17-8.23-16.86-17.43-17.93-30.55c-0.26-3.27-3.29-5.09-7.24-5.08c-4.26,0.01-6.78,1.77-7.14,5.58
		c-0.82,8.88-4.87,16.25-10.67,22.65c-3.84,4.24-8.18,8.06-12.49,11.84c-5.82,5.1-12.17,9.63-17.71,15.01
		c-18.24,17.69-21.5,58.12,16.62,70.52c18.72,6.09,37.86,5.94,57.03,1.92C323.67,481.26,324.82,480.59,326.02,480.11z M325.6,466.78
		c-0.03-0.48-0.07-0.95-0.1-1.43c-0.75-0.1-1.53-0.36-2.25-0.26c-2.47,0.34-4.92,0.88-7.39,1.2c-5.66,0.73-10.14,3-12.84,8.43
		c-0.63,1.27-2.72,2.1-4.31,2.55c-1.5,0.43-3.28,0.37-4.83,0.02c-1.25-0.28-2.98-1.06-3.37-2.07c-2.34-5.89-6.93-8.2-12.8-8.88
		c-2.23-0.26-4.46-0.58-6.66-1.02c-16-3.17-24.04-13.16-22.67-28.31c0.67-7.4,3.33-14.07,8.17-19.77c1.86-2.18,3.89-4.23,5.96-6.22
		c8.1-7.78,16.31-15.47,24.37-23.29c7.22-7,12.36-7.08,19.63-0.02c0.54,0.52,1.04,1.08,1.59,1.6c6.22,5.96,12.48,11.89,18.67,17.88
		c3.5,3.38,7.18,6.63,10.28,10.36c6.48,7.76,9.12,16.77,7.64,26.89c-0.13,0.88,0.18,1.83,0.28,2.74c0.41,0.02,0.83,0.03,1.24,0.05
		c0.39-1.88,0.99-3.74,1.13-5.64c0.72-10-2.27-19.09-9.06-26.17c-10.54-10.98-21.66-21.43-32.88-31.72
		c-5.77-5.29-12.13-4.9-17.84,0.41c-10.23,9.53-20.37,19.18-30.38,28.94c-5.88,5.73-9.36,12.84-10.85,20.95
		c-2.81,15.3,4.43,27.66,19.28,32.23c4.38,1.35,9.01,1.91,13.54,2.8c3.43,0.68,6.99,1.78,8.1,5.27c1.69,5.31,5.3,5.88,9.85,5.36
		c1.23-0.14,2.59,0.24,3.72-0.14c1.28-0.43,3.03-1.18,3.44-2.23c2.46-6.26,7.39-8.32,13.53-8.9
		C320.43,468.14,323,467.34,325.6,466.78z M338.98,444.6c-0.3-0.05-0.61-0.1-0.91-0.15c-0.55,1.14-1.11,2.27-1.65,3.37
		c-6.82,0.73-8.87,2.26-8.88,6.81c-0.02,9.1,0,18.2,0.09,27.3c0.05,5.78,2.51,8.22,8.18,8.24c8.86,0.03,17.71,0.02,26.57-0.01
		c6.07-0.02,8.36-2.31,8.37-8.36c0.02-7.98-0.16-15.97,0.02-23.95c0.17-7.25-1.8-9.9-9.05-10.14c-0.43-1.03-0.85-2.06-1.2-2.9
		c-1.43,1.22-2.54,2.97-3.73,3.03c-5.58,0.3-11.18,0.13-16.75,0.13C339.62,446.64,339.3,445.62,338.98,444.6z M254.38,435.12
		c0.01,0.29,0.03,0.58,0.04,0.87c7.06,0,14.12,0,21.17,0c-0.01-0.29-0.02-0.58-0.02-0.87C268.51,435.12,261.44,435.12,254.38,435.12
		z M317.94,435.25c-0.02,0.26-0.05,0.52-0.07,0.78c7.08,0,14.16,0,21.25,0c0-0.26,0-0.52-0.01-0.78
		C332.06,435.25,325,435.25,317.94,435.25z M256.48,451.1c0.18,0.35,0.36,0.71,0.53,1.06c5.68-2.97,11.37-5.94,17.05-8.9
		c-0.21-0.41-0.43-0.82-0.64-1.22C267.77,445.06,262.13,448.08,256.48,451.1z M289.82,448.52c-0.37-0.15-0.74-0.29-1.1-0.44
		c-2.83,5.71-5.65,11.42-8.48,17.13c0.37,0.17,0.74,0.35,1.12,0.52C284.17,459.99,287,454.26,289.82,448.52z M263.03,457.93
		c0.34,0.36,0.69,0.71,1.03,1.07c4.06-3.66,8.12-7.32,12.18-10.99c-0.24-0.27-0.48-0.53-0.72-0.8
		C271.35,450.79,267.19,454.36,263.03,457.93z M304.99,448.71c-0.32,0.21-0.64,0.42-0.95,0.63c2.8,5.35,5.61,10.71,8.41,16.06
		c0.36-0.19,0.73-0.38,1.09-0.56C310.69,459.47,307.84,454.09,304.99,448.71z M323.34,411.76c-0.29-0.3-0.57-0.61-0.86-0.91
		c-3.69,3.36-7.39,6.71-11.08,10.07c0.26,0.28,0.53,0.57,0.79,0.85C315.91,418.42,319.63,415.09,323.34,411.76z M306.46,413.95
		c0.4,0.17,0.79,0.33,1.19,0.5c1.72-4.62,3.44-9.25,5.17-13.87c-0.42-0.16-0.85-0.32-1.27-0.48
		C309.85,404.72,308.15,409.34,306.46,413.95z M281.91,400.19c-0.33,0.12-0.66,0.24-0.99,0.37c1.6,4.54,3.21,9.08,4.81,13.62
		c0.41-0.15,0.83-0.31,1.24-0.46C285.29,409.21,283.6,404.7,281.91,400.19z M298.65,474.84c0.39-0.03,0.78-0.07,1.17-0.1
		c-0.32-4-0.65-7.99-0.97-11.99c-0.37,0.03-0.74,0.06-1.11,0.09C298.04,466.84,298.34,470.84,298.65,474.84z M294.36,474.28
		c0.2,0.01,0.4,0.02,0.6,0.03c0-3.72,0-7.44,0-11.16c-0.2-0.01-0.4-0.02-0.6-0.03C294.36,466.84,294.36,470.56,294.36,474.28z
		 M326.32,424.13c0.17,0.46,0.34,0.92,0.51,1.38c2.72-1.04,5.43-2.08,8.15-3.12c-0.16-0.42-0.32-0.83-0.48-1.25
		C331.78,422.13,329.05,423.13,326.32,424.13z"/>
	<path d="M326.02,480.11c-1.2,0.48-2.36,1.15-3.6,1.42c-19.16,4.02-38.31,4.17-57.03-1.92c-38.12-12.41-34.86-52.83-16.62-70.52
		c5.54-5.38,11.89-9.91,17.71-15.01c4.32-3.78,8.65-7.6,12.49-11.84c5.8-6.4,9.85-13.77,10.67-22.65c0.35-3.82,2.88-5.57,7.14-5.58
		c3.95-0.01,6.97,1.81,7.24,5.08c1.06,13.12,8.76,22.32,17.93,30.55c5.29,4.75,11.07,8.96,16.6,13.45
		c10.27,8.35,17.32,18.61,18.82,32.1c0.21,1.86,0.32,3.75,0.19,5.61c-0.07,1.02-0.72,1.99-1.11,2.99c-0.33-0.06-0.66-0.12-0.99-0.18
		c-0.15-0.92-0.45-1.84-0.44-2.75c0.21-14.93-6.64-26.33-17.8-35.54c-4.53-3.74-9.25-7.24-13.74-11.03
		c-3.15-2.65-6.17-5.48-9.03-8.45c-6.91-7.19-11.86-15.44-12.89-25.61c-0.3-2.98-2.36-3.56-4.76-3.65
		c-2.37-0.09-4.23,0.67-4.52,3.38c-1.36,12.75-8.51,22.24-17.62,30.41c-6.5,5.84-13.57,11.04-20.19,16.74
		c-9.29,8-14.9,18.05-15.89,30.41c-1.4,17.46,7.42,31.51,24.1,38.33c12.76,5.22,26.22,6.21,39.78,5.62
		c6.7-0.29,13.35-1.7,20.03-2.58c1.07-0.14,2.16-0.18,3.24-0.27C325.84,479.12,325.93,479.61,326.02,480.11z"/>
	<path d="M325.6,466.78c-2.6,0.55-5.18,1.36-7.81,1.61c-6.14,0.58-11.08,2.64-13.53,8.9c-0.41,1.05-2.16,1.81-3.44,2.23
		c-1.13,0.38-2.49,0-3.72,0.14c-4.56,0.53-8.16-0.05-9.85-5.36c-1.11-3.49-4.67-4.59-8.1-5.27c-4.52-0.89-9.15-1.45-13.54-2.8
		c-14.86-4.58-22.09-16.93-19.28-32.23c1.49-8.11,4.96-15.22,10.85-20.95c10.01-9.76,20.15-19.4,30.38-28.94
		c5.71-5.32,12.07-5.7,17.84-0.41c11.23,10.29,22.35,20.74,32.88,31.72c6.8,7.08,9.79,16.17,9.06,26.17
		c-0.14,1.9-0.74,3.76-1.13,5.64c-0.41-0.02-0.83-0.03-1.24-0.05c-0.1-0.92-0.41-1.86-0.28-2.74c1.48-10.12-1.16-19.13-7.64-26.89
		c-3.1-3.72-6.78-6.97-10.28-10.36c-6.19-5.99-12.45-11.92-18.67-17.88c-0.54-0.52-1.05-1.07-1.59-1.6
		c-7.27-7.05-12.41-6.98-19.63,0.02c-8.06,7.82-16.27,15.51-24.37,23.29c-2.07,1.99-4.1,4.04-5.96,6.22
		c-4.84,5.69-7.5,12.37-8.17,19.77c-1.37,15.15,6.67,25.14,22.67,28.31c2.2,0.44,4.43,0.76,6.66,1.02
		c5.86,0.67,10.46,2.99,12.8,8.88c0.4,1,2.12,1.78,3.37,2.07c1.54,0.35,3.32,0.41,4.83-0.02c1.58-0.45,3.68-1.27,4.31-2.55
		c2.7-5.43,7.18-7.7,12.84-8.43c2.47-0.32,4.92-0.86,7.39-1.2c0.73-0.1,1.5,0.17,2.25,0.26
		C325.54,465.83,325.57,466.31,325.6,466.78z"/>
	<path d="M338.98,444.6c0.32,1.02,0.63,2.03,1.06,3.41c5.57,0,11.17,0.17,16.75-0.13c1.19-0.06,2.29-1.81,3.73-3.03
		c0.35,0.84,0.77,1.87,1.2,2.9c7.25,0.23,9.22,2.89,9.05,10.14c-0.19,7.98,0,15.96-0.02,23.95c-0.01,6.05-2.3,8.34-8.37,8.36
		c-8.86,0.03-17.71,0.04-26.57,0.01c-5.68-0.02-8.13-2.46-8.18-8.24c-0.08-9.1-0.1-18.2-0.09-27.3c0.01-4.56,2.06-6.09,8.88-6.81
		c0.54-1.1,1.09-2.24,1.65-3.37C338.38,444.5,338.68,444.55,338.98,444.6z M368.33,461.73c-12.31,0-24.04-0.05-35.77,0.1
		c-0.86,0.01-2.43,1.45-2.45,2.26c-0.19,6.36-0.13,12.74-0.04,19.11c0.04,2.82,1.73,4.54,4.45,4.58c9.74,0.12,19.49,0.1,29.23,0
		c2.75-0.03,4.51-1.64,4.55-4.46C368.39,476.22,368.33,469.13,368.33,461.73z M330.36,459.07c12.52,0,25.07,0,37.57,0
		c1.23-7.11-0.26-9.04-6.31-8.47c-0.45,1.15-0.9,2.31-1.68,4.31c-0.71-2.09-1.11-3.28-1.5-4.42c-6.42,0-12.63,0-18.79,0
		c-0.43,1.34-0.8,2.5-1.47,4.57c-0.84-2.18-1.3-3.38-1.72-4.48C330.4,450.48,328.86,452.68,330.36,459.07z"/>
	<path d="M254.38,435.12c7.06,0,14.13,0,21.19,0c0.01,0.29,0.02,0.58,0.02,0.87c-7.06,0-14.12,0-21.17,0
		C254.41,435.7,254.39,435.41,254.38,435.12z"/>
	<path d="M317.94,435.25c7.06,0,14.11,0,21.17,0c0,0.26,0,0.52,0.01,0.78c-7.08,0-14.16,0-21.25,0
		C317.9,435.77,317.92,435.51,317.94,435.25z"/>
	<path d="M256.48,451.1c5.65-3.02,11.3-6.04,16.94-9.06c0.21,0.41,0.43,0.82,0.64,1.22c-5.68,2.97-11.37,5.94-17.05,8.9
		C256.83,451.81,256.66,451.46,256.48,451.1z"/>
	<path d="M289.82,448.52c-2.82,5.74-5.65,11.47-8.47,17.21c-0.37-0.17-0.74-0.35-1.12-0.52c2.83-5.71,5.65-11.42,8.48-17.13
		C289.08,448.23,289.45,448.37,289.82,448.52z"/>
	<path d="M263.03,457.93c4.16-3.57,8.32-7.14,12.49-10.72c0.24,0.27,0.48,0.53,0.72,0.8c-4.06,3.66-8.12,7.32-12.18,10.99
		C263.71,458.64,263.37,458.29,263.03,457.93z"/>
	<path d="M304.99,448.71c2.85,5.38,5.7,10.76,8.55,16.14c-0.36,0.19-0.73,0.38-1.09,0.56c-2.8-5.35-5.61-10.71-8.41-16.06
		C304.36,449.13,304.68,448.92,304.99,448.71z"/>
	<path d="M323.34,411.76c-3.71,3.33-7.43,6.67-11.14,10c-0.26-0.28-0.53-0.57-0.79-0.85c3.69-3.36,7.39-6.71,11.08-10.07
		C322.77,411.15,323.05,411.45,323.34,411.76z"/>
	<path d="M306.46,413.95c1.69-4.62,3.39-9.23,5.08-13.85c0.42,0.16,0.85,0.32,1.27,0.48c-1.72,4.62-3.44,9.25-5.17,13.87
		C307.25,414.28,306.85,414.12,306.46,413.95z"/>
	<path d="M281.91,400.19c1.69,4.51,3.38,9.01,5.06,13.52c-0.41,0.15-0.83,0.31-1.24,0.46c-1.6-4.54-3.21-9.08-4.81-13.62
		C281.25,400.44,281.58,400.31,281.91,400.19z"/>
	<path d="M298.65,474.84c-0.3-4-0.6-8-0.91-12c0.37-0.03,0.74-0.06,1.11-0.09c0.32,4,0.65,7.99,0.97,11.99
		C299.43,474.77,299.04,474.81,298.65,474.84z"/>
	<path d="M294.36,474.28c0-3.72,0-7.44,0-11.15c0.2,0.01,0.4,0.02,0.6,0.03c0,3.72,0,7.44,0,11.16
		C294.76,474.3,294.56,474.29,294.36,474.28z"/>
	<path d="M326.32,424.13c2.73-1,5.46-2,8.18-2.99c0.16,0.42,0.32,0.83,0.48,1.25c-2.72,1.04-5.43,2.08-8.15,3.12
		C326.67,425.04,326.5,424.58,326.32,424.13z"/>
	<path class="st0" d="M368.33,461.73c0,7.39,0.06,14.49-0.03,21.58c-0.04,2.82-1.8,4.44-4.55,4.46c-9.74,0.1-19.49,0.12-29.23,0
		c-2.72-0.03-4.41-1.76-4.45-4.58c-0.09-6.37-0.15-12.74,0.04-19.11c0.02-0.81,1.59-2.25,2.45-2.26
		C344.28,461.68,356.01,461.73,368.33,461.73z M347.56,466.47c-0.5-0.5-0.99-1-1.49-1.5c-1,0.81-2.01,1.63-3.01,2.44
		c0.77,0.52,1.82,1.63,2.26,1.43C346.24,468.42,346.83,467.3,347.56,466.47z M364.17,474.12c-0.4-0.55-0.8-1.09-1.21-1.64
		c-1.09,0.58-2.18,1.16-3.27,1.74c0.63,0.7,1.52,2.09,1.83,1.97C362.52,475.79,363.3,474.84,364.17,474.12z M354.68,483.79
		c0.4-0.55,0.79-1.09,1.19-1.64c-0.88-0.73-1.69-1.62-2.69-2.07c-0.23-0.11-1.14,1.27-1.73,1.97
		C352.52,482.62,353.6,483.2,354.68,483.79z M351.76,468.83c2.75,0.37,4.55,0.09,3.24-3.15
		C352.52,465.21,350.84,465.48,351.76,468.83z M364.2,466.54c-0.31-0.29-0.62-0.59-0.92-0.88c-1.06,0-2.12,0-3.18,0
		c-0.25,0.3-0.5,0.61-0.76,0.91c0.85,0.8,1.63,2.09,2.59,2.24C362.55,468.91,363.43,467.36,364.2,466.54z M336.12,472.56
		c-0.44,0.54-0.88,1.08-1.32,1.62c0.85,0.71,1.63,1.57,2.59,2.03c0.23,0.11,1.09-1.08,1.66-1.68
		C338.08,473.88,337.1,473.22,336.12,472.56z M340.49,481.84c-1.87-0.99-2.68-1.76-3.46-1.72c-0.66,0.04-1.28,1.01-1.91,1.56
		c0.71,0.6,1.35,1.5,2.16,1.7C337.87,483.53,338.69,482.75,340.49,481.84z M346.14,483.88c0.5-0.47,0.99-0.93,1.49-1.4
		c-0.71-0.88-1.41-1.77-2.12-2.65c-0.69,0.61-1.39,1.22-2.08,1.83C344.33,482.4,345.23,483.14,346.14,483.88z"/>
	<path class="st0" d="M330.36,459.07c-1.5-6.39,0.04-8.59,6.1-8.48c0.42,1.1,0.88,2.29,1.72,4.48c0.66-2.07,1.04-3.23,1.47-4.57
		c6.16,0,12.37,0,18.79,0c0.38,1.14,0.79,2.33,1.5,4.42c0.78-2,1.23-3.16,1.68-4.31c6.05-0.57,7.54,1.36,6.31,8.47
		C355.43,459.07,342.88,459.07,330.36,459.07z"/>
	<path d="M347.56,466.47c-0.73,0.83-1.32,1.95-2.24,2.37c-0.44,0.2-1.49-0.91-2.26-1.43c1-0.81,2.01-1.63,3.01-2.44
		C346.56,465.47,347.06,465.97,347.56,466.47z"/>
	<path d="M364.17,474.12c-0.86,0.73-1.65,1.67-2.64,2.06c-0.31,0.12-1.2-1.27-1.83-1.97c1.09-0.58,2.18-1.16,3.27-1.74
		C363.36,473.02,363.76,473.57,364.17,474.12z"/>
	<path d="M354.68,483.79c-1.08-0.58-2.16-1.16-3.24-1.74c0.6-0.7,1.5-2.07,1.73-1.97c1,0.45,1.81,1.34,2.69,2.07
		C355.47,482.69,355.08,483.24,354.68,483.79z"/>
	<path d="M351.76,468.83c-0.92-3.36,0.76-3.63,3.24-3.15C356.31,468.93,354.51,469.21,351.76,468.83z"/>
	<path d="M364.2,466.54c-0.77,0.81-1.65,2.36-2.27,2.26c-0.96-0.15-1.74-1.44-2.59-2.24c0.25-0.3,0.5-0.61,0.76-0.91
		c1.06,0,2.12,0,3.18,0C363.58,465.96,363.89,466.25,364.2,466.54z"/>
	<path d="M336.12,472.56c0.98,0.66,1.96,1.32,2.93,1.97c-0.57,0.59-1.43,1.79-1.66,1.68c-0.97-0.47-1.75-1.32-2.59-2.03
		C335.24,473.64,335.68,473.1,336.12,472.56z"/>
	<path d="M340.49,481.84c-1.8,0.91-2.62,1.69-3.21,1.54c-0.81-0.2-1.45-1.1-2.16-1.7c0.64-0.56,1.25-1.53,1.91-1.56
		C337.8,480.08,338.62,480.85,340.49,481.84z"/>
	<path d="M346.14,483.88c-0.91-0.74-1.81-1.48-2.72-2.22c0.69-0.61,1.39-1.22,2.08-1.83c0.71,0.88,1.41,1.77,2.12,2.65
		C347.13,482.95,346.63,483.41,346.14,483.88z"/>
</g>
</svg>
