<?xml version="1.0" encoding="utf-8"?>
<!-- Generator: Adobe Illustrator 23.0.1, SVG Export Plug-In . SVG Version: 6.00 Build 0)  -->
<svg version="1.1" id="Layer_1" xmlns="http://www.w3.org/2000/svg" xmlns:xlink="http://www.w3.org/1999/xlink" x="0px" y="0px"
	 viewBox="0 0 595.28 841.89" style="enable-background:new 0 0 595.28 841.89;" xml:space="preserve">
<style type="text/css">
	.st0{fill:#FFFFFF;}
</style>
<g>
	<path class="st0" d="M388.5,505.14c-60.25,0-120.5,0-180.75,0c0-55.5,0-111,0-166.5c60.25,0,120.5,0,180.75,0
		C388.5,394.14,388.5,449.64,388.5,505.14z M361.09,399.7c0.81-0.94,1.77-1.79,2.41-2.83c1.63-2.65,1.38-5.26-0.77-7.52
		c-1.91-2.01-4.59-2.93-6.69-1.19c-1.66,1.37-3.08,3.96-3.17,6.07c-0.12,3.01,2.27,4.79,5.38,5.15c0.97,0.11,1.95,0.17,2.92,0.25
		c5.28,11.86,7.57,24.2,6,37.18c-0.25,2.08-0.59,3.52-3.11,4.3c-3.59,1.1-4.77,5.12-3,8.3c1.73,3.11,5.79,4.11,8.75,2.16
		c2.99-1.97,3.74-6.09,1.06-8.74c-1.93-1.9-1.92-3.7-1.64-6.01c1.42-11.75,0.05-23.17-4.71-34.06
		C363.95,401.49,362.24,400.72,361.09,399.7z M307.98,480.61c14.66-0.28,28.48-8.02,38.31-22.79c4.6-6.91,6.73-14.74,6.88-23.03
		c0.08-4.6-2.11-6.96-6.45-6.97c-11.74-0.04-23.42,0.06-35.01,2.79c-4.46,1.05-9.6,1.17-14.01,0.05
		c-11.58-2.92-23.25-2.94-34.99-2.73c-3.83,0.07-5.69,1.93-6.01,5.76c-0.15,1.73-0.08,3.51,0.16,5.23
		C260.1,462.6,280.89,480.66,307.98,480.61z M323.02,489.65c-12.43,5.26-30.13,4.76-44.76-0.4c-29.83-10.52-37.26-38.75-33.84-58.65
		c2.25-13.1,8.69-23.84,18.15-32.85c6.05-5.77,10.81-12.19,14.18-19.96c1.85-4.26,5.41-8.1,9.02-11.18
		c6.11-5.22,13.69-7.56,21.65-8.59c1.36-0.18,2.69-0.58,4.04-0.88c-0.01-0.37-0.02-0.74-0.03-1.12c-1.1-0.23-2.19-0.61-3.3-0.68
		c-29.16-1.9-58.54,15.91-70.01,42.4c-12.01,27.75-5.27,58.92,17.28,79.9c27.92,25.98,72.19,23.59,97.14-5.27
		c0.71-0.83,1.17-1.87,1.75-2.81c-0.21-0.26-0.42-0.51-0.62-0.77c-18.65,19.3-40.94,24.63-65.63,15.49
		c-25.15-9.32-37.53-28.84-39.49-55.39c-1.95,13.15,2.2,24.73,9.62,35.04C274.21,486.19,296.56,493.26,323.02,489.65z
		 M305.46,420.84c5.32-5.36,10.89-10.97,16.46-16.57c0.04,0.03,0.09,0.06,0.13,0.09c-4.72,4.52-9.44,9.04-14.76,14.15
		c-0.37-13.73,0.27-26.57-0.33-39.36c-0.57,0.01-1.15,0.02-1.72,0.03c0,12.85,0,25.69,0,38.54c-0.32,0.12-0.63,0.24-0.95,0.36
		c-2.36-2.3-4.71-4.63-7.09-6.91c-2.37-2.26-4.77-4.48-7.16-6.72c-0.02,0.06-0.05,0.13-0.07,0.19
		C295.47,410.41,300.98,416.17,305.46,420.84z M294.15,365.6c17.25-2.63,32.9,1.78,47.57,10.69
		C336.44,367.38,305.41,358.56,294.15,365.6z M366.92,461.2c-0.01-3.96-3.23-7.19-7.09-7.14c-3.96,0.05-7.14,3.19-7.2,7.11
		c-0.06,3.84,3.18,7.07,7.14,7.11C363.67,468.32,366.94,465.09,366.92,461.2z M348.33,374.33c-3.84-0.09-6.91,2.85-7.03,6.73
		c-0.13,3.95,2.98,7.21,6.95,7.3c3.83,0.09,6.93-2.85,7.09-6.72C355.48,377.85,352.21,374.43,348.33,374.33z"/>
	<path d="M307.98,480.61c-27.09,0.05-47.88-18.01-51.11-41.68c-0.23-1.72-0.3-3.5-0.16-5.23c0.32-3.82,2.18-5.69,6.01-5.76
		c11.74-0.21,23.41-0.2,34.99,2.73c4.41,1.11,9.55,1,14.01-0.05c11.58-2.73,23.27-2.83,35.01-2.79c4.33,0.02,6.53,2.37,6.45,6.97
		c-0.15,8.29-2.28,16.12-6.88,23.03C336.46,472.59,322.63,480.33,307.98,480.61z M342.85,430.02c2.5,6.46,1.85,10.28-2.21,15.27
		c-0.47,0.57-0.71,1.51-0.69,2.26c0.2,5.83-2.64,9.63-8.51,11.44c-0.75,0.23-1.6,1.06-1.88,1.8c-2.42,6.46-8.77,9.65-15.6,7.73
		c-4.95,4.68-11.55,4.93-17.22,0.75c-0.55-0.4-1.5-0.52-2.2-0.4c-6.02,1.06-11.19-1.56-13.89-6.98c-0.41-0.83-1.36-1.63-2.24-1.95
		c-5.53-2.02-8.51-6.26-8.46-12.21c0.01-0.66-0.12-1.56-0.55-1.94c-4.84-4.31-4.8-9.45-2.72-15c0.06-0.15-0.13-0.4-0.28-0.79
		c-1.03,0.07-2.09,0.15-3.5,0.25c-0.4,16.52,6.34,29.2,19.96,37.63c14.66,9.08,30.05,8.98,44.61-0.37
		c13.35-8.58,20.04-21.1,19.3-37.49C345.4,430.02,344.34,430.02,342.85,430.02z M349.57,431.24c-0.53,12.19-4.31,22.96-13.03,31.73
		c-8.71,8.76-19.2,13.34-31.52,13.41c-9.51,0.06-18.21-2.72-25.9-8.42c-12.21-9.05-18.26-21.38-18.73-37.24
		c-4.47,8.63,3.08,26.7,14.45,36.51c16.48,14.21,39.98,15.06,57.82,2.1C345.51,459.99,354.06,441.26,349.57,431.24z M298.32,434.32
		c-0.05-0.38-0.1-0.76-0.14-1.14c-7.52-2.3-15.26-3.22-23.13-3.13c-6.6,0.08-8.64,2.84-7.11,9.36c1.06,4.52,2.58,5.46,6.88,3.95
		c6.94-2.43,13.85-4.94,20.76-7.48C296.56,435.53,297.41,434.85,298.32,434.32z M311.11,433.71c0.96,0.92,1.37,1.62,1.95,1.82
		c7.89,2.71,15.78,5.42,23.74,7.91c1.05,0.33,3.42-0.35,3.59-0.99c0.8-3.01,1.7-6.29,1.2-9.23c-0.22-1.32-3.7-3.02-5.62-2.94
		c-7.19,0.32-14.36,1.28-21.52,2.09C313.45,432.48,312.52,433.12,311.11,433.71z M308.61,439.09c-0.29,1.75-0.47,2.14-0.39,2.46
		c1.95,7.61,3.81,15.24,5.96,22.79c0.76,2.67,2.97,3.71,5.64,2.6c1.94-0.8,3.88-1.77,5.54-3.03c2.85-2.17,3-4.68,0.58-7.38
		c-2.16-2.41-4.47-4.7-6.76-6.99C315.9,446.25,312.56,442.99,308.61,439.09z M305.24,441.2c-0.37,0.1-0.73,0.21-1.1,0.31
		c-1.72,6.45-3.4,12.9-5.17,19.33c-2.17,7.9-0.93,9.46,7.38,9.13c0.37-0.01,0.75-0.03,1.12-0.07c3.68-0.4,5.13-2.2,4.29-5.81
		c-1.57-6.65-3.3-13.27-5.04-19.88C306.44,443.15,305.75,442.2,305.24,441.2z M301.65,439.84c-0.93,0.33-1.37,0.36-1.58,0.59
		c-5.53,5.89-11.07,11.78-16.5,17.76c-0.67,0.73-1.1,2.03-1.02,3.01c0.23,2.66,4.91,5.65,8.75,5.89c3.27,0.21,4.29-2.04,4.98-4.53
		c1.79-6.47,3.51-12.95,5.2-19.44C301.72,442.17,301.59,441.14,301.65,439.84z M299.27,437.64c-0.99-0.08-1.37-0.23-1.67-0.12
		c-7.77,2.74-15.54,5.48-23.28,8.28c-2.46,0.89-3.28,2.84-2.18,5.1c0.96,1.97,2.27,3.88,3.8,5.44c2.04,2.06,4.24,2.18,6.44-0.24
		c4.2-4.63,8.6-9.07,12.87-13.63C296.58,441.04,297.75,439.47,299.27,437.64z M311.66,437.81c-0.47,0.64-0.95,1.27-1.42,1.91
		c1.23,0.6,2.69,0.94,3.64,1.84c4.16,3.93,8.25,7.94,12.21,12.07c4.66,4.86,9.48,3.78,11.64-2.73c0.9-2.71,0.18-4.58-2.64-5.55
		c-6.59-2.26-13.14-4.61-19.74-6.85C314.18,438.09,312.89,438.02,311.66,437.81z M300.23,433.98c0.63,2.93,1.82,4.89,4.78,4.78
		c2.75-0.1,4.29-1.69,4.72-4.78C306.53,433.98,303.65,433.98,300.23,433.98z"/>
	<path d="M323.02,489.65c-26.46,3.61-48.81-3.46-64.85-25.72c-7.43-10.31-11.58-21.89-9.62-35.04
		c1.96,26.54,14.33,46.07,39.49,55.39c24.69,9.15,46.98,3.81,65.63-15.49c0.21,0.26,0.42,0.51,0.62,0.77
		c-0.58,0.94-1.04,1.99-1.75,2.81c-24.94,28.86-69.22,31.25-97.14,5.27c-22.55-20.98-29.29-52.15-17.28-79.9
		c11.47-26.49,40.85-44.3,70.01-42.4c1.11,0.07,2.2,0.45,3.3,0.68c0.01,0.37,0.02,0.74,0.03,1.12c-1.35,0.3-2.68,0.7-4.04,0.88
		c-7.96,1.02-15.53,3.37-21.65,8.59c-3.61,3.08-7.17,6.93-9.02,11.18c-3.37,7.78-8.13,14.19-14.18,19.96
		c-9.46,9.02-15.9,19.75-18.15,32.85c-3.42,19.9,4.01,48.13,33.84,58.65C292.88,494.41,310.59,494.91,323.02,489.65z M245.87,461.77
		c-0.41-1.15-0.83-2.29-1.22-3.44c-4.75-14.09-4.3-27.94,1.69-41.63c3.94-9,10.08-16.24,16.95-23.1c3.31-3.31,6.91-6.98,8.51-11.2
		c4.34-11.42,12-19.05,23.1-23.6c0.1-0.04,0.09-0.34,0.25-0.99c-24.64,4.48-43.51,16.77-54.23,39.44
		C230.48,419.32,232.6,441.09,245.87,461.77z"/>
	<path d="M305.46,420.84c-4.47-4.67-9.98-10.43-15.5-16.19c0.02-0.06,0.05-0.13,0.07-0.19c2.39,2.24,4.8,4.46,7.16,6.72
		c2.39,2.28,4.73,4.6,7.09,6.91c0.32-0.12,0.63-0.24,0.95-0.36c0-12.85,0-25.69,0-38.54c0.57-0.01,1.15-0.02,1.72-0.03
		c0.59,12.79-0.05,25.63,0.33,39.36c5.33-5.11,10.05-9.63,14.76-14.15c-0.04-0.03-0.09-0.06-0.13-0.09
		C316.35,409.88,310.78,415.49,305.46,420.84z"/>
	<path d="M361.07,399.72c1.17,1,2.88,1.77,3.44,3.04c4.75,10.89,6.13,22.3,4.71,34.06c-0.28,2.3-0.28,4.1,1.64,6.01
		c2.69,2.66,1.93,6.77-1.06,8.74c-2.96,1.95-7.02,0.95-8.75-2.16c-1.76-3.17-0.58-7.2,3-8.3c2.52-0.77,2.86-2.22,3.11-4.3
		c1.56-12.98-0.73-25.32-6-37.18L361.07,399.72z M365.61,450.93c0.56,0,1.11-0.01,1.67-0.01c0.99-1.46,2.9-3.04,2.73-4.34
		c-0.19-1.4-2.33-3.51-3.62-3.52c-1.26,0-3.38,2.16-3.55,3.56C362.68,447.93,364.6,449.48,365.61,450.93z"/>
	<path d="M294.15,365.6c11.26-7.04,42.3,1.78,47.57,10.69C327.05,367.38,311.4,362.96,294.15,365.6z"/>
	<path d="M366.92,461.2c0.01,3.89-3.26,7.13-7.15,7.08c-3.96-0.05-7.21-3.28-7.14-7.11c0.06-3.91,3.25-7.05,7.2-7.11
		C363.7,454,366.91,457.24,366.92,461.2z M364.76,461.52c0.07-2.97-2.21-5.34-4.94-5.24c-2.98,0.12-4.57,1.9-4.85,4.73
		c-0.27,2.68,2.18,5.13,4.93,4.99C362.81,465.86,364.45,464.21,364.76,461.52z"/>
	<path d="M348.33,374.33c3.88,0.09,7.15,3.52,7,7.32c-0.15,3.87-3.25,6.8-7.09,6.72c-3.97-0.09-7.07-3.35-6.95-7.3
		C341.42,377.18,344.5,374.24,348.33,374.33z M348.57,386.11c2.57-0.07,4.66-2.33,4.53-4.9c-0.14-2.59-2.68-5.01-5.25-4.73
		c-2.69,0.3-4.18,2-4.24,4.72C343.54,383.97,345.85,386.19,348.57,386.11z"/>
	<path d="M361.16,399.64c-0.97-0.08-1.95-0.14-2.92-0.25c-3.11-0.36-5.5-2.14-5.38-5.15c0.09-2.11,1.51-4.7,3.17-6.07
		c2.11-1.75,4.78-0.83,6.69,1.19c2.15,2.26,2.4,4.87,0.77,7.52c-0.64,1.04-1.6,1.89-2.42,2.83
		C361.07,399.72,361.16,399.64,361.16,399.64z M357.63,397.71c0.56,0.01,1.11,0.01,1.67,0.02c0.99-1.31,2.58-2.52,2.84-3.96
		c0.42-2.38-1.16-4.38-3.63-3.96c-1.35,0.23-3.28,2.16-3.37,3.43C355.04,394.67,356.72,396.22,357.63,397.71z"/>
	<path class="st0" d="M342.85,430.02c1.48,0,2.55,0,3.93,0c0.74,16.4-5.94,28.91-19.3,37.49c-14.56,9.35-29.94,9.45-44.61,0.37
		c-13.61-8.43-20.36-21.11-19.96-37.63c1.4-0.1,2.47-0.18,3.5-0.25c0.15,0.4,0.34,0.64,0.28,0.79c-2.09,5.54-2.13,10.68,2.72,15
		c0.43,0.38,0.55,1.28,0.55,1.94c-0.06,5.95,2.92,10.19,8.46,12.21c0.88,0.32,1.82,1.12,2.24,1.95c2.7,5.42,7.87,8.05,13.89,6.98
		c0.7-0.12,1.65,0,2.2,0.4c5.67,4.18,12.28,3.93,17.22-0.75c6.82,1.92,13.18-1.27,15.6-7.73c0.28-0.75,1.12-1.57,1.88-1.8
		c5.86-1.81,8.71-5.61,8.51-11.44c-0.03-0.75,0.22-1.69,0.69-2.26C344.71,440.29,345.35,436.48,342.85,430.02z"/>
	<path class="st0" d="M349.57,431.24c4.5,10.02-4.05,28.75-16.91,38.09c-17.84,12.96-41.34,12.11-57.82-2.1
		c-11.38-9.81-18.92-27.88-14.45-36.51c0.47,15.86,6.52,28.18,18.73,37.24c7.68,5.7,16.39,8.48,25.9,8.42
		c12.32-0.07,22.81-4.66,31.52-13.41C345.26,454.2,349.04,443.43,349.57,431.24z"/>
	<path class="st0" d="M298.32,434.32c-0.91,0.53-1.76,1.21-2.74,1.57c-6.9,2.54-13.82,5.05-20.76,7.48c-4.3,1.5-5.82,0.57-6.88-3.95
		c-1.53-6.53,0.51-9.28,7.11-9.36c7.87-0.09,15.61,0.82,23.13,3.13C298.22,433.56,298.27,433.94,298.32,434.32z"/>
	<path class="st0" d="M311.11,433.71c1.41-0.59,2.34-1.23,3.33-1.34c7.17-0.81,14.33-1.77,21.52-2.09c1.93-0.09,5.4,1.62,5.62,2.94
		c0.5,2.95-0.4,6.22-1.2,9.23c-0.17,0.64-2.54,1.32-3.59,0.99c-7.96-2.49-15.85-5.2-23.74-7.91
		C312.48,435.33,312.07,434.63,311.11,433.71z"/>
	<path class="st0" d="M308.61,439.09c3.95,3.9,7.29,7.16,10.58,10.45c2.29,2.29,4.59,4.58,6.76,6.99c2.42,2.7,2.27,5.21-0.58,7.38
		c-1.66,1.26-3.6,2.23-5.54,3.03c-2.67,1.1-4.89,0.06-5.64-2.6c-2.14-7.55-4.01-15.18-5.96-22.79
		C308.14,441.23,308.32,440.84,308.61,439.09z"/>
	<path class="st0" d="M305.24,441.2c0.5,1,1.2,1.96,1.48,3.02c1.74,6.61,3.48,13.23,5.04,19.88c0.85,3.6-0.61,5.4-4.29,5.81
		c-0.37,0.04-0.74,0.05-1.12,0.07c-8.32,0.33-9.55-1.23-7.38-9.13c1.77-6.43,3.45-12.89,5.17-19.33
		C304.51,441.4,304.88,441.3,305.24,441.2z"/>
	<path class="st0" d="M301.65,439.84c-0.06,1.3,0.07,2.34-0.17,3.28c-1.68,6.49-3.41,12.98-5.2,19.44
		c-0.69,2.49-1.71,4.74-4.98,4.53c-3.84-0.25-8.53-3.23-8.75-5.89c-0.08-0.98,0.35-2.28,1.02-3.01c5.43-5.98,10.97-11.87,16.5-17.76
		C300.28,440.19,300.72,440.17,301.65,439.84z"/>
	<path class="st0" d="M299.27,437.64c-1.52,1.83-2.69,3.4-4.02,4.81c-4.27,4.56-8.67,9-12.87,13.63c-2.2,2.43-4.4,2.31-6.44,0.24
		c-1.54-1.56-2.84-3.47-3.8-5.44c-1.1-2.26-0.28-4.21,2.18-5.1c7.75-2.8,15.51-5.54,23.28-8.28
		C297.9,437.41,298.29,437.56,299.27,437.64z"/>
	<path class="st0" d="M311.66,437.81c1.23,0.22,2.52,0.28,3.7,0.68c6.59,2.24,13.15,4.59,19.74,6.85c2.82,0.97,3.53,2.84,2.64,5.55
		c-2.15,6.51-6.97,7.59-11.64,2.73c-3.96-4.13-8.05-8.14-12.21-12.07c-0.95-0.9-2.41-1.24-3.64-1.84
		C310.71,439.08,311.18,438.44,311.66,437.81z"/>
	<path class="st0" d="M300.23,433.98c3.42,0,6.3,0,9.5,0c-0.43,3.09-1.97,4.68-4.72,4.78C302.05,438.87,300.86,436.91,300.23,433.98
		z"/>
	<path class="st0" d="M245.87,461.77c-13.26-20.69-15.38-42.46-4.95-64.52c10.72-22.67,29.59-34.96,54.23-39.44
		c-0.16,0.65-0.15,0.95-0.25,0.99c-11.09,4.55-18.75,12.18-23.1,23.6c-1.6,4.22-5.2,7.89-8.51,11.2
		c-6.86,6.86-13.01,14.1-16.95,23.1c-5.99,13.69-6.44,27.54-1.69,41.63C245.04,459.49,245.46,460.63,245.87,461.77z"/>
	<path class="st0" d="M365.61,450.93c-1.01-1.44-2.93-3-2.77-4.3c0.16-1.4,2.29-3.56,3.55-3.56c1.29,0,3.43,2.12,3.62,3.52
		c0.17,1.3-1.73,2.88-2.73,4.34C366.72,450.92,366.17,450.92,365.61,450.93z"/>
	<path class="st0" d="M364.76,461.52c-0.31,2.69-1.95,4.33-4.85,4.48c-2.75,0.14-5.2-2.31-4.93-4.99c0.28-2.82,1.87-4.61,4.85-4.73
		C362.55,456.18,364.83,458.56,364.76,461.52z"/>
	<path class="st0" d="M348.57,386.11c-2.72,0.07-5.03-2.14-4.96-4.91c0.06-2.73,1.55-4.42,4.24-4.72c2.57-0.29,5.11,2.14,5.25,4.73
		C353.23,383.78,351.14,386.05,348.57,386.11z"/>
	<path class="st0" d="M357.63,397.71c-0.91-1.49-2.59-3.04-2.49-4.46c0.09-1.27,2.01-3.2,3.37-3.43c2.47-0.42,4.05,1.57,3.63,3.96
		c-0.26,1.44-1.85,2.65-2.84,3.96C358.74,397.73,358.19,397.72,357.63,397.71z"/>
</g>
</svg>
