<?xml version="1.0" encoding="utf-8"?>
<!-- Generator: Adobe Illustrator 23.0.1, SVG Export Plug-In . SVG Version: 6.00 Build 0)  -->
<svg version="1.1" id="Layer_1" xmlns="http://www.w3.org/2000/svg" xmlns:xlink="http://www.w3.org/1999/xlink" x="0px" y="0px"
	 viewBox="0 0 595.28 841.89" style="enable-background:new 0 0 595.28 841.89;" xml:space="preserve">
<style type="text/css">
	.st0{fill:#FFFFFF;}
</style>
<g>
	<path class="st0" d="M417,531.39c-78.75,0-157.5,0-236.25,0c0-73.25,0-146.5,0-219.75c78.75,0,157.5,0,236.25,0
		C417,384.89,417,458.14,417,531.39z M336.93,507.54c10.46-6.92,16.03-16.48,18.86-27.91c3.47-14.04,3.09-28.1-0.75-41.89
		c-2.22-7.99-5.4-15.83-9.08-23.28c-5.52-11.18-14.46-18.86-27.37-22.34c3.34-1.69,6.21-2.69,8.56-4.41
		c8.15-5.98,16.14-12.18,24.14-18.37c0.57-0.44,1.16-1.61,0.95-2.09c-0.27-0.61-1.34-1.22-2.08-1.23
		c-5.46-0.07-11.04-0.67-16.36,0.23c-4.92,0.83-9.55,3.32-15.08,5.37c4.78-8.75,9.32-17.03,13.8-25.35
		c0.36-0.67,0.62-1.83,0.28-2.31c-0.33-0.46-1.63-0.65-2.26-0.39c-5.95,2.45-11.91,4.91-17.74,7.64c-1.83,0.86-3.25,2.58-4.05,3.24
		c-3.57-8.11-7.06-16.19-10.71-24.2c-0.5-1.1-1.78-1.84-2.7-2.75c-0.76,0.93-1.77,1.74-2.23,2.79c-3.56,8.06-7.02,16.16-10.38,23.93
		c-3.38-2.2-7.27-5.17-11.54-7.37c-4.22-2.18-8.81-3.72-13.37-3.01c4.87,9.51,9.44,18.44,14.01,27.38
		c-15.36-6.6-28.54-8.16-33.34-3.09c10.92,8.57,20.44,18.98,34.86,23.58c-1.12,0.49-1.52,0.73-1.94,0.84
		c-8.91,2.35-16.26,7.11-21.55,14.66c-13.09,18.67-17.99,39.65-16.24,62.13c0.87,11.2,4,21.93,11.86,30.56
		c2.55,2.8,5.56,5.18,8.53,7.91c-6.34,0.97-11.63,1.2-15.63-5.57c-5.05-8.57-13.79-11.9-23.46-12.72c-1.04-0.09-2.13,0.4-3.79,0.75
		c7.95,8.67,14.58,17.74,27.28,18.06c-5.03,1.04-9.81,1.51-14.6,1.96c-4.98,0.46-9.97,0.78-14.93,1.39
		c-4.57,0.56-9.37,0.18-13.6,2.84c67.6-6.98,135.12-6.75,202.61,0.55c0.34,0.04,0.73-0.48,1.1-0.74c0-0.43,0-0.86,0-1.29
		c-16.31-1.5-32.61-3-49.77-4.57c2.24-1.42,3.88-2.27,5.3-3.41c2.47-1.97,4.84-2.45,8.15-1.7c13.54,3.05,25.83,0.63,35.83-9.72
		c0.8-0.82,1.43-1.81,2.14-2.71c-0.11-0.43-0.21-0.87-0.32-1.3c-7.68-0.8-15.36-1.6-22.79-2.37c11.32-9.79,18.26-25.33,13.71-33.03
		c-6.04,3.96-12.4,7.46-17.96,11.96c-5.29,4.28-8.45,10.41-8.61,17.33c-0.24,10.82-6.75,16.95-15.12,21.98
		C345.81,507.76,341.82,508.74,336.93,507.54z"/>
	<path d="M336.93,507.54c4.89,1.2,8.88,0.22,12.63-2.03c8.37-5.02,14.88-11.15,15.12-21.98c0.15-6.92,3.32-13.05,8.61-17.33
		c5.56-4.5,11.92-8,17.96-11.96c4.55,7.71-2.38,23.24-13.71,33.03c7.43,0.77,15.11,1.57,22.79,2.37c0.11,0.43,0.21,0.87,0.32,1.3
		c-0.71,0.91-1.35,1.89-2.14,2.71c-10.01,10.35-22.29,12.77-35.83,9.72c-3.31-0.74-5.67-0.27-8.15,1.7
		c-1.42,1.13-3.06,1.98-5.3,3.41c17.16,1.58,33.46,3.07,49.77,4.57c0,0.43,0,0.86,0,1.29c-0.37,0.26-0.77,0.78-1.1,0.74
		c-67.5-7.3-135.01-7.53-202.61-0.55c4.23-2.66,9.03-2.28,13.6-2.84c4.96-0.61,9.95-0.92,14.93-1.39c4.79-0.45,9.58-0.92,14.6-1.96
		c-12.7-0.33-19.34-9.4-27.28-18.06c1.66-0.35,2.75-0.84,3.79-0.75c9.67,0.82,18.41,4.15,23.46,12.72
		c3.99,6.77,9.29,6.54,15.63,5.57c-2.97-2.73-5.98-5.11-8.53-7.91c-7.86-8.62-10.99-19.36-11.86-30.56
		c-1.75-22.48,3.14-43.46,16.24-62.13c5.29-7.55,12.64-12.3,21.55-14.66c0.43-0.11,0.82-0.35,1.94-0.84
		c-14.42-4.6-23.94-15.02-34.86-23.58c4.8-5.07,17.99-3.5,33.34,3.09c-4.57-8.93-9.14-17.86-14.01-27.38
		c4.57-0.71,9.16,0.83,13.37,3.01c4.28,2.21,8.16,5.18,11.54,7.37c3.36-7.78,6.81-15.88,10.38-23.93c0.47-1.05,1.47-1.87,2.23-2.79
		c0.92,0.91,2.19,1.65,2.7,2.75c3.65,8.01,7.14,16.09,10.71,24.2c0.81-0.66,2.23-2.38,4.05-3.24c5.82-2.74,11.78-5.19,17.74-7.64
		c0.64-0.26,1.94-0.07,2.26,0.39c0.34,0.48,0.08,1.64-0.28,2.31c-4.48,8.32-9.02,16.59-13.8,25.35c5.53-2.05,10.17-4.54,15.08-5.37
		c5.32-0.9,10.9-0.31,16.36-0.23c0.73,0.01,1.8,0.62,2.08,1.23c0.21,0.48-0.38,1.65-0.95,2.09c-8,6.18-15.98,12.39-24.14,18.37
		c-2.34,1.72-5.21,2.72-8.56,4.41c12.91,3.49,21.86,11.16,27.37,22.34c3.68,7.45,6.85,15.29,9.08,23.28
		c3.83,13.78,4.21,27.85,0.75,41.89C352.96,491.06,347.39,500.62,336.93,507.54z M366.98,485.95l-0.05-0.06
		c0.9,0.51,1.88,1.57,2.69,1.45c12.03-1.74,22.38-16.55,19.96-28.66c-6.48,2.55-12.42,5.9-16.93,11.21
		C368.81,474.45,366.35,479.71,366.98,485.95z M314.95,507.02c10.35,1.43,15.6,1.36,19.95-2.1c4.72-3.75,9.71-7.83,12.73-12.88
		c6.57-10.99,5.76-8.95-2.33-17.4c-0.16-0.17-0.43-0.24-0.72-0.39c-5.8,5.37-11.61,10.75-17.4,16.11c3.9,3.41,7.65,6.68,11.4,9.95
		c-0.27,0.31-0.53,0.62-0.8,0.92c-4.53-3.59-9.06-7.19-13.64-10.81c6.18-5.55,12.67-11.37,19.98-17.94
		c-8.28-5.46-15.52-10.32-22.88-14.97c-0.92-0.58-2.53-0.08-2.92-0.08c-0.87-1.34-1.23-2.54-2.03-3.03
		c-7.24-4.43-14.54-8.78-21.89-13.03c-0.78-0.45-2.26-0.55-2.97-0.11c-7.17,4.46-14.25,9.07-21.56,13.77
		c1.89,1.69,3.38,3.02,4.87,4.35c-1.06,0.46-1.69,0.35-2.05-0.03c-3.34-3.52-6.43-2.62-9.53,0.37c-0.8,0.77-1.85,1.28-2.72,1.99
		c-4.33,3.46-8.64,6.95-13.61,10.96c7.36,6.48,14.08,12.4,20.38,17.95c-6.06,2.23-9.54,7.74-14.69,11.31
		c6.95,7.85,15.65,5.38,24.35,5.37c0-1.66,0-3,0-4.33c0.02-7.75-0.03-15.5,0.07-23.25c0.1-7.83,5.11-14.49,12.53-16.91
		c13.35-4.34,25.38,4.24,25.5,18.26C315.01,489.65,314.95,498.25,314.95,507.02z M311.87,507.1c0-10.04,0.55-19.89-0.18-29.65
		c-0.56-7.55-8.31-13.08-16.02-12.84c-8.35,0.26-15.13,5.47-15.66,13.22c-0.62,9.07-0.3,18.2-0.23,27.3
		c0.01,0.72,1.18,2.04,1.83,2.05c7.45,0.15,14.9,0.09,23.18,0.09c0-6.6,0-12.57,0-18.54c0.45,0.02,0.89,0.05,1.34,0.07
		c0,6.05,0,12.09,0,18.29C308.22,507.1,309.82,507.1,311.87,507.1z M294.37,439.32c8.66,5.04,16.57,9.67,24.54,14.22
		c0.6,0.34,1.84,0.41,2.3,0.03c5.46-4.62,10.83-9.35,16.78-14.53c-8.43-5.03-15.87-9.47-23.21-13.85
		C308.13,429.79,301.7,434.25,294.37,439.32z M290.73,439.31c-6.34-5.09-12.23-9.9-18.23-14.56c-0.89-0.69-2.76-1.36-3.4-0.92
		c-6.09,4.26-12.01,8.77-18.64,13.69c6.13,5.89,11.72,11.27,17.32,16.65C275.86,448.94,283.26,444.14,290.73,439.31z M292.74,438.18
		c6.99-4.79,13.6-9.32,20.19-13.84c-6.51-5.01-12.52-9.67-18.59-14.24c-0.68-0.51-2.02-1.04-2.55-0.72
		c-6.56,3.97-13.03,8.1-20.17,12.6C279.03,427.66,285.82,432.87,292.74,438.18z M322.57,455.45c7.43,5.11,14.69,10.12,22.32,15.37
		c3.15-4.26,6.51-8.56,9.6-13.06c1.44-2.1,1.61-4.57-0.66-6.39c-4.38-3.5-8.81-6.94-13.36-10.22c-0.64-0.46-2.43-0.23-3.08,0.35
		C332.41,446.02,327.58,450.69,322.57,455.45z M329.36,346.98c-17.99,2.25-35.34,26.56-31.82,44.37c2.2-1.16,4.37-1.9,6.03-3.27
		c2-1.65,3.92-3.61,5.24-5.81C315.65,370.78,322.29,359.17,329.36,346.98z M262.77,346.96c1.74,3.57,3.5,7.12,5.2,10.7
		c5.22,10.96,10.58,21.85,19.75,30.19c1.56,1.42,3.73,2.17,6.02,3.46C295.46,373.06,281.34,349.29,262.77,346.96z M265.34,455.73
		c-5.47-5.66-10.71-11.1-16.39-16.99c-4,4.26-8.2,8.49-12.04,13.02c-0.94,1.11-1.48,3.71-0.83,4.82c2.9,4.95,6.29,9.61,9.48,14.34
		C252.92,465.28,259.43,460.27,265.34,455.73z M329.58,409.34c-6.58-5.28-12.66-10.17-18.85-15.13c-5.23,4.43-10.6,8.98-16.48,13.97
		c6.88,5.01,13.49,9.82,20.52,14.94C319.84,418.4,324.73,413.85,329.58,409.34z M295.67,376.62c2.48-4.97,5.18-10.28,7.76-15.66
		c0.62-1.3,1.16-2.8,1.14-4.21c-0.12-9.06-4.79-16.42-8.93-24.57c-4.52,7.31-7.58,14.47-9.02,22.26c-0.26,1.42-0.48,3.17,0.09,4.38
		C289.62,364.98,292.8,371,295.67,376.62z M331.21,409.3c-4.72,5.4-9.06,10.36-13.47,15.41c6.18,3.74,13.38,8.09,21.03,12.71
		c2.47-3.13,4.93-6.07,7.19-9.15c2.91-3.98,2.9-5.25-0.87-8.41C340.81,416.28,336.22,413.08,331.21,409.3z M305.21,389.69
		c0.27,0.38,0.53,0.76,0.8,1.14c18.08,1,29.07-11.59,42.07-22.03c-10.47-2.07-19.42-0.32-27.01,5.76
		C315.39,379.11,310.47,384.61,305.21,389.69z M285.8,390.28c-11.21-13.04-22.32-25.38-42.53-21.5
		c9.19,7.95,17.59,15.86,28.58,20.22C276.24,390.75,280.66,391.59,285.8,390.28z M270.42,420.69c7.25-4.56,13.87-8.71,20.54-12.91
		c-4.53-4.39-8.75-8.49-12.96-12.57c-5.82,4.43-11.73,8.92-17.81,13.54C263.66,412.81,266.96,416.66,270.42,420.69z M258.56,409.66
		c-4.44,3.25-8.87,5.94-12.54,9.42c-1.68,1.59-3.13,5.17-2.47,7.1c1.19,3.48,4.04,6.4,6.22,9.58c6.58-4.92,12.73-9.52,19.01-14.21
		C265.31,417.52,262.08,413.76,258.56,409.66z M251.31,501.26c4.24-3.92,8.2-7.58,12.03-11.12c-6.02-5.51-11.76-10.76-17.74-16.22
		c-1.85,2.07-3.73,3.9-5.24,5.99c-0.7,0.96-1.25,2.65-0.88,3.65C241.95,490.42,245.31,496.74,251.31,501.26z M395.96,492.29
		c-13.2-5.01-27.29-1.16-34.67,8.24C372.46,505.63,389.96,501.47,395.96,492.29z M308.1,394.31c-0.17-0.24-0.33-0.47-0.5-0.71
		c-8.76,0-17.53,0-26.29,0c-0.17,0.39-0.35,0.77-0.52,1.16c3.95,3.85,7.9,7.7,12.18,11.89C298.22,402.37,303.16,398.34,308.1,394.31
		z M340.31,438.25c4.69,3.59,9.28,7.11,13.88,10.63c0.31-0.17,0.63-0.34,0.94-0.51c-1.78-6.97-3.56-13.94-5.34-20.91
		c-0.38,0.01-0.77,0.02-1.15,0.02C345.92,431,343.2,434.51,340.31,438.25z M237.69,505.76c-3.92-8.08-13.51-13.75-21.53-12.96
		C219.95,500.72,229.03,506.26,237.69,505.76z M248.44,436.86c-1.61-2.22-3.2-4.43-4.82-6.63c-0.51-0.69-1.1-1.32-2.36-2.82
		c-1.8,7.34-3.4,13.9-5.11,20.87C240.63,444.12,244.45,440.57,248.44,436.86z M334.13,402.79c-5.99-4.41-11.85-8-19.02-8.58
		c-0.2,0.32-0.4,0.64-0.6,0.96c5.31,4.07,10.62,8.13,16.04,12.28C332.04,405.5,332.93,404.34,334.13,402.79z M346.29,471.79
		c2.43,2.66,4.51,4.94,7.31,7.99c0.81-6.69,1.53-12.59,2.25-18.5c-0.39-0.11-0.78-0.21-1.18-0.32
		C351.79,464.68,348.92,468.39,346.29,471.79z M244.55,472.26c-2.94-3.81-5.6-7.27-8.26-10.73c-0.3,0.12-0.61,0.24-0.91,0.36
		c0.72,5.67,1.43,11.35,2.15,17.02c0.37,0.01,0.73,0.03,1.1,0.04C240.57,476.76,242.51,474.56,244.55,472.26z M275.48,394.95
		c-7.13,0.75-13.4,3.01-18.5,8.24c0.89,1.28,1.62,2.35,2.6,3.76C265.11,402.78,270.29,398.86,275.48,394.95z M335.68,404.03
		c-1.31,1.7-2.19,2.83-3.24,4.2c3.87,2.75,7.43,5.28,10.98,7.8c0.22-0.24,0.44-0.47,0.67-0.71
		C341.38,411.68,338.66,408.04,335.68,404.03z M248.09,414.04c0.25,0.24,0.5,0.49,0.75,0.73c2.19-1.61,4.43-3.15,6.55-4.84
		c2.72-2.16,2.66-2.45-0.56-5.15C252.57,407.88,250.33,410.96,248.09,414.04z"/>
	<path class="st0" d="M314.95,507.02c0-8.77,0.06-17.36-0.01-25.96c-0.12-14.01-12.15-22.6-25.5-18.26
		c-7.42,2.41-12.43,9.08-12.53,16.91c-0.1,7.75-0.05,15.5-0.07,23.25c0,1.34,0,2.67,0,4.33c-8.7,0.01-17.4,2.48-24.35-5.37
		c5.15-3.57,8.63-9.08,14.69-11.31c-6.3-5.55-13.02-11.47-20.38-17.95c4.98-4.01,9.29-7.5,13.61-10.96c0.88-0.7,1.92-1.21,2.72-1.99
		c3.09-2.99,6.19-3.89,9.53-0.37c0.36,0.38,0.99,0.49,2.05,0.03c-1.49-1.33-2.98-2.66-4.87-4.35c7.31-4.7,14.39-9.31,21.56-13.77
		c0.71-0.44,2.2-0.34,2.97,0.11c7.35,4.25,14.65,8.6,21.89,13.03c0.8,0.49,1.16,1.69,2.03,3.03c0.39,0,2-0.5,2.92,0.08
		c7.36,4.65,14.6,9.51,22.88,14.97c-7.31,6.57-13.8,12.39-19.98,17.94c4.57,3.63,9.11,7.22,13.64,10.81
		c0.27-0.31,0.53-0.62,0.8-0.92c-3.75-3.27-7.5-6.54-11.4-9.95c5.79-5.36,11.6-10.75,17.4-16.11c0.29,0.15,0.56,0.22,0.72,0.39
		c8.09,8.45,8.91,6.4,2.33,17.4c-3.02,5.05-8.02,9.13-12.73,12.88C330.55,508.37,325.31,508.44,314.95,507.02z"/>
	<path class="st0" d="M311.87,507.1c-2.06,0-3.65,0-5.74,0c0-6.2,0-12.25,0-18.29c-0.45-0.02-0.89-0.05-1.34-0.07
		c0,5.97,0,11.94,0,18.54c-8.28,0-15.73,0.05-23.18-0.09c-0.65-0.01-1.82-1.33-1.83-2.05c-0.07-9.1-0.39-18.24,0.23-27.3
		c0.53-7.75,7.31-12.96,15.66-13.22c7.71-0.24,15.46,5.29,16.02,12.84C312.42,487.2,311.87,497.06,311.87,507.1z"/>
	<path class="st0" d="M294.37,439.32c7.33-5.07,13.77-9.53,20.4-14.12c7.34,4.38,14.78,8.82,23.21,13.85
		c-5.95,5.18-11.32,9.91-16.78,14.53c-0.45,0.38-1.7,0.31-2.3-0.03C310.94,448.99,303.02,444.36,294.37,439.32z"/>
	<path class="st0" d="M290.73,439.31c-7.46,4.83-14.86,9.63-22.95,14.86c-5.6-5.39-11.19-10.76-17.32-16.65
		c6.62-4.92,12.55-9.42,18.64-13.69c0.63-0.44,2.51,0.23,3.4,0.92C278.5,429.41,284.38,434.22,290.73,439.31z"/>
	<path class="st0" d="M292.74,438.18c-6.92-5.31-13.71-10.52-21.11-16.2c7.14-4.5,13.61-8.63,20.17-12.6
		c0.53-0.32,1.87,0.21,2.55,0.72c6.07,4.57,12.08,9.23,18.59,14.24C306.34,428.86,299.73,433.39,292.74,438.18z"/>
	<path class="st0" d="M322.57,455.45c5.01-4.75,9.84-9.43,14.82-13.94c0.65-0.59,2.44-0.82,3.08-0.35
		c4.55,3.27,8.98,6.72,13.36,10.22c2.28,1.82,2.11,4.29,0.66,6.39c-3.09,4.49-6.44,8.8-9.6,13.06
		C337.26,465.56,330,460.56,322.57,455.45z"/>
	<path class="st0" d="M329.36,346.98c-7.07,12.18-13.7,23.8-20.55,35.29c-1.31,2.21-3.24,4.16-5.24,5.81
		c-1.66,1.37-3.83,2.11-6.03,3.27C294.01,373.54,311.37,349.23,329.36,346.98z"/>
	<path class="st0" d="M262.77,346.96c18.57,2.33,32.68,26.11,30.97,44.35c-2.29-1.29-4.46-2.04-6.02-3.46
		c-9.18-8.34-14.53-19.23-19.75-30.19C266.27,354.08,264.51,350.53,262.77,346.96z"/>
	<path class="st0" d="M265.34,455.73c-5.91,4.54-12.42,9.54-19.78,15.19c-3.19-4.73-6.59-9.38-9.48-14.34
		c-0.65-1.11-0.11-3.71,0.83-4.82c3.84-4.54,8.05-8.76,12.04-13.02C254.63,444.63,259.88,450.07,265.34,455.73z"/>
	<path class="st0" d="M329.58,409.34c-4.85,4.51-9.73,9.06-14.81,13.78c-7.03-5.12-13.64-9.93-20.52-14.94
		c5.88-4.99,11.25-9.54,16.48-13.97C316.91,399.18,323,404.07,329.58,409.34z"/>
	<path class="st0" d="M295.67,376.62c-2.87-5.63-6.05-11.65-8.96-17.79c-0.57-1.21-0.36-2.96-0.09-4.38
		c1.45-7.79,4.5-14.95,9.02-22.26c4.15,8.15,8.82,15.52,8.93,24.57c0.02,1.4-0.52,2.91-1.14,4.21
		C300.85,366.34,298.15,371.65,295.67,376.62z"/>
	<path class="st0" d="M331.21,409.3c5,3.78,9.6,6.98,13.87,10.56c3.77,3.16,3.79,4.43,0.87,8.41c-2.26,3.08-4.71,6.01-7.19,9.15
		c-7.64-4.62-14.84-8.97-21.03-12.71C322.15,419.67,326.49,414.71,331.21,409.3z"/>
	<path class="st0" d="M305.21,389.69c5.26-5.08,10.18-10.58,15.86-15.13c7.58-6.08,16.53-7.82,27.01-5.76
		c-13,10.44-23.99,23.03-42.07,22.03C305.74,390.45,305.48,390.07,305.21,389.69z"/>
	<path class="st0" d="M285.8,390.28c-5.14,1.31-9.56,0.47-13.95-1.27c-10.99-4.36-19.38-12.28-28.58-20.22
		C263.48,364.9,274.59,377.24,285.8,390.28z"/>
	<path class="st0" d="M270.42,420.69c-3.45-4.03-6.76-7.88-10.23-11.93c6.08-4.62,11.99-9.12,17.81-13.54
		c4.21,4.08,8.43,8.17,12.96,12.57C284.28,411.97,277.67,416.13,270.42,420.69z"/>
	<path class="st0" d="M258.56,409.66c3.52,4.1,6.75,7.86,10.21,11.9c-6.28,4.69-12.43,9.29-19.01,14.21
		c-2.18-3.19-5.03-6.1-6.22-9.58c-0.66-1.92,0.79-5.51,2.47-7.1C249.69,415.6,254.12,412.91,258.56,409.66z"/>
	<path class="st0" d="M251.31,501.26c-6-4.52-9.36-10.84-11.83-17.69c-0.36-1,0.19-2.69,0.88-3.65c1.51-2.09,3.39-3.92,5.24-5.99
		c5.97,5.46,11.71,10.71,17.74,16.22C259.51,493.68,255.55,497.34,251.31,501.26z"/>
	<path class="st0" d="M366.98,485.95c-0.63-6.24,1.83-11.5,5.68-16.05c4.5-5.32,10.45-8.67,16.93-11.21
		c2.42,12.11-7.93,26.92-19.96,28.66c-0.81,0.12-1.79-0.94-2.68-1.43c1.24-0.59,2.73-0.93,3.63-1.85c3.23-3.3,6.3-6.75,9.34-10.22
		c1.72-1.97,3.26-4.11,4.88-6.18c-0.25-0.2-0.51-0.4-0.76-0.6c-0.87,0.98-1.73,1.97-2.62,2.95
		C376.61,475.32,371.79,480.63,366.98,485.95z"/>
	<path class="st0" d="M395.96,492.29c-6,9.18-23.5,13.34-34.67,8.24C368.67,491.14,382.76,487.28,395.96,492.29z"/>
	<path class="st0" d="M308.1,394.31c-4.94,4.03-9.88,8.05-15.13,12.33c-4.29-4.18-8.23-8.03-12.18-11.89
		c0.17-0.39,0.35-0.77,0.52-1.16c8.76,0,17.53,0,26.29,0C307.77,393.84,307.94,394.08,308.1,394.31z"/>
	<path class="st0" d="M340.31,438.25c2.89-3.74,5.61-7.25,8.33-10.76c0.38-0.01,0.77-0.02,1.15-0.02
		c1.78,6.97,3.56,13.94,5.34,20.91c-0.31,0.17-0.63,0.34-0.94,0.51C349.59,445.36,344.99,441.84,340.31,438.25z"/>
	<path class="st0" d="M237.69,505.76c-8.66,0.5-17.74-5.04-21.53-12.96C224.17,492.01,233.76,497.68,237.69,505.76z"/>
	<path class="st0" d="M248.44,436.86c-4,3.71-7.81,7.26-12.29,11.42c1.7-6.96,3.31-13.53,5.11-20.87c1.26,1.5,1.85,2.13,2.36,2.82
		C245.24,432.42,246.83,434.64,248.44,436.86z"/>
	<path class="st0" d="M334.13,402.79c-1.19,1.55-2.09,2.71-3.59,4.66c-5.42-4.15-10.73-8.21-16.04-12.28c0.2-0.32,0.4-0.64,0.6-0.96
		C322.27,394.78,328.13,398.38,334.13,402.79z"/>
	<path class="st0" d="M346.29,471.79c2.63-3.4,5.51-7.11,8.38-10.82c0.39,0.11,0.78,0.21,1.18,0.32c-0.72,5.9-1.44,11.81-2.25,18.5
		C350.8,476.73,348.72,474.45,346.29,471.79z"/>
	<path class="st0" d="M244.55,472.26c-2.04,2.3-3.98,4.5-5.93,6.7c-0.37-0.01-0.73-0.03-1.1-0.04c-0.72-5.67-1.43-11.35-2.15-17.02
		c0.3-0.12,0.61-0.24,0.91-0.36C238.96,464.99,241.62,468.45,244.55,472.26z"/>
	<path class="st0" d="M275.48,394.95c-5.18,3.92-10.37,7.83-15.9,12.01c-0.98-1.41-1.71-2.48-2.6-3.76
		C262.08,397.96,268.35,395.7,275.48,394.95z"/>
	<path class="st0" d="M335.68,404.03c2.99,4.01,5.7,7.65,8.41,11.29c-0.22,0.24-0.44,0.47-0.67,0.71c-3.56-2.53-7.11-5.05-10.98-7.8
		C333.49,406.86,334.36,405.73,335.68,404.03z"/>
	<path class="st0" d="M248.09,414.04c2.24-3.08,4.48-6.16,6.74-9.26c3.22,2.7,3.27,2.99,0.56,5.15c-2.12,1.69-4.36,3.23-6.55,4.84
		C248.59,414.52,248.34,414.28,248.09,414.04z"/>
	<path d="M366.98,485.95c4.82-5.32,9.63-10.63,14.45-15.95c0.88-0.97,1.74-1.96,2.62-2.95c0.25,0.2,0.51,0.4,0.76,0.6
		c-1.62,2.06-3.16,4.2-4.88,6.18c-3.04,3.48-6.11,6.93-9.34,10.22c-0.9,0.92-2.39,1.26-3.63,1.85
		C366.93,485.89,366.98,485.95,366.98,485.95z"/>
</g>
</svg>
