<?xml version="1.0" encoding="utf-8"?>
<!-- Generator: Adobe Illustrator 23.0.1, SVG Export Plug-In . SVG Version: 6.00 Build 0)  -->
<svg version="1.1" id="Layer_1" xmlns="http://www.w3.org/2000/svg" xmlns:xlink="http://www.w3.org/1999/xlink" x="0px" y="0px"
	 viewBox="0 0 595.28 841.89" style="enable-background:new 0 0 595.28 841.89;" xml:space="preserve">
<style type="text/css">
	.st0{fill:#FFFFFF;}
</style>
<g>
	<path class="st0" d="M365.25,499.14c-44.25,0-88.5,0-132.75,0c0-51.25,0-102.5,0-153.75c44.25,0,88.5,0,132.75,0
		C365.25,396.64,365.25,447.89,365.25,499.14z M294.24,388.05c0.59,2.32,0.5,3.66-2.13,4.31c-11.45,2.79-16.85,8.63-18.3,20.31
		c-1.18,9.48-4.35,18.07-9.11,26.33c-2.51,4.36-4.47,9.28-5.52,14.19c-2.45,11.37,3.11,20.66,14.18,24.29
		c3.75,1.23,7.84,1.38,11.69,2.36c1.43,0.36,3.09,1.39,3.82,2.61c2.05,3.44,4.83,5.41,8.8,5.34c3.95-0.07,6.73-2.06,8.72-5.53
		c0.65-1.13,2.2-2.08,3.51-2.41c4.69-1.2,9.64-1.6,14.17-3.21c8.17-2.91,13.06-9.87,12.44-18.53c-0.38-5.34-1.6-11.07-4.13-15.7
		c-5.66-10.32-9.66-20.93-11.6-32.58c-1.63-9.8-7.95-15.87-18.09-17.43c-0.8-0.12-1.56-0.52-2.35-0.8
		c0.84-6.57,3.64-11.84,8.19-16.27c0.81-0.79,1.92-2.58,1.65-2.93c-1.28-1.6-2.8-3.29-4.61-4.06c-0.99-0.42-3.27,0.54-4.04,1.57
		c-2.2,2.97-3.93,6.29-5.82,9.43c-0.15-0.32-0.44-0.87-0.67-1.44c-5.3-12.85-18.13-19.83-31.83-17.14c-1.01,0.2-2.64,1.91-2.5,2.61
		c2.77,13.6,10.06,24.02,25.46,25.26C288.72,388.84,291.35,388.28,294.24,388.05z"/>
	<path d="M294.24,388.05c-2.89,0.23-5.52,0.78-8.09,0.58c-15.4-1.25-22.69-11.66-25.46-25.26c-0.14-0.7,1.49-2.41,2.5-2.61
		c13.71-2.69,26.54,4.3,31.83,17.14c0.23,0.57,0.52,1.12,0.67,1.44c1.89-3.14,3.62-6.46,5.82-9.43c0.77-1.03,3.04-1.99,4.04-1.57
		c1.81,0.76,3.34,2.46,4.61,4.06c0.27,0.34-0.84,2.14-1.65,2.93c-4.55,4.43-7.35,9.71-8.19,16.27c0.79,0.27,1.55,0.67,2.35,0.8
		c10.14,1.56,16.45,7.63,18.09,17.43c1.94,11.65,5.94,22.27,11.6,32.58c2.54,4.63,3.76,10.36,4.13,15.7
		c0.61,8.66-4.28,15.62-12.44,18.53c-4.53,1.61-9.47,2.02-14.17,3.21c-1.32,0.34-2.87,1.29-3.51,2.41
		c-1.99,3.47-4.77,5.46-8.72,5.53c-3.98,0.07-6.75-1.9-8.8-5.34c-0.73-1.22-2.39-2.25-3.82-2.61c-3.85-0.98-7.94-1.13-11.69-2.36
		c-11.06-3.63-16.62-12.92-14.18-24.29c1.06-4.91,3.01-9.83,5.52-14.19c4.75-8.26,7.93-16.85,9.11-26.33
		c1.45-11.68,6.86-17.52,18.3-20.31C294.73,391.72,294.82,390.37,294.24,388.05z M299.01,478.68c6.87-1.23,15.64-2.04,23.91-4.5
		c8.39-2.49,12.53-9.93,10.95-18.57c-0.99-5.41-2.97-10.86-5.61-15.69c-4.38-7.99-7.78-16.15-8.98-25.23
		c-0.37-2.82-1.17-5.64-2.17-8.31c-2.4-6.36-7.19-10.11-13.77-11.44c-15.02-3.03-25.12,3.96-27.18,19.07
		c-1.25,9.2-4.1,17.68-8.94,25.61c-2.06,3.38-3.79,7.09-4.94,10.87c-3.78,12.47,1.72,22.43,14.41,25.36
		C283.34,477.39,290.28,477.63,299.01,478.68z M293.68,382.71c-1.41-15.45-18.82-22.36-30.27-18.86
		c3.01,16.11,17.82,26.64,30.55,20.79c-6.87-4.9-13.38-9.56-19.9-14.21c0.18-0.27,0.37-0.55,0.55-0.82
		C280.98,373.97,287.34,378.35,293.68,382.71z M297.48,391.21c1.44-7.25,4.7-13.4,10.07-18.33c-1.94-3.22-3.67-2.82-5.36-0.13
		C298.62,378.36,296.82,384.46,297.48,391.21z M290.7,480.52c1.47,3.5,3.9,4.94,7.08,4.81c2.97-0.13,5.41-1.43,6.39-4.81
		C299.65,480.52,295.41,480.52,290.7,480.52z"/>
	<path class="st0" d="M299.01,478.68c-8.73-1.06-15.67-1.29-22.31-2.83c-12.69-2.93-18.19-12.89-14.41-25.36
		c1.15-3.78,2.88-7.49,4.94-10.87c4.84-7.93,7.68-16.42,8.94-25.61c2.06-15.11,12.16-22.1,27.18-19.07
		c6.58,1.33,11.37,5.08,13.77,11.44c1.01,2.67,1.8,5.49,2.17,8.31c1.19,9.08,4.6,17.23,8.98,25.23c2.64,4.83,4.62,10.28,5.61,15.69
		c1.58,8.64-2.57,16.08-10.95,18.57C314.65,476.64,305.88,477.45,299.01,478.68z M270.77,448.64c-5.12,4.25-4.07,15.39,1.8,17.94
		C269.43,460.82,269.01,454.85,270.77,448.64z"/>
	<path class="st0" d="M293.68,382.71c-6.34-4.36-12.7-8.74-19.06-13.11c-0.18,0.27-0.37,0.55-0.55,0.82
		c6.52,4.66,13.04,9.31,19.9,14.21c-12.73,5.85-27.54-4.68-30.55-20.79C274.86,360.35,292.28,367.27,293.68,382.71z"/>
	<path class="st0" d="M297.48,391.21c-0.66-6.75,1.14-12.84,4.7-18.46c1.7-2.68,3.43-3.08,5.36,0.13
		C302.18,377.81,298.92,383.96,297.48,391.21z"/>
	<path class="st0" d="M290.7,480.52c4.7,0,8.95,0,13.47,0c-0.99,3.38-3.43,4.68-6.39,4.81C294.61,485.47,292.17,484.03,290.7,480.52
		z"/>
	<path d="M270.77,448.64c-1.76,6.21-1.34,12.18,1.8,17.94C266.71,464.03,265.65,452.89,270.77,448.64z"/>
</g>
</svg>
