<?xml version="1.0" encoding="utf-8"?>
<!-- Generator: Adobe Illustrator 23.0.1, SVG Export Plug-In . SVG Version: 6.00 Build 0)  -->
<svg version="1.1" id="Layer_1" xmlns="http://www.w3.org/2000/svg" xmlns:xlink="http://www.w3.org/1999/xlink" x="0px" y="0px"
	 viewBox="0 0 595.28 841.89" style="enable-background:new 0 0 595.28 841.89;" xml:space="preserve">
<style type="text/css">
	.st0{fill:#FFFFFF;}
</style>
<g>
	<path class="st0" d="M369.75,501.39c-47.75,0-95.5,0-143.25,0c0-53.25,0-106.5,0-159.75c47.75,0,95.5,0,143.25,0
		C369.75,394.89,369.75,448.14,369.75,501.39z M345.17,422.05c-0.3-3.48-0.4-7-0.93-10.44c-2.64-16.87-9.35-31.37-24.76-40.35
		c-4.44-2.59-8-5.64-10.73-10.08c-5.53-8.99-16.99-8.82-22.29,0.27c-2.36,4.05-5.4,7.01-9.52,9.19
		c-10.01,5.31-16.84,13.59-21.23,23.9c-5.81,13.65-6.86,27.81-3.8,42.24c3.43,16.16,11.37,29.07,26.59,36.99
		c3.19,1.66,5.77,5.08,7.84,8.21c6.11,9.24,16.82,9.45,22.45,0.01c2.4-4.02,5.48-6.98,9.63-9.09c8.03-4.08,14.02-10.31,18.45-18.11
		C342.64,444.63,344.88,433.62,345.17,422.05z"/>
	<path d="M345.17,422.05c-0.29,11.57-2.53,22.58-8.3,32.74c-4.44,7.8-10.42,14.03-18.45,18.11c-4.15,2.11-7.23,5.06-9.63,9.09
		c-5.63,9.44-16.34,9.23-22.45-0.01c-2.07-3.13-4.65-6.55-7.84-8.21c-15.21-7.92-23.16-20.83-26.59-36.99
		c-3.06-14.43-2.01-28.59,3.8-42.24c4.39-10.31,11.22-18.59,21.23-23.9c4.11-2.18,7.15-5.14,9.52-9.19
		c5.31-9.09,16.76-9.27,22.29-0.27c2.73,4.44,6.29,7.49,10.73,10.08c15.4,8.98,22.12,23.47,24.76,40.35
		C344.77,415.05,344.87,418.56,345.17,422.05z M342.59,422.13c-0.46-4.34-0.64-8.73-1.43-13.01c-2.74-14.83-9.14-27.5-22.66-35.36
		c-4.88-2.84-8.83-6.22-11.86-11.05c-4.86-7.74-13.9-7.39-18.33,0.64c-2.27,4.12-5.32,7.08-9.47,9.2
		c-7.65,3.91-13.51,9.8-17.75,17.25c-7.88,13.83-9.87,28.7-7.09,44.18c2.97,16.54,10.64,29.87,26.32,37.84
		c3.19,1.62,5.73,5.11,7.81,8.24c5.63,8.48,13.53,8.66,18.86-0.05c2.49-4.08,5.66-7.15,9.95-9.31c8.19-4.11,14.17-10.52,18.4-18.59
		C340.24,442.74,342.44,432.72,342.59,422.13z"/>
	<path class="st0" d="M342.59,422.13c-0.15,10.58-2.35,20.61-7.26,29.98c-4.23,8.07-10.21,14.48-18.4,18.59
		c-4.28,2.15-7.45,5.23-9.95,9.31c-5.33,8.71-13.23,8.54-18.86,0.05c-2.08-3.13-4.62-6.62-7.81-8.24
		c-15.68-7.97-23.35-21.3-26.32-37.84c-2.78-15.48-0.79-30.35,7.09-44.18c4.24-7.45,10.1-13.33,17.75-17.25
		c4.16-2.13,7.2-5.08,9.47-9.2c4.43-8.03,13.47-8.39,18.33-0.64c3.03,4.83,6.98,8.21,11.86,11.05
		c13.52,7.86,19.92,20.54,22.66,35.36C341.95,413.4,342.13,417.79,342.59,422.13z M297.94,454.98
		c17.52-0.03,31.73-14.15,31.84-31.65c0.11-17.7-14.4-32.36-32.04-32.4c-17.78-0.03-32.17,14.12-32.21,31.68
		C265.48,440.57,279.95,455.01,297.94,454.98z M263.68,398.79c1.09-0.63,1.51-0.74,1.7-1c0.43-0.6,0.79-1.27,1.11-1.94
		c3.97-8.33,10.14-14.34,18.67-17.95c0.82-0.35,1.35-1.38,2.02-2.09c-1.08-0.06-2.34-0.52-3.21-0.13
		c-9.11,4.05-15.9,10.55-20.07,19.65C263.51,396.15,263.75,397.27,263.68,398.79z M330.38,444.48c-4.11,9.92-10.81,16.86-20.04,21.5
		c2.5,2.13,6.45,0.16,12.37-5.49C329.12,454.36,332.79,447.54,330.38,444.48z M275.82,461.74c3.7,4.79,7.58,6.38,10.09,4.15
		C282.19,464.83,279.81,461.4,275.82,461.74z M291.99,367.64c0.37,0.02,0.74,0.04,1.11,0.07c0.92-0.97,1.97-1.86,2.69-2.96
		c0.26-0.4-0.28-1.33-0.45-2.01c-1.16,0.79-2.48,1.43-3.4,2.43C291.53,365.6,291.94,366.79,291.99,367.64z"/>
	<path d="M297.94,454.98c-17.99,0.03-32.45-14.42-32.41-32.37c0.04-17.56,14.43-31.71,32.21-31.68c17.64,0.03,32.15,14.7,32.04,32.4
		C329.67,440.83,315.45,454.96,297.94,454.98z M327.17,423.36c-0.01-16.56-13.25-29.97-29.58-29.96
		c-16.05,0.01-29.45,13.24-29.6,29.21c-0.15,16.31,13.28,29.82,29.71,29.88C313.91,452.54,327.18,439.43,327.17,423.36z"/>
	<path d="M263.68,398.79c0.07-1.52-0.17-2.64,0.21-3.47c4.17-9.1,10.96-15.6,20.07-19.65c0.88-0.39,2.13,0.07,3.21,0.13
		c-0.67,0.71-1.2,1.75-2.02,2.09c-8.53,3.61-14.7,9.63-18.67,17.95c-0.32,0.67-0.68,1.33-1.11,1.94
		C265.19,398.05,264.77,398.16,263.68,398.79z"/>
	<path d="M330.38,444.48c2.41,3.07-1.26,9.89-7.67,16.01c-5.91,5.65-9.86,7.61-12.37,5.49C319.57,461.34,326.28,454.4,330.38,444.48
		z"/>
	<path d="M275.82,461.74c3.99-0.35,6.37,3.09,10.09,4.15C283.41,468.13,279.53,466.53,275.82,461.74z"/>
	<path d="M291.99,367.64c-0.04-0.85-0.45-2.04-0.05-2.48c0.92-1,2.24-1.64,3.4-2.43c0.17,0.69,0.71,1.61,0.45,2.01
		c-0.72,1.1-1.77,1.99-2.69,2.96C292.72,367.68,292.35,367.66,291.99,367.64z"/>
	<path class="st0" d="M327.17,423.36c0.01,16.07-13.26,29.19-29.47,29.13c-16.43-0.06-29.86-13.56-29.71-29.88
		c0.15-15.97,13.55-29.2,29.6-29.21C313.93,393.39,327.17,406.8,327.17,423.36z M285.42,423.32c0,3.86-0.03,7.72,0.01,11.58
		c0.04,4.58,2.19,6.03,6.16,3.88c7.01-3.78,13.95-7.7,20.83-11.72c3.79-2.22,3.84-5.2,0.07-7.42c-6.97-4.11-14.03-8.06-21.15-11.91
		c-3.48-1.88-5.82-0.38-5.91,3.62C285.34,415.34,285.41,419.33,285.42,423.32z"/>
	<path d="M285.42,423.32c0-3.99-0.07-7.97,0.01-11.96c0.09-4,2.43-5.51,5.91-3.62c7.11,3.85,14.18,7.8,21.15,11.91
		c3.77,2.22,3.72,5.2-0.07,7.42c-6.88,4.02-13.82,7.94-20.83,11.72c-3.97,2.14-6.12,0.7-6.16-3.88
		C285.4,431.04,285.42,427.18,285.42,423.32z M312.9,423.94c-0.04-0.46-0.08-0.92-0.12-1.37c-7.94-4.47-15.88-8.93-24.49-13.77
		c0,9.96,0,18.94,0,28.91C296.83,432.93,304.86,428.43,312.9,423.94z"/>
	<path class="st0" d="M312.9,423.94c-8.03,4.49-16.07,8.98-24.61,13.76c0-9.96,0-18.94,0-28.91c8.61,4.84,16.55,9.31,24.49,13.77
		C312.82,423.03,312.86,423.49,312.9,423.94z"/>
</g>
</svg>
