<?xml version="1.0" encoding="utf-8"?>
<!-- Generator: Adobe Illustrator 23.0.1, SVG Export Plug-In . SVG Version: 6.00 Build 0)  -->
<svg version="1.1" id="Layer_1" xmlns="http://www.w3.org/2000/svg" xmlns:xlink="http://www.w3.org/1999/xlink" x="0px" y="0px"
	 viewBox="0 0 595.28 841.89" style="enable-background:new 0 0 595.28 841.89;" xml:space="preserve">
<style type="text/css">
	.st0{fill:#FFFFFF;}
</style>
<g>
	<path class="st0" d="M382.5,496.14c-56,0-112,0-168,0c0-49.5,0-99,0-148.5c56,0,112,0,168,0
		C382.5,397.14,382.5,446.64,382.5,496.14z M301.35,394.31c-7.62,3.33-7.29,9.77-7.47,16.09c-0.1,3.62-0.88,7.24-0.7,10.83
		c0.12,2.43,0.76,5.29,2.23,7.11c8.67,10.82,17.63,21.42,26.54,32.05c3.31,3.96,5.99,4.22,9.91,0.96
		c9.8-8.15,19.58-16.34,29.33-24.55c4.3-3.62,4.49-5.8,0.89-10.06c-6.63-7.82-13.83-15.21-19.84-23.47
		c-6.37-8.77-13.74-14.11-25.01-12.42c-1.08,0.16-2.24-0.27-3.36-0.23c-3.73,0.12-7.46,0.34-11.8,0.55
		c-1.94-2.34-4.47-5.4-7.25-8.75c1.71-1.79,3.49-3.51,5.09-5.39c0.66-0.77,1.55-2.38,1.26-2.72c-1.38-1.66-2.92-3.51-4.82-4.28
		c-1-0.41-3.31,0.91-4.21,2.07c-2.06,2.67-3.62,5.74-5.43,8.71c-0.28-0.65-0.55-1.21-0.77-1.79c-5.33-13.88-17.69-21.57-32.41-19.96
		c-1,0.11-2.68,1.58-2.66,2.4c0.28,13.07,10.52,25.32,23.33,27.69c3.44,0.63,7.1,0.1,10.87,0.1c-0.12,2.36-0.22,4.18-0.32,6.17
		c-0.83-0.07-1.31-0.05-1.77-0.15c-22.96-5.17-42.94,10.2-43.76,33.71c-0.68,19.48,8.69,33.28,24.67,43.28
		c4.76,2.98,9.48,6.03,14.36,8.78c1.2,0.68,3.21,0.89,4.44,0.36c6.76-2.91,13.6-5.75,20.01-9.33c4.74-2.65,8.91-6.35,13.23-9.72
		c0.71-0.56,0.82-1.87,1.21-2.83c-0.35-0.2-0.7-0.4-1.05-0.6c-7.46,7.73-16.74,12.51-26.42,16.64c-3.07,1.31-6.81,4.08-9.15,3.21
		c-2.67-0.99-4.25-5.2-6.08-8.15c-7.24-11.71-11.73-24.22-11.18-38.24c0.6-15.49,10.63-33.33,29.19-35.95
		c0.71-0.1,1.37-0.63,2.75-1.3c-1.83-0.75-2.88-1.19-4.35-1.79c0.85-2.71,1.67-5.35,2.69-8.6
		C296.28,388.09,298.54,390.87,301.35,394.31z"/>
	<path d="M301.35,394.31c-2.81-3.44-5.07-6.22-7.82-9.6c-1.02,3.26-1.84,5.9-2.69,8.6c1.47,0.6,2.52,1.04,4.35,1.79
		c-1.39,0.67-2.04,1.19-2.75,1.3c-18.56,2.62-28.58,20.46-29.19,35.95c-0.55,14.03,3.94,26.54,11.18,38.24
		c1.83,2.95,3.41,7.17,6.08,8.15c2.34,0.86,6.09-1.91,9.15-3.21c9.68-4.12,18.96-8.91,26.42-16.64c0.35,0.2,0.7,0.4,1.05,0.6
		c-0.39,0.96-0.51,2.28-1.21,2.83c-4.31,3.38-8.48,7.07-13.23,9.72c-6.41,3.58-13.25,6.43-20.01,9.33
		c-1.23,0.53-3.24,0.31-4.44-0.36c-4.88-2.76-9.6-5.8-14.36-8.78c-15.98-10-25.35-23.8-24.67-43.28
		c0.82-23.51,20.81-38.88,43.76-33.71c0.46,0.1,0.94,0.08,1.77,0.15c0.1-1.99,0.2-3.82,0.32-6.17c-3.78,0-7.43,0.54-10.87-0.1
		c-12.81-2.36-23.05-14.62-23.33-27.69c-0.02-0.81,1.66-2.29,2.66-2.4c14.72-1.61,27.08,6.08,32.41,19.96
		c0.22,0.58,0.49,1.14,0.77,1.79c1.81-2.98,3.37-6.04,5.43-8.71c0.9-1.17,3.21-2.48,4.21-2.07c1.9,0.77,3.44,2.62,4.82,4.28
		c0.28,0.34-0.61,1.96-1.26,2.72c-1.6,1.88-3.38,3.6-5.09,5.39c2.78,3.36,5.31,6.41,7.25,8.75c4.34-0.21,8.07-0.42,11.8-0.55
		c1.12-0.04,2.27,0.39,3.36,0.23c11.26-1.68,18.63,3.66,25.01,12.42c6.01,8.26,13.21,15.65,19.84,23.47
		c3.61,4.26,3.41,6.44-0.89,10.06c-9.75,8.21-19.53,16.4-29.33,24.55c-3.92,3.26-6.6,3-9.91-0.96
		c-8.9-10.64-17.87-21.23-26.54-32.05c-1.46-1.82-2.11-4.69-2.23-7.11c-0.18-3.59,0.6-7.22,0.7-10.83
		C294.06,404.08,293.73,397.64,301.35,394.31z M301.98,396.01c-1.74,2.54-4.32,4.73-4.77,7.3c-1.08,6.11-1.26,12.4-1.57,18.63
		c-0.07,1.47,0.4,3.31,1.31,4.42c8.93,10.91,18.03,21.69,27.03,32.55c1.99,2.4,3.8,2.68,6.28,0.55
		c9.75-8.37,19.57-16.67,29.47-24.87c2.5-2.07,2.62-3.72,0.5-6.15c-9.17-10.55-18.16-21.26-27.4-31.75
		c-1.25-1.42-3.45-2.54-5.33-2.75c-6.07-0.67-12.19-0.98-18.3-1.14c-1.58-0.04-3.19,0.96-5.37,1.67c2.52,2.27,2.52,5.66,6.37,5
		c3.23-0.55,5.47,1.41,6.43,4.52c1,3.23,0,6.03-2.7,7.91c-2.6,1.82-5.5,1.72-7.99-0.32c-2.59-2.12-3.71-5.2-1.93-8.01
		C306.05,400.36,304.6,398.63,301.98,396.01z M273.61,474.62c-0.99-1.76-1.62-2.67-2.04-3.66c-3.18-7.56-7.26-14.9-9.28-22.76
		c-4.65-18.07-0.43-38.87,17.41-50.25c0.16-0.1,0.19-0.42,0.27-0.65c-5.91-1.61-13.1-0.7-19.6,2.48
		c-15.95,7.8-22.89,27.06-16.37,45.33C249.06,459.26,259.83,467.73,273.61,474.62z M263.87,369.88c0.24-0.29,0.47-0.58,0.71-0.86
		c6.69,5.16,13.39,10.33,20.22,15.6c-2.72-15.34-18.62-26.74-31.18-22.59c1.16,16.29,17.93,29.66,30.63,23.74
		C277.32,380.36,270.59,375.12,263.87,369.88z M298.74,374.76c-0.12-0.48-0.23-0.96-0.35-1.44c-1.32-0.06-3.04-0.68-3.89-0.08
		c-4.36,3.09-8.08,15.64-6.19,21.91C289.37,386.52,292.55,379.84,298.74,374.76z M306.61,404.46c-0.37,0.09-0.75,0.17-1.12,0.26
		c0.76,1.7,1.1,3.99,2.4,4.92c1.11,0.79,3.89,0.64,4.91-0.25c1.07-0.95,1.53-3.44,1.12-4.94c-0.33-1.22-2.35-1.97-3.74-3.02
		c0,2.54,0,4.2,0,5.86C308.99,406.34,307.8,405.4,306.61,404.46z"/>
	<path class="st0" d="M301.98,396.01c2.61,2.62,4.07,4.35,2.03,7.55c-1.78,2.8-0.66,5.89,1.93,8.01c2.49,2.04,5.39,2.13,7.99,0.32
		c2.7-1.88,3.69-4.68,2.7-7.91c-0.96-3.1-3.2-5.07-6.43-4.52c-3.85,0.66-3.85-2.73-6.37-5c2.18-0.71,3.79-1.71,5.37-1.67
		c6.11,0.16,12.23,0.47,18.3,1.14c1.88,0.21,4.09,1.33,5.33,2.75c9.24,10.49,18.22,21.2,27.4,31.75c2.12,2.43,2,4.08-0.5,6.15
		c-9.9,8.2-19.72,16.5-29.47,24.87c-2.48,2.13-4.29,1.85-6.28-0.55c-9-10.86-18.1-21.63-27.03-32.55c-0.91-1.11-1.38-2.95-1.31-4.42
		c0.31-6.23,0.49-12.52,1.57-18.63C297.67,400.74,300.25,398.55,301.98,396.01z M346.65,432.79c2.57-0.45,4.55-1.67,4.18-4.48
		c-0.38-2.89-1.9-5.41-5.04-5.61c-1.29-0.08-3.16,1.26-3.88,2.48c-0.5,0.84,0.14,3.3,0.96,3.74c1.05,0.56,2.82-0.09,4.24-0.41
		c0.54-0.12,0.96-0.79,1.43-1.21c0.34,0.26,0.69,0.52,1.03,0.77C348.59,429.66,347.62,431.23,346.65,432.79z M329.43,450.21
		c-0.74-2.23-0.84-4.97-2.11-5.73c-1.57-0.93-4.12-0.22-6.24-0.22c0.31-0.75,0.98-0.91,1.45-1.31c0.6-0.51,1.03-1.22,1.86-2.23
		c-1.97,0-3.19,0-4.48,0c-0.07,0.55-0.07,1.17-0.25,1.73c-1.32,4.16-1.29,4.13,3.26,4.35c0.94,0.05,1.83,0.91,2.86,1.45
		c-0.95,0.88-1.59,1.47-2.95,2.73C325.27,450.7,326.75,450.52,329.43,450.21z M336.48,434.65c2.41-0.24,4.08-0.41,5.76-0.58
		c-0.9,1.41-1.8,2.82-3.22,5.06c1.53-0.67,3.06-0.89,3.77-1.77c0.82-1.01,1.6-2.87,1.2-3.9c-1.52-3.91-4.74-1.05-7.86-1.12
		c0.84-1.13,1.31-1.75,1.76-2.39c0.44-0.62,0.85-1.27,1.6-2.39C333.69,429.99,333.5,430.71,336.48,434.65z M331.54,446.83
		c2.69-2.21,4.72-3.88,6.74-5.55c-1.2-0.39-1.91-0.08-2.59,0.29c-0.8,0.43-1.57,0.9-2.52,1.45c0.01-6.87-0.34-8.11-2.55-8.16
		c-2.65-0.06-4.14,1.48-5.07,4.75c1.16-0.66,1.62-0.94,2.09-1.18c0.99-0.52,1.99-1.02,2.99-1.53c0.31,1.11,0.79,2.21,0.88,3.33
		C331.65,442.13,331.54,444.04,331.54,446.83z"/>
	<path class="st0" d="M273.61,474.62c-13.78-6.9-24.55-15.37-29.6-29.51c-6.52-18.27,0.42-37.53,16.37-45.33
		c6.5-3.18,13.69-4.09,19.6-2.47c-0.09,0.22-0.11,0.54-0.28,0.64c-17.84,11.38-22.06,32.18-17.41,50.25
		c2.02,7.86,6.1,15.2,9.28,22.76C271.99,471.96,272.62,472.86,273.61,474.62z M249.85,425.51c0.5-0.22,0.78-0.26,0.93-0.43
		c0.24-0.27,0.49-0.6,0.55-0.93c1.11-6.49,3.82-12.07,9-16.34c0.53-0.44,0.4-1.67,0.67-3.01
		C253.69,408.18,247.54,420.04,249.85,425.51z"/>
	<path class="st0" d="M263.87,369.88c6.72,5.24,13.45,10.48,20.38,15.89c-12.7,5.92-29.47-7.46-30.63-23.74
		c12.56-4.15,28.46,7.25,31.18,22.59c-6.84-5.27-13.53-10.44-20.22-15.6C264.34,369.3,264.11,369.59,263.87,369.88z"/>
	<path class="st0" d="M298.74,374.76c-6.19,5.08-9.37,11.75-10.43,20.38c-1.9-6.27,1.83-18.82,6.19-21.91
		c0.85-0.6,2.57,0.02,3.89,0.08C298.51,373.8,298.62,374.28,298.74,374.76z"/>
	<path class="st0" d="M306.61,404.46c1.19,0.94,2.38,1.88,3.58,2.83c0-1.66,0-3.32,0-5.86c1.38,1.04,3.41,1.8,3.74,3.02
		c0.41,1.5-0.05,3.99-1.12,4.94c-1.02,0.9-3.8,1.04-4.91,0.25c-1.31-0.93-1.64-3.22-2.4-4.92
		C305.86,404.63,306.23,404.54,306.61,404.46z"/>
	<path d="M346.65,432.79c0.97-1.57,1.95-3.14,2.92-4.71c-0.34-0.26-0.69-0.52-1.03-0.77c-0.47,0.42-0.89,1.08-1.43,1.21
		c-1.42,0.32-3.19,0.97-4.24,0.41c-0.82-0.44-1.46-2.9-0.96-3.74c0.72-1.22,2.59-2.56,3.88-2.48c3.14,0.19,4.65,2.72,5.04,5.61
		C351.2,431.13,349.22,432.35,346.65,432.79z"/>
	<path d="M329.43,450.21c-2.68,0.31-4.15,0.48-6.61,0.77c1.36-1.26,2-1.85,2.95-2.73c-1.02-0.54-1.92-1.4-2.86-1.45
		c-4.55-0.23-4.58-0.2-3.26-4.35c0.18-0.56,0.17-1.18,0.25-1.73c1.28,0,2.5,0,4.48,0c-0.82,1.01-1.26,1.72-1.86,2.23
		c-0.47,0.4-1.14,0.56-1.45,1.31c2.13,0,4.67-0.71,6.24,0.22C328.59,445.24,328.68,447.98,329.43,450.21z"/>
	<path d="M336.48,434.65c-2.98-3.94-2.79-4.67,3.01-7.11c-0.75,1.13-1.16,1.77-1.6,2.39c-0.45,0.64-0.93,1.26-1.76,2.39
		c3.12,0.07,6.34-2.79,7.86,1.12c0.4,1.03-0.38,2.89-1.2,3.9c-0.72,0.88-2.25,1.1-3.77,1.77c1.42-2.24,2.32-3.65,3.22-5.06
		C340.57,434.24,338.89,434.41,336.48,434.65z"/>
	<path d="M331.54,446.83c0-2.79,0.11-4.7-0.04-6.59c-0.09-1.13-0.57-2.22-0.88-3.33c-1,0.51-1.99,1.01-2.99,1.53
		c-0.47,0.25-0.92,0.52-2.09,1.18c0.92-3.27,2.42-4.81,5.07-4.75c2.21,0.05,2.55,1.29,2.55,8.16c0.96-0.55,1.73-1.03,2.52-1.45
		c0.68-0.37,1.39-0.69,2.59-0.29C336.26,442.95,334.24,444.62,331.54,446.83z"/>
	<path d="M249.85,425.51c-2.31-5.47,3.84-17.32,11.15-20.71c-0.27,1.34-0.14,2.57-0.67,3.01c-5.18,4.28-7.89,9.85-9,16.34
		c-0.06,0.33-0.31,0.66-0.55,0.93C250.63,425.25,250.35,425.29,249.85,425.51z"/>
</g>
</svg>
