<?xml version="1.0" encoding="utf-8"?>
<!-- Generator: Adobe Illustrator 23.0.1, SVG Export Plug-In . SVG Version: 6.00 Build 0)  -->
<svg version="1.1" id="Layer_1" xmlns="http://www.w3.org/2000/svg" xmlns:xlink="http://www.w3.org/1999/xlink" x="0px" y="0px"
	 viewBox="0 0 595.28 841.89" style="enable-background:new 0 0 595.28 841.89;" xml:space="preserve">
<style type="text/css">
	.st0{fill:#FFFFFF;}
</style>
<g>
	<path class="st0" d="M223.5,343.14c50.25,0,100.5,0,150.75,0c0,52,0,104,0,156c-50.25,0-100.5,0-150.75,0
		C223.5,447.14,223.5,395.14,223.5,343.14z M293.71,394.26c-1.27-0.34-1.98-0.53-2.68-0.71c-20.85-5.61-38.74,5.63-42.64,26.8
		c-5.75,31.18,13.64,60.61,44.62,67.48c2.58,0.57,5.5,0.53,8.09-0.04c30.03-6.67,49.32-35.13,44.54-65.49
		c-3.26-20.74-18.38-32.64-37.73-29.62c-2.64,0.41-5.23,1.2-8.17,1.89c0-2.15,0-3.92,0-5.77c0.64,0,1.01-0.03,1.37,0
		c18.74,1.97,33.36-10.38,34.32-29.16c0.05-0.92-1.05-2.6-1.84-2.75c-13.96-2.67-29.47,6.32-34.29,19.69
		c-0.42,1.18-0.85,2.36-1.29,3.58c-2.07-3.36-3.75-6.57-5.9-9.44c-2.11-2.82-4.31-2.56-7.34,0.02c-2.7,2.3-1.39,3.92,0.51,5.81
		C290.02,381.27,292.91,386.92,293.71,394.26z"/>
	<path d="M293.71,394.26c-0.8-7.34-3.69-12.99-8.43-17.71c-1.9-1.89-3.22-3.51-0.51-5.81c3.04-2.58,5.23-2.84,7.34-0.02
		c2.15,2.87,3.83,6.08,5.9,9.44c0.44-1.22,0.86-2.4,1.29-3.58c4.81-13.38,20.33-22.36,34.29-19.69c0.79,0.15,1.89,1.83,1.84,2.75
		c-0.96,18.77-15.57,31.13-34.32,29.16c-0.36-0.04-0.74,0-1.37,0c0,1.85,0,3.62,0,5.77c2.93-0.69,5.52-1.48,8.17-1.89
		c19.35-3.02,34.47,8.88,37.73,29.62c4.78,30.36-14.52,58.83-44.54,65.49c-2.58,0.57-5.51,0.61-8.09,0.04
		c-30.97-6.87-50.37-36.3-44.62-67.48c3.9-21.17,21.79-32.41,42.64-26.8C291.73,393.74,292.43,393.92,293.71,394.26z M250.15,433.17
		c0.25,27.89,19.22,45.8,43.77,52.28c1.96,0.52,4.3,0.43,6.27-0.1c24.88-6.68,45.77-26.41,43.19-59.26
		c-1.93-24.52-20.43-36.37-42.05-29.14c-2.57,0.86-5.97,0.59-8.59-0.31c-15.35-5.24-30.29-0.21-37.66,13.04
		C251.38,416.29,250.15,423.5,250.15,433.17z M332.63,359.88c-15.26-3.31-32.58,9.61-32.21,24.03c6.75-5.45,13.51-10.91,20.28-16.37
		c0.21,0.26,0.42,0.53,0.63,0.79c-6.78,5.66-13.57,11.33-20.83,17.39C315.94,390.29,331.42,377.23,332.63,359.88z M285.91,373.7
		c5.94,5.66,9.62,12.63,10.7,20.94c1.32-7.97-1.23-14.84-5.39-21.26C289.59,370.85,287.89,370.61,285.91,373.7z"/>
	<path class="st0" d="M250.15,433.17c0-9.67,1.23-16.87,4.92-23.5c7.37-13.25,22.32-18.27,37.66-13.04c2.62,0.9,6.03,1.17,8.59,0.31
		c21.63-7.23,40.12,4.62,42.05,29.14c2.58,32.85-18.31,52.59-43.19,59.26c-1.97,0.53-4.32,0.61-6.27,0.1
		C269.36,478.97,250.4,461.06,250.15,433.17z M276.6,439.97c0.72,12.14,7.37,21.9,18.05,29.16c1.03,0.7,3.24,0.62,4.42,0
		c10.99-5.75,18.9-20.61,17.64-32.9c-1.04-10.16-6.16-18.3-12.93-25.58c-6.57-7.07-7.5-7.14-13.92,0.02
		C282.65,418.71,276.91,427.51,276.6,439.97z"/>
	<path class="st0" d="M332.63,359.88c-1.21,17.35-16.69,30.41-32.13,25.84c7.26-6.06,14.04-11.73,20.83-17.39
		c-0.21-0.26-0.42-0.53-0.63-0.79c-6.76,5.46-13.52,10.92-20.28,16.37C300.06,369.49,317.37,356.57,332.63,359.88z"/>
	<path class="st0" d="M285.91,373.7c1.98-3.09,3.68-2.85,5.31-0.32c4.16,6.42,6.7,13.28,5.39,21.26
		C295.53,386.33,291.85,379.36,285.91,373.7z"/>
	<path d="M276.6,439.97c0.31-12.46,6.06-21.26,13.26-29.29c6.43-7.17,7.35-7.09,13.92-0.02c6.77,7.28,11.9,15.42,12.93,25.58
		c1.25,12.29-6.65,27.15-17.64,32.9c-1.19,0.62-3.39,0.7-4.42,0C283.97,461.87,277.32,452.11,276.6,439.97z M296.24,407.33
		c-3.2,3.77-6.5,7.18-9.26,10.98c-12.18,16.76-9.54,34.64,6.7,47.44c2.27,1.79,3.87,1.8,6.15,0.01
		C318.31,451.35,321.14,427.57,296.24,407.33z"/>
	<path class="st0" d="M296.24,407.33c24.9,20.23,22.07,44.01,3.59,58.44c-2.28,1.78-3.88,1.77-6.15-0.01
		c-16.25-12.8-18.89-30.68-6.7-47.44C289.74,414.51,293.04,411.1,296.24,407.33z M311.3,440.41c0-10.12-5.3-20.41-12.14-25.68
		c-1.88-1.45-3.52-1.35-4.9,0.3c-3.1,3.72-6.63,7.24-8.9,11.44c-6.27,11.58-2.86,25.8,7.43,34.03c2.79,2.24,5.15,2.41,7.94,0.02
		C307.44,454.74,311.08,447.56,311.3,440.41z"/>
	<path d="M311.3,440.41c-0.22,7.15-3.86,14.34-10.58,20.11c-2.78,2.39-5.14,2.22-7.94-0.02c-10.29-8.24-13.7-22.46-7.43-34.03
		c2.27-4.19,5.81-7.72,8.9-11.44c1.38-1.65,3.02-1.75,4.9-0.3C306,419.99,311.3,430.29,311.3,440.41z M284.74,441.34
		c0.05,4.61,2.9,10.56,7.79,15.59c3.57,3.68,5.03,3.77,8.62,0c11.23-11.8,10.44-27.55-3-39.53c-0.56-0.5-2.47-0.39-3.07,0.17
		C288.94,423.31,284.81,430.1,284.74,441.34z"/>
	<path class="st0" d="M284.74,441.34c0.08-11.24,4.21-18.03,10.34-23.77c0.6-0.56,2.5-0.68,3.07-0.17
		c13.44,11.99,14.23,27.73,3,39.53c-3.59,3.77-5.05,3.68-8.62,0C287.64,451.89,284.79,445.95,284.74,441.34z"/>
</g>
</svg>
