<?xml version="1.0" encoding="utf-8"?>
<!-- Generator: Adobe Illustrator 23.0.1, SVG Export Plug-In . SVG Version: 6.00 Build 0)  -->
<svg version="1.1" id="Layer_1" xmlns="http://www.w3.org/2000/svg" xmlns:xlink="http://www.w3.org/1999/xlink" x="0px" y="0px"
	 viewBox="0 0 595.28 841.89" style="enable-background:new 0 0 595.28 841.89;" xml:space="preserve">
<style type="text/css">
	.st0{fill:#FFFFFF;}
</style>
<g>
	<path class="st0" d="M169.5,321.39c85.75,0,171.5,0,257.25,0c0,66.75,0,133.5,0,200.25c-85.75,0-171.5,0-257.25,0
		C169.5,454.89,169.5,388.14,169.5,321.39z M327.19,433.06c4.07-16.53,2.58-32.38-5.45-47.31c-8.1-15.06-20.44-25.48-36.69-30.81
		c-29.72-9.75-61.73,1.67-77.72,27.4c-15.05,24.2-11.28,56.42,9.09,77.43c10.18,10.5,22.65,16.85,37,19.03
		c22.22,3.38,41.3-3.8,57.75-18.78c2.43,1.98,4.64,3.62,6.63,5.49c0.82,0.77,1.19,2.03,1.72,3.09c1.06,2.13,1.6,4.79,3.21,6.32
		c11.35,10.73,22.94,21.2,34.42,31.79c6.39,5.9,16.55,5.43,22.05-1.08c5.95-7.04,4.97-16.6-2.62-22
		c-13.23-9.41-26.6-18.63-40.03-27.75c-1.44-0.98-3.66-1.11-5.52-1.11c-2.18-0.01-9.82-5.25-10.1-7.36
		c-0.05-0.35,0.08-0.74,0.21-1.08c2.14-5.82,6.2-10.18,10.93-13.95c0.55-0.44,1.86-0.25,2.69,0.02c18.31,5.87,33.02-0.18,45.56-13.6
		c1.51-1.62,1.58-2.88-0.76-3.51c-14.31-3.84-28.17-4.52-40.46,5.79c-0.4,0.34-0.94,0.51-1.56,0.83c0.27-4,0.39-3.73,3.41-5.14
		c4.14-1.94,8.51-3.79,12.02-6.63c10.82-8.74,12.26-21.15,12.25-33.95c0-2.38-1.25-2.79-3.19-1.64c-2.36,1.41-4.73,2.8-7.07,4.24
		c-13.78,8.44-20.83,20.18-19.22,36.85C336.43,422.73,332.2,428.24,327.19,433.06z"/>
	<path d="M327.19,433.06c5.02-4.82,9.24-10.33,8.56-17.4c-1.61-16.67,5.44-28.42,19.22-36.85c2.34-1.43,4.71-2.83,7.07-4.24
		c1.93-1.15,3.19-0.74,3.19,1.64c0.01,12.79-1.44,25.21-12.25,33.95c-3.51,2.83-7.87,4.69-12.02,6.63
		c-3.01,1.41-3.14,1.14-3.41,5.14c0.62-0.32,1.16-0.5,1.56-0.83c12.29-10.31,26.16-9.64,40.46-5.79c2.35,0.63,2.28,1.89,0.76,3.51
		c-12.54,13.43-27.25,19.47-45.56,13.6c-0.84-0.27-2.14-0.46-2.69-0.02c-4.73,3.78-8.79,8.13-10.93,13.95
		c-0.13,0.34-0.25,0.73-0.21,1.08c0.28,2.12,7.91,7.36,10.1,7.36c1.86,0,4.08,0.13,5.52,1.11c13.43,9.13,26.79,18.35,40.03,27.75
		c7.59,5.39,8.57,14.96,2.62,22c-5.5,6.51-15.66,6.98-22.05,1.08c-11.48-10.59-23.07-21.07-34.42-31.79
		c-1.62-1.53-2.15-4.2-3.21-6.32c-0.53-1.06-0.9-2.32-1.72-3.09c-1.99-1.87-4.2-3.51-6.63-5.49
		c-16.45,14.97-35.53,22.16-57.75,18.78c-14.34-2.18-26.82-8.53-37-19.03c-20.37-21.02-24.13-53.23-9.09-77.43
		c15.99-25.73,48-37.15,77.72-27.4c16.24,5.33,28.59,15.75,36.69,30.81C329.77,400.68,331.26,416.53,327.19,433.06z M326.23,415.39
		c0.11-33.49-28-60.84-62.63-60.95c-33.98-0.11-62.31,27.07-62.41,59.88c-0.11,34.46,27.43,61.97,62.19,62.15
		C298.01,476.64,326.12,449.33,326.23,415.39z M373.46,506.13c8.18-4.74,8.74-14.77,0.82-20.33c-11.43-8.02-22.86-16.03-34.36-23.95
		c-7.1-4.89-7.16-4.81-12.41,1.95c-0.21,0.27-0.27,0.65-0.42,1.04C342.48,478.54,357.82,492.2,373.46,506.13z M361.97,378.26
		c-14.22,5.07-27.22,21.99-23.15,34.16c5.07-6.84,10.16-13.71,15.25-20.59c0.29,0.21,0.58,0.43,0.87,0.64
		c-5.11,7.15-10.23,14.29-15.49,21.65C354.96,411.36,363.87,396.04,361.97,378.26z M337.82,429.98
		c13.08,5.31,31.53-0.83,39.42-12.31c-17.28-5.11-36.07-0.2-41.26,11.01c9.42-2.13,18.67-4.23,27.93-6.32
		c0.07,0.3,0.14,0.6,0.21,0.9C355.35,425.49,346.59,427.73,337.82,429.98z M325.39,466.59c-2.71,1.86-3.64,3.47-0.85,6
		c11.85,10.74,23.55,21.63,35.34,32.44c3.33,3.05,7.13,3.42,11.58,1.95C355.94,493.37,340.76,480.07,325.39,466.59z M327.53,458.21
		c-3.02-2.59-5.71-4.91-8.58-7.38c-1.77,2.3-3.4,4.43-5.19,6.77c2.87,2.48,5.56,4.81,8.44,7.3
		C324.06,462.57,325.66,460.56,327.53,458.21z"/>
	<path class="st0" d="M326.23,415.39c-0.11,33.94-28.21,61.25-62.85,61.07c-34.76-0.17-62.3-27.69-62.19-62.15
		c0.1-32.81,28.43-59.98,62.41-59.88C298.23,354.55,326.33,381.9,326.23,415.39z M263.05,468.51c29.82,0.47,54.55-22.81,55.05-51.82
		c0.51-29.73-22.72-53.62-52.56-54.06c-31.42-0.46-55.77,22.02-56.31,51.97C208.7,443.9,232.8,468.03,263.05,468.51z"/>
	<path class="st0" d="M373.46,506.13c-15.65-13.93-30.99-27.59-46.37-41.28c0.16-0.39,0.22-0.77,0.42-1.04
		c5.25-6.76,5.31-6.84,12.41-1.95c11.5,7.92,22.93,15.93,34.36,23.95C382.21,491.37,381.65,501.39,373.46,506.13z"/>
	<path class="st0" d="M361.97,378.26c1.91,17.78-7.01,33.09-22.52,35.87c5.26-7.36,10.38-14.5,15.49-21.65
		c-0.29-0.21-0.58-0.43-0.87-0.64c-5.09,6.88-10.19,13.75-15.25,20.59C334.75,400.25,347.75,383.34,361.97,378.26z"/>
	<path class="st0" d="M337.82,429.98c8.77-2.24,17.53-4.49,26.3-6.73c-0.07-0.3-0.14-0.6-0.21-0.9c-9.25,2.09-18.51,4.19-27.93,6.32
		c5.18-11.2,23.97-16.11,41.26-11.01C369.35,429.15,350.9,435.28,337.82,429.98z"/>
	<path class="st0" d="M325.39,466.59c15.37,13.47,30.54,26.78,46.06,40.38c-4.45,1.48-8.25,1.1-11.58-1.95
		c-11.79-10.8-23.49-21.7-35.34-32.44C321.75,470.06,322.69,468.45,325.39,466.59z"/>
	<path class="st0" d="M327.53,458.21c-1.87,2.34-3.48,4.35-5.33,6.68c-2.88-2.49-5.57-4.81-8.44-7.3c1.8-2.34,3.42-4.46,5.19-6.77
		C321.82,453.3,324.52,455.62,327.53,458.21z"/>
	<path d="M263.05,468.51c-30.25-0.47-54.34-24.61-53.82-53.91c0.54-29.95,24.89-52.43,56.31-51.97
		c29.84,0.43,53.07,24.32,52.56,54.06C317.59,445.69,292.86,468.97,263.05,468.51z M260.79,415.44c0.04-0.51,0.08-1.02,0.12-1.53
		c-4.02-1.11-8.02-2.32-12.07-3.31c-7.85-1.91-16.06-2.79-22.39-8.64c-5.77-5.33-11.06-1.23-12.69,3.93
		c-1.73,5.5-1.91,11.08-0.39,16.61c1.53,5.59,7.3,9.21,13.11,8.06C239.04,428.07,249.62,421.08,260.79,415.44z M263.45,418.47
		c-0.36-0.22-0.72-0.44-1.08-0.66c-1.3,0.83-2.71,1.53-3.9,2.5c-5.99,4.88-11.96,9.79-17.88,14.76c-4.58,3.85-9,8.04-7.64,14.77
		c1.46,7.2,7.41,9.82,13.55,12.03c3.56,1.28,6.54,0.05,8.69-2.59c1.6-1.97,2.91-4.41,3.57-6.86c1-3.7,1.43-7.58,1.93-11.4
		C261.67,433.51,262.53,425.99,263.45,418.47z M261.44,411.8c0.38-0.28,0.75-0.55,1.13-0.83c-2.59-10.5-5.01-21.04-7.81-31.48
		c-2.2-8.22-8.83-11.12-16.22-6.87c-4.5,2.59-8.5,6.1-12.49,9.48c-0.76,0.64-0.95,2.83-0.45,3.84c0.66,1.34,2.15,2.36,3.45,3.27
		c8.56,6.03,17.17,12,25.76,17.99C257.02,408.74,259.23,410.27,261.44,411.8z M267.7,412.87c0.19,0.35,0.37,0.69,0.56,1.04
		c8.06-0.73,16.14-1.31,24.17-2.28c3.29-0.4,6.64-1.27,9.69-2.58c6.46-2.77,9.37-8.81,6.83-15.35c-1.67-4.3-4.47-8.32-7.38-11.96
		c-3.19-3.98-4.52-3.84-7.36,0.44c-6.54,9.85-14.73,18.22-23,26.55C269.93,410,268.86,411.48,267.7,412.87z M266.32,418.54
		c-0.33,0.13-0.66,0.26-1,0.39c0.33,4.28,0.71,8.55,0.97,12.84c0.49,8.1,0.61,16.23,1.45,24.29c0.57,5.46,4.67,8.02,9.98,6.89
		c2.79-0.59,5.55-1.49,8.21-2.54c4.25-1.68,5.57-4.63,4.01-8.96c-0.67-1.86-1.68-3.64-2.78-5.28c-3.55-5.29-7.08-10.6-10.9-15.69
		C273.16,426.34,269.65,422.51,266.32,418.54z M268.57,415.67c-0.19,0.37-0.39,0.75-0.58,1.12c2.67,2.74,5.29,5.52,8.01,8.2
		c5.69,5.6,11.26,11.34,17.2,16.66c3.78,3.37,8.81,3.64,12.18,1.5c3.75-2.38,6.93-9.09,6.02-12.94c-1.19-5.03-5.04-6.69-9.61-7.56
		c-5.63-1.07-11.23-2.3-16.84-3.48C279.48,418.02,274.03,416.84,268.57,415.67z M264.51,410.72c0.5,0.18,1,0.37,1.49,0.55
		c2.56-4.18,5.3-8.27,7.64-12.56c2.86-5.24,5.39-10.66,8.08-15.99c0.95-1.89,2.16-3.68,2.88-5.65c1.56-4.28,0.06-7.33-4.21-8.75
		c-2.12-0.71-4.31-1.29-6.52-1.68c-7.97-1.39-11.39,1.33-11.27,9.42c0.13,8.61,0.69,17.21,1.13,25.81
		C263.89,404.83,264.25,407.77,264.51,410.72z M313.49,427.89c2.34-10.14,2.13-19.04-1.12-28.49c-1.74,8.9-7.63,12.58-15.19,14.11
		c-4.55,0.92-9.22,1.28-13.83,1.89c6.14,2.22,12.37,3.73,18.68,4.83C306.66,421.04,310.72,422.45,313.49,427.89z M230.25,453.21
		c-2.84-14.94,9.05-19.84,17.02-27.36c-10.35,4.14-20.06,11.44-32.71,4.76C218.07,439.97,222.97,447.11,230.25,453.21z
		 M249.64,407.71c0.23-0.36,0.46-0.72,0.69-1.08c-9.55-6.63-19.11-13.26-29.11-20.19c-2.04,3.71-4.11,7.49-6.19,11.26
		c4.92-1.52,8.89-1.37,12.53,1.75C233.93,404.9,241.74,406.43,249.64,407.71z M264.65,437.83c-0.35-0.02-0.7-0.03-1.06-0.05
		c-2.24,9.32-0.53,20.1-9.73,27.5c5.56,0,11.13,0,17.64,0c-5.71-3.27-6.63-8.02-6.81-12.98
		C264.51,447.48,264.65,442.66,264.65,437.83z M276.66,398.16c0.37,0.26,0.75,0.52,1.12,0.78c5.91-7.47,11.81-14.93,18.11-22.9
		c-2.71-1.63-5.12-3.09-7.85-4.73C287.53,382.2,279.32,388.99,276.66,398.16z M260.02,388.65c0.87-7.6-1.76-15.6,3.45-23.74
		c-5.92,0.99-10.74,1.8-15.56,2.61C258.32,371.3,256.9,381.17,260.02,388.65z M294.4,456.16c2.78-2.66,5.97-5.71,9.15-8.75
		c-0.17-0.3-0.34-0.59-0.5-0.89c-6.81,1.23-11.7-2.17-16.63-7.18C289.21,445.25,291.65,450.38,294.4,456.16z"/>
	<path class="st0" d="M260.79,415.44c-11.17,5.64-21.74,12.63-34.32,15.12c-5.81,1.15-11.58-2.47-13.11-8.06
		c-1.51-5.54-1.34-11.11,0.39-16.61c1.62-5.15,6.91-9.26,12.69-3.93c6.34,5.85,14.55,6.73,22.39,8.64c4.05,0.99,8.05,2.2,12.07,3.31
		C260.87,414.42,260.83,414.93,260.79,415.44z"/>
	<path class="st0" d="M263.45,418.47c-0.91,7.52-1.77,15.04-2.76,22.55c-0.5,3.82-0.93,7.7-1.93,11.4
		c-0.66,2.44-1.97,4.89-3.57,6.86c-2.16,2.65-5.13,3.88-8.69,2.59c-6.14-2.21-12.1-4.83-13.55-12.03
		c-1.36-6.73,3.06-10.92,7.64-14.77c5.92-4.97,11.88-9.88,17.88-14.76c1.19-0.97,2.59-1.67,3.9-2.5
		C262.72,418.03,263.08,418.25,263.45,418.47z"/>
	<path class="st0" d="M261.44,411.8c-2.21-1.53-4.42-3.06-6.63-4.6c-8.59-5.99-17.2-11.96-25.76-17.99
		c-1.3-0.92-2.79-1.93-3.45-3.27c-0.5-1.01-0.3-3.2,0.45-3.84c3.99-3.37,7.99-6.89,12.49-9.48c7.39-4.25,14.02-1.35,16.22,6.87
		c2.8,10.44,5.22,20.98,7.81,31.48C262.2,411.25,261.82,411.52,261.44,411.8z"/>
	<path class="st0" d="M267.7,412.87c1.16-1.39,2.23-2.87,3.5-4.15c8.27-8.32,16.46-16.7,23-26.55c2.84-4.27,4.17-4.41,7.36-0.44
		c2.92,3.64,5.71,7.65,7.38,11.96c2.54,6.54-0.37,12.58-6.83,15.35c-3.05,1.31-6.4,2.18-9.69,2.58c-8.03,0.97-16.11,1.54-24.17,2.28
		C268.07,413.56,267.89,413.22,267.7,412.87z M286.62,406.35c6.68-0.9,15.64-7.09,15.91-11.11
		C297.19,398.97,291.8,402.73,286.62,406.35z"/>
	<path class="st0" d="M266.32,418.54c3.33,3.97,6.84,7.79,9.94,11.93c3.82,5.09,7.34,10.41,10.9,15.69
		c1.11,1.65,2.12,3.42,2.78,5.28c1.56,4.33,0.24,7.28-4.01,8.96c-2.66,1.05-5.42,1.95-8.21,2.54c-5.31,1.13-9.41-1.43-9.98-6.89
		c-0.84-8.06-0.96-16.19-1.45-24.29c-0.26-4.28-0.64-8.56-0.97-12.84C265.65,418.8,265.98,418.67,266.32,418.54z"/>
	<path class="st0" d="M268.57,415.67c5.46,1.17,10.91,2.35,16.37,3.5c5.61,1.18,11.21,2.42,16.84,3.48
		c4.57,0.86,8.42,2.52,9.61,7.56c0.91,3.85-2.28,10.56-6.02,12.94c-3.37,2.14-8.4,1.87-12.18-1.5c-5.95-5.32-11.52-11.05-17.2-16.66
		c-2.72-2.68-5.34-5.46-8.01-8.2C268.18,416.42,268.38,416.04,268.57,415.67z"/>
	<path class="st0" d="M264.51,410.72c-0.26-2.95-0.62-5.9-0.77-8.86c-0.44-8.6-1-17.2-1.13-25.81c-0.12-8.09,3.3-10.81,11.27-9.42
		c2.2,0.38,4.39,0.97,6.52,1.68c4.27,1.42,5.77,4.47,4.21,8.75c-0.72,1.97-1.93,3.76-2.88,5.65c-2.69,5.33-5.22,10.76-8.08,15.99
		c-2.35,4.3-5.08,8.38-7.64,12.56C265.51,411.09,265.01,410.91,264.51,410.72z M272.31,390.42c0.32,0.09,0.64,0.19,0.96,0.28
		c1.1-3.23,2.21-6.46,3.31-9.68c-0.53-0.16-1.06-0.31-1.59-0.47C274.09,383.85,273.2,387.13,272.31,390.42z"/>
	<path class="st0" d="M313.49,427.89c-2.77-5.44-6.83-6.85-11.46-7.66c-6.31-1.1-12.54-2.62-18.68-4.83
		c4.61-0.61,9.28-0.97,13.83-1.89c7.56-1.52,13.44-5.2,15.19-14.11C315.62,408.85,315.82,417.75,313.49,427.89z"/>
	<path class="st0" d="M230.25,453.21c-7.29-6.1-12.18-13.24-15.68-22.6c12.65,6.67,22.36-0.62,32.71-4.76
		C239.31,433.37,227.41,438.27,230.25,453.21z"/>
	<path class="st0" d="M249.64,407.71c-7.9-1.28-15.7-2.81-22.07-8.26c-3.64-3.12-7.61-3.27-12.53-1.75
		c2.07-3.78,4.15-7.55,6.19-11.26c10,6.94,19.55,13.57,29.11,20.19C250.1,406.99,249.87,407.35,249.64,407.71z"/>
	<path class="st0" d="M264.65,437.83c0,4.82-0.14,9.65,0.04,14.47c0.18,4.96,1.1,9.71,6.81,12.98c-6.51,0-12.07,0-17.64,0
		c9.2-7.39,7.49-18.17,9.73-27.5C263.95,437.8,264.3,437.82,264.65,437.83z"/>
	<path class="st0" d="M276.66,398.16c2.67-9.17,10.87-15.95,11.39-26.84c2.72,1.64,5.13,3.09,7.85,4.73
		c-6.3,7.96-12.21,15.43-18.11,22.9C277.4,398.67,277.03,398.41,276.66,398.16z"/>
	<path class="st0" d="M260.02,388.65c-3.12-7.48-1.7-17.35-12.1-21.13c4.82-0.81,9.64-1.62,15.56-2.61
		C258.26,373.05,260.89,381.04,260.02,388.65z"/>
	<path class="st0" d="M294.4,456.16c-2.74-5.78-5.18-10.91-7.99-16.82c4.93,5.01,9.83,8.41,16.63,7.18c0.17,0.3,0.34,0.59,0.5,0.89
		C300.36,450.45,297.18,453.5,294.4,456.16z"/>
	<path d="M286.62,406.35c5.18-3.62,10.57-7.38,15.91-11.11C302.27,399.26,293.3,405.45,286.62,406.35z"/>
	<path d="M272.31,390.42c0.89-3.29,1.79-6.58,2.68-9.87c0.53,0.16,1.06,0.31,1.59,0.47c-1.1,3.23-2.21,6.46-3.31,9.68
		C272.95,390.61,272.63,390.52,272.31,390.42z"/>
</g>
</svg>
