<?xml version="1.0" encoding="utf-8"?>
<!-- Generator: Adobe Illustrator 23.0.1, SVG Export Plug-In . SVG Version: 6.00 Build 0)  -->
<svg version="1.1" id="Layer_1" xmlns="http://www.w3.org/2000/svg" xmlns:xlink="http://www.w3.org/1999/xlink" x="0px" y="0px"
	 viewBox="0 0 595.28 841.89" style="enable-background:new 0 0 595.28 841.89;" xml:space="preserve">
<style type="text/css">
	.st0{fill:#FFFFFF;}
</style>
<g>
	<path class="st0" d="M381.75,494.64c-55.5,0-111,0-166.5,0c0-48.75,0-97.5,0-146.25c55.5,0,111,0,166.5,0
		C381.75,397.14,381.75,445.89,381.75,494.64z M310.46,480.28c-0.04-0.41-0.07-0.82-0.11-1.23c-1.05,0.09-2.25-0.12-3.13,0.31
		c-4.71,2.32-9.41,2.41-14.06,0.05c-3.04-1.54-5.89-1.46-8.95-0.04c-5.97,2.78-11.73,2.1-16.99-1.75
		c-17.99-13.16-28.37-30.41-27.34-53.22c0.92-20.29,16.66-32.37,36.3-27.21c8.82,2.32,16.65,2.34,25.38-0.16
		c15.13-4.33,32.43,3.07,36.02,21.79c0.19,1.01,1.13,1.88,1.72,2.82c0.35-0.21,0.7-0.41,1.05-0.62c-0.64-7.34-3.28-13.94-8.74-19.06
		c-11.66-10.95-25.23-10.07-39.23-5.32c0.16-7.45,3.29-14.06,8.83-19.56c0.84-0.84,1.88-2.81,1.53-3.27
		c-1.23-1.61-2.85-3.34-4.67-3.94c-1.12-0.37-3.39,0.85-4.27,2.02c-2.18,2.86-3.85,6.11-5.76,9.25c-0.19-0.36-0.42-0.67-0.52-1.01
		c-4.65-16.29-19.14-21.81-32.73-21.1c-1.66,0.09-3.14,0.12-3.08,2.64c0.34,13.79,11.36,26.38,25.07,28.15
		c3.12,0.4,6.33,0.06,9.38,0.06c0,2.52,0,4.72,0,7.2c-3.16-0.93-5.97-1.9-8.85-2.57c-19.2-4.46-35.07,4.98-39.22,23.26
		c-5.14,22.63,9.51,53.27,30.34,63.57c4.73,2.34,9.64,3.12,14.48,1.06c4.12-1.75,7.69-1.45,11.77,0.17
		C300.21,484.78,305.61,483.61,310.46,480.28z M353.59,439.76c-0.09-0.01-0.18-0.02-0.26-0.03c0-2.5-0.17-5.01,0.04-7.49
		c0.24-2.88-0.8-4.34-3.71-4.87c-7.68-1.38-14.95-3.92-21.64-8.05c-0.92-0.57-2.78-0.61-3.68-0.05c-7.03,4.32-14.67,6.89-22.74,8.25
		c-2.31,0.39-3.13,1.49-3.03,3.78c0.27,6.11,0.17,12.25,0.63,18.35c1.23,16.28,9.87,27.66,24.09,34.98
		c1.57,0.81,4.27,0.77,5.86-0.04c12.43-6.24,20.76-15.87,23.04-29.93C352.97,449.75,353.13,444.73,353.59,439.76z M247.8,419.13
		c2.07-3.3,3.62-7.06,6.3-9.68c2.76-2.7,6.62-4.28,10.03-6.37c-2.81-1.54-8.24,0.52-12.16,4.54
		C247.98,411.7,246.22,416.44,247.8,419.13z"/>
	<path d="M310.46,480.28c-4.84,3.33-10.24,4.5-15.78,2.3c-4.08-1.62-7.65-1.92-11.77-0.17c-4.84,2.05-9.75,1.28-14.48-1.06
		c-20.83-10.31-35.48-40.94-30.34-63.57c4.15-18.28,20.02-27.72,39.22-23.26c2.88,0.67,5.68,1.64,8.85,2.57c0-2.48,0-4.68,0-7.2
		c-3.05,0-6.26,0.34-9.38-0.06c-13.71-1.77-24.74-14.36-25.07-28.15c-0.06-2.53,1.42-2.56,3.08-2.64
		c13.59-0.7,28.08,4.81,32.73,21.1c0.1,0.35,0.33,0.65,0.52,1.01c1.91-3.14,3.59-6.39,5.76-9.25c0.89-1.17,3.15-2.39,4.27-2.02
		c1.83,0.6,3.44,2.33,4.67,3.94c0.35,0.46-0.69,2.43-1.53,3.27c-5.54,5.5-8.67,12.12-8.83,19.56c14-4.75,27.56-5.63,39.23,5.32
		c5.45,5.12,8.09,11.72,8.74,19.06c-0.35,0.21-0.7,0.41-1.05,0.62c-0.59-0.94-1.53-1.81-1.72-2.82
		c-3.59-18.72-20.88-26.12-36.02-21.79c-8.73,2.5-16.56,2.48-25.38,0.16c-19.64-5.17-35.38,6.92-36.3,27.21
		c-1.03,22.81,9.35,40.06,27.34,53.22c5.26,3.85,11.03,4.53,16.99,1.75c3.06-1.42,5.91-1.51,8.95,0.04
		c4.65,2.36,9.34,2.27,14.06-0.05c0.88-0.43,2.08-0.22,3.13-0.31C310.39,479.46,310.42,479.87,310.46,480.28z M254.61,362.05
		c0.85,16.53,17.19,29.71,31.26,24.34c-7.17-5.64-14.03-11.04-20.89-16.44c0.23-0.28,0.46-0.56,0.69-0.84
		c6.77,5.24,13.54,10.47,20.53,15.87C283.37,369.18,268.85,358.79,254.61,362.05z M300.35,374.54c-1.54-2.27-2.99-3.36-4.71-1.15
		c-5.35,6.9-7.46,14.8-6.91,23.46c0,0.07,0.37,0.12,0.95,0.29C290.24,388.26,293.76,380.73,300.35,374.54z"/>
	<path d="M353.59,439.76c-0.45,4.97-0.61,9.99-1.41,14.91c-2.27,14.06-10.61,23.69-23.04,29.93c-1.6,0.8-4.29,0.84-5.86,0.04
		c-14.22-7.32-22.87-18.7-24.09-34.98c-0.46-6.1-0.35-12.23-0.63-18.35c-0.1-2.3,0.71-3.39,3.03-3.78
		c8.07-1.36,15.71-3.93,22.74-8.25c0.91-0.56,2.76-0.52,3.68,0.05c6.7,4.13,13.96,6.67,21.64,8.05c2.92,0.52,3.96,1.98,3.71,4.87
		c-0.21,2.48-0.04,5-0.04,7.49C353.41,439.74,353.5,439.75,353.59,439.76z M301.64,431.39c0,5.56-0.38,11.82,0.08,18.02
		c1.12,15.14,9.22,25.77,22.38,32.77c1.02,0.54,2.78,0.69,3.74,0.18c11.53-6.08,19.8-14.9,21.69-28.25
		c0.94-6.65,0.78-13.45,1.32-20.17c0.22-2.78-0.84-3.74-3.45-4.56c-6.5-2.06-12.84-4.66-19.26-6.98c-0.95-0.35-2.18-0.85-2.99-0.53
		C317.42,424.89,309.75,428.08,301.64,431.39z"/>
	<path d="M247.8,419.13c-1.58-2.7,0.17-7.43,4.16-11.51c3.92-4.01,9.35-6.08,12.16-4.54c-3.42,2.09-7.27,3.67-10.03,6.37
		C251.42,412.07,249.87,415.83,247.8,419.13z"/>
	<path class="st0" d="M254.61,362.05c14.24-3.26,28.76,7.13,31.58,22.93c-6.99-5.4-13.76-10.64-20.53-15.87
		c-0.23,0.28-0.46,0.56-0.69,0.84c6.86,5.4,13.72,10.8,20.89,16.44C271.81,391.77,255.46,378.58,254.61,362.05z"/>
	<path class="st0" d="M300.35,374.54c-6.59,6.19-10.11,13.72-10.68,22.6c-0.57-0.17-0.94-0.22-0.95-0.29
		c-0.55-8.66,1.56-16.56,6.91-23.46C297.36,371.18,298.82,372.26,300.35,374.54z"/>
	<path class="st0" d="M301.64,431.39c8.11-3.31,15.78-6.5,23.52-9.53c0.81-0.32,2.04,0.19,2.99,0.53
		c6.42,2.33,12.75,4.92,19.26,6.98c2.6,0.83,3.67,1.78,3.45,4.56c-0.54,6.72-0.38,13.52-1.32,20.17
		c-1.89,13.35-10.17,22.17-21.69,28.25c-0.97,0.51-2.73,0.36-3.74-0.18c-13.16-7-21.26-17.63-22.38-32.77
		C301.26,443.21,301.64,436.95,301.64,431.39z M346.35,442.72c0-1.7-0.17-3.59,0.04-5.44c0.31-2.72-0.7-3.81-3.41-4.6
		c-5.11-1.49-10.01-3.73-15.05-5.48c-1.11-0.38-2.58-0.36-3.69,0.02c-5.28,1.82-10.43,4.05-15.76,5.68
		c-2.25,0.69-3.11,1.55-2.98,3.81c0.23,3.86,0.28,7.73,0.45,11.59c0.6,12.97,7.14,22.29,17.96,28.86c1.02,0.62,3.01,0.74,4,0.15
		c8.97-5.31,15.41-12.62,17.13-23.28C345.64,450.36,345.91,446.62,346.35,442.72z"/>
	<path d="M346.35,442.72c-0.44,3.9-0.71,7.64-1.31,11.32c-1.73,10.65-8.17,17.97-17.13,23.28c-0.99,0.58-2.97,0.47-4-0.15
		c-10.82-6.57-17.37-15.89-17.96-28.86c-0.18-3.86-0.22-7.73-0.45-11.59c-0.14-2.26,0.73-3.13,2.98-3.81
		c5.33-1.63,10.48-3.86,15.76-5.68c1.11-0.38,2.59-0.4,3.69-0.02c5.04,1.75,9.94,3.99,15.05,5.48c2.71,0.79,3.72,1.87,3.41,4.6
		C346.18,439.13,346.35,441.02,346.35,442.72z M308.33,436.43c0,3.16-0.1,6.87,0.02,10.58c0.37,11.26,5.34,19.98,14.52,26.49
		c2.27,1.61,3.85,1.67,6.23,0.07c13.91-9.33,15.16-23.21,14.34-37.44c-5.65-2.19-10.84-4.25-16.07-6.2c-0.72-0.27-1.7-0.32-2.4-0.06
		C319.53,431.94,314.13,434.12,308.33,436.43z"/>
	<path class="st0" d="M308.33,436.43c5.8-2.3,11.19-4.48,16.63-6.56c0.7-0.27,1.68-0.21,2.4,0.06c5.23,1.96,10.43,4.01,16.07,6.2
		c0.83,14.23-0.42,28.11-14.34,37.44c-2.38,1.6-3.96,1.54-6.23-0.07c-9.17-6.51-14.14-15.23-14.52-26.49
		C308.23,443.3,308.33,439.59,308.33,436.43z"/>
</g>
</svg>
