<?xml version="1.0" encoding="utf-8"?>
<!-- Generator: Adobe Illustrator 23.0.1, SVG Export Plug-In . SVG Version: 6.00 Build 0)  -->
<svg version="1.1" id="Layer_1" xmlns="http://www.w3.org/2000/svg" xmlns:xlink="http://www.w3.org/1999/xlink" x="0px" y="0px"
	 viewBox="0 0 595.28 841.89" style="enable-background:new 0 0 595.28 841.89;" xml:space="preserve">
<style type="text/css">
	.st0{fill:#FFFFFF;}
</style>
<g>
	<path class="st0" d="M404.25,499.14c-70.5,0-141,0-211.5,0c0-51.25,0-102.5,0-153.75c70.5,0,141,0,211.5,0
		C404.25,396.64,404.25,447.89,404.25,499.14z M276.05,396.34c-3.24-0.92-6.17-1.93-9.18-2.58c-20.22-4.35-35.91,6.06-39.3,26
		c-3.71,21.83,10.7,51.03,30.42,60.83c3.27,1.63,7.42,2.07,11.16,2.03c4.97-0.05,9.55-4.34,15-0.8c0.5-0.8,0.99-1.6,1.49-2.4
		c-1.17-0.38-2.32-1.01-3.51-1.08c-2.38-0.14-5.05-0.64-7.13,0.2c-6.11,2.46-11.97,2.91-17.46-1.06
		c-19.71-14.25-30.08-33.05-27.23-57.85c1.41-12.29,9.91-21.6,21.86-23.49c5.15-0.81,10.92-0.66,15.87,0.83
		c7.46,2.25,14.09,2.29,21.71-0.03c20.19-6.14,35.57,4.34,38.9,25.35c0.11,0.72,0.58,1.39,0.99,2.31c2.26-3.32,0.7-11.88-3.78-18.27
		c-11.3-16.13-26.82-15.75-43.71-10.09c1.02-7.84,3.74-14.31,9.2-19.57c0.87-0.84,2.02-2.74,1.69-3.24
		c-1.11-1.68-2.64-3.48-4.42-4.18c-1.09-0.43-3.49,0.65-4.35,1.78c-2.28,3-4.04,6.38-6.06,9.7c-0.17-0.35-0.42-0.77-0.56-1.21
		c-4.65-14.48-17.86-23.01-32.99-21.11c-1.06,0.13-2.87,1.65-2.79,2.36c1.76,15.5,10.96,26.63,23.96,28.27
		c3.49,0.44,7.09,0.07,10.84,0.07C276.44,391.77,276.25,393.98,276.05,396.34z M298.83,429.54c-1.85,0.12-3.48,0.13-5.09,0.35
		c-3.85,0.53-6.3,2.81-6.34,6.66c-0.14,13.62-0.17,27.24-0.01,40.86c0.05,4.43,2.73,6.73,7.29,6.83c5.75,0.12,11.5,0.05,17.24,0.06
		c3.96,0.01,7.92,0,11.88,0c0.09-0.46,0.18-0.92,0.27-1.38c-1.28-0.37-2.55-1.04-3.84-1.05c-8-0.08-15.99,0.02-23.99,0.01
		c-5.11-0.01-6.5-1.39-6.54-6.4c-0.03-4.37-0.02-8.75-0.03-13.12c0-5.33,0-10.67,0-16.15c18.32,0,36.1,0,53.75,0
		c0.53,1.89,0.98,3.5,1.43,5.11c0.53-0.11,1.06-0.22,1.59-0.33c0-3.19,0-6.38,0-9.57c0.02-9.96-1.19-11.26-10.93-11.78
		c-0.23-0.01-0.45-0.18-0.63-0.25c-0.41-1.25-0.82-2.48-1.22-3.71c-0.31,0.04-0.61,0.09-0.92,0.13c-0.34,1.22-0.67,2.45-1.04,3.8
		c-9.92,0-19.76,0-29.56,0c-0.45-1.41-0.83-2.6-1.22-3.78c-0.3-0.01-0.6-0.02-0.9-0.03C299.65,426.96,299.28,428.14,298.83,429.54z
		 M354.7,470.11c0.05-8.91-6.97-16.22-15.64-16.29c-8.68-0.07-16.24,7.15-16.42,15.67c-0.19,8.93,7.01,16.37,15.93,16.47
		C347.26,486.07,354.65,478.81,354.7,470.11z M237.68,418.57c2.23-3.49,3.85-7.28,6.58-9.94c2.76-2.69,6.62-4.26,10.14-6.4
		c-3.52-1.62-9.65,1.26-13.67,6.14C237.12,412.76,236.04,416.36,237.68,418.57z M314.4,450.9c0,2.17,0,4.08,0,6.02
		c2.04,0,3.83,0,5.61,0c0-2.17,0-4.08,0-6.02C318.11,450.9,316.5,450.9,314.4,450.9z M300.61,451.28c-2.17,0-3.94,0-5.64,0
		c0,2.03,0,3.74,0,5.62c1.98,0,3.75,0,5.64,0C300.61,454.93,300.61,453.22,300.61,451.28z M310.15,451.23c-2.1,0-3.77,0-5.39,0
		c0,2.07,0,3.86,0,5.59c1.95,0,3.61,0,5.39,0C310.15,454.84,310.15,453.15,310.15,451.23z M300.56,461.29c-2.15,0-3.82,0-5.59,0
		c0,1.92,0,3.6,0,5.52c1.96,0,3.73,0,5.59,0C300.56,464.87,300.56,463.19,300.56,461.29z M310.03,466.86c0-1.96,0-3.82,0-5.54
		c-2,0-3.67,0-5.28,0c0,2.02,0,3.71,0,5.54C306.47,466.86,307.94,466.86,310.03,466.86z M295.01,476.59c2.08,0,3.74,0,5.43,0
		c0-2.02,0-3.78,0-5.53c-1.95,0-3.61,0-5.43,0C295.01,472.98,295.01,474.64,295.01,476.59z M304.64,476.56c2.09,0,3.77,0,5.4,0
		c0-2.07,0-3.86,0-5.56c-1.99,0-3.66,0-5.4,0C304.64,472.98,304.64,474.68,304.64,476.56z M320.03,461.37c-2.04,0-3.81,0-5.68,0
		c-0.06,1.11-0.14,1.95-0.13,2.8c0,0.83,0.09,1.66,0.14,2.44C319,467.32,319,467.32,320.03,461.37z M314.32,476.96
		c1.86-0.13,3.5-0.25,5.33-0.38c-0.47-2.29-0.81-3.94-1.19-5.78c-1.54,0.07-2.82,0.13-4.14,0.19
		C314.32,473.1,314.32,474.79,314.32,476.96z M329.76,451.86c-0.08-0.25-0.15-0.5-0.23-0.75c-1.76,0-3.53,0-5.37,0
		c0,1.68,0,3.08,0,4.85C326.26,454.42,328.01,453.14,329.76,451.86z"/>
	<path d="M276.05,396.34c0.2-2.36,0.39-4.56,0.61-7.25c-3.75,0-7.35,0.37-10.84-0.07c-13.01-1.64-22.2-12.78-23.96-28.27
		c-0.08-0.7,1.73-2.22,2.79-2.36c15.14-1.9,28.35,6.63,32.99,21.11c0.14,0.45,0.4,0.86,0.56,1.21c2.02-3.32,3.78-6.71,6.06-9.7
		c0.86-1.13,3.25-2.21,4.35-1.78c1.78,0.7,3.31,2.5,4.42,4.18c0.34,0.51-0.81,2.4-1.69,3.24c-5.46,5.26-8.18,11.73-9.2,19.57
		c16.89-5.66,32.41-6.04,43.71,10.09c4.47,6.39,6.03,14.95,3.78,18.27c-0.41-0.92-0.88-1.59-0.99-2.31
		c-3.33-21.01-18.71-31.49-38.9-25.35c-7.62,2.32-14.25,2.28-21.71,0.03c-4.95-1.49-10.72-1.65-15.87-0.83
		c-11.95,1.89-20.45,11.2-21.86,23.49c-2.85,24.81,7.52,43.61,27.23,57.85c5.49,3.97,11.35,3.52,17.46,1.06
		c2.08-0.83,4.74-0.34,7.13-0.2c1.19,0.07,2.34,0.7,3.51,1.08c-0.5,0.8-0.99,1.6-1.49,2.4c-5.45-3.54-10.03,0.75-15,0.8
		c-3.73,0.04-7.89-0.41-11.16-2.03c-19.72-9.8-34.12-39-30.42-60.83c3.38-19.93,19.08-30.35,39.3-26
		C269.88,394.4,272.81,395.42,276.05,396.34z M255.08,369.41c0.22-0.29,0.44-0.59,0.66-0.88c6.79,5.22,13.59,10.43,20.48,15.73
		c-1.88-15.22-18.64-27.18-31.54-22.7c1.52,16.86,16.43,28.83,31.43,24.24C268.81,380.12,261.95,374.77,255.08,369.41z
		 M279.25,396.26c1.34-8.75,4.89-16.27,11.09-22.39c-2.18-2.96-2.76-3.16-4.52-0.95C280.39,379.79,278.52,387.72,279.25,396.26z"/>
	<path d="M298.83,429.54c0.45-1.4,0.82-2.58,1.2-3.76c0.3,0.01,0.6,0.02,0.9,0.03c0.38,1.19,0.76,2.38,1.22,3.78
		c9.8,0,19.63,0,29.56,0c0.37-1.35,0.71-2.58,1.04-3.8c0.31-0.04,0.61-0.09,0.92-0.13c0.4,1.23,0.81,2.46,1.22,3.71
		c0.18,0.08,0.4,0.24,0.63,0.25c9.74,0.52,10.95,1.83,10.93,11.78c-0.01,3.19,0,6.38,0,9.57c-0.53,0.11-1.06,0.22-1.59,0.33
		c-0.45-1.61-0.9-3.22-1.43-5.11c-17.65,0-35.43,0-53.75,0c0,5.48,0,10.82,0,16.15c0,4.37,0,8.75,0.03,13.12
		c0.03,5.01,1.43,6.39,6.54,6.4c8,0.01,16-0.08,23.99-0.01c1.28,0.01,2.56,0.68,3.84,1.05c-0.09,0.46-0.18,0.92-0.27,1.38
		c-3.96,0-7.92,0-11.88,0c-5.75-0.01-11.5,0.05-17.24-0.06c-4.56-0.09-7.24-2.4-7.29-6.83c-0.15-13.62-0.13-27.24,0.01-40.86
		c0.04-3.84,2.49-6.13,6.34-6.66C295.35,429.67,296.98,429.66,298.83,429.54z M331.81,432.58c-10.16,0-19.95,0-29.68,0
		c-0.34,1.52-0.62,2.76-0.9,4c-0.33,0.03-0.67,0.05-1,0.08c-0.44-1.36-0.88-2.73-1.31-4.08c-8.33-0.93-10.58,1.79-8.59,10.69
		c17.7,0,35.46,0,53.17,0c1.81-9.07-0.67-11.99-8.44-10.57c-0.57,1.33-1.09,2.56-1.61,3.79c-0.31-0.09-0.61-0.19-0.92-0.28
		C332.29,435.04,332.06,433.88,331.81,432.58z"/>
	<path d="M354.7,470.11c-0.05,8.7-7.44,15.96-16.13,15.86c-8.93-0.1-16.13-7.55-15.93-16.47c0.18-8.53,7.74-15.74,16.42-15.67
		C347.73,453.89,354.75,461.2,354.7,470.11z M325.33,470.01c0.07,7.5,5.89,13.43,13.18,13.44c7.53,0.01,13.54-5.98,13.58-13.52
		c0.04-7.53-5.99-13.66-13.43-13.67C331.27,456.26,325.26,462.46,325.33,470.01z"/>
	<path d="M237.68,418.57c-1.64-2.21-0.57-5.81,3.05-10.21c4.01-4.88,10.15-7.75,13.67-6.14c-3.52,2.14-7.37,3.71-10.14,6.4
		C241.53,411.29,239.91,415.09,237.68,418.57z"/>
	<path d="M314.4,450.9c2.11,0,3.71,0,5.61,0c0,1.94,0,3.85,0,6.02c-1.78,0-3.57,0-5.61,0C314.4,454.99,314.4,453.07,314.4,450.9z"/>
	<path d="M300.61,451.28c0,1.94,0,3.65,0,5.62c-1.89,0-3.67,0-5.64,0c0-1.89,0-3.59,0-5.62
		C296.67,451.28,298.44,451.28,300.61,451.28z"/>
	<path d="M310.15,451.23c0,1.92,0,3.61,0,5.59c-1.79,0-3.45,0-5.39,0c0-1.73,0-3.52,0-5.59
		C306.38,451.23,308.05,451.23,310.15,451.23z"/>
	<path d="M300.56,461.29c0,1.9,0,3.58,0,5.52c-1.86,0-3.62,0-5.59,0c0-1.92,0-3.6,0-5.52C296.73,461.29,298.41,461.29,300.56,461.29
		z"/>
	<path d="M310.03,466.86c-2.09,0-3.56,0-5.28,0c0-1.83,0-3.51,0-5.54c1.61,0,3.28,0,5.28,0
		C310.03,463.04,310.03,464.9,310.03,466.86z"/>
	<path d="M295.01,476.59c0-1.95,0-3.62,0-5.53c1.82,0,3.48,0,5.43,0c0,1.76,0,3.51,0,5.53
		C298.75,476.59,297.09,476.59,295.01,476.59z"/>
	<path d="M304.64,476.56c0-1.88,0-3.58,0-5.56c1.75,0,3.42,0,5.4,0c0,1.7,0,3.48,0,5.56C308.41,476.56,306.73,476.56,304.64,476.56z
		"/>
	<path d="M320.03,461.37c-1.03,5.95-1.03,5.95-5.68,5.24c-0.05-0.78-0.13-1.61-0.14-2.44c0-0.85,0.08-1.7,0.13-2.8
		C316.22,461.37,317.99,461.37,320.03,461.37z"/>
	<path d="M314.32,476.96c0-2.17,0-3.86,0-5.97c1.32-0.06,2.6-0.12,4.14-0.19c0.38,1.84,0.72,3.49,1.19,5.78
		C317.82,476.71,316.18,476.83,314.32,476.96z"/>
	<path d="M329.76,451.86c-1.75,1.28-3.5,2.57-5.6,4.1c0-1.77,0-3.17,0-4.85c1.84,0,3.6,0,5.37,0
		C329.61,451.36,329.68,451.61,329.76,451.86z"/>
	<path class="st0" d="M255.08,369.41c6.87,5.35,13.74,10.71,21.03,16.39c-15,4.59-29.91-7.38-31.43-24.24
		c12.9-4.49,29.66,7.47,31.54,22.7c-6.9-5.3-13.69-10.51-20.48-15.73C255.51,368.83,255.29,369.12,255.08,369.41z"/>
	<path class="st0" d="M279.25,396.26c-0.73-8.54,1.14-16.48,6.57-23.34c1.75-2.21,2.33-2.01,4.52,0.95
		C284.14,379.99,280.59,387.51,279.25,396.26z"/>
	<path class="st0" d="M331.81,432.58c0.26,1.3,0.49,2.46,0.72,3.62c0.31,0.09,0.61,0.19,0.92,0.28c0.52-1.23,1.04-2.45,1.61-3.79
		c7.77-1.42,10.24,1.5,8.44,10.57c-17.71,0-35.46,0-53.17,0c-1.99-8.9,0.26-11.62,8.59-10.69c0.43,1.35,0.87,2.71,1.31,4.08
		c0.33-0.03,0.67-0.05,1-0.08c0.28-1.24,0.56-2.48,0.9-4C311.85,432.58,321.65,432.58,331.81,432.58z"/>
	<path class="st0" d="M325.33,470.01c-0.07-7.56,5.94-13.76,13.33-13.75c7.45,0,13.47,6.13,13.43,13.67
		c-0.04,7.55-6.05,13.53-13.58,13.52C331.22,483.45,325.4,477.51,325.33,470.01z M336.44,476.93c3.35-3.72,6.47-7.08,9.44-10.56
		c0.59-0.69,0.62-1.85,0.91-2.79c-1,0.38-2.27,0.5-2.94,1.2c-2.54,2.66-4.89,5.5-7.49,8.48c-1.43-1.53-2.45-2.8-3.66-3.84
		c-0.54-0.46-1.46-0.48-2.21-0.7c0.16,0.83,0.06,1.87,0.53,2.44C332.52,472.98,334.23,474.62,336.44,476.93z"/>
	<path d="M336.44,476.93c-2.2-2.31-3.91-3.95-5.41-5.77c-0.47-0.57-0.37-1.62-0.53-2.44c0.75,0.22,1.67,0.23,2.21,0.7
		c1.21,1.04,2.23,2.31,3.66,3.84c2.6-2.97,4.95-5.82,7.49-8.48c0.67-0.7,1.94-0.81,2.94-1.2c-0.29,0.94-0.32,2.1-0.91,2.79
		C342.9,469.85,339.79,473.21,336.44,476.93z"/>
</g>
</svg>
